  0
SECTION
  2
HEADER
  9
$ACADVER
  1
AC1014
  9
$HANDSEED
  5
FFFF
  9
$MEASUREMENT
 70
     1
  0
ENDSEC
  0
SECTION
  2
TABLES
  0
TABLE
  2
VPORT
  5
8
330
0
100
AcDbSymbolTable
 70
     4
  0
VPORT
  5
2E
330
8
100
AcDbSymbolTableRecord
100
AcDbViewportTableRecord
  2
*ACTIVE
 70
     0
 10
0.0
 20
0.0
 11
1.0
 21
1.0
 12
210.0
 22
148.5
 13
0.0
 23
0.0
 14
10.0
 24
10.0
 15
10.0
 25
10.0
 16
0.0
 26
0.0
 36
1.0
 17
0.0
 27
0.0
 37
0.0
 40
341.0
 41
1.24
 42
50.0
 43
0.0
 44
0.0
 50
0.0
 51
0.0
 71
     0
 72
   100
 73
     1
 74
     3
 75
     0
 76
     0
 77
     0
 78
     0
  0
ENDTAB
  0
TABLE
  2
LTYPE
  5
5
330
0
100
AcDbSymbolTable
 70
     1
  0
LTYPE
  5
14
330
5
100
AcDbSymbolTableRecord
100
AcDbLinetypeTableRecord
  2
BYBLOCK
 70
     0
  3

 72
    65
 73
     0
 40
0.0
  0
LTYPE
  5
15
330
5
100
AcDbSymbolTableRecord
100
AcDbLinetypeTableRecord
  2
BYLAYER
 70
     0
  3

 72
    65
 73
     0
 40
0.0
  0
LTYPE
  5
16
330
5
100
AcDbSymbolTableRecord
100
AcDbLinetypeTableRecord
  2
CONTINUOUS
 70
     0
  3
Solid line
 72
    65
 73
     0
 40
0.0
  0
ENDTAB
  0
TABLE
  2
LAYER
  5
2
100
AcDbSymbolTable
 70
1
  0
LAYER
  5
50
100
AcDbSymbolTableRecord
100
AcDbLayerTableRecord
  2
0
 70
0
  6
CONTINUOUS
  0
ENDTAB
  0
TABLE
  2
STYLE
  5
3
330
0
100
AcDbSymbolTable
 70
     1
  0
STYLE
  5
11
330
3
100
AcDbSymbolTableRecord
100
AcDbTextStyleTableRecord
  2
STANDARD
 70
     0
 40
0.0
 41
1.0
 50
0.0
 71
     0
 42
2.5
  3
txt
  4

  0
ENDTAB
  0
TABLE
  2
VIEW
  5
6
330
0
100
AcDbSymbolTable
 70
     0
  0
ENDTAB
  0
TABLE
  2
UCS
  5
7
330
0
100
AcDbSymbolTable
 70
     0
  0
ENDTAB
  0
TABLE
  2
APPID
  5
9
330
0
100
AcDbSymbolTable
 70
     2
  0
APPID
  5
12
330
9
100
AcDbSymbolTableRecord
100
AcDbRegAppTableRecord
  2
ACAD
 70
     0
  0
ENDTAB
  0
TABLE
  2
DIMSTYLE
  5
A
330
0
100
AcDbSymbolTable
 70
     1
  0
DIMSTYLE
105
27
330
A
100
AcDbSymbolTableRecord
100
AcDbDimStyleTableRecord
  2
ISO-25
 70
     0
  3

  4

  5

  6

  7

 40
1.0
 41
2.5
 42
0.625
 43
3.75
 44
1.25
 45
0.0
 46
0.0
 47
0.0
 48
0.0
140
2.5
141
2.5
142
0.0
143
0.03937007874016
144
1.0
145
0.0
146
1.0
147
0.625
 71
     0
 72
     0
 73
     0
 74
     0
 75
     0
 76
     0
 77
     1
 78
     8
170
     0
171
     3
172
     1
173
     0
174
     0
175
     0
176
     0
177
     0
178
     0
270
     2
271
     2
272
     2
273
     2
274
     3
340
11
275
     0
280
     0
281
     0
282
     0
283
     0
284
     8
285
     0
286
     0
287
     3
288
     0
  0
ENDTAB
  0
TABLE
  2
BLOCK_RECORD
  5
1
330
0
100
AcDbSymbolTable
 70
     1
  0
BLOCK_RECORD
  5
1F
330
1
100
AcDbSymbolTableRecord
100
AcDbBlockTableRecord
  2
*MODEL_SPACE
  0
BLOCK_RECORD
  5
1B
330
1
100
AcDbSymbolTableRecord
100
AcDbBlockTableRecord
  2
*PAPER_SPACE
  0
ENDTAB
  0
ENDSEC
  0
SECTION
  2
BLOCKS
  0
BLOCK
  5
20
330
1F
100
AcDbEntity
  8
0
100
AcDbBlockBegin
  2
*MODEL_SPACE
 70
     0
 10
0.0
 20
0.0
 30
0.0
  3
*MODEL_SPACE
  1

  0
ENDBLK
  5
21
330
1F
100
AcDbEntity
  8
0
100
AcDbBlockEnd
  0
BLOCK
  5
1C
330
1B
100
AcDbEntity
 67
     1
  8
0
100
AcDbBlockBegin
  2
*PAPER_SPACE
  1

  0
ENDBLK
  5
1D
330
1B
100
AcDbEntity
 67
     1
  8
0
100
AcDbBlockEnd
  0
ENDSEC
  0
SECTION
  2
ENTITIES
  0
LWPOLYLINE
  5
100
100
AcDbEntity
  8
0
 62
7
100
AcDbPolyline
 90
53
 70
0
 10
1.634055
 20
139.536019
 30
0.0
 10
1.634055
 20
148.536018
 30
0.0
 10
8.159055
 20
148.536018
 30
0.0
 10
8.159055
 20
162.036019
 30
0.0
 10
1.634055
 20
162.036019
 30
0.0
 10
1.634055
 20
171.036018
 30
0.0
 10
8.159055
 20
171.036018
 30
0.0
 10
8.159055
 20
182.786019
 30
0.0
 10
29.159056
 20
182.786019
 30
0.0
 10
29.159056
 20
189.311019
 30
0.0
 10
38.159055
 20
189.311019
 30
0.0
 10
38.159055
 20
182.786019
 30
0.0
 10
51.659056
 20
182.786019
 30
0.0
 10
51.659056
 20
189.311019
 30
0.0
 10
60.659055
 20
189.311019
 30
0.0
 10
60.659055
 20
182.786019
 30
0.0
 10
105.659055
 20
182.786019
 30
0.0
 10
105.659055
 20
189.311019
 30
0.0
 10
114.659054
 20
189.311019
 30
0.0
 10
114.659054
 20
182.786019
 30
0.0
 10
128.159056
 20
182.786019
 30
0.0
 10
128.159056
 20
189.311019
 30
0.0
 10
137.159055
 20
189.311019
 30
0.0
 10
137.159055
 20
182.786019
 30
0.0
 10
158.159055
 20
182.786019
 30
0.0
 10
158.159055
 20
171.036018
 30
0.0
 10
164.684055
 20
171.036018
 30
0.0
 10
164.684055
 20
162.036019
 30
0.0
 10
158.159055
 20
162.036019
 30
0.0
 10
158.159055
 20
148.536018
 30
0.0
 10
164.684055
 20
148.536018
 30
0.0
 10
164.684055
 20
139.536019
 30
0.0
 10
158.159055
 20
139.536019
 30
0.0
 10
158.159055
 20
127.786018
 30
0.0
 10
137.159055
 20
127.786018
 30
0.0
 10
137.159055
 20
121.261018
 30
0.0
 10
128.159056
 20
121.261018
 30
0.0
 10
128.159056
 20
127.786018
 30
0.0
 10
114.659054
 20
127.786018
 30
0.0
 10
114.659054
 20
121.261018
 30
0.0
 10
105.659055
 20
121.261018
 30
0.0
 10
105.659055
 20
127.786018
 30
0.0
 10
60.659055
 20
127.786018
 30
0.0
 10
60.659055
 20
121.261018
 30
0.0
 10
51.659056
 20
121.261018
 30
0.0
 10
51.659056
 20
127.786018
 30
0.0
 10
38.159055
 20
127.786018
 30
0.0
 10
38.159055
 20
121.261018
 30
0.0
 10
29.159056
 20
121.261018
 30
0.0
 10
29.159056
 20
127.786018
 30
0.0
 10
8.159055
 20
127.786018
 30
0.0
 10
8.159055
 20
139.536019
 30
0.0
 10
1.634055
 20
139.536019
 30
0.0
  0
LWPOLYLINE
  5
101
100
AcDbEntity
  8
0
 62
7
100
AcDbPolyline
 90
17
 70
0
 10
1.634055
 20
77.036017
 30
0.0
 10
1.634055
 20
86.036019
 30
0.0
 10
8.159055
 20
86.036019
 30
0.0
 10
8.159055
 20
99.536017
 30
0.0
 10
1.634055
 20
99.536017
 30
0.0
 10
1.634055
 20
108.536019
 30
0.0
 10
8.159055
 20
108.536019
 30
0.0
 10
8.159055
 20
120.286019
 30
0.0
 10
158.159055
 20
120.286019
 30
0.0
 10
158.159055
 20
108.536019
 30
0.0
 10
164.684055
 20
108.536019
 30
0.0
 10
164.684055
 20
99.536017
 30
0.0
 10
158.159055
 20
99.536017
 30
0.0
 10
158.159055
 20
86.036019
 30
0.0
 10
164.684055
 20
86.036019
 30
0.0
 10
164.684055
 20
77.036017
 30
0.0
 10
158.159055
 20
77.036017
 30
0.0
  0
LWPOLYLINE
  5
102
100
AcDbEntity
  8
0
 62
7
100
AcDbPolyline
 90
2
 70
0
 10
158.159055
 20
76.891076
 30
0.0
 10
158.159055
 20
53.072074
 30
0.0
  0
LWPOLYLINE
  5
103
100
AcDbEntity
  8
0
 62
7
100
AcDbPolyline
 90
4
 70
0
 10
158.159055
 20
52.786019
 30
0.0
 10
8.159055
 20
52.786019
 30
0.0
 10
8.159055
 20
77.036017
 30
0.0
 10
1.634055
 20
77.036017
 30
0.0
  0
LWPOLYLINE
  5
104
100
AcDbEntity
  8
0
 62
7
100
AcDbPolyline
 90
5
 70
0
 10
11.784055
 20
89.786018
 30
0.0
 10
11.784055
 20
95.786018
 30
0.0
 10
13.534055
 20
95.786018
 30
0.0
 10
13.534055
 20
89.786018
 30
0.0
 10
11.784055
 20
89.786018
 30
0.0
  0
LWPOLYLINE
  5
105
100
AcDbEntity
  8
0
 62
7
100
AcDbPolyline
 90
5
 70
0
 10
11.784055
 20
152.286017
 30
0.0
 10
11.784055
 20
158.286017
 30
0.0
 10
13.534055
 20
158.286017
 30
0.0
 10
13.534055
 20
152.286017
 30
0.0
 10
11.784055
 20
152.286017
 30
0.0
  0
LWPOLYLINE
  5
106
100
AcDbEntity
  8
0
 62
7
100
AcDbPolyline
 90
5
 70
0
 10
29.159056
 20
58.761019
 30
0.0
 10
29.159056
 20
65.311019
 30
0.0
 10
38.159055
 20
65.311019
 30
0.0
 10
38.159055
 20
58.761019
 30
0.0
 10
29.159056
 20
58.761019
 30
0.0
  0
LWPOLYLINE
  5
107
100
AcDbEntity
  8
0
 62
7
100
AcDbPolyline
 90
17
 70
0
 10
31.081054
 20
110.286017
 30
0.0
 10
31.391056
 20
111.847019
 30
0.0
 10
32.275055
 20
113.170017
 30
0.0
 10
33.598056
 20
114.054019
 30
0.0
 10
35.159055
 20
114.364018
 30
0.0
 10
36.720055
 20
114.054019
 30
0.0
 10
38.043056
 20
113.170017
 30
0.0
 10
38.927055
 20
111.847019
 30
0.0
 10
39.237054
 20
110.286017
 30
0.0
 10
38.927055
 20
108.725017
 30
0.0
 10
38.043056
 20
107.402019
 30
0.0
 10
36.720055
 20
106.518017
 30
0.0
 10
35.159055
 20
106.208019
 30
0.0
 10
33.598056
 20
106.518017
 30
0.0
 10
32.275055
 20
107.402019
 30
0.0
 10
31.391056
 20
108.725017
 30
0.0
 10
31.081054
 20
110.286017
 30
0.0
  0
LWPOLYLINE
  5
108
100
AcDbEntity
  8
0
 62
7
100
AcDbPolyline
 90
33
 70
0
 10
31.140056
 20
98.286018
 30
0.0
 10
31.217054
 20
99.070017
 30
0.0
 10
31.446055
 20
99.824019
 30
0.0
 10
31.817056
 20
100.519017
 30
0.0
 10
32.317055
 20
101.128019
 30
0.0
 10
32.926054
 20
101.628018
 30
0.0
 10
33.621054
 20
101.999018
 30
0.0
 10
34.375056
 20
102.228019
 30
0.0
 10
35.159055
 20
102.305018
 30
0.0
 10
35.943055
 20
102.228019
 30
0.0
 10
36.697054
 20
101.999018
 30
0.0
 10
37.392054
 20
101.628018
 30
0.0
 10
38.001056
 20
101.128019
 30
0.0
 10
38.501055
 20
100.519017
 30
0.0
 10
38.872056
 20
99.824019
 30
0.0
 10
39.101056
 20
99.070017
 30
0.0
 10
39.178055
 20
98.286018
 30
0.0
 10
39.101056
 20
97.502019
 30
0.0
 10
38.872056
 20
96.748017
 30
0.0
 10
38.501055
 20
96.053020
 30
0.0
 10
38.001056
 20
95.444018
 30
0.0
 10
37.392054
 20
94.944019
 30
0.0
 10
36.697054
 20
94.573018
 30
0.0
 10
35.943055
 20
94.344017
 30
0.0
 10
35.159055
 20
94.267019
 30
0.0
 10
34.375056
 20
94.344017
 30
0.0
 10
33.621054
 20
94.573018
 30
0.0
 10
32.926054
 20
94.944019
 30
0.0
 10
32.317055
 20
95.444018
 30
0.0
 10
31.817056
 20
96.053020
 30
0.0
 10
31.446055
 20
96.748017
 30
0.0
 10
31.217054
 20
97.502019
 30
0.0
 10
31.140056
 20
98.286018
 30
0.0
  0
LWPOLYLINE
  5
109
100
AcDbEntity
  8
0
 62
7
100
AcDbPolyline
 90
65
 70
0
 10
31.154054
 20
86.286017
 30
0.0
 10
31.173047
 20
86.679017
 30
0.0
 10
31.231055
 20
87.067019
 30
0.0
 10
31.327056
 20
87.449018
 30
0.0
 10
31.459054
 20
87.819017
 30
0.0
 10
31.627056
 20
88.174019
 30
0.0
 10
31.829056
 20
88.511017
 30
0.0
 10
32.063055
 20
88.827019
 30
0.0
 10
32.327054
 20
89.118018
 30
0.0
 10
32.618056
 20
89.382017
 30
0.0
 10
32.934055
 20
89.616019
 30
0.0
 10
33.271054
 20
89.818019
 30
0.0
 10
33.626055
 20
89.986018
 30
0.0
 10
33.996054
 20
90.118019
 30
0.0
 10
34.378056
 20
90.214017
 30
0.0
 10
34.766055
 20
90.272019
 30
0.0
 10
35.159055
 20
90.291013
 30
0.0
 10
35.552055
 20
90.272025
 30
0.0
 10
35.940055
 20
90.214017
 30
0.0
 10
36.322054
 20
90.118019
 30
0.0
 10
36.692055
 20
89.986018
 30
0.0
 10
37.047054
 20
89.818019
 30
0.0
 10
37.384056
 20
89.616019
 30
0.0
 10
37.700054
 20
89.382017
 30
0.0
 10
37.991054
 20
89.118018
 30
0.0
 10
38.255056
 20
88.827019
 30
0.0
 10
38.489055
 20
88.511017
 30
0.0
 10
38.691055
 20
88.174019
 30
0.0
 10
38.859054
 20
87.819017
 30
0.0
 10
38.991055
 20
87.449018
 30
0.0
 10
39.087055
 20
87.067019
 30
0.0
 10
39.145055
 20
86.679017
 30
0.0
 10
39.164048
 20
86.286017
 30
0.0
 10
39.145060
 20
85.893020
 30
0.0
 10
39.087055
 20
85.505018
 30
0.0
 10
38.991055
 20
85.123019
 30
0.0
 10
38.859054
 20
84.753017
 30
0.0
 10
38.691055
 20
84.398018
 30
0.0
 10
38.489055
 20
84.061019
 30
0.0
 10
38.255056
 20
83.745018
 30
0.0
 10
37.991054
 20
83.454018
 30
0.0
 10
37.700054
 20
83.190019
 30
0.0
 10
37.384056
 20
82.956018
 30
0.0
 10
37.047054
 20
82.754017
 30
0.0
 10
36.692055
 20
82.586019
 30
0.0
 10
36.322054
 20
82.454018
 30
0.0
 10
35.940055
 20
82.358017
 30
0.0
 10
35.552055
 20
82.300017
 30
0.0
 10
35.159055
 20
82.281024
 30
0.0
 10
34.766055
 20
82.300012
 30
0.0
 10
34.378056
 20
82.358017
 30
0.0
 10
33.996054
 20
82.454018
 30
0.0
 10
33.626055
 20
82.586019
 30
0.0
 10
33.271054
 20
82.754017
 30
0.0
 10
32.934055
 20
82.956018
 30
0.0
 10
32.618056
 20
83.190019
 30
0.0
 10
32.327054
 20
83.454018
 30
0.0
 10
32.063055
 20
83.745018
 30
0.0
 10
31.829056
 20
84.061019
 30
0.0
 10
31.627056
 20
84.398018
 30
0.0
 10
31.459054
 20
84.753017
 30
0.0
 10
31.327056
 20
85.123019
 30
0.0
 10
31.231055
 20
85.505018
 30
0.0
 10
31.173056
 20
85.893020
 30
0.0
 10
31.154062
 20
86.286017
 30
0.0
  0
LWPOLYLINE
  5
10a
100
AcDbEntity
  8
0
 62
7
100
AcDbPolyline
 90
129
 70
0
 10
31.158056
 20
74.286018
 30
0.0
 10
31.163051
 20
74.482019
 30
0.0
 10
31.177052
 20
74.678019
 30
0.0
 10
31.201044
 20
74.873018
 30
0.0
 10
31.235055
 20
75.067017
 30
0.0
 10
31.278054
 20
75.258017
 30
0.0
 10
31.330056
 20
75.447018
 30
0.0
 10
31.392055
 20
75.634019
 30
0.0
 10
31.462054
 20
75.817017
 30
0.0
 10
31.542056
 20
75.997019
 30
0.0
 10
31.630056
 20
76.172019
 30
0.0
 10
31.727055
 20
76.343017
 30
0.0
 10
31.832056
 20
76.509018
 30
0.0
 10
31.945055
 20
76.670017
 30
0.0
 10
32.066055
 20
76.824017
 30
0.0
 10
32.194054
 20
76.973019
 30
0.0
 10
32.330054
 20
77.115019
 30
0.0
 10
32.472054
 20
77.251019
 30
0.0
 10
32.621056
 20
77.379019
 30
0.0
 10
32.775054
 20
77.500018
 30
0.0
 10
32.936056
 20
77.613017
 30
0.0
 10
33.102056
 20
77.718018
 30
0.0
 10
33.273055
 20
77.815018
 30
0.0
 10
33.448055
 20
77.903018
 30
0.0
 10
33.628056
 20
77.983019
 30
0.0
 10
33.811055
 20
78.053019
 30
0.0
 10
33.998055
 20
78.115017
 30
0.0
 10
34.187054
 20
78.167017
 30
0.0
 10
34.378056
 20
78.210019
 30
0.0
 10
34.572056
 20
78.244018
 30
0.0
 10
34.767054
 20
78.268007
 30
0.0
 10
34.963055
 20
78.282017
 30
0.0
 10
35.159055
 20
78.287012
 30
0.0
 10
35.355056
 20
78.282022
 30
0.0
 10
35.551056
 20
78.268019
 30
0.0
 10
35.746055
 20
78.244030
 30
0.0
 10
35.940055
 20
78.210019
 30
0.0
 10
36.131054
 20
78.167017
 30
0.0
 10
36.320055
 20
78.115017
 30
0.0
 10
36.507056
 20
78.053019
 30
0.0
 10
36.690054
 20
77.983019
 30
0.0
 10
36.870056
 20
77.903018
 30
0.0
 10
37.045056
 20
77.815018
 30
0.0
 10
37.216055
 20
77.718018
 30
0.0
 10
37.382055
 20
77.613017
 30
0.0
 10
37.543054
 20
77.500018
 30
0.0
 10
37.697054
 20
77.379019
 30
0.0
 10
37.846054
 20
77.251019
 30
0.0
 10
37.988054
 20
77.115019
 30
0.0
 10
38.124054
 20
76.973019
 30
0.0
 10
38.252056
 20
76.824017
 30
0.0
 10
38.373056
 20
76.670017
 30
0.0
 10
38.486055
 20
76.509018
 30
0.0
 10
38.591055
 20
76.343017
 30
0.0
 10
38.688055
 20
76.172019
 30
0.0
 10
38.776055
 20
75.997019
 30
0.0
 10
38.856054
 20
75.817017
 30
0.0
 10
38.926056
 20
75.634019
 30
0.0
 10
38.988055
 20
75.447018
 30
0.0
 10
39.040054
 20
75.258017
 30
0.0
 10
39.083056
 20
75.067017
 30
0.0
 10
39.117056
 20
74.873018
 30
0.0
 10
39.141044
 20
74.678019
 30
0.0
 10
39.155054
 20
74.482019
 30
0.0
 10
39.160049
 20
74.286018
 30
0.0
 10
39.155060
 20
74.090018
 30
0.0
 10
39.141056
 20
73.894017
 30
0.0
 10
39.117067
 20
73.699019
 30
0.0
 10
39.083056
 20
73.505019
 30
0.0
 10
39.040054
 20
73.314019
 30
0.0
 10
38.988055
 20
73.125018
 30
0.0
 10
38.926056
 20
72.938018
 30
0.0
 10
38.856054
 20
72.755019
 30
0.0
 10
38.776055
 20
72.575018
 30
0.0
 10
38.688055
 20
72.400017
 30
0.0
 10
38.591055
 20
72.229019
 30
0.0
 10
38.486055
 20
72.063019
 30
0.0
 10
38.373056
 20
71.902019
 30
0.0
 10
38.252056
 20
71.748019
 30
0.0
 10
38.124054
 20
71.599017
 30
0.0
 10
37.988054
 20
71.457017
 30
0.0
 10
37.846054
 20
71.321017
 30
0.0
 10
37.697054
 20
71.193018
 30
0.0
 10
37.543054
 20
71.072018
 30
0.0
 10
37.382055
 20
70.959019
 30
0.0
 10
37.216055
 20
70.854018
 30
0.0
 10
37.045056
 20
70.757018
 30
0.0
 10
36.870056
 20
70.669019
 30
0.0
 10
36.690054
 20
70.589017
 30
0.0
 10
36.507056
 20
70.519018
 30
0.0
 10
36.320055
 20
70.457019
 30
0.0
 10
36.131054
 20
70.405017
 30
0.0
 10
35.940055
 20
70.362017
 30
0.0
 10
35.746055
 20
70.328018
 30
0.0
 10
35.551056
 20
70.304029
 30
0.0
 10
35.355056
 20
70.290020
 30
0.0
 10
35.159055
 20
70.285021
 30
0.0
 10
34.963055
 20
70.290014
 30
0.0
 10
34.767054
 20
70.304015
 30
0.0
 10
34.572056
 20
70.328007
 30
0.0
 10
34.378056
 20
70.362017
 30
0.0
 10
34.187054
 20
70.405017
 30
0.0
 10
33.998055
 20
70.457019
 30
0.0
 10
33.811055
 20
70.519018
 30
0.0
 10
33.628056
 20
70.589017
 30
0.0
 10
33.448055
 20
70.669019
 30
0.0
 10
33.273055
 20
70.757018
 30
0.0
 10
33.102056
 20
70.854018
 30
0.0
 10
32.936056
 20
70.959019
 30
0.0
 10
32.775054
 20
71.072018
 30
0.0
 10
32.621056
 20
71.193018
 30
0.0
 10
32.472054
 20
71.321017
 30
0.0
 10
32.330054
 20
71.457017
 30
0.0
 10
32.194054
 20
71.599017
 30
0.0
 10
32.066055
 20
71.748019
 30
0.0
 10
31.945055
 20
71.902019
 30
0.0
 10
31.832056
 20
72.063019
 30
0.0
 10
31.727055
 20
72.229019
 30
0.0
 10
31.630056
 20
72.400017
 30
0.0
 10
31.542056
 20
72.575018
 30
0.0
 10
31.462054
 20
72.755019
 30
0.0
 10
31.392055
 20
72.938018
 30
0.0
 10
31.330056
 20
73.125018
 30
0.0
 10
31.278054
 20
73.314019
 30
0.0
 10
31.235055
 20
73.505019
 30
0.0
 10
31.201055
 20
73.699019
 30
0.0
 10
31.177066
 20
73.894017
 30
0.0
 10
31.163057
 20
74.090018
 30
0.0
 10
31.158059
 20
74.286018
 30
0.0
  0
LWPOLYLINE
  5
10b
100
AcDbEntity
  8
0
 62
7
100
AcDbPolyline
 90
5
 70
0
 10
41.909055
 20
56.161018
 30
0.0
 10
41.909055
 20
57.911019
 30
0.0
 10
47.909054
 20
57.911019
 30
0.0
 10
47.909054
 20
56.161018
 30
0.0
 10
41.909055
 20
56.161018
 30
0.0
  0
LWPOLYLINE
  5
10c
100
AcDbEntity
  8
0
 62
7
100
AcDbPolyline
 90
5
 70
0
 10
41.909055
 20
66.161018
 30
0.0
 10
41.909055
 20
67.911019
 30
0.0
 10
47.909054
 20
67.911019
 30
0.0
 10
47.909054
 20
66.161018
 30
0.0
 10
41.909055
 20
66.161018
 30
0.0
  0
LWPOLYLINE
  5
10d
100
AcDbEntity
  8
0
 62
7
100
AcDbPolyline
 90
5
 70
0
 10
41.909055
 20
131.411019
 30
0.0
 10
41.909055
 20
133.161017
 30
0.0
 10
47.909054
 20
133.161017
 30
0.0
 10
47.909054
 20
131.411019
 30
0.0
 10
41.909055
 20
131.411019
 30
0.0
  0
LWPOLYLINE
  5
10e
100
AcDbEntity
  8
0
 62
7
100
AcDbPolyline
 90
5
 70
0
 10
41.909055
 20
177.411017
 30
0.0
 10
41.909055
 20
179.161018
 30
0.0
 10
47.909054
 20
179.161018
 30
0.0
 10
47.909054
 20
177.411017
 30
0.0
 10
41.909055
 20
177.411017
 30
0.0
  0
LWPOLYLINE
  5
10f
100
AcDbEntity
  8
0
 62
7
100
AcDbPolyline
 90
5
 70
0
 10
51.659056
 20
58.761019
 30
0.0
 10
51.659056
 20
65.311019
 30
0.0
 10
60.659055
 20
65.311019
 30
0.0
 10
60.659055
 20
58.761019
 30
0.0
 10
51.659056
 20
58.761019
 30
0.0
  0
LWPOLYLINE
  5
110
100
AcDbEntity
  8
0
 62
7
100
AcDbPolyline
 90
17
 70
0
 10
55.081054
 20
110.286017
 30
0.0
 10
55.391056
 20
111.847019
 30
0.0
 10
56.275055
 20
113.170017
 30
0.0
 10
57.598056
 20
114.054019
 30
0.0
 10
59.159055
 20
114.364018
 30
0.0
 10
60.720055
 20
114.054019
 30
0.0
 10
62.043056
 20
113.170017
 30
0.0
 10
62.927055
 20
111.847019
 30
0.0
 10
63.237056
 20
110.286017
 30
0.0
 10
62.927055
 20
108.725017
 30
0.0
 10
62.043056
 20
107.402019
 30
0.0
 10
60.720055
 20
106.518017
 30
0.0
 10
59.159055
 20
106.208019
 30
0.0
 10
57.598056
 20
106.518017
 30
0.0
 10
56.275055
 20
107.402019
 30
0.0
 10
55.391056
 20
108.725017
 30
0.0
 10
55.081054
 20
110.286017
 30
0.0
  0
LWPOLYLINE
  5
111
100
AcDbEntity
  8
0
 62
7
100
AcDbPolyline
 90
33
 70
0
 10
55.140056
 20
98.286018
 30
0.0
 10
55.217054
 20
99.070017
 30
0.0
 10
55.446055
 20
99.824019
 30
0.0
 10
55.817056
 20
100.519017
 30
0.0
 10
56.317055
 20
101.128019
 30
0.0
 10
56.926054
 20
101.628018
 30
0.0
 10
57.621054
 20
101.999018
 30
0.0
 10
58.375056
 20
102.228019
 30
0.0
 10
59.159055
 20
102.305018
 30
0.0
 10
59.943055
 20
102.228019
 30
0.0
 10
60.697056
 20
101.999018
 30
0.0
 10
61.392054
 20
101.628018
 30
0.0
 10
62.001056
 20
101.128019
 30
0.0
 10
62.501055
 20
100.519017
 30
0.0
 10
62.872056
 20
99.824019
 30
0.0
 10
63.101056
 20
99.070017
 30
0.0
 10
63.178055
 20
98.286018
 30
0.0
 10
63.101056
 20
97.502019
 30
0.0
 10
62.872056
 20
96.748017
 30
0.0
 10
62.501055
 20
96.053020
 30
0.0
 10
62.001056
 20
95.444018
 30
0.0
 10
61.392054
 20
94.944019
 30
0.0
 10
60.697056
 20
94.573018
 30
0.0
 10
59.943055
 20
94.344017
 30
0.0
 10
59.159055
 20
94.267019
 30
0.0
 10
58.375056
 20
94.344017
 30
0.0
 10
57.621054
 20
94.573018
 30
0.0
 10
56.926054
 20
94.944019
 30
0.0
 10
56.317055
 20
95.444018
 30
0.0
 10
55.817056
 20
96.053020
 30
0.0
 10
55.446055
 20
96.748017
 30
0.0
 10
55.217054
 20
97.502019
 30
0.0
 10
55.140056
 20
98.286018
 30
0.0
  0
LWPOLYLINE
  5
112
100
AcDbEntity
  8
0
 62
7
100
AcDbPolyline
 90
65
 70
0
 10
55.154054
 20
86.286017
 30
0.0
 10
55.173047
 20
86.679017
 30
0.0
 10
55.231055
 20
87.067019
 30
0.0
 10
55.327056
 20
87.449018
 30
0.0
 10
55.459054
 20
87.819017
 30
0.0
 10
55.627056
 20
88.174019
 30
0.0
 10
55.829056
 20
88.511017
 30
0.0
 10
56.063055
 20
88.827019
 30
0.0
 10
56.327054
 20
89.118018
 30
0.0
 10
56.618056
 20
89.382017
 30
0.0
 10
56.934055
 20
89.616019
 30
0.0
 10
57.271054
 20
89.818019
 30
0.0
 10
57.626055
 20
89.986018
 30
0.0
 10
57.996054
 20
90.118019
 30
0.0
 10
58.378056
 20
90.214017
 30
0.0
 10
58.766055
 20
90.272019
 30
0.0
 10
59.159055
 20
90.291013
 30
0.0
 10
59.552055
 20
90.272025
 30
0.0
 10
59.940055
 20
90.214017
 30
0.0
 10
60.322054
 20
90.118019
 30
0.0
 10
60.692055
 20
89.986018
 30
0.0
 10
61.047054
 20
89.818019
 30
0.0
 10
61.384056
 20
89.616019
 30
0.0
 10
61.700054
 20
89.382017
 30
0.0
 10
61.991054
 20
89.118018
 30
0.0
 10
62.255056
 20
88.827019
 30
0.0
 10
62.489055
 20
88.511017
 30
0.0
 10
62.691055
 20
88.174019
 30
0.0
 10
62.859054
 20
87.819017
 30
0.0
 10
62.991055
 20
87.449018
 30
0.0
 10
63.087055
 20
87.067019
 30
0.0
 10
63.145055
 20
86.679017
 30
0.0
 10
63.164048
 20
86.286017
 30
0.0
 10
63.145060
 20
85.893020
 30
0.0
 10
63.087055
 20
85.505018
 30
0.0
 10
62.991055
 20
85.123019
 30
0.0
 10
62.859054
 20
84.753017
 30
0.0
 10
62.691055
 20
84.398018
 30
0.0
 10
62.489055
 20
84.061019
 30
0.0
 10
62.255056
 20
83.745018
 30
0.0
 10
61.991054
 20
83.454018
 30
0.0
 10
61.700054
 20
83.190019
 30
0.0
 10
61.384056
 20
82.956018
 30
0.0
 10
61.047054
 20
82.754017
 30
0.0
 10
60.692055
 20
82.586019
 30
0.0
 10
60.322054
 20
82.454018
 30
0.0
 10
59.940055
 20
82.358017
 30
0.0
 10
59.552055
 20
82.300017
 30
0.0
 10
59.159055
 20
82.281024
 30
0.0
 10
58.766055
 20
82.300012
 30
0.0
 10
58.378056
 20
82.358017
 30
0.0
 10
57.996054
 20
82.454018
 30
0.0
 10
57.626055
 20
82.586019
 30
0.0
 10
57.271054
 20
82.754017
 30
0.0
 10
56.934055
 20
82.956018
 30
0.0
 10
56.618056
 20
83.190019
 30
0.0
 10
56.327054
 20
83.454018
 30
0.0
 10
56.063055
 20
83.745018
 30
0.0
 10
55.829056
 20
84.061019
 30
0.0
 10
55.627056
 20
84.398018
 30
0.0
 10
55.459054
 20
84.753017
 30
0.0
 10
55.327056
 20
85.123019
 30
0.0
 10
55.231055
 20
85.505018
 30
0.0
 10
55.173056
 20
85.893020
 30
0.0
 10
55.154062
 20
86.286017
 30
0.0
  0
LWPOLYLINE
  5
113
100
AcDbEntity
  8
0
 62
7
100
AcDbPolyline
 90
129
 70
0
 10
55.158056
 20
74.286018
 30
0.0
 10
55.163051
 20
74.482019
 30
0.0
 10
55.177052
 20
74.678019
 30
0.0
 10
55.201044
 20
74.873018
 30
0.0
 10
55.235054
 20
75.067017
 30
0.0
 10
55.278054
 20
75.258017
 30
0.0
 10
55.330056
 20
75.447018
 30
0.0
 10
55.392055
 20
75.634019
 30
0.0
 10
55.462054
 20
75.817017
 30
0.0
 10
55.542056
 20
75.997019
 30
0.0
 10
55.630056
 20
76.172019
 30
0.0
 10
55.727055
 20
76.343017
 30
0.0
 10
55.832056
 20
76.509018
 30
0.0
 10
55.945055
 20
76.670017
 30
0.0
 10
56.066055
 20
76.824017
 30
0.0
 10
56.194054
 20
76.973019
 30
0.0
 10
56.330054
 20
77.115019
 30
0.0
 10
56.472054
 20
77.251019
 30
0.0
 10
56.621056
 20
77.379019
 30
0.0
 10
56.775054
 20
77.500018
 30
0.0
 10
56.936056
 20
77.613017
 30
0.0
 10
57.102056
 20
77.718018
 30
0.0
 10
57.273055
 20
77.815018
 30
0.0
 10
57.448055
 20
77.903018
 30
0.0
 10
57.628056
 20
77.983019
 30
0.0
 10
57.811055
 20
78.053019
 30
0.0
 10
57.998055
 20
78.115017
 30
0.0
 10
58.187054
 20
78.167017
 30
0.0
 10
58.378056
 20
78.210019
 30
0.0
 10
58.572056
 20
78.244018
 30
0.0
 10
58.767054
 20
78.268007
 30
0.0
 10
58.963055
 20
78.282017
 30
0.0
 10
59.159055
 20
78.287012
 30
0.0
 10
59.355056
 20
78.282022
 30
0.0
 10
59.551056
 20
78.268019
 30
0.0
 10
59.746055
 20
78.244030
 30
0.0
 10
59.940055
 20
78.210019
 30
0.0
 10
60.131054
 20
78.167017
 30
0.0
 10
60.320055
 20
78.115017
 30
0.0
 10
60.507056
 20
78.053019
 30
0.0
 10
60.690054
 20
77.983019
 30
0.0
 10
60.870056
 20
77.903018
 30
0.0
 10
61.045056
 20
77.815018
 30
0.0
 10
61.216055
 20
77.718018
 30
0.0
 10
61.382055
 20
77.613017
 30
0.0
 10
61.543054
 20
77.500018
 30
0.0
 10
61.697054
 20
77.379019
 30
0.0
 10
61.846054
 20
77.251019
 30
0.0
 10
61.988054
 20
77.115019
 30
0.0
 10
62.124054
 20
76.973019
 30
0.0
 10
62.252056
 20
76.824017
 30
0.0
 10
62.373056
 20
76.670017
 30
0.0
 10
62.486055
 20
76.509018
 30
0.0
 10
62.591055
 20
76.343017
 30
0.0
 10
62.688055
 20
76.172019
 30
0.0
 10
62.776055
 20
75.997019
 30
0.0
 10
62.856056
 20
75.817017
 30
0.0
 10
62.926056
 20
75.634019
 30
0.0
 10
62.988055
 20
75.447018
 30
0.0
 10
63.040054
 20
75.258017
 30
0.0
 10
63.083056
 20
75.067017
 30
0.0
 10
63.117055
 20
74.873018
 30
0.0
 10
63.141044
 20
74.678019
 30
0.0
 10
63.155054
 20
74.482019
 30
0.0
 10
63.160049
 20
74.286018
 30
0.0
 10
63.155060
 20
74.090018
 30
0.0
 10
63.141056
 20
73.894017
 30
0.0
 10
63.117067
 20
73.699019
 30
0.0
 10
63.083056
 20
73.505019
 30
0.0
 10
63.040054
 20
73.314019
 30
0.0
 10
62.988055
 20
73.125018
 30
0.0
 10
62.926056
 20
72.938018
 30
0.0
 10
62.856056
 20
72.755019
 30
0.0
 10
62.776055
 20
72.575018
 30
0.0
 10
62.688055
 20
72.400017
 30
0.0
 10
62.591055
 20
72.229019
 30
0.0
 10
62.486055
 20
72.063019
 30
0.0
 10
62.373056
 20
71.902019
 30
0.0
 10
62.252056
 20
71.748019
 30
0.0
 10
62.124054
 20
71.599017
 30
0.0
 10
61.988054
 20
71.457017
 30
0.0
 10
61.846054
 20
71.321017
 30
0.0
 10
61.697054
 20
71.193018
 30
0.0
 10
61.543054
 20
71.072018
 30
0.0
 10
61.382055
 20
70.959019
 30
0.0
 10
61.216055
 20
70.854018
 30
0.0
 10
61.045056
 20
70.757018
 30
0.0
 10
60.870056
 20
70.669019
 30
0.0
 10
60.690054
 20
70.589017
 30
0.0
 10
60.507056
 20
70.519018
 30
0.0
 10
60.320055
 20
70.457019
 30
0.0
 10
60.131054
 20
70.405017
 30
0.0
 10
59.940055
 20
70.362017
 30
0.0
 10
59.746055
 20
70.328018
 30
0.0
 10
59.551056
 20
70.304029
 30
0.0
 10
59.355056
 20
70.290020
 30
0.0
 10
59.159055
 20
70.285021
 30
0.0
 10
58.963055
 20
70.290014
 30
0.0
 10
58.767054
 20
70.304015
 30
0.0
 10
58.572056
 20
70.328007
 30
0.0
 10
58.378056
 20
70.362017
 30
0.0
 10
58.187054
 20
70.405017
 30
0.0
 10
57.998055
 20
70.457019
 30
0.0
 10
57.811055
 20
70.519018
 30
0.0
 10
57.628056
 20
70.589017
 30
0.0
 10
57.448055
 20
70.669019
 30
0.0
 10
57.273055
 20
70.757018
 30
0.0
 10
57.102056
 20
70.854018
 30
0.0
 10
56.936056
 20
70.959019
 30
0.0
 10
56.775054
 20
71.072018
 30
0.0
 10
56.621056
 20
71.193018
 30
0.0
 10
56.472054
 20
71.321017
 30
0.0
 10
56.330054
 20
71.457017
 30
0.0
 10
56.194054
 20
71.599017
 30
0.0
 10
56.066055
 20
71.748019
 30
0.0
 10
55.945055
 20
71.902019
 30
0.0
 10
55.832056
 20
72.063019
 30
0.0
 10
55.727055
 20
72.229019
 30
0.0
 10
55.630056
 20
72.400017
 30
0.0
 10
55.542056
 20
72.575018
 30
0.0
 10
55.462054
 20
72.755019
 30
0.0
 10
55.392055
 20
72.938018
 30
0.0
 10
55.330056
 20
73.125018
 30
0.0
 10
55.278054
 20
73.314019
 30
0.0
 10
55.235054
 20
73.505019
 30
0.0
 10
55.201055
 20
73.699019
 30
0.0
 10
55.177066
 20
73.894017
 30
0.0
 10
55.163057
 20
74.090018
 30
0.0
 10
55.158059
 20
74.286018
 30
0.0
  0
LWPOLYLINE
  5
114
100
AcDbEntity
  8
0
 62
7
100
AcDbPolyline
 90
17
 70
0
 10
79.081054
 20
110.286017
 30
0.0
 10
79.391056
 20
111.847019
 30
0.0
 10
80.275055
 20
113.170017
 30
0.0
 10
81.598056
 20
114.054019
 30
0.0
 10
83.159055
 20
114.364018
 30
0.0
 10
84.720055
 20
114.054019
 30
0.0
 10
86.043056
 20
113.170017
 30
0.0
 10
86.927055
 20
111.847019
 30
0.0
 10
87.237056
 20
110.286017
 30
0.0
 10
86.927055
 20
108.725017
 30
0.0
 10
86.043056
 20
107.402019
 30
0.0
 10
84.720055
 20
106.518017
 30
0.0
 10
83.159055
 20
106.208019
 30
0.0
 10
81.598056
 20
106.518017
 30
0.0
 10
80.275055
 20
107.402019
 30
0.0
 10
79.391056
 20
108.725017
 30
0.0
 10
79.081054
 20
110.286017
 30
0.0
  0
LWPOLYLINE
  5
115
100
AcDbEntity
  8
0
 62
7
100
AcDbPolyline
 90
33
 70
0
 10
79.140056
 20
98.286018
 30
0.0
 10
79.217054
 20
99.070017
 30
0.0
 10
79.446055
 20
99.824019
 30
0.0
 10
79.817056
 20
100.519017
 30
0.0
 10
80.317055
 20
101.128019
 30
0.0
 10
80.926054
 20
101.628018
 30
0.0
 10
81.621054
 20
101.999018
 30
0.0
 10
82.375056
 20
102.228019
 30
0.0
 10
83.159055
 20
102.305018
 30
0.0
 10
83.943055
 20
102.228019
 30
0.0
 10
84.697056
 20
101.999018
 30
0.0
 10
85.392054
 20
101.628018
 30
0.0
 10
86.001056
 20
101.128019
 30
0.0
 10
86.501055
 20
100.519017
 30
0.0
 10
86.872056
 20
99.824019
 30
0.0
 10
87.101056
 20
99.070017
 30
0.0
 10
87.178055
 20
98.286018
 30
0.0
 10
87.101056
 20
97.502019
 30
0.0
 10
86.872056
 20
96.748017
 30
0.0
 10
86.501055
 20
96.053020
 30
0.0
 10
86.001056
 20
95.444018
 30
0.0
 10
85.392054
 20
94.944019
 30
0.0
 10
84.697056
 20
94.573018
 30
0.0
 10
83.943055
 20
94.344017
 30
0.0
 10
83.159055
 20
94.267019
 30
0.0
 10
82.375056
 20
94.344017
 30
0.0
 10
81.621054
 20
94.573018
 30
0.0
 10
80.926054
 20
94.944019
 30
0.0
 10
80.317055
 20
95.444018
 30
0.0
 10
79.817056
 20
96.053020
 30
0.0
 10
79.446055
 20
96.748017
 30
0.0
 10
79.217054
 20
97.502019
 30
0.0
 10
79.140056
 20
98.286018
 30
0.0
  0
LWPOLYLINE
  5
116
100
AcDbEntity
  8
0
 62
7
100
AcDbPolyline
 90
65
 70
0
 10
79.154054
 20
86.286017
 30
0.0
 10
79.173047
 20
86.679017
 30
0.0
 10
79.231055
 20
87.067019
 30
0.0
 10
79.327056
 20
87.449018
 30
0.0
 10
79.459054
 20
87.819017
 30
0.0
 10
79.627055
 20
88.174019
 30
0.0
 10
79.829056
 20
88.511017
 30
0.0
 10
80.063055
 20
88.827019
 30
0.0
 10
80.327054
 20
89.118018
 30
0.0
 10
80.618056
 20
89.382017
 30
0.0
 10
80.934055
 20
89.616019
 30
0.0
 10
81.271056
 20
89.818019
 30
0.0
 10
81.626055
 20
89.986018
 30
0.0
 10
81.996054
 20
90.118019
 30
0.0
 10
82.378056
 20
90.214017
 30
0.0
 10
82.766055
 20
90.272019
 30
0.0
 10
83.159055
 20
90.291013
 30
0.0
 10
83.552055
 20
90.272025
 30
0.0
 10
83.940055
 20
90.214017
 30
0.0
 10
84.322054
 20
90.118019
 30
0.0
 10
84.692055
 20
89.986018
 30
0.0
 10
85.047054
 20
89.818019
 30
0.0
 10
85.384056
 20
89.616019
 30
0.0
 10
85.700054
 20
89.382017
 30
0.0
 10
85.991054
 20
89.118018
 30
0.0
 10
86.255056
 20
88.827019
 30
0.0
 10
86.489055
 20
88.511017
 30
0.0
 10
86.691055
 20
88.174019
 30
0.0
 10
86.859056
 20
87.819017
 30
0.0
 10
86.991055
 20
87.449018
 30
0.0
 10
87.087055
 20
87.067019
 30
0.0
 10
87.145055
 20
86.679017
 30
0.0
 10
87.164048
 20
86.286017
 30
0.0
 10
87.145060
 20
85.893020
 30
0.0
 10
87.087055
 20
85.505018
 30
0.0
 10
86.991055
 20
85.123019
 30
0.0
 10
86.859056
 20
84.753017
 30
0.0
 10
86.691055
 20
84.398018
 30
0.0
 10
86.489055
 20
84.061019
 30
0.0
 10
86.255056
 20
83.745018
 30
0.0
 10
85.991054
 20
83.454018
 30
0.0
 10
85.700054
 20
83.190019
 30
0.0
 10
85.384056
 20
82.956018
 30
0.0
 10
85.047054
 20
82.754017
 30
0.0
 10
84.692055
 20
82.586019
 30
0.0
 10
84.322054
 20
82.454018
 30
0.0
 10
83.940055
 20
82.358017
 30
0.0
 10
83.552055
 20
82.300017
 30
0.0
 10
83.159055
 20
82.281024
 30
0.0
 10
82.766055
 20
82.300012
 30
0.0
 10
82.378056
 20
82.358017
 30
0.0
 10
81.996054
 20
82.454018
 30
0.0
 10
81.626055
 20
82.586019
 30
0.0
 10
81.271056
 20
82.754017
 30
0.0
 10
80.934055
 20
82.956018
 30
0.0
 10
80.618056
 20
83.190019
 30
0.0
 10
80.327054
 20
83.454018
 30
0.0
 10
80.063055
 20
83.745018
 30
0.0
 10
79.829056
 20
84.061019
 30
0.0
 10
79.627055
 20
84.398018
 30
0.0
 10
79.459054
 20
84.753017
 30
0.0
 10
79.327056
 20
85.123019
 30
0.0
 10
79.231055
 20
85.505018
 30
0.0
 10
79.173056
 20
85.893020
 30
0.0
 10
79.154062
 20
86.286017
 30
0.0
  0
LWPOLYLINE
  5
117
100
AcDbEntity
  8
0
 62
7
100
AcDbPolyline
 90
129
 70
0
 10
79.158056
 20
74.286018
 30
0.0
 10
79.163051
 20
74.482019
 30
0.0
 10
79.177052
 20
74.678019
 30
0.0
 10
79.201044
 20
74.873018
 30
0.0
 10
79.235054
 20
75.067017
 30
0.0
 10
79.278054
 20
75.258017
 30
0.0
 10
79.330056
 20
75.447018
 30
0.0
 10
79.392055
 20
75.634019
 30
0.0
 10
79.462054
 20
75.817017
 30
0.0
 10
79.542056
 20
75.997019
 30
0.0
 10
79.630056
 20
76.172019
 30
0.0
 10
79.727055
 20
76.343017
 30
0.0
 10
79.832056
 20
76.509018
 30
0.0
 10
79.945055
 20
76.670017
 30
0.0
 10
80.066055
 20
76.824017
 30
0.0
 10
80.194054
 20
76.973019
 30
0.0
 10
80.330054
 20
77.115019
 30
0.0
 10
80.472054
 20
77.251019
 30
0.0
 10
80.621056
 20
77.379019
 30
0.0
 10
80.775054
 20
77.500018
 30
0.0
 10
80.936056
 20
77.613017
 30
0.0
 10
81.102056
 20
77.718018
 30
0.0
 10
81.273055
 20
77.815018
 30
0.0
 10
81.448055
 20
77.903018
 30
0.0
 10
81.628056
 20
77.983019
 30
0.0
 10
81.811055
 20
78.053019
 30
0.0
 10
81.998055
 20
78.115017
 30
0.0
 10
82.187054
 20
78.167017
 30
0.0
 10
82.378056
 20
78.210019
 30
0.0
 10
82.572056
 20
78.244018
 30
0.0
 10
82.767054
 20
78.268007
 30
0.0
 10
82.963055
 20
78.282017
 30
0.0
 10
83.159055
 20
78.287012
 30
0.0
 10
83.355056
 20
78.282022
 30
0.0
 10
83.551056
 20
78.268019
 30
0.0
 10
83.746055
 20
78.244030
 30
0.0
 10
83.940055
 20
78.210019
 30
0.0
 10
84.131054
 20
78.167017
 30
0.0
 10
84.320055
 20
78.115017
 30
0.0
 10
84.507056
 20
78.053019
 30
0.0
 10
84.690054
 20
77.983019
 30
0.0
 10
84.870056
 20
77.903018
 30
0.0
 10
85.045056
 20
77.815018
 30
0.0
 10
85.216055
 20
77.718018
 30
0.0
 10
85.382055
 20
77.613017
 30
0.0
 10
85.543054
 20
77.500018
 30
0.0
 10
85.697054
 20
77.379019
 30
0.0
 10
85.846054
 20
77.251019
 30
0.0
 10
85.988054
 20
77.115019
 30
0.0
 10
86.124054
 20
76.973019
 30
0.0
 10
86.252056
 20
76.824017
 30
0.0
 10
86.373056
 20
76.670017
 30
0.0
 10
86.486055
 20
76.509018
 30
0.0
 10
86.591055
 20
76.343017
 30
0.0
 10
86.688055
 20
76.172019
 30
0.0
 10
86.776055
 20
75.997019
 30
0.0
 10
86.856056
 20
75.817017
 30
0.0
 10
86.926056
 20
75.634019
 30
0.0
 10
86.988055
 20
75.447018
 30
0.0
 10
87.040054
 20
75.258017
 30
0.0
 10
87.083056
 20
75.067017
 30
0.0
 10
87.117055
 20
74.873018
 30
0.0
 10
87.141044
 20
74.678019
 30
0.0
 10
87.155054
 20
74.482019
 30
0.0
 10
87.160049
 20
74.286018
 30
0.0
 10
87.155060
 20
74.090018
 30
0.0
 10
87.141056
 20
73.894017
 30
0.0
 10
87.117067
 20
73.699019
 30
0.0
 10
87.083056
 20
73.505019
 30
0.0
 10
87.040054
 20
73.314019
 30
0.0
 10
86.988055
 20
73.125018
 30
0.0
 10
86.926056
 20
72.938018
 30
0.0
 10
86.856056
 20
72.755019
 30
0.0
 10
86.776055
 20
72.575018
 30
0.0
 10
86.688055
 20
72.400017
 30
0.0
 10
86.591055
 20
72.229019
 30
0.0
 10
86.486055
 20
72.063019
 30
0.0
 10
86.373056
 20
71.902019
 30
0.0
 10
86.252056
 20
71.748019
 30
0.0
 10
86.124054
 20
71.599017
 30
0.0
 10
85.988054
 20
71.457017
 30
0.0
 10
85.846054
 20
71.321017
 30
0.0
 10
85.697054
 20
71.193018
 30
0.0
 10
85.543054
 20
71.072018
 30
0.0
 10
85.382055
 20
70.959019
 30
0.0
 10
85.216055
 20
70.854018
 30
0.0
 10
85.045056
 20
70.757018
 30
0.0
 10
84.870056
 20
70.669019
 30
0.0
 10
84.690054
 20
70.589017
 30
0.0
 10
84.507056
 20
70.519018
 30
0.0
 10
84.320055
 20
70.457019
 30
0.0
 10
84.131054
 20
70.405017
 30
0.0
 10
83.940055
 20
70.362017
 30
0.0
 10
83.746055
 20
70.328018
 30
0.0
 10
83.551056
 20
70.304029
 30
0.0
 10
83.355056
 20
70.290020
 30
0.0
 10
83.159055
 20
70.285021
 30
0.0
 10
82.963055
 20
70.290014
 30
0.0
 10
82.767054
 20
70.304015
 30
0.0
 10
82.572056
 20
70.328007
 30
0.0
 10
82.378056
 20
70.362017
 30
0.0
 10
82.187054
 20
70.405017
 30
0.0
 10
81.998055
 20
70.457019
 30
0.0
 10
81.811055
 20
70.519018
 30
0.0
 10
81.628056
 20
70.589017
 30
0.0
 10
81.448055
 20
70.669019
 30
0.0
 10
81.273055
 20
70.757018
 30
0.0
 10
81.102056
 20
70.854018
 30
0.0
 10
80.936056
 20
70.959019
 30
0.0
 10
80.775054
 20
71.072018
 30
0.0
 10
80.621056
 20
71.193018
 30
0.0
 10
80.472054
 20
71.321017
 30
0.0
 10
80.330054
 20
71.457017
 30
0.0
 10
80.194054
 20
71.599017
 30
0.0
 10
80.066055
 20
71.748019
 30
0.0
 10
79.945055
 20
71.902019
 30
0.0
 10
79.832056
 20
72.063019
 30
0.0
 10
79.727055
 20
72.229019
 30
0.0
 10
79.630056
 20
72.400017
 30
0.0
 10
79.542056
 20
72.575018
 30
0.0
 10
79.462054
 20
72.755019
 30
0.0
 10
79.392055
 20
72.938018
 30
0.0
 10
79.330056
 20
73.125018
 30
0.0
 10
79.278054
 20
73.314019
 30
0.0
 10
79.235054
 20
73.505019
 30
0.0
 10
79.201055
 20
73.699019
 30
0.0
 10
79.177066
 20
73.894017
 30
0.0
 10
79.163057
 20
74.090018
 30
0.0
 10
79.158059
 20
74.286018
 30
0.0
  0
LWPOLYLINE
  5
118
100
AcDbEntity
  8
0
 62
7
100
AcDbPolyline
 90
17
 70
0
 10
103.081054
 20
110.286017
 30
0.0
 10
103.391056
 20
111.847019
 30
0.0
 10
104.275055
 20
113.170017
 30
0.0
 10
105.598056
 20
114.054019
 30
0.0
 10
107.159055
 20
114.364018
 30
0.0
 10
108.720055
 20
114.054019
 30
0.0
 10
110.043056
 20
113.170017
 30
0.0
 10
110.927055
 20
111.847019
 30
0.0
 10
111.237056
 20
110.286017
 30
0.0
 10
110.927055
 20
108.725017
 30
0.0
 10
110.043056
 20
107.402019
 30
0.0
 10
108.720055
 20
106.518017
 30
0.0
 10
107.159055
 20
106.208019
 30
0.0
 10
105.598056
 20
106.518017
 30
0.0
 10
104.275055
 20
107.402019
 30
0.0
 10
103.391056
 20
108.725017
 30
0.0
 10
103.081054
 20
110.286017
 30
0.0
  0
LWPOLYLINE
  5
119
100
AcDbEntity
  8
0
 62
7
100
AcDbPolyline
 90
33
 70
0
 10
103.140056
 20
98.286018
 30
0.0
 10
103.217054
 20
99.070017
 30
0.0
 10
103.446055
 20
99.824019
 30
0.0
 10
103.817056
 20
100.519017
 30
0.0
 10
104.317055
 20
101.128019
 30
0.0
 10
104.926054
 20
101.628018
 30
0.0
 10
105.621054
 20
101.999018
 30
0.0
 10
106.375056
 20
102.228019
 30
0.0
 10
107.159055
 20
102.305018
 30
0.0
 10
107.943055
 20
102.228019
 30
0.0
 10
108.697056
 20
101.999018
 30
0.0
 10
109.392054
 20
101.628018
 30
0.0
 10
110.001056
 20
101.128019
 30
0.0
 10
110.501055
 20
100.519017
 30
0.0
 10
110.872056
 20
99.824019
 30
0.0
 10
111.101056
 20
99.070017
 30
0.0
 10
111.178055
 20
98.286018
 30
0.0
 10
111.101056
 20
97.502019
 30
0.0
 10
110.872056
 20
96.748017
 30
0.0
 10
110.501055
 20
96.053020
 30
0.0
 10
110.001056
 20
95.444018
 30
0.0
 10
109.392054
 20
94.944019
 30
0.0
 10
108.697056
 20
94.573018
 30
0.0
 10
107.943055
 20
94.344017
 30
0.0
 10
107.159055
 20
94.267019
 30
0.0
 10
106.375056
 20
94.344017
 30
0.0
 10
105.621054
 20
94.573018
 30
0.0
 10
104.926054
 20
94.944019
 30
0.0
 10
104.317055
 20
95.444018
 30
0.0
 10
103.817056
 20
96.053020
 30
0.0
 10
103.446055
 20
96.748017
 30
0.0
 10
103.217054
 20
97.502019
 30
0.0
 10
103.140056
 20
98.286018
 30
0.0
  0
LWPOLYLINE
  5
11a
100
AcDbEntity
  8
0
 62
7
100
AcDbPolyline
 90
65
 70
0
 10
103.154054
 20
86.286017
 30
0.0
 10
103.173047
 20
86.679017
 30
0.0
 10
103.231055
 20
87.067019
 30
0.0
 10
103.327056
 20
87.449018
 30
0.0
 10
103.459054
 20
87.819017
 30
0.0
 10
103.627055
 20
88.174019
 30
0.0
 10
103.829056
 20
88.511017
 30
0.0
 10
104.063055
 20
88.827019
 30
0.0
 10
104.327054
 20
89.118018
 30
0.0
 10
104.618056
 20
89.382017
 30
0.0
 10
104.934055
 20
89.616019
 30
0.0
 10
105.271056
 20
89.818019
 30
0.0
 10
105.626055
 20
89.986018
 30
0.0
 10
105.996054
 20
90.118019
 30
0.0
 10
106.378056
 20
90.214017
 30
0.0
 10
106.766055
 20
90.272019
 30
0.0
 10
107.159055
 20
90.291013
 30
0.0
 10
107.552055
 20
90.272025
 30
0.0
 10
107.940054
 20
90.214017
 30
0.0
 10
108.322056
 20
90.118019
 30
0.0
 10
108.692055
 20
89.986018
 30
0.0
 10
109.047054
 20
89.818019
 30
0.0
 10
109.384056
 20
89.616019
 30
0.0
 10
109.700054
 20
89.382017
 30
0.0
 10
109.991054
 20
89.118018
 30
0.0
 10
110.255056
 20
88.827019
 30
0.0
 10
110.489055
 20
88.511017
 30
0.0
 10
110.691055
 20
88.174019
 30
0.0
 10
110.859056
 20
87.819017
 30
0.0
 10
110.991055
 20
87.449018
 30
0.0
 10
111.087055
 20
87.067019
 30
0.0
 10
111.145055
 20
86.679017
 30
0.0
 10
111.164048
 20
86.286017
 30
0.0
 10
111.145060
 20
85.893020
 30
0.0
 10
111.087055
 20
85.505018
 30
0.0
 10
110.991055
 20
85.123019
 30
0.0
 10
110.859056
 20
84.753017
 30
0.0
 10
110.691055
 20
84.398018
 30
0.0
 10
110.489055
 20
84.061019
 30
0.0
 10
110.255056
 20
83.745018
 30
0.0
 10
109.991054
 20
83.454018
 30
0.0
 10
109.700054
 20
83.190019
 30
0.0
 10
109.384056
 20
82.956018
 30
0.0
 10
109.047054
 20
82.754017
 30
0.0
 10
108.692055
 20
82.586019
 30
0.0
 10
108.322056
 20
82.454018
 30
0.0
 10
107.940054
 20
82.358017
 30
0.0
 10
107.552055
 20
82.300017
 30
0.0
 10
107.159055
 20
82.281024
 30
0.0
 10
106.766055
 20
82.300012
 30
0.0
 10
106.378056
 20
82.358017
 30
0.0
 10
105.996054
 20
82.454018
 30
0.0
 10
105.626055
 20
82.586019
 30
0.0
 10
105.271056
 20
82.754017
 30
0.0
 10
104.934055
 20
82.956018
 30
0.0
 10
104.618056
 20
83.190019
 30
0.0
 10
104.327054
 20
83.454018
 30
0.0
 10
104.063055
 20
83.745018
 30
0.0
 10
103.829056
 20
84.061019
 30
0.0
 10
103.627055
 20
84.398018
 30
0.0
 10
103.459054
 20
84.753017
 30
0.0
 10
103.327056
 20
85.123019
 30
0.0
 10
103.231055
 20
85.505018
 30
0.0
 10
103.173056
 20
85.893020
 30
0.0
 10
103.154062
 20
86.286017
 30
0.0
  0
LWPOLYLINE
  5
11b
100
AcDbEntity
  8
0
 62
7
100
AcDbPolyline
 90
129
 70
0
 10
103.158056
 20
74.286018
 30
0.0
 10
103.163051
 20
74.482019
 30
0.0
 10
103.177052
 20
74.678019
 30
0.0
 10
103.201044
 20
74.873018
 30
0.0
 10
103.235054
 20
75.067017
 30
0.0
 10
103.278054
 20
75.258017
 30
0.0
 10
103.330056
 20
75.447018
 30
0.0
 10
103.392055
 20
75.634019
 30
0.0
 10
103.462054
 20
75.817017
 30
0.0
 10
103.542056
 20
75.997019
 30
0.0
 10
103.630055
 20
76.172019
 30
0.0
 10
103.727055
 20
76.343017
 30
0.0
 10
103.832056
 20
76.509018
 30
0.0
 10
103.945055
 20
76.670017
 30
0.0
 10
104.066055
 20
76.824017
 30
0.0
 10
104.194054
 20
76.973019
 30
0.0
 10
104.330054
 20
77.115019
 30
0.0
 10
104.472054
 20
77.251019
 30
0.0
 10
104.621056
 20
77.379019
 30
0.0
 10
104.775054
 20
77.500018
 30
0.0
 10
104.936056
 20
77.613017
 30
0.0
 10
105.102056
 20
77.718018
 30
0.0
 10
105.273054
 20
77.815018
 30
0.0
 10
105.448055
 20
77.903018
 30
0.0
 10
105.628056
 20
77.983019
 30
0.0
 10
105.811055
 20
78.053019
 30
0.0
 10
105.998055
 20
78.115017
 30
0.0
 10
106.187054
 20
78.167017
 30
0.0
 10
106.378056
 20
78.210019
 30
0.0
 10
106.572056
 20
78.244018
 30
0.0
 10
106.767054
 20
78.268007
 30
0.0
 10
106.963055
 20
78.282017
 30
0.0
 10
107.159055
 20
78.287012
 30
0.0
 10
107.355056
 20
78.282022
 30
0.0
 10
107.551056
 20
78.268019
 30
0.0
 10
107.746055
 20
78.244030
 30
0.0
 10
107.940054
 20
78.210019
 30
0.0
 10
108.131054
 20
78.167017
 30
0.0
 10
108.320055
 20
78.115017
 30
0.0
 10
108.507056
 20
78.053019
 30
0.0
 10
108.690054
 20
77.983019
 30
0.0
 10
108.870056
 20
77.903018
 30
0.0
 10
109.045056
 20
77.815018
 30
0.0
 10
109.216055
 20
77.718018
 30
0.0
 10
109.382055
 20
77.613017
 30
0.0
 10
109.543054
 20
77.500018
 30
0.0
 10
109.697054
 20
77.379019
 30
0.0
 10
109.846056
 20
77.251019
 30
0.0
 10
109.988054
 20
77.115019
 30
0.0
 10
110.124054
 20
76.973019
 30
0.0
 10
110.252056
 20
76.824017
 30
0.0
 10
110.373056
 20
76.670017
 30
0.0
 10
110.486055
 20
76.509018
 30
0.0
 10
110.591055
 20
76.343017
 30
0.0
 10
110.688055
 20
76.172019
 30
0.0
 10
110.776055
 20
75.997019
 30
0.0
 10
110.856056
 20
75.817017
 30
0.0
 10
110.926056
 20
75.634019
 30
0.0
 10
110.988054
 20
75.447018
 30
0.0
 10
111.040054
 20
75.258017
 30
0.0
 10
111.083056
 20
75.067017
 30
0.0
 10
111.117055
 20
74.873018
 30
0.0
 10
111.141044
 20
74.678019
 30
0.0
 10
111.155054
 20
74.482019
 30
0.0
 10
111.160049
 20
74.286018
 30
0.0
 10
111.155059
 20
74.090018
 30
0.0
 10
111.141056
 20
73.894017
 30
0.0
 10
111.117067
 20
73.699019
 30
0.0
 10
111.083056
 20
73.505019
 30
0.0
 10
111.040054
 20
73.314019
 30
0.0
 10
110.988054
 20
73.125018
 30
0.0
 10
110.926056
 20
72.938018
 30
0.0
 10
110.856056
 20
72.755019
 30
0.0
 10
110.776055
 20
72.575018
 30
0.0
 10
110.688055
 20
72.400017
 30
0.0
 10
110.591055
 20
72.229019
 30
0.0
 10
110.486055
 20
72.063019
 30
0.0
 10
110.373056
 20
71.902019
 30
0.0
 10
110.252056
 20
71.748019
 30
0.0
 10
110.124054
 20
71.599017
 30
0.0
 10
109.988054
 20
71.457017
 30
0.0
 10
109.846056
 20
71.321017
 30
0.0
 10
109.697054
 20
71.193018
 30
0.0
 10
109.543054
 20
71.072018
 30
0.0
 10
109.382055
 20
70.959019
 30
0.0
 10
109.216055
 20
70.854018
 30
0.0
 10
109.045056
 20
70.757018
 30
0.0
 10
108.870056
 20
70.669019
 30
0.0
 10
108.690054
 20
70.589017
 30
0.0
 10
108.507056
 20
70.519018
 30
0.0
 10
108.320055
 20
70.457019
 30
0.0
 10
108.131054
 20
70.405017
 30
0.0
 10
107.940054
 20
70.362017
 30
0.0
 10
107.746055
 20
70.328018
 30
0.0
 10
107.551056
 20
70.304029
 30
0.0
 10
107.355056
 20
70.290020
 30
0.0
 10
107.159055
 20
70.285021
 30
0.0
 10
106.963055
 20
70.290014
 30
0.0
 10
106.767054
 20
70.304015
 30
0.0
 10
106.572056
 20
70.328007
 30
0.0
 10
106.378056
 20
70.362017
 30
0.0
 10
106.187054
 20
70.405017
 30
0.0
 10
105.998055
 20
70.457019
 30
0.0
 10
105.811055
 20
70.519018
 30
0.0
 10
105.628056
 20
70.589017
 30
0.0
 10
105.448055
 20
70.669019
 30
0.0
 10
105.273054
 20
70.757018
 30
0.0
 10
105.102056
 20
70.854018
 30
0.0
 10
104.936056
 20
70.959019
 30
0.0
 10
104.775054
 20
71.072018
 30
0.0
 10
104.621056
 20
71.193018
 30
0.0
 10
104.472054
 20
71.321017
 30
0.0
 10
104.330054
 20
71.457017
 30
0.0
 10
104.194054
 20
71.599017
 30
0.0
 10
104.066055
 20
71.748019
 30
0.0
 10
103.945055
 20
71.902019
 30
0.0
 10
103.832056
 20
72.063019
 30
0.0
 10
103.727055
 20
72.229019
 30
0.0
 10
103.630055
 20
72.400017
 30
0.0
 10
103.542056
 20
72.575018
 30
0.0
 10
103.462054
 20
72.755019
 30
0.0
 10
103.392055
 20
72.938018
 30
0.0
 10
103.330056
 20
73.125018
 30
0.0
 10
103.278054
 20
73.314019
 30
0.0
 10
103.235054
 20
73.505019
 30
0.0
 10
103.201055
 20
73.699019
 30
0.0
 10
103.177066
 20
73.894017
 30
0.0
 10
103.163057
 20
74.090018
 30
0.0
 10
103.158059
 20
74.286018
 30
0.0
  0
LWPOLYLINE
  5
11c
100
AcDbEntity
  8
0
 62
7
100
AcDbPolyline
 90
5
 70
0
 10
118.409054
 20
131.411019
 30
0.0
 10
118.409054
 20
133.161017
 30
0.0
 10
124.409056
 20
133.161017
 30
0.0
 10
124.409056
 20
131.411019
 30
0.0
 10
118.409054
 20
131.411019
 30
0.0
  0
LWPOLYLINE
  5
11d
100
AcDbEntity
  8
0
 62
7
100
AcDbPolyline
 90
5
 70
0
 10
118.409054
 20
177.411017
 30
0.0
 10
118.409054
 20
179.161018
 30
0.0
 10
124.409056
 20
179.161018
 30
0.0
 10
124.409056
 20
177.411017
 30
0.0
 10
118.409054
 20
177.411017
 30
0.0
  0
LWPOLYLINE
  5
11e
100
AcDbEntity
  8
0
 62
7
100
AcDbPolyline
 90
17
 70
0
 10
127.081054
 20
110.286017
 30
0.0
 10
127.391056
 20
111.847019
 30
0.0
 10
128.275055
 20
113.170017
 30
0.0
 10
129.598056
 20
114.054019
 30
0.0
 10
131.159055
 20
114.364018
 30
0.0
 10
132.720055
 20
114.054019
 30
0.0
 10
134.043056
 20
113.170017
 30
0.0
 10
134.927055
 20
111.847019
 30
0.0
 10
135.237056
 20
110.286017
 30
0.0
 10
134.927055
 20
108.725017
 30
0.0
 10
134.043056
 20
107.402019
 30
0.0
 10
132.720055
 20
106.518017
 30
0.0
 10
131.159055
 20
106.208019
 30
0.0
 10
129.598056
 20
106.518017
 30
0.0
 10
128.275055
 20
107.402019
 30
0.0
 10
127.391056
 20
108.725017
 30
0.0
 10
127.081054
 20
110.286017
 30
0.0
  0
LWPOLYLINE
  5
11f
100
AcDbEntity
  8
0
 62
7
100
AcDbPolyline
 90
33
 70
0
 10
127.140056
 20
98.286018
 30
0.0
 10
127.217054
 20
99.070017
 30
0.0
 10
127.446055
 20
99.824019
 30
0.0
 10
127.817056
 20
100.519017
 30
0.0
 10
128.317055
 20
101.128019
 30
0.0
 10
128.926054
 20
101.628018
 30
0.0
 10
129.621054
 20
101.999018
 30
0.0
 10
130.375056
 20
102.228019
 30
0.0
 10
131.159055
 20
102.305018
 30
0.0
 10
131.943054
 20
102.228019
 30
0.0
 10
132.697056
 20
101.999018
 30
0.0
 10
133.392054
 20
101.628018
 30
0.0
 10
134.001056
 20
101.128019
 30
0.0
 10
134.501055
 20
100.519017
 30
0.0
 10
134.872055
 20
99.824019
 30
0.0
 10
135.101056
 20
99.070017
 30
0.0
 10
135.178055
 20
98.286018
 30
0.0
 10
135.101056
 20
97.502019
 30
0.0
 10
134.872055
 20
96.748017
 30
0.0
 10
134.501055
 20
96.053020
 30
0.0
 10
134.001056
 20
95.444018
 30
0.0
 10
133.392054
 20
94.944019
 30
0.0
 10
132.697056
 20
94.573018
 30
0.0
 10
131.943054
 20
94.344017
 30
0.0
 10
131.159055
 20
94.267019
 30
0.0
 10
130.375056
 20
94.344017
 30
0.0
 10
129.621054
 20
94.573018
 30
0.0
 10
128.926054
 20
94.944019
 30
0.0
 10
128.317055
 20
95.444018
 30
0.0
 10
127.817056
 20
96.053020
 30
0.0
 10
127.446055
 20
96.748017
 30
0.0
 10
127.217054
 20
97.502019
 30
0.0
 10
127.140056
 20
98.286018
 30
0.0
  0
LWPOLYLINE
  5
120
100
AcDbEntity
  8
0
 62
7
100
AcDbPolyline
 90
65
 70
0
 10
127.154054
 20
86.286017
 30
0.0
 10
127.173047
 20
86.679017
 30
0.0
 10
127.231055
 20
87.067019
 30
0.0
 10
127.327056
 20
87.449018
 30
0.0
 10
127.459054
 20
87.819017
 30
0.0
 10
127.627055
 20
88.174019
 30
0.0
 10
127.829056
 20
88.511017
 30
0.0
 10
128.063055
 20
88.827019
 30
0.0
 10
128.327054
 20
89.118018
 30
0.0
 10
128.618056
 20
89.382017
 30
0.0
 10
128.934055
 20
89.616019
 30
0.0
 10
129.271056
 20
89.818019
 30
0.0
 10
129.626055
 20
89.986018
 30
0.0
 10
129.996054
 20
90.118019
 30
0.0
 10
130.378056
 20
90.214017
 30
0.0
 10
130.766055
 20
90.272019
 30
0.0
 10
131.159055
 20
90.291013
 30
0.0
 10
131.552055
 20
90.272025
 30
0.0
 10
131.940054
 20
90.214017
 30
0.0
 10
132.322056
 20
90.118019
 30
0.0
 10
132.692055
 20
89.986018
 30
0.0
 10
133.047054
 20
89.818019
 30
0.0
 10
133.384056
 20
89.616019
 30
0.0
 10
133.700054
 20
89.382017
 30
0.0
 10
133.991054
 20
89.118018
 30
0.0
 10
134.255056
 20
88.827019
 30
0.0
 10
134.489055
 20
88.511017
 30
0.0
 10
134.691055
 20
88.174019
 30
0.0
 10
134.859056
 20
87.819017
 30
0.0
 10
134.991054
 20
87.449018
 30
0.0
 10
135.087055
 20
87.067019
 30
0.0
 10
135.145055
 20
86.679017
 30
0.0
 10
135.164048
 20
86.286017
 30
0.0
 10
135.145060
 20
85.893020
 30
0.0
 10
135.087055
 20
85.505018
 30
0.0
 10
134.991054
 20
85.123019
 30
0.0
 10
134.859056
 20
84.753017
 30
0.0
 10
134.691055
 20
84.398018
 30
0.0
 10
134.489055
 20
84.061019
 30
0.0
 10
134.255056
 20
83.745018
 30
0.0
 10
133.991054
 20
83.454018
 30
0.0
 10
133.700054
 20
83.190019
 30
0.0
 10
133.384056
 20
82.956018
 30
0.0
 10
133.047054
 20
82.754017
 30
0.0
 10
132.692055
 20
82.586019
 30
0.0
 10
132.322056
 20
82.454018
 30
0.0
 10
131.940054
 20
82.358017
 30
0.0
 10
131.552055
 20
82.300017
 30
0.0
 10
131.159055
 20
82.281024
 30
0.0
 10
130.766055
 20
82.300012
 30
0.0
 10
130.378056
 20
82.358017
 30
0.0
 10
129.996054
 20
82.454018
 30
0.0
 10
129.626055
 20
82.586019
 30
0.0
 10
129.271056
 20
82.754017
 30
0.0
 10
128.934055
 20
82.956018
 30
0.0
 10
128.618056
 20
83.190019
 30
0.0
 10
128.327054
 20
83.454018
 30
0.0
 10
128.063055
 20
83.745018
 30
0.0
 10
127.829056
 20
84.061019
 30
0.0
 10
127.627055
 20
84.398018
 30
0.0
 10
127.459054
 20
84.753017
 30
0.0
 10
127.327056
 20
85.123019
 30
0.0
 10
127.231055
 20
85.505018
 30
0.0
 10
127.173056
 20
85.893020
 30
0.0
 10
127.154062
 20
86.286017
 30
0.0
  0
LWPOLYLINE
  5
121
100
AcDbEntity
  8
0
 62
7
100
AcDbPolyline
 90
129
 70
0
 10
127.158056
 20
74.286018
 30
0.0
 10
127.163051
 20
74.482019
 30
0.0
 10
127.177052
 20
74.678019
 30
0.0
 10
127.201044
 20
74.873018
 30
0.0
 10
127.235054
 20
75.067017
 30
0.0
 10
127.278054
 20
75.258017
 30
0.0
 10
127.330056
 20
75.447018
 30
0.0
 10
127.392055
 20
75.634019
 30
0.0
 10
127.462054
 20
75.817017
 30
0.0
 10
127.542056
 20
75.997019
 30
0.0
 10
127.630055
 20
76.172019
 30
0.0
 10
127.727055
 20
76.343017
 30
0.0
 10
127.832056
 20
76.509018
 30
0.0
 10
127.945055
 20
76.670017
 30
0.0
 10
128.066055
 20
76.824017
 30
0.0
 10
128.194054
 20
76.973019
 30
0.0
 10
128.330054
 20
77.115019
 30
0.0
 10
128.472054
 20
77.251019
 30
0.0
 10
128.621056
 20
77.379019
 30
0.0
 10
128.775054
 20
77.500018
 30
0.0
 10
128.936056
 20
77.613017
 30
0.0
 10
129.102056
 20
77.718018
 30
0.0
 10
129.273054
 20
77.815018
 30
0.0
 10
129.448055
 20
77.903018
 30
0.0
 10
129.628056
 20
77.983019
 30
0.0
 10
129.811055
 20
78.053019
 30
0.0
 10
129.998055
 20
78.115017
 30
0.0
 10
130.187054
 20
78.167017
 30
0.0
 10
130.378056
 20
78.210019
 30
0.0
 10
130.572056
 20
78.244018
 30
0.0
 10
130.767054
 20
78.268007
 30
0.0
 10
130.963055
 20
78.282017
 30
0.0
 10
131.159055
 20
78.287012
 30
0.0
 10
131.355056
 20
78.282022
 30
0.0
 10
131.551056
 20
78.268019
 30
0.0
 10
131.746055
 20
78.244030
 30
0.0
 10
131.940054
 20
78.210019
 30
0.0
 10
132.131054
 20
78.167017
 30
0.0
 10
132.320055
 20
78.115017
 30
0.0
 10
132.507056
 20
78.053019
 30
0.0
 10
132.690054
 20
77.983019
 30
0.0
 10
132.870056
 20
77.903018
 30
0.0
 10
133.045056
 20
77.815018
 30
0.0
 10
133.216055
 20
77.718018
 30
0.0
 10
133.382055
 20
77.613017
 30
0.0
 10
133.543054
 20
77.500018
 30
0.0
 10
133.697054
 20
77.379019
 30
0.0
 10
133.846056
 20
77.251019
 30
0.0
 10
133.988054
 20
77.115019
 30
0.0
 10
134.124054
 20
76.973019
 30
0.0
 10
134.252056
 20
76.824017
 30
0.0
 10
134.373056
 20
76.670017
 30
0.0
 10
134.486055
 20
76.509018
 30
0.0
 10
134.591055
 20
76.343017
 30
0.0
 10
134.688055
 20
76.172019
 30
0.0
 10
134.776055
 20
75.997019
 30
0.0
 10
134.856056
 20
75.817017
 30
0.0
 10
134.926056
 20
75.634019
 30
0.0
 10
134.988054
 20
75.447018
 30
0.0
 10
135.040054
 20
75.258017
 30
0.0
 10
135.083056
 20
75.067017
 30
0.0
 10
135.117055
 20
74.873018
 30
0.0
 10
135.141044
 20
74.678019
 30
0.0
 10
135.155054
 20
74.482019
 30
0.0
 10
135.160049
 20
74.286018
 30
0.0
 10
135.155059
 20
74.090018
 30
0.0
 10
135.141056
 20
73.894017
 30
0.0
 10
135.117067
 20
73.699019
 30
0.0
 10
135.083056
 20
73.505019
 30
0.0
 10
135.040054
 20
73.314019
 30
0.0
 10
134.988054
 20
73.125018
 30
0.0
 10
134.926056
 20
72.938018
 30
0.0
 10
134.856056
 20
72.755019
 30
0.0
 10
134.776055
 20
72.575018
 30
0.0
 10
134.688055
 20
72.400017
 30
0.0
 10
134.591055
 20
72.229019
 30
0.0
 10
134.486055
 20
72.063019
 30
0.0
 10
134.373056
 20
71.902019
 30
0.0
 10
134.252056
 20
71.748019
 30
0.0
 10
134.124054
 20
71.599017
 30
0.0
 10
133.988054
 20
71.457017
 30
0.0
 10
133.846056
 20
71.321017
 30
0.0
 10
133.697054
 20
71.193018
 30
0.0
 10
133.543054
 20
71.072018
 30
0.0
 10
133.382055
 20
70.959019
 30
0.0
 10
133.216055
 20
70.854018
 30
0.0
 10
133.045056
 20
70.757018
 30
0.0
 10
132.870056
 20
70.669019
 30
0.0
 10
132.690054
 20
70.589017
 30
0.0
 10
132.507056
 20
70.519018
 30
0.0
 10
132.320055
 20
70.457019
 30
0.0
 10
132.131054
 20
70.405017
 30
0.0
 10
131.940054
 20
70.362017
 30
0.0
 10
131.746055
 20
70.328018
 30
0.0
 10
131.551056
 20
70.304029
 30
0.0
 10
131.355056
 20
70.290020
 30
0.0
 10
131.159055
 20
70.285021
 30
0.0
 10
130.963055
 20
70.290014
 30
0.0
 10
130.767054
 20
70.304015
 30
0.0
 10
130.572056
 20
70.328007
 30
0.0
 10
130.378056
 20
70.362017
 30
0.0
 10
130.187054
 20
70.405017
 30
0.0
 10
129.998055
 20
70.457019
 30
0.0
 10
129.811055
 20
70.519018
 30
0.0
 10
129.628056
 20
70.589017
 30
0.0
 10
129.448055
 20
70.669019
 30
0.0
 10
129.273054
 20
70.757018
 30
0.0
 10
129.102056
 20
70.854018
 30
0.0
 10
128.936056
 20
70.959019
 30
0.0
 10
128.775054
 20
71.072018
 30
0.0
 10
128.621056
 20
71.193018
 30
0.0
 10
128.472054
 20
71.321017
 30
0.0
 10
128.330054
 20
71.457017
 30
0.0
 10
128.194054
 20
71.599017
 30
0.0
 10
128.066055
 20
71.748019
 30
0.0
 10
127.945055
 20
71.902019
 30
0.0
 10
127.832056
 20
72.063019
 30
0.0
 10
127.727055
 20
72.229019
 30
0.0
 10
127.630055
 20
72.400017
 30
0.0
 10
127.542056
 20
72.575018
 30
0.0
 10
127.462054
 20
72.755019
 30
0.0
 10
127.392055
 20
72.938018
 30
0.0
 10
127.330056
 20
73.125018
 30
0.0
 10
127.278054
 20
73.314019
 30
0.0
 10
127.235054
 20
73.505019
 30
0.0
 10
127.201055
 20
73.699019
 30
0.0
 10
127.177066
 20
73.894017
 30
0.0
 10
127.163057
 20
74.090018
 30
0.0
 10
127.158059
 20
74.286018
 30
0.0
  0
LWPOLYLINE
  5
122
100
AcDbEntity
  8
0
 62
7
100
AcDbPolyline
 90
5
 70
0
 10
152.784054
 20
89.786018
 30
0.0
 10
152.784054
 20
95.786018
 30
0.0
 10
154.534054
 20
95.786018
 30
0.0
 10
154.534054
 20
89.786018
 30
0.0
 10
152.784054
 20
89.786018
 30
0.0
  0
LWPOLYLINE
  5
123
100
AcDbEntity
  8
0
 62
7
100
AcDbPolyline
 90
5
 70
0
 10
152.784054
 20
152.286017
 30
0.0
 10
152.784054
 20
158.286017
 30
0.0
 10
154.534054
 20
158.286017
 30
0.0
 10
154.534054
 20
152.286017
 30
0.0
 10
152.784054
 20
152.286017
 30
0.0
  0
LWPOLYLINE
  5
124
100
AcDbEntity
  8
0
 62
7
100
AcDbPolyline
 90
5
 70
0
 10
166.159056
 20
52.786019
 30
0.0
 10
166.159056
 20
120.286019
 30
0.0
 10
246.159054
 20
120.286019
 30
0.0
 10
246.159054
 20
52.786019
 30
0.0
 10
166.159056
 20
52.786019
 30
0.0
  0
LWPOLYLINE
  5
125
100
AcDbEntity
  8
0
 62
7
100
AcDbPolyline
 90
5
 70
0
 10
190.409054
 20
58.761019
 30
0.0
 10
190.409054
 20
65.311019
 30
0.0
 10
199.409056
 20
65.311019
 30
0.0
 10
199.409056
 20
58.761019
 30
0.0
 10
190.409054
 20
58.761019
 30
0.0
  0
LWPOLYLINE
  5
126
100
AcDbEntity
  8
0
 62
7
100
AcDbPolyline
 90
5
 70
0
 10
203.159055
 20
56.161018
 30
0.0
 10
203.159055
 20
57.911019
 30
0.0
 10
209.159054
 20
57.911019
 30
0.0
 10
209.159054
 20
56.161018
 30
0.0
 10
203.159055
 20
56.161018
 30
0.0
  0
LWPOLYLINE
  5
127
100
AcDbEntity
  8
0
 62
7
100
AcDbPolyline
 90
5
 70
0
 10
203.159055
 20
66.161018
 30
0.0
 10
203.159055
 20
67.911019
 30
0.0
 10
209.159054
 20
67.911019
 30
0.0
 10
209.159054
 20
66.161018
 30
0.0
 10
203.159055
 20
66.161018
 30
0.0
  0
LWPOLYLINE
  5
128
100
AcDbEntity
  8
0
 62
7
100
AcDbPolyline
 90
5
 70
0
 10
212.909054
 20
58.761019
 30
0.0
 10
212.909054
 20
65.311019
 30
0.0
 10
221.909056
 20
65.311019
 30
0.0
 10
221.909056
 20
58.761019
 30
0.0
 10
212.909054
 20
58.761019
 30
0.0
  0
LWPOLYLINE
  5
129
100
AcDbEntity
  8
0
 62
7
100
AcDbPolyline
 90
5
 70
0
 10
231.034054
 20
89.786018
 30
0.0
 10
231.034054
 20
95.786018
 30
0.0
 10
232.784055
 20
95.786018
 30
0.0
 10
232.784055
 20
89.786018
 30
0.0
 10
231.034054
 20
89.786018
 30
0.0
  0
LWPOLYLINE
  5
12a
100
AcDbEntity
  8
0
 62
7
100
AcDbPolyline
 90
5
 70
0
 10
233.634054
 20
77.036017
 30
0.0
 10
233.634054
 20
86.036019
 30
0.0
 10
240.184054
 20
86.036019
 30
0.0
 10
240.184054
 20
77.036017
 30
0.0
 10
233.634054
 20
77.036017
 30
0.0
  0
LWPOLYLINE
  5
12b
100
AcDbEntity
  8
0
 62
7
100
AcDbPolyline
 90
5
 70
0
 10
233.634054
 20
99.536017
 30
0.0
 10
233.634054
 20
108.536019
 30
0.0
 10
240.184054
 20
108.536019
 30
0.0
 10
240.184054
 20
99.536017
 30
0.0
 10
233.634054
 20
99.536017
 30
0.0
  0
LWPOLYLINE
  5
12c
100
AcDbEntity
  8
0
 62
7
100
AcDbPolyline
 90
5
 70
0
 10
241.034056
 20
89.786018
 30
0.0
 10
241.034056
 20
95.786018
 30
0.0
 10
242.784054
 20
95.786018
 30
0.0
 10
242.784054
 20
89.786018
 30
0.0
 10
241.034056
 20
89.786018
 30
0.0
  0
LWPOLYLINE
  5
12d
100
AcDbEntity
  8
0
 62
7
100
AcDbPolyline
 90
5
 70
0
 10
169.534055
 20
89.786018
 30
0.0
 10
169.534055
 20
95.786017
 30
0.0
 10
171.284056
 20
95.786017
 30
0.0
 10
171.284056
 20
89.786018
 30
0.0
 10
169.534055
 20
89.786018
 30
0.0
  0
LWPOLYLINE
  5
12e
100
AcDbEntity
  8
0
 62
7
100
AcDbPolyline
 90
5
 70
0
 10
172.134056
 20
77.036016
 30
0.0
 10
172.134056
 20
86.036018
 30
0.0
 10
178.684055
 20
86.036018
 30
0.0
 10
178.684055
 20
77.036016
 30
0.0
 10
172.134056
 20
77.036016
 30
0.0
  0
LWPOLYLINE
  5
12f
100
AcDbEntity
  8
0
 62
7
100
AcDbPolyline
 90
5
 70
0
 10
172.134056
 20
99.536016
 30
0.0
 10
172.134056
 20
108.536018
 30
0.0
 10
178.684055
 20
108.536018
 30
0.0
 10
178.684055
 20
99.536016
 30
0.0
 10
172.134056
 20
99.536016
 30
0.0
  0
LWPOLYLINE
  5
130
100
AcDbEntity
  8
0
 62
7
100
AcDbPolyline
 90
5
 70
0
 10
179.534058
 20
89.786018
 30
0.0
 10
179.534058
 20
95.786017
 30
0.0
 10
181.284056
 20
95.786017
 30
0.0
 10
181.284056
 20
89.786018
 30
0.0
 10
179.534058
 20
89.786018
 30
0.0
  0
LWPOLYLINE
  5
131
100
AcDbEntity
  8
0
 62
7
100
AcDbPolyline
 90
5
 70
0
 10
105.659055
 20
58.761018
 30
0.0
 10
105.659055
 20
65.311018
 30
0.0
 10
114.659054
 20
65.311018
 30
0.0
 10
114.659054
 20
58.761018
 30
0.0
 10
105.659055
 20
58.761018
 30
0.0
  0
LWPOLYLINE
  5
132
100
AcDbEntity
  8
0
 62
7
100
AcDbPolyline
 90
5
 70
0
 10
118.409054
 20
56.161018
 30
0.0
 10
118.409054
 20
57.911018
 30
0.0
 10
124.409053
 20
57.911018
 30
0.0
 10
124.409053
 20
56.161018
 30
0.0
 10
118.409054
 20
56.161018
 30
0.0
  0
LWPOLYLINE
  5
133
100
AcDbEntity
  8
0
 62
7
100
AcDbPolyline
 90
5
 70
0
 10
118.409054
 20
66.161017
 30
0.0
 10
118.409054
 20
67.911018
 30
0.0
 10
124.409053
 20
67.911018
 30
0.0
 10
124.409053
 20
66.161017
 30
0.0
 10
118.409054
 20
66.161017
 30
0.0
  0
LWPOLYLINE
  5
134
100
AcDbEntity
  8
0
 62
7
100
AcDbPolyline
 90
5
 70
0
 10
128.159056
 20
58.761018
 30
0.0
 10
128.159056
 20
65.311018
 30
0.0
 10
137.159055
 20
65.311018
 30
0.0
 10
137.159055
 20
58.761018
 30
0.0
 10
128.159056
 20
58.761018
 30
0.0
  0
ENDSEC
  0
SECTION
  2
OBJECTS
  0
DICTIONARY
  5
C
330
0
100
AcDbDictionary
  3
ACAD_GROUP
350
D
  3
ACAD_MLINESTYLE
350
17
  0
DICTIONARY
  5
D
330
C
100
AcDbDictionary
  0
DICTIONARY
  5
1A
330
C
100
AcDbDictionary
  0
DICTIONARY
  5
17
330
C
100
AcDbDictionary
  3
STANDARD
350
18
  0
DICTIONARY
  5
19
330
C
100
AcDbDictionary
  0
ENDSEC
  0
EOF
