  0
SECTION
  2
BLOCKS
  0
ENDSEC
  0
SECTION
  2
ENTITIES
  0
LINE
  8
0
 10
-164.025
 11
-164.025
 20
46.75
 21
55.75
  0
LINE
  8
0
 10
-164.025
 11
-157.5
 20
55.75
 21
55.75
  0
LINE
  8
0
 10
-157.5
 11
-157.5
 20
55.75
 21
69.25
  0
LINE
  8
0
 10
-157.5
 11
-164.025
 20
69.25
 21
69.25
  0
LINE
  8
0
 10
-164.025
 11
-164.025
 20
69.25
 21
78.25
  0
LINE
  8
0
 10
-164.025
 11
-157.5
 20
78.25
 21
78.25
  0
LINE
  8
0
 10
-157.5
 11
-157.5
 20
78.25
 21
90
  0
LINE
  8
0
 10
-157.5
 11
-136.5
 20
90
 21
90
  0
LINE
  8
0
 10
-136.5
 11
-136.5
 20
90
 21
96.525
  0
LINE
  8
0
 10
-136.5
 11
-127.5
 20
96.525
 21
96.525
  0
LINE
  8
0
 10
-127.5
 11
-127.5
 20
96.525
 21
90
  0
LINE
  8
0
 10
-127.5
 11
-114
 20
90
 21
90
  0
LINE
  8
0
 10
-114
 11
-114
 20
90
 21
96.525
  0
LINE
  8
0
 10
-114
 11
-105
 20
96.525
 21
96.525
  0
LINE
  8
0
 10
-105
 11
-105
 20
96.525
 21
90
  0
LINE
  8
0
 10
-105
 11
-60
 20
90
 21
90
  0
LINE
  8
0
 10
-60
 11
-60
 20
90
 21
96.525
  0
LINE
  8
0
 10
-60
 11
-51
 20
96.525
 21
96.525
  0
LINE
  8
0
 10
-51
 11
-51
 20
96.525
 21
90
  0
LINE
  8
0
 10
-51
 11
-37.5
 20
90
 21
90
  0
LINE
  8
0
 10
-37.5
 11
-37.5
 20
90
 21
96.525
  0
LINE
  8
0
 10
-37.5
 11
-28.5
 20
96.525
 21
96.525
  0
LINE
  8
0
 10
-28.5
 11
-28.5
 20
96.525
 21
90
  0
LINE
  8
0
 10
-28.5
 11
-7.5
 20
90
 21
90
  0
LINE
  8
0
 10
-7.5
 11
-7.5
 20
90
 21
78.25
  0
LINE
  8
0
 10
-7.5
 11
-0.975
 20
78.25
 21
78.25
  0
LINE
  8
0
 10
-0.975
 11
-0.975
 20
78.25
 21
69.25
  0
LINE
  8
0
 10
-0.975
 11
-7.5
 20
69.25
 21
69.25
  0
LINE
  8
0
 10
-7.5
 11
-7.5
 20
69.25
 21
55.75
  0
LINE
  8
0
 10
-7.5
 11
-0.975
 20
55.75
 21
55.75
  0
LINE
  8
0
 10
-0.975
 11
-0.975
 20
55.75
 21
46.75
  0
LINE
  8
0
 10
-0.975
 11
-7.5
 20
46.75
 21
46.75
  0
LINE
  8
0
 10
-7.5
 11
-7.5
 20
46.75
 21
35
  0
LINE
  8
0
 10
-7.5
 11
-28.5
 20
35
 21
35
  0
LINE
  8
0
 10
-28.5
 11
-28.5
 20
35
 21
28.475
  0
LINE
  8
0
 10
-28.5
 11
-37.5
 20
28.475
 21
28.475
  0
LINE
  8
0
 10
-37.5
 11
-37.5
 20
28.475
 21
35
  0
LINE
  8
0
 10
-37.5
 11
-51
 20
35
 21
35
  0
LINE
  8
0
 10
-51
 11
-51
 20
35
 21
28.475
  0
LINE
  8
0
 10
-51
 11
-60
 20
28.475
 21
28.475
  0
LINE
  8
0
 10
-60
 11
-60
 20
28.475
 21
35
  0
LINE
  8
0
 10
-60
 11
-105
 20
35
 21
35
  0
LINE
  8
0
 10
-105
 11
-105
 20
35
 21
28.475
  0
LINE
  8
0
 10
-105
 11
-114
 20
28.475
 21
28.475
  0
LINE
  8
0
 10
-114
 11
-114
 20
28.475
 21
35
  0
LINE
  8
0
 10
-114
 11
-127.5
 20
35
 21
35
  0
LINE
  8
0
 10
-127.5
 11
-127.5
 20
35
 21
28.475
  0
LINE
  8
0
 10
-127.5
 11
-136.5
 20
28.475
 21
28.475
  0
LINE
  8
0
 10
-136.5
 11
-136.5
 20
28.475
 21
35
  0
LINE
  8
0
 10
-136.5
 11
-157.5
 20
35
 21
35
  0
LINE
  8
0
 10
-157.5
 11
-157.5
 20
35
 21
46.75
  0
LINE
  8
0
 10
-157.5
 11
-164.025
 20
46.75
 21
46.75
  0
LINE
  8
0
 10
-164.025
 11
-164.025
 20
-15.75
 21
-6.75
  0
LINE
  8
0
 10
-164.025
 11
-157.5
 20
-6.75
 21
-6.75
  0
LINE
  8
0
 10
-157.5
 11
-157.5
 20
-6.75
 21
6.75
  0
LINE
  8
0
 10
-157.5
 11
-164.025
 20
6.75
 21
6.75
  0
LINE
  8
0
 10
-164.025
 11
-164.025
 20
6.75
 21
15.75
  0
LINE
  8
0
 10
-164.025
 11
-157.5
 20
15.75
 21
15.75
  0
LINE
  8
0
 10
-157.5
 11
-157.5
 20
15.75
 21
27.5
  0
LINE
  8
0
 10
-157.5
 11
-7.5
 20
27.5
 21
27.5
  0
LINE
  8
0
 10
-7.5
 11
-7.5
 20
27.5
 21
15.75
  0
LINE
  8
0
 10
-7.5
 11
-0.975
 20
15.75
 21
15.75
  0
LINE
  8
0
 10
-0.975
 11
-0.975
 20
15.75
 21
6.75
  0
LINE
  8
0
 10
-0.975
 11
-7.5
 20
6.75
 21
6.75
  0
LINE
  8
0
 10
-7.5
 11
-7.5
 20
6.75
 21
-6.75
  0
LINE
  8
0
 10
-7.5
 11
-0.975
 20
-6.75
 21
-6.75
  0
LINE
  8
0
 10
-0.975
 11
-0.975
 20
-6.75
 21
-15.75
  0
LINE
  8
0
 10
-0.975
 11
-7.5
 20
-15.75
 21
-15.75
  0
LINE
  8
0
 10
-7.5
 11
-7.5
 20
-15.75
 21
-27.5
  0
LINE
  8
0
 10
-7.5
 11
-28.5
 20
-27.5
 21
-27.5
  0
LINE
  8
0
 10
-28.5
 11
-28.5
 20
-27.5
 21
-27.475
  0
LINE
  8
0
 10
-28.5
 11
-37.5
 20
-27.475
 21
-27.475
  0
LINE
  8
0
 10
-37.5
 11
-37.5
 20
-27.475
 21
-27.5
  0
LINE
  8
0
 10
-37.5
 11
-51
 20
-27.5
 21
-27.5
  0
LINE
  8
0
 10
-51
 11
-51
 20
-27.5
 21
-27.475
  0
LINE
  8
0
 10
-51
 11
-60
 20
-27.475
 21
-27.475
  0
LINE
  8
0
 10
-60
 11
-60
 20
-27.475
 21
-34.025
  0
LINE
  8
0
 10
-60
 11
-28.5
 20
-34.025
 21
-34.025
  0
LINE
  8
0
 10
-28.5
 11
-7.5
 20
-34.025
 21
-40
  0
LINE
  8
0
 10
-7.5
 11
-157.5
 20
-40
 21
-40
  0
LINE
  8
0
 10
-157.5
 11
-157.5
 20
-40
 21
-15.75
  0
LINE
  8
0
 10
-157.5
 11
-164.025
 20
-15.75
 21
-15.75
  0
LINE
  8
0
 10
-153.875
 11
-153.875
 20
-3
 21
3
  0
LINE
  8
0
 10
-153.875
 11
-152.125
 20
3
 21
3
  0
LINE
  8
0
 10
-152.125
 11
-152.125
 20
3
 21
-3
  0
LINE
  8
0
 10
-152.125
 11
-153.875
 20
-3
 21
-3
  0
LINE
  8
0
 10
-153.875
 11
-153.875
 20
59.5
 21
65.5
  0
LINE
  8
0
 10
-153.875
 11
-152.125
 20
65.5
 21
65.5
  0
LINE
  8
0
 10
-152.125
 11
-152.125
 20
65.5
 21
59.5
  0
LINE
  8
0
 10
-152.125
 11
-153.875
 20
59.5
 21
59.5
  0
LINE
  8
0
 10
-136.5
 11
-136.5
 20
-34.025
 21
-27.475
  0
LINE
  8
0
 10
-136.5
 11
-127.5
 20
-27.475
 21
-27.475
  0
LINE
  8
0
 10
-127.5
 11
-127.5
 20
-27.475
 21
-34.025
  0
LINE
  8
0
 10
-127.5
 11
-136.5
 20
-34.025
 21
-34.025
  0
LINE
  8
0
 10
-134.578
 11
-134.268
 20
17.5
 21
19.061
  0
LINE
  8
0
 10
-134.268
 11
-133.384
 20
19.061
 21
20.384
  0
LINE
  8
0
 10
-133.384
 11
-132.061
 20
20.384
 21
21.268
  0
LINE
  8
0
 10
-132.061
 11
-130.5
 20
21.268
 21
21.578
  0
LINE
  8
0
 10
-130.5
 11
-128.939
 20
21.578
 21
21.268
  0
LINE
  8
0
 10
-128.939
 11
-127.616
 20
21.268
 21
20.384
  0
LINE
  8
0
 10
-127.616
 11
-126.732
 20
20.384
 21
19.061
  0
LINE
  8
0
 10
-126.732
 11
-126.422
 20
19.061
 21
17.5
  0
LINE
  8
0
 10
-126.422
 11
-126.732
 20
17.5
 21
15.939
  0
LINE
  8
0
 10
-126.732
 11
-127.616
 20
15.939
 21
14.616
  0
LINE
  8
0
 10
-127.616
 11
-128.939
 20
14.616
 21
13.732
  0
LINE
  8
0
 10
-128.939
 11
-130.5
 20
13.732
 21
13.422
  0
LINE
  8
0
 10
-130.5
 11
-132.061
 20
13.422
 21
13.732
  0
LINE
  8
0
 10
-132.061
 11
-133.384
 20
13.732
 21
14.616
  0
LINE
  8
0
 10
-133.384
 11
-134.268
 20
14.616
 21
15.939
  0
LINE
  8
0
 10
-134.268
 11
-134.578
 20
15.939
 21
17.5
  0
LINE
  8
0
 10
-134.519
 11
-134.442
 20
5.5
 21
6.284
  0
LINE
  8
0
 10
-134.442
 11
-134.213
 20
6.284
 21
7.038
  0
LINE
  8
0
 10
-134.213
 11
-133.842
 20
7.038
 21
7.733
  0
LINE
  8
0
 10
-133.842
 11
-133.342
 20
7.733
 21
8.342
  0
LINE
  8
0
 10
-133.342
 11
-132.733
 20
8.342
 21
8.842
  0
LINE
  8
0
 10
-132.733
 11
-132.038
 20
8.842
 21
9.213
  0
LINE
  8
0
 10
-132.038
 11
-131.284
 20
9.213
 21
9.442
  0
LINE
  8
0
 10
-131.284
 11
-130.5
 20
9.442
 21
9.519
  0
LINE
  8
0
 10
-130.5
 11
-129.716
 20
9.519
 21
9.442
  0
LINE
  8
0
 10
-129.716
 11
-128.962
 20
9.442
 21
9.213
  0
LINE
  8
0
 10
-128.962
 11
-128.267
 20
9.213
 21
8.842
  0
LINE
  8
0
 10
-128.267
 11
-127.658
 20
8.842
 21
8.342
  0
LINE
  8
0
 10
-127.658
 11
-127.158
 20
8.342
 21
7.733
  0
LINE
  8
0
 10
-127.158
 11
-126.787
 20
7.733
 21
7.038
  0
LINE
  8
0
 10
-126.787
 11
-126.558
 20
7.038
 21
6.284
  0
LINE
  8
0
 10
-126.558
 11
-126.481
 20
6.284
 21
5.5
  0
LINE
  8
0
 10
-126.481
 11
-126.558
 20
5.5
 21
4.716
  0
LINE
  8
0
 10
-126.558
 11
-126.787
 20
4.716
 21
3.962
  0
LINE
  8
0
 10
-126.787
 11
-127.158
 20
3.962
 21
3.267
  0
LINE
  8
0
 10
-127.158
 11
-127.658
 20
3.267
 21
2.658
  0
LINE
  8
0
 10
-127.658
 11
-128.267
 20
2.658
 21
2.158
  0
LINE
  8
0
 10
-128.267
 11
-128.962
 20
2.158
 21
1.787
  0
LINE
  8
0
 10
-128.962
 11
-129.716
 20
1.787
 21
1.558
  0
LINE
  8
0
 10
-129.716
 11
-130.5
 20
1.558
 21
1.481
  0
LINE
  8
0
 10
-130.5
 11
-131.284
 20
1.481
 21
1.558
  0
LINE
  8
0
 10
-131.284
 11
-132.038
 20
1.558
 21
1.787
  0
LINE
  8
0
 10
-132.038
 11
-132.733
 20
1.787
 21
2.158
  0
LINE
  8
0
 10
-132.733
 11
-133.342
 20
2.158
 21
2.658
  0
LINE
  8
0
 10
-133.342
 11
-133.842
 20
2.658
 21
3.267
  0
LINE
  8
0
 10
-133.842
 11
-134.213
 20
3.267
 21
3.962
  0
LINE
  8
0
 10
-134.213
 11
-134.442
 20
3.962
 21
4.716
  0
LINE
  8
0
 10
-134.442
 11
-134.519
 20
4.716
 21
5.5
  0
LINE
  8
0
 10
-134.505
 11
-134.486
 20
-6.5
 21
-6.107
  0
LINE
  8
0
 10
-134.486
 11
-134.428
 20
-6.107
 21
-5.719
  0
LINE
  8
0
 10
-134.428
 11
-134.332
 20
-5.719
 21
-5.337
  0
LINE
  8
0
 10
-134.332
 11
-134.2
 20
-5.337
 21
-4.967
  0
LINE
  8
0
 10
-134.2
 11
-134.032
 20
-4.967
 21
-4.612
  0
LINE
  8
0
 10
-134.032
 11
-133.83
 20
-4.612
 21
-4.275
  0
LINE
  8
0
 10
-133.83
 11
-133.596
 20
-4.275
 21
-3.959
  0
LINE
  8
0
 10
-133.596
 11
-133.332
 20
-3.959
 21
-3.668
  0
LINE
  8
0
 10
-133.332
 11
-133.041
 20
-3.668
 21
-3.404
  0
LINE
  8
0
 10
-133.041
 11
-132.725
 20
-3.404
 21
-3.17
  0
LINE
  8
0
 10
-132.725
 11
-132.388
 20
-3.17
 21
-2.968
  0
LINE
  8
0
 10
-132.388
 11
-132.033
 20
-2.968
 21
-2.8
  0
LINE
  8
0
 10
-132.033
 11
-131.663
 20
-2.8
 21
-2.668
  0
LINE
  8
0
 10
-131.663
 11
-131.281
 20
-2.668
 21
-2.572
  0
LINE
  8
0
 10
-131.281
 11
-130.893
 20
-2.572
 21
-2.514
  0
LINE
  8
0
 10
-130.893
 11
-130.5
 20
-2.514
 21
-2.495
  0
LINE
  8
0
 10
-130.5
 11
-130.107
 20
-2.495
 21
-2.514
  0
LINE
  8
0
 10
-130.107
 11
-129.719
 20
-2.514
 21
-2.572
  0
LINE
  8
0
 10
-129.719
 11
-129.337
 20
-2.572
 21
-2.668
  0
LINE
  8
0
 10
-129.337
 11
-128.967
 20
-2.668
 21
-2.8
  0
LINE
  8
0
 10
-128.967
 11
-128.612
 20
-2.8
 21
-2.968
  0
LINE
  8
0
 10
-128.612
 11
-128.275
 20
-2.968
 21
-3.17
  0
LINE
  8
0
 10
-128.275
 11
-127.959
 20
-3.17
 21
-3.404
  0
LINE
  8
0
 10
-127.959
 11
-127.668
 20
-3.404
 21
-3.668
  0
LINE
  8
0
 10
-127.668
 11
-127.404
 20
-3.668
 21
-3.959
  0
LINE
  8
0
 10
-127.404
 11
-127.17
 20
-3.959
 21
-4.275
  0
LINE
  8
0
 10
-127.17
 11
-126.968
 20
-4.275
 21
-4.612
  0
LINE
  8
0
 10
-126.968
 11
-126.8
 20
-4.612
 21
-4.967
  0
LINE
  8
0
 10
-126.8
 11
-126.668
 20
-4.967
 21
-5.337
  0
LINE
  8
0
 10
-126.668
 11
-126.572
 20
-5.337
 21
-5.719
  0
LINE
  8
0
 10
-126.572
 11
-126.514
 20
-5.719
 21
-6.107
  0
LINE
  8
0
 10
-126.514
 11
-126.495
 20
-6.107
 21
-6.5
  0
LINE
  8
0
 10
-126.495
 11
-126.514
 20
-6.5
 21
-6.893
  0
LINE
  8
0
 10
-126.514
 11
-126.572
 20
-6.893
 21
-7.281
  0
LINE
  8
0
 10
-126.572
 11
-126.668
 20
-7.281
 21
-7.663
  0
LINE
  8
0
 10
-126.668
 11
-126.8
 20
-7.663
 21
-8.033
  0
LINE
  8
0
 10
-126.8
 11
-126.968
 20
-8.033
 21
-8.388
  0
LINE
  8
0
 10
-126.968
 11
-127.17
 20
-8.388
 21
-8.725
  0
LINE
  8
0
 10
-127.17
 11
-127.404
 20
-8.725
 21
-9.041
  0
LINE
  8
0
 10
-127.404
 11
-127.668
 20
-9.041
 21
-9.332
  0
LINE
  8
0
 10
-127.668
 11
-127.959
 20
-9.332
 21
-9.596
  0
LINE
  8
0
 10
-127.959
 11
-128.275
 20
-9.596
 21
-9.83
  0
LINE
  8
0
 10
-128.275
 11
-128.612
 20
-9.83
 21
-10.032
  0
LINE
  8
0
 10
-128.612
 11
-128.967
 20
-10.032
 21
-10.2
  0
LINE
  8
0
 10
-128.967
 11
-129.337
 20
-10.2
 21
-10.332
  0
LINE
  8
0
 10
-129.337
 11
-129.719
 20
-10.332
 21
-10.428
  0
LINE
  8
0
 10
-129.719
 11
-130.107
 20
-10.428
 21
-10.486
  0
LINE
  8
0
 10
-130.107
 11
-130.5
 20
-10.486
 21
-10.505
  0
LINE
  8
0
 10
-130.5
 11
-130.893
 20
-10.505
 21
-10.486
  0
LINE
  8
0
 10
-130.893
 11
-131.281
 20
-10.486
 21
-10.428
  0
LINE
  8
0
 10
-131.281
 11
-131.663
 20
-10.428
 21
-10.332
  0
LINE
  8
0
 10
-131.663
 11
-132.033
 20
-10.332
 21
-10.2
  0
LINE
  8
0
 10
-132.033
 11
-132.388
 20
-10.2
 21
-10.032
  0
LINE
  8
0
 10
-132.388
 11
-132.725
 20
-10.032
 21
-9.83
  0
LINE
  8
0
 10
-132.725
 11
-133.041
 20
-9.83
 21
-9.596
  0
LINE
  8
0
 10
-133.041
 11
-133.332
 20
-9.596
 21
-9.332
  0
LINE
  8
0
 10
-133.332
 11
-133.596
 20
-9.332
 21
-9.041
  0
LINE
  8
0
 10
-133.596
 11
-133.83
 20
-9.041
 21
-8.725
  0
LINE
  8
0
 10
-133.83
 11
-134.032
 20
-8.725
 21
-8.388
  0
LINE
  8
0
 10
-134.032
 11
-134.2
 20
-8.388
 21
-8.033
  0
LINE
  8
0
 10
-134.2
 11
-134.332
 20
-8.033
 21
-7.663
  0
LINE
  8
0
 10
-134.332
 11
-134.428
 20
-7.663
 21
-7.281
  0
LINE
  8
0
 10
-134.428
 11
-134.486
 20
-7.281
 21
-6.893
  0
LINE
  8
0
 10
-134.486
 11
-134.505
 20
-6.893
 21
-6.5
  0
LINE
  8
0
 10
-134.501
 11
-134.496
 20
-18.5
 21
-18.304
  0
LINE
  8
0
 10
-134.496
 11
-134.482
 20
-18.304
 21
-18.108
  0
LINE
  8
0
 10
-134.482
 11
-134.458
 20
-18.108
 21
-17.913
  0
LINE
  8
0
 10
-134.458
 11
-134.424
 20
-17.913
 21
-17.719
  0
LINE
  8
0
 10
-134.424
 11
-134.381
 20
-17.719
 21
-17.528
  0
LINE
  8
0
 10
-134.381
 11
-134.329
 20
-17.528
 21
-17.339
  0
LINE
  8
0
 10
-134.329
 11
-134.267
 20
-17.339
 21
-17.152
  0
LINE
  8
0
 10
-134.267
 11
-134.197
 20
-17.152
 21
-16.969
  0
LINE
  8
0
 10
-134.197
 11
-134.117
 20
-16.969
 21
-16.789
  0
LINE
  8
0
 10
-134.117
 11
-134.029
 20
-16.789
 21
-16.614
  0
LINE
  8
0
 10
-134.029
 11
-133.932
 20
-16.614
 21
-16.443
  0
LINE
  8
0
 10
-133.932
 11
-133.827
 20
-16.443
 21
-16.277
  0
LINE
  8
0
 10
-133.827
 11
-133.714
 20
-16.277
 21
-16.116
  0
LINE
  8
0
 10
-133.714
 11
-133.593
 20
-16.116
 21
-15.962
  0
LINE
  8
0
 10
-133.593
 11
-133.465
 20
-15.962
 21
-15.813
  0
LINE
  8
0
 10
-133.465
 11
-133.329
 20
-15.813
 21
-15.671
  0
LINE
  8
0
 10
-133.329
 11
-133.187
 20
-15.671
 21
-15.535
  0
LINE
  8
0
 10
-133.187
 11
-133.038
 20
-15.535
 21
-15.407
  0
LINE
  8
0
 10
-133.038
 11
-132.884
 20
-15.407
 21
-15.286
  0
LINE
  8
0
 10
-132.884
 11
-132.723
 20
-15.286
 21
-15.173
  0
LINE
  8
0
 10
-132.723
 11
-132.557
 20
-15.173
 21
-15.068
  0
LINE
  8
0
 10
-132.557
 11
-132.386
 20
-15.068
 21
-14.971
  0
LINE
  8
0
 10
-132.386
 11
-132.211
 20
-14.971
 21
-14.883
  0
LINE
  8
0
 10
-132.211
 11
-132.031
 20
-14.883
 21
-14.803
  0
LINE
  8
0
 10
-132.031
 11
-131.848
 20
-14.803
 21
-14.733
  0
LINE
  8
0
 10
-131.848
 11
-131.661
 20
-14.733
 21
-14.671
  0
LINE
  8
0
 10
-131.661
 11
-131.472
 20
-14.671
 21
-14.619
  0
LINE
  8
0
 10
-131.472
 11
-131.281
 20
-14.619
 21
-14.576
  0
LINE
  8
0
 10
-131.281
 11
-131.087
 20
-14.576
 21
-14.542
  0
LINE
  8
0
 10
-131.087
 11
-130.892
 20
-14.542
 21
-14.518
  0
LINE
  8
0
 10
-130.892
 11
-130.696
 20
-14.518
 21
-14.504
  0
LINE
  8
0
 10
-130.696
 11
-130.5
 20
-14.504
 21
-14.499
  0
LINE
  8
0
 10
-130.5
 11
-130.304
 20
-14.499
 21
-14.504
  0
LINE
  8
0
 10
-130.304
 11
-130.108
 20
-14.504
 21
-14.518
  0
LINE
  8
0
 10
-130.108
 11
-129.913
 20
-14.518
 21
-14.542
  0
LINE
  8
0
 10
-129.913
 11
-129.719
 20
-14.542
 21
-14.576
  0
LINE
  8
0
 10
-129.719
 11
-129.528
 20
-14.576
 21
-14.619
  0
LINE
  8
0
 10
-129.528
 11
-129.339
 20
-14.619
 21
-14.671
  0
LINE
  8
0
 10
-129.339
 11
-129.152
 20
-14.671
 21
-14.733
  0
LINE
  8
0
 10
-129.152
 11
-128.969
 20
-14.733
 21
-14.803
  0
LINE
  8
0
 10
-128.969
 11
-128.789
 20
-14.803
 21
-14.883
  0
LINE
  8
0
 10
-128.789
 11
-128.614
 20
-14.883
 21
-14.971
  0
LINE
  8
0
 10
-128.614
 11
-128.443
 20
-14.971
 21
-15.068
  0
LINE
  8
0
 10
-128.443
 11
-128.277
 20
-15.068
 21
-15.173
  0
LINE
  8
0
 10
-128.277
 11
-128.116
 20
-15.173
 21
-15.286
  0
LINE
  8
0
 10
-128.116
 11
-127.962
 20
-15.286
 21
-15.407
  0
LINE
  8
0
 10
-127.962
 11
-127.813
 20
-15.407
 21
-15.535
  0
LINE
  8
0
 10
-127.813
 11
-127.671
 20
-15.535
 21
-15.671
  0
LINE
  8
0
 10
-127.671
 11
-127.535
 20
-15.671
 21
-15.813
  0
LINE
  8
0
 10
-127.535
 11
-127.407
 20
-15.813
 21
-15.962
  0
LINE
  8
0
 10
-127.407
 11
-127.286
 20
-15.962
 21
-16.116
  0
LINE
  8
0
 10
-127.286
 11
-127.173
 20
-16.116
 21
-16.277
  0
LINE
  8
0
 10
-127.173
 11
-127.068
 20
-16.277
 21
-16.443
  0
LINE
  8
0
 10
-127.068
 11
-126.971
 20
-16.443
 21
-16.614
  0
LINE
  8
0
 10
-126.971
 11
-126.883
 20
-16.614
 21
-16.789
  0
LINE
  8
0
 10
-126.883
 11
-126.803
 20
-16.789
 21
-16.969
  0
LINE
  8
0
 10
-126.803
 11
-126.733
 20
-16.969
 21
-17.152
  0
LINE
  8
0
 10
-126.733
 11
-126.671
 20
-17.152
 21
-17.339
  0
LINE
  8
0
 10
-126.671
 11
-126.619
 20
-17.339
 21
-17.528
  0
LINE
  8
0
 10
-126.619
 11
-126.576
 20
-17.528
 21
-17.719
  0
LINE
  8
0
 10
-126.576
 11
-126.542
 20
-17.719
 21
-17.913
  0
LINE
  8
0
 10
-126.542
 11
-126.518
 20
-17.913
 21
-18.108
  0
LINE
  8
0
 10
-126.518
 11
-126.504
 20
-18.108
 21
-18.304
  0
LINE
  8
0
 10
-126.504
 11
-126.499
 20
-18.304
 21
-18.5
  0
LINE
  8
0
 10
-126.499
 11
-126.504
 20
-18.5
 21
-18.696
  0
LINE
  8
0
 10
-126.504
 11
-126.518
 20
-18.696
 21
-18.892
  0
LINE
  8
0
 10
-126.518
 11
-126.542
 20
-18.892
 21
-19.087
  0
LINE
  8
0
 10
-126.542
 11
-126.576
 20
-19.087
 21
-19.281
  0
LINE
  8
0
 10
-126.576
 11
-126.619
 20
-19.281
 21
-19.472
  0
LINE
  8
0
 10
-126.619
 11
-126.671
 20
-19.472
 21
-19.661
  0
LINE
  8
0
 10
-126.671
 11
-126.733
 20
-19.661
 21
-19.848
  0
LINE
  8
0
 10
-126.733
 11
-126.803
 20
-19.848
 21
-20.031
  0
LINE
  8
0
 10
-126.803
 11
-126.883
 20
-20.031
 21
-20.211
  0
LINE
  8
0
 10
-126.883
 11
-126.971
 20
-20.211
 21
-20.386
  0
LINE
  8
0
 10
-126.971
 11
-127.068
 20
-20.386
 21
-20.557
  0
LINE
  8
0
 10
-127.068
 11
-127.173
 20
-20.557
 21
-20.723
  0
LINE
  8
0
 10
-127.173
 11
-127.286
 20
-20.723
 21
-20.884
  0
LINE
  8
0
 10
-127.286
 11
-127.407
 20
-20.884
 21
-21.038
  0
LINE
  8
0
 10
-127.407
 11
-127.535
 20
-21.038
 21
-21.187
  0
LINE
  8
0
 10
-127.535
 11
-127.671
 20
-21.187
 21
-21.329
  0
LINE
  8
0
 10
-127.671
 11
-127.813
 20
-21.329
 21
-21.465
  0
LINE
  8
0
 10
-127.813
 11
-127.962
 20
-21.465
 21
-21.593
  0
LINE
  8
0
 10
-127.962
 11
-128.116
 20
-21.593
 21
-21.714
  0
LINE
  8
0
 10
-128.116
 11
-128.277
 20
-21.714
 21
-21.827
  0
LINE
  8
0
 10
-128.277
 11
-128.443
 20
-21.827
 21
-21.932
  0
LINE
  8
0
 10
-128.443
 11
-128.614
 20
-21.932
 21
-22.029
  0
LINE
  8
0
 10
-128.614
 11
-128.789
 20
-22.029
 21
-22.117
  0
LINE
  8
0
 10
-128.789
 11
-128.969
 20
-22.117
 21
-22.197
  0
LINE
  8
0
 10
-128.969
 11
-129.152
 20
-22.197
 21
-22.267
  0
LINE
  8
0
 10
-129.152
 11
-129.339
 20
-22.267
 21
-22.329
  0
LINE
  8
0
 10
-129.339
 11
-129.528
 20
-22.329
 21
-22.381
  0
LINE
  8
0
 10
-129.528
 11
-129.719
 20
-22.381
 21
-22.424
  0
LINE
  8
0
 10
-129.719
 11
-129.913
 20
-22.424
 21
-22.458
  0
LINE
  8
0
 10
-129.913
 11
-130.108
 20
-22.458
 21
-22.482
  0
LINE
  8
0
 10
-130.108
 11
-130.304
 20
-22.482
 21
-22.496
  0
LINE
  8
0
 10
-130.304
 11
-130.5
 20
-22.496
 21
-22.501
  0
LINE
  8
0
 10
-130.5
 11
-130.696
 20
-22.501
 21
-22.496
  0
LINE
  8
0
 10
-130.696
 11
-130.892
 20
-22.496
 21
-22.482
  0
LINE
  8
0
 10
-130.892
 11
-131.087
 20
-22.482
 21
-22.458
  0
LINE
  8
0
 10
-131.087
 11
-131.281
 20
-22.458
 21
-22.424
  0
LINE
  8
0
 10
-131.281
 11
-131.472
 20
-22.424
 21
-22.381
  0
LINE
  8
0
 10
-131.472
 11
-131.661
 20
-22.381
 21
-22.329
  0
LINE
  8
0
 10
-131.661
 11
-131.848
 20
-22.329
 21
-22.267
  0
LINE
  8
0
 10
-131.848
 11
-132.031
 20
-22.267
 21
-22.197
  0
LINE
  8
0
 10
-132.031
 11
-132.211
 20
-22.197
 21
-22.117
  0
LINE
  8
0
 10
-132.211
 11
-132.386
 20
-22.117
 21
-22.029
  0
LINE
  8
0
 10
-132.386
 11
-132.557
 20
-22.029
 21
-21.932
  0
LINE
  8
0
 10
-132.557
 11
-132.723
 20
-21.932
 21
-21.827
  0
LINE
  8
0
 10
-132.723
 11
-132.884
 20
-21.827
 21
-21.714
  0
LINE
  8
0
 10
-132.884
 11
-133.038
 20
-21.714
 21
-21.593
  0
LINE
  8
0
 10
-133.038
 11
-133.187
 20
-21.593
 21
-21.465
  0
LINE
  8
0
 10
-133.187
 11
-133.329
 20
-21.465
 21
-21.329
  0
LINE
  8
0
 10
-133.329
 11
-133.465
 20
-21.329
 21
-21.187
  0
LINE
  8
0
 10
-133.465
 11
-133.593
 20
-21.187
 21
-21.038
  0
LINE
  8
0
 10
-133.593
 11
-133.714
 20
-21.038
 21
-20.884
  0
LINE
  8
0
 10
-133.714
 11
-133.827
 20
-20.884
 21
-20.723
  0
LINE
  8
0
 10
-133.827
 11
-133.932
 20
-20.723
 21
-20.557
  0
LINE
  8
0
 10
-133.932
 11
-134.029
 20
-20.557
 21
-20.386
  0
LINE
  8
0
 10
-134.029
 11
-134.117
 20
-20.386
 21
-20.211
  0
LINE
  8
0
 10
-134.117
 11
-134.197
 20
-20.211
 21
-20.031
  0
LINE
  8
0
 10
-134.197
 11
-134.267
 20
-20.031
 21
-19.848
  0
LINE
  8
0
 10
-134.267
 11
-134.329
 20
-19.848
 21
-19.661
  0
LINE
  8
0
 10
-134.329
 11
-134.381
 20
-19.661
 21
-19.472
  0
LINE
  8
0
 10
-134.381
 11
-134.424
 20
-19.472
 21
-19.281
  0
LINE
  8
0
 10
-134.424
 11
-134.458
 20
-19.281
 21
-19.087
  0
LINE
  8
0
 10
-134.458
 11
-134.482
 20
-19.087
 21
-18.892
  0
LINE
  8
0
 10
-134.482
 11
-134.496
 20
-18.892
 21
-18.696
  0
LINE
  8
0
 10
-134.496
 11
-134.501
 20
-18.696
 21
-18.5
  0
LINE
  8
0
 10
-123.75
 11
-123.75
 20
-36.625
 21
-34.875
  0
LINE
  8
0
 10
-123.75
 11
-117.75
 20
-34.875
 21
-34.875
  0
LINE
  8
0
 10
-117.75
 11
-117.75
 20
-34.875
 21
-36.625
  0
LINE
  8
0
 10
-117.75
 11
-123.75
 20
-36.625
 21
-36.625
  0
LINE
  8
0
 10
-123.75
 11
-123.75
 20
-26.625
 21
-24.875
  0
LINE
  8
0
 10
-123.75
 11
-117.75
 20
-24.875
 21
-24.875
  0
LINE
  8
0
 10
-117.75
 11
-117.75
 20
-24.875
 21
-26.625
  0
LINE
  8
0
 10
-117.75
 11
-123.75
 20
-26.625
 21
-26.625
  0
LINE
  8
0
 10
-123.75
 11
-123.75
 20
38.625
 21
40.375
  0
LINE
  8
0
 10
-123.75
 11
-117.75
 20
40.375
 21
40.375
  0
LINE
  8
0
 10
-117.75
 11
-117.75
 20
40.375
 21
38.625
  0
LINE
  8
0
 10
-117.75
 11
-123.75
 20
38.625
 21
38.625
  0
LINE
  8
0
 10
-123.75
 11
-123.75
 20
84.625
 21
86.375
  0
LINE
  8
0
 10
-123.75
 11
-117.75
 20
86.375
 21
86.375
  0
LINE
  8
0
 10
-117.75
 11
-117.75
 20
86.375
 21
84.625
  0
LINE
  8
0
 10
-117.75
 11
-123.75
 20
84.625
 21
84.625
  0
LINE
  8
0
 10
-114
 11
-114
 20
-34.025
 21
-27.475
  0
LINE
  8
0
 10
-114
 11
-105
 20
-27.475
 21
-27.475
  0
LINE
  8
0
 10
-105
 11
-105
 20
-27.475
 21
-34.025
  0
LINE
  8
0
 10
-105
 11
-114
 20
-34.025
 21
-34.025
  0
LINE
  8
0
 10
-110.578
 11
-110.268
 20
17.5
 21
19.061
  0
LINE
  8
0
 10
-110.268
 11
-109.384
 20
19.061
 21
20.384
  0
LINE
  8
0
 10
-109.384
 11
-108.061
 20
20.384
 21
21.268
  0
LINE
  8
0
 10
-108.061
 11
-106.5
 20
21.268
 21
21.578
  0
LINE
  8
0
 10
-106.5
 11
-104.939
 20
21.578
 21
21.268
  0
LINE
  8
0
 10
-104.939
 11
-103.616
 20
21.268
 21
20.384
  0
LINE
  8
0
 10
-103.616
 11
-102.732
 20
20.384
 21
19.061
  0
LINE
  8
0
 10
-102.732
 11
-102.422
 20
19.061
 21
17.5
  0
LINE
  8
0
 10
-102.422
 11
-102.732
 20
17.5
 21
15.939
  0
LINE
  8
0
 10
-102.732
 11
-103.616
 20
15.939
 21
14.616
  0
LINE
  8
0
 10
-103.616
 11
-104.939
 20
14.616
 21
13.732
  0
LINE
  8
0
 10
-104.939
 11
-106.5
 20
13.732
 21
13.422
  0
LINE
  8
0
 10
-106.5
 11
-108.061
 20
13.422
 21
13.732
  0
LINE
  8
0
 10
-108.061
 11
-109.384
 20
13.732
 21
14.616
  0
LINE
  8
0
 10
-109.384
 11
-110.268
 20
14.616
 21
15.939
  0
LINE
  8
0
 10
-110.268
 11
-110.578
 20
15.939
 21
17.5
  0
LINE
  8
0
 10
-110.519
 11
-110.442
 20
5.5
 21
6.284
  0
LINE
  8
0
 10
-110.442
 11
-110.213
 20
6.284
 21
7.038
  0
LINE
  8
0
 10
-110.213
 11
-109.842
 20
7.038
 21
7.733
  0
LINE
  8
0
 10
-109.842
 11
-109.342
 20
7.733
 21
8.342
  0
LINE
  8
0
 10
-109.342
 11
-108.733
 20
8.342
 21
8.842
  0
LINE
  8
0
 10
-108.733
 11
-108.038
 20
8.842
 21
9.213
  0
LINE
  8
0
 10
-108.038
 11
-107.284
 20
9.213
 21
9.442
  0
LINE
  8
0
 10
-107.284
 11
-106.5
 20
9.442
 21
9.519
  0
LINE
  8
0
 10
-106.5
 11
-105.716
 20
9.519
 21
9.442
  0
LINE
  8
0
 10
-105.716
 11
-104.962
 20
9.442
 21
9.213
  0
LINE
  8
0
 10
-104.962
 11
-104.267
 20
9.213
 21
8.842
  0
LINE
  8
0
 10
-104.267
 11
-103.658
 20
8.842
 21
8.342
  0
LINE
  8
0
 10
-103.658
 11
-103.158
 20
8.342
 21
7.733
  0
LINE
  8
0
 10
-103.158
 11
-102.787
 20
7.733
 21
7.038
  0
LINE
  8
0
 10
-102.787
 11
-102.558
 20
7.038
 21
6.284
  0
LINE
  8
0
 10
-102.558
 11
-102.481
 20
6.284
 21
5.5
  0
LINE
  8
0
 10
-102.481
 11
-102.558
 20
5.5
 21
4.716
  0
LINE
  8
0
 10
-102.558
 11
-102.787
 20
4.716
 21
3.962
  0
LINE
  8
0
 10
-102.787
 11
-103.158
 20
3.962
 21
3.267
  0
LINE
  8
0
 10
-103.158
 11
-103.658
 20
3.267
 21
2.658
  0
LINE
  8
0
 10
-103.658
 11
-104.267
 20
2.658
 21
2.158
  0
LINE
  8
0
 10
-104.267
 11
-104.962
 20
2.158
 21
1.787
  0
LINE
  8
0
 10
-104.962
 11
-105.716
 20
1.787
 21
1.558
  0
LINE
  8
0
 10
-105.716
 11
-106.5
 20
1.558
 21
1.481
  0
LINE
  8
0
 10
-106.5
 11
-107.284
 20
1.481
 21
1.558
  0
LINE
  8
0
 10
-107.284
 11
-108.038
 20
1.558
 21
1.787
  0
LINE
  8
0
 10
-108.038
 11
-108.733
 20
1.787
 21
2.158
  0
LINE
  8
0
 10
-108.733
 11
-109.342
 20
2.158
 21
2.658
  0
LINE
  8
0
 10
-109.342
 11
-109.842
 20
2.658
 21
3.267
  0
LINE
  8
0
 10
-109.842
 11
-110.213
 20
3.267
 21
3.962
  0
LINE
  8
0
 10
-110.213
 11
-110.442
 20
3.962
 21
4.716
  0
LINE
  8
0
 10
-110.442
 11
-110.519
 20
4.716
 21
5.5
  0
LINE
  8
0
 10
-110.505
 11
-110.486
 20
-6.5
 21
-6.107
  0
LINE
  8
0
 10
-110.486
 11
-110.428
 20
-6.107
 21
-5.719
  0
LINE
  8
0
 10
-110.428
 11
-110.332
 20
-5.719
 21
-5.337
  0
LINE
  8
0
 10
-110.332
 11
-110.2
 20
-5.337
 21
-4.967
  0
LINE
  8
0
 10
-110.2
 11
-110.032
 20
-4.967
 21
-4.612
  0
LINE
  8
0
 10
-110.032
 11
-109.83
 20
-4.612
 21
-4.275
  0
LINE
  8
0
 10
-109.83
 11
-109.596
 20
-4.275
 21
-3.959
  0
LINE
  8
0
 10
-109.596
 11
-109.332
 20
-3.959
 21
-3.668
  0
LINE
  8
0
 10
-109.332
 11
-109.041
 20
-3.668
 21
-3.404
  0
LINE
  8
0
 10
-109.041
 11
-108.725
 20
-3.404
 21
-3.17
  0
LINE
  8
0
 10
-108.725
 11
-108.388
 20
-3.17
 21
-2.968
  0
LINE
  8
0
 10
-108.388
 11
-108.033
 20
-2.968
 21
-2.8
  0
LINE
  8
0
 10
-108.033
 11
-107.663
 20
-2.8
 21
-2.668
  0
LINE
  8
0
 10
-107.663
 11
-107.281
 20
-2.668
 21
-2.572
  0
LINE
  8
0
 10
-107.281
 11
-106.893
 20
-2.572
 21
-2.514
  0
LINE
  8
0
 10
-106.893
 11
-106.5
 20
-2.514
 21
-2.495
  0
LINE
  8
0
 10
-106.5
 11
-106.107
 20
-2.495
 21
-2.514
  0
LINE
  8
0
 10
-106.107
 11
-105.719
 20
-2.514
 21
-2.572
  0
LINE
  8
0
 10
-105.719
 11
-105.337
 20
-2.572
 21
-2.668
  0
LINE
  8
0
 10
-105.337
 11
-104.967
 20
-2.668
 21
-2.8
  0
LINE
  8
0
 10
-104.967
 11
-104.612
 20
-2.8
 21
-2.968
  0
LINE
  8
0
 10
-104.612
 11
-104.275
 20
-2.968
 21
-3.17
  0
LINE
  8
0
 10
-104.275
 11
-103.959
 20
-3.17
 21
-3.404
  0
LINE
  8
0
 10
-103.959
 11
-103.668
 20
-3.404
 21
-3.668
  0
LINE
  8
0
 10
-103.668
 11
-103.404
 20
-3.668
 21
-3.959
  0
LINE
  8
0
 10
-103.404
 11
-103.17
 20
-3.959
 21
-4.275
  0
LINE
  8
0
 10
-103.17
 11
-102.968
 20
-4.275
 21
-4.612
  0
LINE
  8
0
 10
-102.968
 11
-102.8
 20
-4.612
 21
-4.967
  0
LINE
  8
0
 10
-102.8
 11
-102.668
 20
-4.967
 21
-5.337
  0
LINE
  8
0
 10
-102.668
 11
-102.572
 20
-5.337
 21
-5.719
  0
LINE
  8
0
 10
-102.572
 11
-102.514
 20
-5.719
 21
-6.107
  0
LINE
  8
0
 10
-102.514
 11
-102.495
 20
-6.107
 21
-6.5
  0
LINE
  8
0
 10
-102.495
 11
-102.514
 20
-6.5
 21
-6.893
  0
LINE
  8
0
 10
-102.514
 11
-102.572
 20
-6.893
 21
-7.281
  0
LINE
  8
0
 10
-102.572
 11
-102.668
 20
-7.281
 21
-7.663
  0
LINE
  8
0
 10
-102.668
 11
-102.8
 20
-7.663
 21
-8.033
  0
LINE
  8
0
 10
-102.8
 11
-102.968
 20
-8.033
 21
-8.388
  0
LINE
  8
0
 10
-102.968
 11
-103.17
 20
-8.388
 21
-8.725
  0
LINE
  8
0
 10
-103.17
 11
-103.404
 20
-8.725
 21
-9.041
  0
LINE
  8
0
 10
-103.404
 11
-103.668
 20
-9.041
 21
-9.332
  0
LINE
  8
0
 10
-103.668
 11
-103.959
 20
-9.332
 21
-9.596
  0
LINE
  8
0
 10
-103.959
 11
-104.275
 20
-9.596
 21
-9.83
  0
LINE
  8
0
 10
-104.275
 11
-104.612
 20
-9.83
 21
-10.032
  0
LINE
  8
0
 10
-104.612
 11
-104.967
 20
-10.032
 21
-10.2
  0
LINE
  8
0
 10
-104.967
 11
-105.337
 20
-10.2
 21
-10.332
  0
LINE
  8
0
 10
-105.337
 11
-105.719
 20
-10.332
 21
-10.428
  0
LINE
  8
0
 10
-105.719
 11
-106.107
 20
-10.428
 21
-10.486
  0
LINE
  8
0
 10
-106.107
 11
-106.5
 20
-10.486
 21
-10.505
  0
LINE
  8
0
 10
-106.5
 11
-106.893
 20
-10.505
 21
-10.486
  0
LINE
  8
0
 10
-106.893
 11
-107.281
 20
-10.486
 21
-10.428
  0
LINE
  8
0
 10
-107.281
 11
-107.663
 20
-10.428
 21
-10.332
  0
LINE
  8
0
 10
-107.663
 11
-108.033
 20
-10.332
 21
-10.2
  0
LINE
  8
0
 10
-108.033
 11
-108.388
 20
-10.2
 21
-10.032
  0
LINE
  8
0
 10
-108.388
 11
-108.725
 20
-10.032
 21
-9.83
  0
LINE
  8
0
 10
-108.725
 11
-109.041
 20
-9.83
 21
-9.596
  0
LINE
  8
0
 10
-109.041
 11
-109.332
 20
-9.596
 21
-9.332
  0
LINE
  8
0
 10
-109.332
 11
-109.596
 20
-9.332
 21
-9.041
  0
LINE
  8
0
 10
-109.596
 11
-109.83
 20
-9.041
 21
-8.725
  0
LINE
  8
0
 10
-109.83
 11
-110.032
 20
-8.725
 21
-8.388
  0
LINE
  8
0
 10
-110.032
 11
-110.2
 20
-8.388
 21
-8.033
  0
LINE
  8
0
 10
-110.2
 11
-110.332
 20
-8.033
 21
-7.663
  0
LINE
  8
0
 10
-110.332
 11
-110.428
 20
-7.663
 21
-7.281
  0
LINE
  8
0
 10
-110.428
 11
-110.486
 20
-7.281
 21
-6.893
  0
LINE
  8
0
 10
-110.486
 11
-110.505
 20
-6.893
 21
-6.5
  0
LINE
  8
0
 10
-110.501
 11
-110.496
 20
-18.5
 21
-18.304
  0
LINE
  8
0
 10
-110.496
 11
-110.482
 20
-18.304
 21
-18.108
  0
LINE
  8
0
 10
-110.482
 11
-110.458
 20
-18.108
 21
-17.913
  0
LINE
  8
0
 10
-110.458
 11
-110.424
 20
-17.913
 21
-17.719
  0
LINE
  8
0
 10
-110.424
 11
-110.381
 20
-17.719
 21
-17.528
  0
LINE
  8
0
 10
-110.381
 11
-110.329
 20
-17.528
 21
-17.339
  0
LINE
  8
0
 10
-110.329
 11
-110.267
 20
-17.339
 21
-17.152
  0
LINE
  8
0
 10
-110.267
 11
-110.197
 20
-17.152
 21
-16.969
  0
LINE
  8
0
 10
-110.197
 11
-110.117
 20
-16.969
 21
-16.789
  0
LINE
  8
0
 10
-110.117
 11
-110.029
 20
-16.789
 21
-16.614
  0
LINE
  8
0
 10
-110.029
 11
-109.932
 20
-16.614
 21
-16.443
  0
LINE
  8
0
 10
-109.932
 11
-109.827
 20
-16.443
 21
-16.277
  0
LINE
  8
0
 10
-109.827
 11
-109.714
 20
-16.277
 21
-16.116
  0
LINE
  8
0
 10
-109.714
 11
-109.593
 20
-16.116
 21
-15.962
  0
LINE
  8
0
 10
-109.593
 11
-109.465
 20
-15.962
 21
-15.813
  0
LINE
  8
0
 10
-109.465
 11
-109.329
 20
-15.813
 21
-15.671
  0
LINE
  8
0
 10
-109.329
 11
-109.187
 20
-15.671
 21
-15.535
  0
LINE
  8
0
 10
-109.187
 11
-109.038
 20
-15.535
 21
-15.407
  0
LINE
  8
0
 10
-109.038
 11
-108.884
 20
-15.407
 21
-15.286
  0
LINE
  8
0
 10
-108.884
 11
-108.723
 20
-15.286
 21
-15.173
  0
LINE
  8
0
 10
-108.723
 11
-108.557
 20
-15.173
 21
-15.068
  0
LINE
  8
0
 10
-108.557
 11
-108.386
 20
-15.068
 21
-14.971
  0
LINE
  8
0
 10
-108.386
 11
-108.211
 20
-14.971
 21
-14.883
  0
LINE
  8
0
 10
-108.211
 11
-108.031
 20
-14.883
 21
-14.803
  0
LINE
  8
0
 10
-108.031
 11
-107.848
 20
-14.803
 21
-14.733
  0
LINE
  8
0
 10
-107.848
 11
-107.661
 20
-14.733
 21
-14.671
  0
LINE
  8
0
 10
-107.661
 11
-107.472
 20
-14.671
 21
-14.619
  0
LINE
  8
0
 10
-107.472
 11
-107.281
 20
-14.619
 21
-14.576
  0
LINE
  8
0
 10
-107.281
 11
-107.087
 20
-14.576
 21
-14.542
  0
LINE
  8
0
 10
-107.087
 11
-106.892
 20
-14.542
 21
-14.518
  0
LINE
  8
0
 10
-106.892
 11
-106.696
 20
-14.518
 21
-14.504
  0
LINE
  8
0
 10
-106.696
 11
-106.5
 20
-14.504
 21
-14.499
  0
LINE
  8
0
 10
-106.5
 11
-106.304
 20
-14.499
 21
-14.504
  0
LINE
  8
0
 10
-106.304
 11
-106.108
 20
-14.504
 21
-14.518
  0
LINE
  8
0
 10
-106.108
 11
-105.913
 20
-14.518
 21
-14.542
  0
LINE
  8
0
 10
-105.913
 11
-105.719
 20
-14.542
 21
-14.576
  0
LINE
  8
0
 10
-105.719
 11
-105.528
 20
-14.576
 21
-14.619
  0
LINE
  8
0
 10
-105.528
 11
-105.339
 20
-14.619
 21
-14.671
  0
LINE
  8
0
 10
-105.339
 11
-105.152
 20
-14.671
 21
-14.733
  0
LINE
  8
0
 10
-105.152
 11
-104.969
 20
-14.733
 21
-14.803
  0
LINE
  8
0
 10
-104.969
 11
-104.789
 20
-14.803
 21
-14.883
  0
LINE
  8
0
 10
-104.789
 11
-104.614
 20
-14.883
 21
-14.971
  0
LINE
  8
0
 10
-104.614
 11
-104.443
 20
-14.971
 21
-15.068
  0
LINE
  8
0
 10
-104.443
 11
-104.277
 20
-15.068
 21
-15.173
  0
LINE
  8
0
 10
-104.277
 11
-104.116
 20
-15.173
 21
-15.286
  0
LINE
  8
0
 10
-104.116
 11
-103.962
 20
-15.286
 21
-15.407
  0
LINE
  8
0
 10
-103.962
 11
-103.813
 20
-15.407
 21
-15.535
  0
LINE
  8
0
 10
-103.813
 11
-103.671
 20
-15.535
 21
-15.671
  0
LINE
  8
0
 10
-103.671
 11
-103.535
 20
-15.671
 21
-15.813
  0
LINE
  8
0
 10
-103.535
 11
-103.407
 20
-15.813
 21
-15.962
  0
LINE
  8
0
 10
-103.407
 11
-103.286
 20
-15.962
 21
-16.116
  0
LINE
  8
0
 10
-103.286
 11
-103.173
 20
-16.116
 21
-16.277
  0
LINE
  8
0
 10
-103.173
 11
-103.068
 20
-16.277
 21
-16.443
  0
LINE
  8
0
 10
-103.068
 11
-102.971
 20
-16.443
 21
-16.614
  0
LINE
  8
0
 10
-102.971
 11
-102.883
 20
-16.614
 21
-16.789
  0
LINE
  8
0
 10
-102.883
 11
-102.803
 20
-16.789
 21
-16.969
  0
LINE
  8
0
 10
-102.803
 11
-102.733
 20
-16.969
 21
-17.152
  0
LINE
  8
0
 10
-102.733
 11
-102.671
 20
-17.152
 21
-17.339
  0
LINE
  8
0
 10
-102.671
 11
-102.619
 20
-17.339
 21
-17.528
  0
LINE
  8
0
 10
-102.619
 11
-102.576
 20
-17.528
 21
-17.719
  0
LINE
  8
0
 10
-102.576
 11
-102.542
 20
-17.719
 21
-17.913
  0
LINE
  8
0
 10
-102.542
 11
-102.518
 20
-17.913
 21
-18.108
  0
LINE
  8
0
 10
-102.518
 11
-102.504
 20
-18.108
 21
-18.304
  0
LINE
  8
0
 10
-102.504
 11
-102.499
 20
-18.304
 21
-18.5
  0
LINE
  8
0
 10
-102.499
 11
-102.504
 20
-18.5
 21
-18.696
  0
LINE
  8
0
 10
-102.504
 11
-102.518
 20
-18.696
 21
-18.892
  0
LINE
  8
0
 10
-102.518
 11
-102.542
 20
-18.892
 21
-19.087
  0
LINE
  8
0
 10
-102.542
 11
-102.576
 20
-19.087
 21
-19.281
  0
LINE
  8
0
 10
-102.576
 11
-102.619
 20
-19.281
 21
-19.472
  0
LINE
  8
0
 10
-102.619
 11
-102.671
 20
-19.472
 21
-19.661
  0
LINE
  8
0
 10
-102.671
 11
-102.733
 20
-19.661
 21
-19.848
  0
LINE
  8
0
 10
-102.733
 11
-102.803
 20
-19.848
 21
-20.031
  0
LINE
  8
0
 10
-102.803
 11
-102.883
 20
-20.031
 21
-20.211
  0
LINE
  8
0
 10
-102.883
 11
-102.971
 20
-20.211
 21
-20.386
  0
LINE
  8
0
 10
-102.971
 11
-103.068
 20
-20.386
 21
-20.557
  0
LINE
  8
0
 10
-103.068
 11
-103.173
 20
-20.557
 21
-20.723
  0
LINE
  8
0
 10
-103.173
 11
-103.286
 20
-20.723
 21
-20.884
  0
LINE
  8
0
 10
-103.286
 11
-103.407
 20
-20.884
 21
-21.038
  0
LINE
  8
0
 10
-103.407
 11
-103.535
 20
-21.038
 21
-21.187
  0
LINE
  8
0
 10
-103.535
 11
-103.671
 20
-21.187
 21
-21.329
  0
LINE
  8
0
 10
-103.671
 11
-103.813
 20
-21.329
 21
-21.465
  0
LINE
  8
0
 10
-103.813
 11
-103.962
 20
-21.465
 21
-21.593
  0
LINE
  8
0
 10
-103.962
 11
-104.116
 20
-21.593
 21
-21.714
  0
LINE
  8
0
 10
-104.116
 11
-104.277
 20
-21.714
 21
-21.827
  0
LINE
  8
0
 10
-104.277
 11
-104.443
 20
-21.827
 21
-21.932
  0
LINE
  8
0
 10
-104.443
 11
-104.614
 20
-21.932
 21
-22.029
  0
LINE
  8
0
 10
-104.614
 11
-104.789
 20
-22.029
 21
-22.117
  0
LINE
  8
0
 10
-104.789
 11
-104.969
 20
-22.117
 21
-22.197
  0
LINE
  8
0
 10
-104.969
 11
-105.152
 20
-22.197
 21
-22.267
  0
LINE
  8
0
 10
-105.152
 11
-105.339
 20
-22.267
 21
-22.329
  0
LINE
  8
0
 10
-105.339
 11
-105.528
 20
-22.329
 21
-22.381
  0
LINE
  8
0
 10
-105.528
 11
-105.719
 20
-22.381
 21
-22.424
  0
LINE
  8
0
 10
-105.719
 11
-105.913
 20
-22.424
 21
-22.458
  0
LINE
  8
0
 10
-105.913
 11
-106.108
 20
-22.458
 21
-22.482
  0
LINE
  8
0
 10
-106.108
 11
-106.304
 20
-22.482
 21
-22.496
  0
LINE
  8
0
 10
-106.304
 11
-106.5
 20
-22.496
 21
-22.501
  0
LINE
  8
0
 10
-106.5
 11
-106.696
 20
-22.501
 21
-22.496
  0
LINE
  8
0
 10
-106.696
 11
-106.892
 20
-22.496
 21
-22.482
  0
LINE
  8
0
 10
-106.892
 11
-107.087
 20
-22.482
 21
-22.458
  0
LINE
  8
0
 10
-107.087
 11
-107.281
 20
-22.458
 21
-22.424
  0
LINE
  8
0
 10
-107.281
 11
-107.472
 20
-22.424
 21
-22.381
  0
LINE
  8
0
 10
-107.472
 11
-107.661
 20
-22.381
 21
-22.329
  0
LINE
  8
0
 10
-107.661
 11
-107.848
 20
-22.329
 21
-22.267
  0
LINE
  8
0
 10
-107.848
 11
-108.031
 20
-22.267
 21
-22.197
  0
LINE
  8
0
 10
-108.031
 11
-108.211
 20
-22.197
 21
-22.117
  0
LINE
  8
0
 10
-108.211
 11
-108.386
 20
-22.117
 21
-22.029
  0
LINE
  8
0
 10
-108.386
 11
-108.557
 20
-22.029
 21
-21.932
  0
LINE
  8
0
 10
-108.557
 11
-108.723
 20
-21.932
 21
-21.827
  0
LINE
  8
0
 10
-108.723
 11
-108.884
 20
-21.827
 21
-21.714
  0
LINE
  8
0
 10
-108.884
 11
-109.038
 20
-21.714
 21
-21.593
  0
LINE
  8
0
 10
-109.038
 11
-109.187
 20
-21.593
 21
-21.465
  0
LINE
  8
0
 10
-109.187
 11
-109.329
 20
-21.465
 21
-21.329
  0
LINE
  8
0
 10
-109.329
 11
-109.465
 20
-21.329
 21
-21.187
  0
LINE
  8
0
 10
-109.465
 11
-109.593
 20
-21.187
 21
-21.038
  0
LINE
  8
0
 10
-109.593
 11
-109.714
 20
-21.038
 21
-20.884
  0
LINE
  8
0
 10
-109.714
 11
-109.827
 20
-20.884
 21
-20.723
  0
LINE
  8
0
 10
-109.827
 11
-109.932
 20
-20.723
 21
-20.557
  0
LINE
  8
0
 10
-109.932
 11
-110.029
 20
-20.557
 21
-20.386
  0
LINE
  8
0
 10
-110.029
 11
-110.117
 20
-20.386
 21
-20.211
  0
LINE
  8
0
 10
-110.117
 11
-110.197
 20
-20.211
 21
-20.031
  0
LINE
  8
0
 10
-110.197
 11
-110.267
 20
-20.031
 21
-19.848
  0
LINE
  8
0
 10
-110.267
 11
-110.329
 20
-19.848
 21
-19.661
  0
LINE
  8
0
 10
-110.329
 11
-110.381
 20
-19.661
 21
-19.472
  0
LINE
  8
0
 10
-110.381
 11
-110.424
 20
-19.472
 21
-19.281
  0
LINE
  8
0
 10
-110.424
 11
-110.458
 20
-19.281
 21
-19.087
  0
LINE
  8
0
 10
-110.458
 11
-110.482
 20
-19.087
 21
-18.892
  0
LINE
  8
0
 10
-110.482
 11
-110.496
 20
-18.892
 21
-18.696
  0
LINE
  8
0
 10
-110.496
 11
-110.501
 20
-18.696
 21
-18.5
  0
LINE
  8
0
 10
-86.578
 11
-86.268
 20
17.5
 21
19.061
  0
LINE
  8
0
 10
-86.268
 11
-85.384
 20
19.061
 21
20.384
  0
LINE
  8
0
 10
-85.384
 11
-84.061
 20
20.384
 21
21.268
  0
LINE
  8
0
 10
-84.061
 11
-82.5
 20
21.268
 21
21.578
  0
LINE
  8
0
 10
-82.5
 11
-80.939
 20
21.578
 21
21.268
  0
LINE
  8
0
 10
-80.939
 11
-79.616
 20
21.268
 21
20.384
  0
LINE
  8
0
 10
-79.616
 11
-78.732
 20
20.384
 21
19.061
  0
LINE
  8
0
 10
-78.732
 11
-78.422
 20
19.061
 21
17.5
  0
LINE
  8
0
 10
-78.422
 11
-78.732
 20
17.5
 21
15.939
  0
LINE
  8
0
 10
-78.732
 11
-79.616
 20
15.939
 21
14.616
  0
LINE
  8
0
 10
-79.616
 11
-80.939
 20
14.616
 21
13.732
  0
LINE
  8
0
 10
-80.939
 11
-82.5
 20
13.732
 21
13.422
  0
LINE
  8
0
 10
-82.5
 11
-84.061
 20
13.422
 21
13.732
  0
LINE
  8
0
 10
-84.061
 11
-85.384
 20
13.732
 21
14.616
  0
LINE
  8
0
 10
-85.384
 11
-86.268
 20
14.616
 21
15.939
  0
LINE
  8
0
 10
-86.268
 11
-86.578
 20
15.939
 21
17.5
  0
LINE
  8
0
 10
-86.519
 11
-86.442
 20
5.5
 21
6.284
  0
LINE
  8
0
 10
-86.442
 11
-86.213
 20
6.284
 21
7.038
  0
LINE
  8
0
 10
-86.213
 11
-85.842
 20
7.038
 21
7.733
  0
LINE
  8
0
 10
-85.842
 11
-85.342
 20
7.733
 21
8.342
  0
LINE
  8
0
 10
-85.342
 11
-84.733
 20
8.342
 21
8.842
  0
LINE
  8
0
 10
-84.733
 11
-84.038
 20
8.842
 21
9.213
  0
LINE
  8
0
 10
-84.038
 11
-83.284
 20
9.213
 21
9.442
  0
LINE
  8
0
 10
-83.284
 11
-82.5
 20
9.442
 21
9.519
  0
LINE
  8
0
 10
-82.5
 11
-81.716
 20
9.519
 21
9.442
  0
LINE
  8
0
 10
-81.716
 11
-80.962
 20
9.442
 21
9.213
  0
LINE
  8
0
 10
-80.962
 11
-80.267
 20
9.213
 21
8.842
  0
LINE
  8
0
 10
-80.267
 11
-79.658
 20
8.842
 21
8.342
  0
LINE
  8
0
 10
-79.658
 11
-79.158
 20
8.342
 21
7.733
  0
LINE
  8
0
 10
-79.158
 11
-78.787
 20
7.733
 21
7.038
  0
LINE
  8
0
 10
-78.787
 11
-78.558
 20
7.038
 21
6.284
  0
LINE
  8
0
 10
-78.558
 11
-78.481
 20
6.284
 21
5.5
  0
LINE
  8
0
 10
-78.481
 11
-78.558
 20
5.5
 21
4.716
  0
LINE
  8
0
 10
-78.558
 11
-78.787
 20
4.716
 21
3.962
  0
LINE
  8
0
 10
-78.787
 11
-79.158
 20
3.962
 21
3.267
  0
LINE
  8
0
 10
-79.158
 11
-79.658
 20
3.267
 21
2.658
  0
LINE
  8
0
 10
-79.658
 11
-80.267
 20
2.658
 21
2.158
  0
LINE
  8
0
 10
-80.267
 11
-80.962
 20
2.158
 21
1.787
  0
LINE
  8
0
 10
-80.962
 11
-81.716
 20
1.787
 21
1.558
  0
LINE
  8
0
 10
-81.716
 11
-82.5
 20
1.558
 21
1.481
  0
LINE
  8
0
 10
-82.5
 11
-83.284
 20
1.481
 21
1.558
  0
LINE
  8
0
 10
-83.284
 11
-84.038
 20
1.558
 21
1.787
  0
LINE
  8
0
 10
-84.038
 11
-84.733
 20
1.787
 21
2.158
  0
LINE
  8
0
 10
-84.733
 11
-85.342
 20
2.158
 21
2.658
  0
LINE
  8
0
 10
-85.342
 11
-85.842
 20
2.658
 21
3.267
  0
LINE
  8
0
 10
-85.842
 11
-86.213
 20
3.267
 21
3.962
  0
LINE
  8
0
 10
-86.213
 11
-86.442
 20
3.962
 21
4.716
  0
LINE
  8
0
 10
-86.442
 11
-86.519
 20
4.716
 21
5.5
  0
LINE
  8
0
 10
-86.505
 11
-86.486
 20
-6.5
 21
-6.107
  0
LINE
  8
0
 10
-86.486
 11
-86.428
 20
-6.107
 21
-5.719
  0
LINE
  8
0
 10
-86.428
 11
-86.332
 20
-5.719
 21
-5.337
  0
LINE
  8
0
 10
-86.332
 11
-86.2
 20
-5.337
 21
-4.967
  0
LINE
  8
0
 10
-86.2
 11
-86.032
 20
-4.967
 21
-4.612
  0
LINE
  8
0
 10
-86.032
 11
-85.83
 20
-4.612
 21
-4.275
  0
LINE
  8
0
 10
-85.83
 11
-85.596
 20
-4.275
 21
-3.959
  0
LINE
  8
0
 10
-85.596
 11
-85.332
 20
-3.959
 21
-3.668
  0
LINE
  8
0
 10
-85.332
 11
-85.041
 20
-3.668
 21
-3.404
  0
LINE
  8
0
 10
-85.041
 11
-84.725
 20
-3.404
 21
-3.17
  0
LINE
  8
0
 10
-84.725
 11
-84.388
 20
-3.17
 21
-2.968
  0
LINE
  8
0
 10
-84.388
 11
-84.033
 20
-2.968
 21
-2.8
  0
LINE
  8
0
 10
-84.033
 11
-83.663
 20
-2.8
 21
-2.668
  0
LINE
  8
0
 10
-83.663
 11
-83.281
 20
-2.668
 21
-2.572
  0
LINE
  8
0
 10
-83.281
 11
-82.893
 20
-2.572
 21
-2.514
  0
LINE
  8
0
 10
-82.893
 11
-82.5
 20
-2.514
 21
-2.495
  0
LINE
  8
0
 10
-82.5
 11
-82.107
 20
-2.495
 21
-2.514
  0
LINE
  8
0
 10
-82.107
 11
-81.719
 20
-2.514
 21
-2.572
  0
LINE
  8
0
 10
-81.719
 11
-81.337
 20
-2.572
 21
-2.668
  0
LINE
  8
0
 10
-81.337
 11
-80.967
 20
-2.668
 21
-2.8
  0
LINE
  8
0
 10
-80.967
 11
-80.612
 20
-2.8
 21
-2.968
  0
LINE
  8
0
 10
-80.612
 11
-80.275
 20
-2.968
 21
-3.17
  0
LINE
  8
0
 10
-80.275
 11
-79.959
 20
-3.17
 21
-3.404
  0
LINE
  8
0
 10
-79.959
 11
-79.668
 20
-3.404
 21
-3.668
  0
LINE
  8
0
 10
-79.668
 11
-79.404
 20
-3.668
 21
-3.959
  0
LINE
  8
0
 10
-79.404
 11
-79.17
 20
-3.959
 21
-4.275
  0
LINE
  8
0
 10
-79.17
 11
-78.968
 20
-4.275
 21
-4.612
  0
LINE
  8
0
 10
-78.968
 11
-78.8
 20
-4.612
 21
-4.967
  0
LINE
  8
0
 10
-78.8
 11
-78.668
 20
-4.967
 21
-5.337
  0
LINE
  8
0
 10
-78.668
 11
-78.572
 20
-5.337
 21
-5.719
  0
LINE
  8
0
 10
-78.572
 11
-78.514
 20
-5.719
 21
-6.107
  0
LINE
  8
0
 10
-78.514
 11
-78.495
 20
-6.107
 21
-6.5
  0
LINE
  8
0
 10
-78.495
 11
-78.514
 20
-6.5
 21
-6.893
  0
LINE
  8
0
 10
-78.514
 11
-78.572
 20
-6.893
 21
-7.281
  0
LINE
  8
0
 10
-78.572
 11
-78.668
 20
-7.281
 21
-7.663
  0
LINE
  8
0
 10
-78.668
 11
-78.8
 20
-7.663
 21
-8.033
  0
LINE
  8
0
 10
-78.8
 11
-78.968
 20
-8.033
 21
-8.388
  0
LINE
  8
0
 10
-78.968
 11
-79.17
 20
-8.388
 21
-8.725
  0
LINE
  8
0
 10
-79.17
 11
-79.404
 20
-8.725
 21
-9.041
  0
LINE
  8
0
 10
-79.404
 11
-79.668
 20
-9.041
 21
-9.332
  0
LINE
  8
0
 10
-79.668
 11
-79.959
 20
-9.332
 21
-9.596
  0
LINE
  8
0
 10
-79.959
 11
-80.275
 20
-9.596
 21
-9.83
  0
LINE
  8
0
 10
-80.275
 11
-80.612
 20
-9.83
 21
-10.032
  0
LINE
  8
0
 10
-80.612
 11
-80.967
 20
-10.032
 21
-10.2
  0
LINE
  8
0
 10
-80.967
 11
-81.337
 20
-10.2
 21
-10.332
  0
LINE
  8
0
 10
-81.337
 11
-81.719
 20
-10.332
 21
-10.428
  0
LINE
  8
0
 10
-81.719
 11
-82.107
 20
-10.428
 21
-10.486
  0
LINE
  8
0
 10
-82.107
 11
-82.5
 20
-10.486
 21
-10.505
  0
LINE
  8
0
 10
-82.5
 11
-82.893
 20
-10.505
 21
-10.486
  0
LINE
  8
0
 10
-82.893
 11
-83.281
 20
-10.486
 21
-10.428
  0
LINE
  8
0
 10
-83.281
 11
-83.663
 20
-10.428
 21
-10.332
  0
LINE
  8
0
 10
-83.663
 11
-84.033
 20
-10.332
 21
-10.2
  0
LINE
  8
0
 10
-84.033
 11
-84.388
 20
-10.2
 21
-10.032
  0
LINE
  8
0
 10
-84.388
 11
-84.725
 20
-10.032
 21
-9.83
  0
LINE
  8
0
 10
-84.725
 11
-85.041
 20
-9.83
 21
-9.596
  0
LINE
  8
0
 10
-85.041
 11
-85.332
 20
-9.596
 21
-9.332
  0
LINE
  8
0
 10
-85.332
 11
-85.596
 20
-9.332
 21
-9.041
  0
LINE
  8
0
 10
-85.596
 11
-85.83
 20
-9.041
 21
-8.725
  0
LINE
  8
0
 10
-85.83
 11
-86.032
 20
-8.725
 21
-8.388
  0
LINE
  8
0
 10
-86.032
 11
-86.2
 20
-8.388
 21
-8.033
  0
LINE
  8
0
 10
-86.2
 11
-86.332
 20
-8.033
 21
-7.663
  0
LINE
  8
0
 10
-86.332
 11
-86.428
 20
-7.663
 21
-7.281
  0
LINE
  8
0
 10
-86.428
 11
-86.486
 20
-7.281
 21
-6.893
  0
LINE
  8
0
 10
-86.486
 11
-86.505
 20
-6.893
 21
-6.5
  0
LINE
  8
0
 10
-86.501
 11
-86.496
 20
-18.5
 21
-18.304
  0
LINE
  8
0
 10
-86.496
 11
-86.482
 20
-18.304
 21
-18.108
  0
LINE
  8
0
 10
-86.482
 11
-86.458
 20
-18.108
 21
-17.913
  0
LINE
  8
0
 10
-86.458
 11
-86.424
 20
-17.913
 21
-17.719
  0
LINE
  8
0
 10
-86.424
 11
-86.381
 20
-17.719
 21
-17.528
  0
LINE
  8
0
 10
-86.381
 11
-86.329
 20
-17.528
 21
-17.339
  0
LINE
  8
0
 10
-86.329
 11
-86.267
 20
-17.339
 21
-17.152
  0
LINE
  8
0
 10
-86.267
 11
-86.197
 20
-17.152
 21
-16.969
  0
LINE
  8
0
 10
-86.197
 11
-86.117
 20
-16.969
 21
-16.789
  0
LINE
  8
0
 10
-86.117
 11
-86.029
 20
-16.789
 21
-16.614
  0
LINE
  8
0
 10
-86.029
 11
-85.932
 20
-16.614
 21
-16.443
  0
LINE
  8
0
 10
-85.932
 11
-85.827
 20
-16.443
 21
-16.277
  0
LINE
  8
0
 10
-85.827
 11
-85.714
 20
-16.277
 21
-16.116
  0
LINE
  8
0
 10
-85.714
 11
-85.593
 20
-16.116
 21
-15.962
  0
LINE
  8
0
 10
-85.593
 11
-85.465
 20
-15.962
 21
-15.813
  0
LINE
  8
0
 10
-85.465
 11
-85.329
 20
-15.813
 21
-15.671
  0
LINE
  8
0
 10
-85.329
 11
-85.187
 20
-15.671
 21
-15.535
  0
LINE
  8
0
 10
-85.187
 11
-85.038
 20
-15.535
 21
-15.407
  0
LINE
  8
0
 10
-85.038
 11
-84.884
 20
-15.407
 21
-15.286
  0
LINE
  8
0
 10
-84.884
 11
-84.723
 20
-15.286
 21
-15.173
  0
LINE
  8
0
 10
-84.723
 11
-84.557
 20
-15.173
 21
-15.068
  0
LINE
  8
0
 10
-84.557
 11
-84.386
 20
-15.068
 21
-14.971
  0
LINE
  8
0
 10
-84.386
 11
-84.211
 20
-14.971
 21
-14.883
  0
LINE
  8
0
 10
-84.211
 11
-84.031
 20
-14.883
 21
-14.803
  0
LINE
  8
0
 10
-84.031
 11
-83.848
 20
-14.803
 21
-14.733
  0
LINE
  8
0
 10
-83.848
 11
-83.661
 20
-14.733
 21
-14.671
  0
LINE
  8
0
 10
-83.661
 11
-83.472
 20
-14.671
 21
-14.619
  0
LINE
  8
0
 10
-83.472
 11
-83.281
 20
-14.619
 21
-14.576
  0
LINE
  8
0
 10
-83.281
 11
-83.087
 20
-14.576
 21
-14.542
  0
LINE
  8
0
 10
-83.087
 11
-82.892
 20
-14.542
 21
-14.518
  0
LINE
  8
0
 10
-82.892
 11
-82.696
 20
-14.518
 21
-14.504
  0
LINE
  8
0
 10
-82.696
 11
-82.5
 20
-14.504
 21
-14.499
  0
LINE
  8
0
 10
-82.5
 11
-82.304
 20
-14.499
 21
-14.504
  0
LINE
  8
0
 10
-82.304
 11
-82.108
 20
-14.504
 21
-14.518
  0
LINE
  8
0
 10
-82.108
 11
-81.913
 20
-14.518
 21
-14.542
  0
LINE
  8
0
 10
-81.913
 11
-81.719
 20
-14.542
 21
-14.576
  0
LINE
  8
0
 10
-81.719
 11
-81.528
 20
-14.576
 21
-14.619
  0
LINE
  8
0
 10
-81.528
 11
-81.339
 20
-14.619
 21
-14.671
  0
LINE
  8
0
 10
-81.339
 11
-81.152
 20
-14.671
 21
-14.733
  0
LINE
  8
0
 10
-81.152
 11
-80.969
 20
-14.733
 21
-14.803
  0
LINE
  8
0
 10
-80.969
 11
-80.789
 20
-14.803
 21
-14.883
  0
LINE
  8
0
 10
-80.789
 11
-80.614
 20
-14.883
 21
-14.971
  0
LINE
  8
0
 10
-80.614
 11
-80.443
 20
-14.971
 21
-15.068
  0
LINE
  8
0
 10
-80.443
 11
-80.277
 20
-15.068
 21
-15.173
  0
LINE
  8
0
 10
-80.277
 11
-80.116
 20
-15.173
 21
-15.286
  0
LINE
  8
0
 10
-80.116
 11
-79.962
 20
-15.286
 21
-15.407
  0
LINE
  8
0
 10
-79.962
 11
-79.813
 20
-15.407
 21
-15.535
  0
LINE
  8
0
 10
-79.813
 11
-79.671
 20
-15.535
 21
-15.671
  0
LINE
  8
0
 10
-79.671
 11
-79.535
 20
-15.671
 21
-15.813
  0
LINE
  8
0
 10
-79.535
 11
-79.407
 20
-15.813
 21
-15.962
  0
LINE
  8
0
 10
-79.407
 11
-79.286
 20
-15.962
 21
-16.116
  0
LINE
  8
0
 10
-79.286
 11
-79.173
 20
-16.116
 21
-16.277
  0
LINE
  8
0
 10
-79.173
 11
-79.068
 20
-16.277
 21
-16.443
  0
LINE
  8
0
 10
-79.068
 11
-78.971
 20
-16.443
 21
-16.614
  0
LINE
  8
0
 10
-78.971
 11
-78.883
 20
-16.614
 21
-16.789
  0
LINE
  8
0
 10
-78.883
 11
-78.803
 20
-16.789
 21
-16.969
  0
LINE
  8
0
 10
-78.803
 11
-78.733
 20
-16.969
 21
-17.152
  0
LINE
  8
0
 10
-78.733
 11
-78.671
 20
-17.152
 21
-17.339
  0
LINE
  8
0
 10
-78.671
 11
-78.619
 20
-17.339
 21
-17.528
  0
LINE
  8
0
 10
-78.619
 11
-78.576
 20
-17.528
 21
-17.719
  0
LINE
  8
0
 10
-78.576
 11
-78.542
 20
-17.719
 21
-17.913
  0
LINE
  8
0
 10
-78.542
 11
-78.518
 20
-17.913
 21
-18.108
  0
LINE
  8
0
 10
-78.518
 11
-78.504
 20
-18.108
 21
-18.304
  0
LINE
  8
0
 10
-78.504
 11
-78.499
 20
-18.304
 21
-18.5
  0
LINE
  8
0
 10
-78.499
 11
-78.504
 20
-18.5
 21
-18.696
  0
LINE
  8
0
 10
-78.504
 11
-78.518
 20
-18.696
 21
-18.892
  0
LINE
  8
0
 10
-78.518
 11
-78.542
 20
-18.892
 21
-19.087
  0
LINE
  8
0
 10
-78.542
 11
-78.576
 20
-19.087
 21
-19.281
  0
LINE
  8
0
 10
-78.576
 11
-78.619
 20
-19.281
 21
-19.472
  0
LINE
  8
0
 10
-78.619
 11
-78.671
 20
-19.472
 21
-19.661
  0
LINE
  8
0
 10
-78.671
 11
-78.733
 20
-19.661
 21
-19.848
  0
LINE
  8
0
 10
-78.733
 11
-78.803
 20
-19.848
 21
-20.031
  0
LINE
  8
0
 10
-78.803
 11
-78.883
 20
-20.031
 21
-20.211
  0
LINE
  8
0
 10
-78.883
 11
-78.971
 20
-20.211
 21
-20.386
  0
LINE
  8
0
 10
-78.971
 11
-79.068
 20
-20.386
 21
-20.557
  0
LINE
  8
0
 10
-79.068
 11
-79.173
 20
-20.557
 21
-20.723
  0
LINE
  8
0
 10
-79.173
 11
-79.286
 20
-20.723
 21
-20.884
  0
LINE
  8
0
 10
-79.286
 11
-79.407
 20
-20.884
 21
-21.038
  0
LINE
  8
0
 10
-79.407
 11
-79.535
 20
-21.038
 21
-21.187
  0
LINE
  8
0
 10
-79.535
 11
-79.671
 20
-21.187
 21
-21.329
  0
LINE
  8
0
 10
-79.671
 11
-79.813
 20
-21.329
 21
-21.465
  0
LINE
  8
0
 10
-79.813
 11
-79.962
 20
-21.465
 21
-21.593
  0
LINE
  8
0
 10
-79.962
 11
-80.116
 20
-21.593
 21
-21.714
  0
LINE
  8
0
 10
-80.116
 11
-80.277
 20
-21.714
 21
-21.827
  0
LINE
  8
0
 10
-80.277
 11
-80.443
 20
-21.827
 21
-21.932
  0
LINE
  8
0
 10
-80.443
 11
-80.614
 20
-21.932
 21
-22.029
  0
LINE
  8
0
 10
-80.614
 11
-80.789
 20
-22.029
 21
-22.117
  0
LINE
  8
0
 10
-80.789
 11
-80.969
 20
-22.117
 21
-22.197
  0
LINE
  8
0
 10
-80.969
 11
-81.152
 20
-22.197
 21
-22.267
  0
LINE
  8
0
 10
-81.152
 11
-81.339
 20
-22.267
 21
-22.329
  0
LINE
  8
0
 10
-81.339
 11
-81.528
 20
-22.329
 21
-22.381
  0
LINE
  8
0
 10
-81.528
 11
-81.719
 20
-22.381
 21
-22.424
  0
LINE
  8
0
 10
-81.719
 11
-81.913
 20
-22.424
 21
-22.458
  0
LINE
  8
0
 10
-81.913
 11
-82.108
 20
-22.458
 21
-22.482
  0
LINE
  8
0
 10
-82.108
 11
-82.304
 20
-22.482
 21
-22.496
  0
LINE
  8
0
 10
-82.304
 11
-82.5
 20
-22.496
 21
-22.501
  0
LINE
  8
0
 10
-82.5
 11
-82.696
 20
-22.501
 21
-22.496
  0
LINE
  8
0
 10
-82.696
 11
-82.892
 20
-22.496
 21
-22.482
  0
LINE
  8
0
 10
-82.892
 11
-83.087
 20
-22.482
 21
-22.458
  0
LINE
  8
0
 10
-83.087
 11
-83.281
 20
-22.458
 21
-22.424
  0
LINE
  8
0
 10
-83.281
 11
-83.472
 20
-22.424
 21
-22.381
  0
LINE
  8
0
 10
-83.472
 11
-83.661
 20
-22.381
 21
-22.329
  0
LINE
  8
0
 10
-83.661
 11
-83.848
 20
-22.329
 21
-22.267
  0
LINE
  8
0
 10
-83.848
 11
-84.031
 20
-22.267
 21
-22.197
  0
LINE
  8
0
 10
-84.031
 11
-84.211
 20
-22.197
 21
-22.117
  0
LINE
  8
0
 10
-84.211
 11
-84.386
 20
-22.117
 21
-22.029
  0
LINE
  8
0
 10
-84.386
 11
-84.557
 20
-22.029
 21
-21.932
  0
LINE
  8
0
 10
-84.557
 11
-84.723
 20
-21.932
 21
-21.827
  0
LINE
  8
0
 10
-84.723
 11
-84.884
 20
-21.827
 21
-21.714
  0
LINE
  8
0
 10
-84.884
 11
-85.038
 20
-21.714
 21
-21.593
  0
LINE
  8
0
 10
-85.038
 11
-85.187
 20
-21.593
 21
-21.465
  0
LINE
  8
0
 10
-85.187
 11
-85.329
 20
-21.465
 21
-21.329
  0
LINE
  8
0
 10
-85.329
 11
-85.465
 20
-21.329
 21
-21.187
  0
LINE
  8
0
 10
-85.465
 11
-85.593
 20
-21.187
 21
-21.038
  0
LINE
  8
0
 10
-85.593
 11
-85.714
 20
-21.038
 21
-20.884
  0
LINE
  8
0
 10
-85.714
 11
-85.827
 20
-20.884
 21
-20.723
  0
LINE
  8
0
 10
-85.827
 11
-85.932
 20
-20.723
 21
-20.557
  0
LINE
  8
0
 10
-85.932
 11
-86.029
 20
-20.557
 21
-20.386
  0
LINE
  8
0
 10
-86.029
 11
-86.117
 20
-20.386
 21
-20.211
  0
LINE
  8
0
 10
-86.117
 11
-86.197
 20
-20.211
 21
-20.031
  0
LINE
  8
0
 10
-86.197
 11
-86.267
 20
-20.031
 21
-19.848
  0
LINE
  8
0
 10
-86.267
 11
-86.329
 20
-19.848
 21
-19.661
  0
LINE
  8
0
 10
-86.329
 11
-86.381
 20
-19.661
 21
-19.472
  0
LINE
  8
0
 10
-86.381
 11
-86.424
 20
-19.472
 21
-19.281
  0
LINE
  8
0
 10
-86.424
 11
-86.458
 20
-19.281
 21
-19.087
  0
LINE
  8
0
 10
-86.458
 11
-86.482
 20
-19.087
 21
-18.892
  0
LINE
  8
0
 10
-86.482
 11
-86.496
 20
-18.892
 21
-18.696
  0
LINE
  8
0
 10
-86.496
 11
-86.501
 20
-18.696
 21
-18.5
  0
LINE
  8
0
 10
-62.578
 11
-62.268
 20
17.5
 21
19.061
  0
LINE
  8
0
 10
-62.268
 11
-61.384
 20
19.061
 21
20.384
  0
LINE
  8
0
 10
-61.384
 11
-60.061
 20
20.384
 21
21.268
  0
LINE
  8
0
 10
-60.061
 11
-58.5
 20
21.268
 21
21.578
  0
LINE
  8
0
 10
-58.5
 11
-56.939
 20
21.578
 21
21.268
  0
LINE
  8
0
 10
-56.939
 11
-55.616
 20
21.268
 21
20.384
  0
LINE
  8
0
 10
-55.616
 11
-54.732
 20
20.384
 21
19.061
  0
LINE
  8
0
 10
-54.732
 11
-54.422
 20
19.061
 21
17.5
  0
LINE
  8
0
 10
-54.422
 11
-54.732
 20
17.5
 21
15.939
  0
LINE
  8
0
 10
-54.732
 11
-55.616
 20
15.939
 21
14.616
  0
LINE
  8
0
 10
-55.616
 11
-56.939
 20
14.616
 21
13.732
  0
LINE
  8
0
 10
-56.939
 11
-58.5
 20
13.732
 21
13.422
  0
LINE
  8
0
 10
-58.5
 11
-60.061
 20
13.422
 21
13.732
  0
LINE
  8
0
 10
-60.061
 11
-61.384
 20
13.732
 21
14.616
  0
LINE
  8
0
 10
-61.384
 11
-62.268
 20
14.616
 21
15.939
  0
LINE
  8
0
 10
-62.268
 11
-62.578
 20
15.939
 21
17.5
  0
LINE
  8
0
 10
-62.519
 11
-62.442
 20
5.5
 21
6.284
  0
LINE
  8
0
 10
-62.442
 11
-62.213
 20
6.284
 21
7.038
  0
LINE
  8
0
 10
-62.213
 11
-61.842
 20
7.038
 21
7.733
  0
LINE
  8
0
 10
-61.842
 11
-61.342
 20
7.733
 21
8.342
  0
LINE
  8
0
 10
-61.342
 11
-60.733
 20
8.342
 21
8.842
  0
LINE
  8
0
 10
-60.733
 11
-60.038
 20
8.842
 21
9.213
  0
LINE
  8
0
 10
-60.038
 11
-59.284
 20
9.213
 21
9.442
  0
LINE
  8
0
 10
-59.284
 11
-58.5
 20
9.442
 21
9.519
  0
LINE
  8
0
 10
-58.5
 11
-57.716
 20
9.519
 21
9.442
  0
LINE
  8
0
 10
-57.716
 11
-56.962
 20
9.442
 21
9.213
  0
LINE
  8
0
 10
-56.962
 11
-56.267
 20
9.213
 21
8.842
  0
LINE
  8
0
 10
-56.267
 11
-55.658
 20
8.842
 21
8.342
  0
LINE
  8
0
 10
-55.658
 11
-55.158
 20
8.342
 21
7.733
  0
LINE
  8
0
 10
-55.158
 11
-54.787
 20
7.733
 21
7.038
  0
LINE
  8
0
 10
-54.787
 11
-54.558
 20
7.038
 21
6.284
  0
LINE
  8
0
 10
-54.558
 11
-54.481
 20
6.284
 21
5.5
  0
LINE
  8
0
 10
-54.481
 11
-54.558
 20
5.5
 21
4.716
  0
LINE
  8
0
 10
-54.558
 11
-54.787
 20
4.716
 21
3.962
  0
LINE
  8
0
 10
-54.787
 11
-55.158
 20
3.962
 21
3.267
  0
LINE
  8
0
 10
-55.158
 11
-55.658
 20
3.267
 21
2.658
  0
LINE
  8
0
 10
-55.658
 11
-56.267
 20
2.658
 21
2.158
  0
LINE
  8
0
 10
-56.267
 11
-56.962
 20
2.158
 21
1.787
  0
LINE
  8
0
 10
-56.962
 11
-57.716
 20
1.787
 21
1.558
  0
LINE
  8
0
 10
-57.716
 11
-58.5
 20
1.558
 21
1.481
  0
LINE
  8
0
 10
-58.5
 11
-59.284
 20
1.481
 21
1.558
  0
LINE
  8
0
 10
-59.284
 11
-60.038
 20
1.558
 21
1.787
  0
LINE
  8
0
 10
-60.038
 11
-60.733
 20
1.787
 21
2.158
  0
LINE
  8
0
 10
-60.733
 11
-61.342
 20
2.158
 21
2.658
  0
LINE
  8
0
 10
-61.342
 11
-61.842
 20
2.658
 21
3.267
  0
LINE
  8
0
 10
-61.842
 11
-62.213
 20
3.267
 21
3.962
  0
LINE
  8
0
 10
-62.213
 11
-62.442
 20
3.962
 21
4.716
  0
LINE
  8
0
 10
-62.442
 11
-62.519
 20
4.716
 21
5.5
  0
LINE
  8
0
 10
-62.505
 11
-62.486
 20
-6.5
 21
-6.107
  0
LINE
  8
0
 10
-62.486
 11
-62.428
 20
-6.107
 21
-5.719
  0
LINE
  8
0
 10
-62.428
 11
-62.332
 20
-5.719
 21
-5.337
  0
LINE
  8
0
 10
-62.332
 11
-62.2
 20
-5.337
 21
-4.967
  0
LINE
  8
0
 10
-62.2
 11
-62.032
 20
-4.967
 21
-4.612
  0
LINE
  8
0
 10
-62.032
 11
-61.83
 20
-4.612
 21
-4.275
  0
LINE
  8
0
 10
-61.83
 11
-61.596
 20
-4.275
 21
-3.959
  0
LINE
  8
0
 10
-61.596
 11
-61.332
 20
-3.959
 21
-3.668
  0
LINE
  8
0
 10
-61.332
 11
-61.041
 20
-3.668
 21
-3.404
  0
LINE
  8
0
 10
-61.041
 11
-60.725
 20
-3.404
 21
-3.17
  0
LINE
  8
0
 10
-60.725
 11
-60.388
 20
-3.17
 21
-2.968
  0
LINE
  8
0
 10
-60.388
 11
-60.033
 20
-2.968
 21
-2.8
  0
LINE
  8
0
 10
-60.033
 11
-59.663
 20
-2.8
 21
-2.668
  0
LINE
  8
0
 10
-59.663
 11
-59.281
 20
-2.668
 21
-2.572
  0
LINE
  8
0
 10
-59.281
 11
-58.893
 20
-2.572
 21
-2.514
  0
LINE
  8
0
 10
-58.893
 11
-58.5
 20
-2.514
 21
-2.495
  0
LINE
  8
0
 10
-58.5
 11
-58.107
 20
-2.495
 21
-2.514
  0
LINE
  8
0
 10
-58.107
 11
-57.719
 20
-2.514
 21
-2.572
  0
LINE
  8
0
 10
-57.719
 11
-57.337
 20
-2.572
 21
-2.668
  0
LINE
  8
0
 10
-57.337
 11
-56.967
 20
-2.668
 21
-2.8
  0
LINE
  8
0
 10
-56.967
 11
-56.612
 20
-2.8
 21
-2.968
  0
LINE
  8
0
 10
-56.612
 11
-56.275
 20
-2.968
 21
-3.17
  0
LINE
  8
0
 10
-56.275
 11
-55.959
 20
-3.17
 21
-3.404
  0
LINE
  8
0
 10
-55.959
 11
-55.668
 20
-3.404
 21
-3.668
  0
LINE
  8
0
 10
-55.668
 11
-55.404
 20
-3.668
 21
-3.959
  0
LINE
  8
0
 10
-55.404
 11
-55.17
 20
-3.959
 21
-4.275
  0
LINE
  8
0
 10
-55.17
 11
-54.968
 20
-4.275
 21
-4.612
  0
LINE
  8
0
 10
-54.968
 11
-54.8
 20
-4.612
 21
-4.967
  0
LINE
  8
0
 10
-54.8
 11
-54.668
 20
-4.967
 21
-5.337
  0
LINE
  8
0
 10
-54.668
 11
-54.572
 20
-5.337
 21
-5.719
  0
LINE
  8
0
 10
-54.572
 11
-54.514
 20
-5.719
 21
-6.107
  0
LINE
  8
0
 10
-54.514
 11
-54.495
 20
-6.107
 21
-6.5
  0
LINE
  8
0
 10
-54.495
 11
-54.514
 20
-6.5
 21
-6.893
  0
LINE
  8
0
 10
-54.514
 11
-54.572
 20
-6.893
 21
-7.281
  0
LINE
  8
0
 10
-54.572
 11
-54.668
 20
-7.281
 21
-7.663
  0
LINE
  8
0
 10
-54.668
 11
-54.8
 20
-7.663
 21
-8.033
  0
LINE
  8
0
 10
-54.8
 11
-54.968
 20
-8.033
 21
-8.388
  0
LINE
  8
0
 10
-54.968
 11
-55.17
 20
-8.388
 21
-8.725
  0
LINE
  8
0
 10
-55.17
 11
-55.404
 20
-8.725
 21
-9.041
  0
LINE
  8
0
 10
-55.404
 11
-55.668
 20
-9.041
 21
-9.332
  0
LINE
  8
0
 10
-55.668
 11
-55.959
 20
-9.332
 21
-9.596
  0
LINE
  8
0
 10
-55.959
 11
-56.275
 20
-9.596
 21
-9.83
  0
LINE
  8
0
 10
-56.275
 11
-56.612
 20
-9.83
 21
-10.032
  0
LINE
  8
0
 10
-56.612
 11
-56.967
 20
-10.032
 21
-10.2
  0
LINE
  8
0
 10
-56.967
 11
-57.337
 20
-10.2
 21
-10.332
  0
LINE
  8
0
 10
-57.337
 11
-57.719
 20
-10.332
 21
-10.428
  0
LINE
  8
0
 10
-57.719
 11
-58.107
 20
-10.428
 21
-10.486
  0
LINE
  8
0
 10
-58.107
 11
-58.5
 20
-10.486
 21
-10.505
  0
LINE
  8
0
 10
-58.5
 11
-58.893
 20
-10.505
 21
-10.486
  0
LINE
  8
0
 10
-58.893
 11
-59.281
 20
-10.486
 21
-10.428
  0
LINE
  8
0
 10
-59.281
 11
-59.663
 20
-10.428
 21
-10.332
  0
LINE
  8
0
 10
-59.663
 11
-60.033
 20
-10.332
 21
-10.2
  0
LINE
  8
0
 10
-60.033
 11
-60.388
 20
-10.2
 21
-10.032
  0
LINE
  8
0
 10
-60.388
 11
-60.725
 20
-10.032
 21
-9.83
  0
LINE
  8
0
 10
-60.725
 11
-61.041
 20
-9.83
 21
-9.596
  0
LINE
  8
0
 10
-61.041
 11
-61.332
 20
-9.596
 21
-9.332
  0
LINE
  8
0
 10
-61.332
 11
-61.596
 20
-9.332
 21
-9.041
  0
LINE
  8
0
 10
-61.596
 11
-61.83
 20
-9.041
 21
-8.725
  0
LINE
  8
0
 10
-61.83
 11
-62.032
 20
-8.725
 21
-8.388
  0
LINE
  8
0
 10
-62.032
 11
-62.2
 20
-8.388
 21
-8.033
  0
LINE
  8
0
 10
-62.2
 11
-62.332
 20
-8.033
 21
-7.663
  0
LINE
  8
0
 10
-62.332
 11
-62.428
 20
-7.663
 21
-7.281
  0
LINE
  8
0
 10
-62.428
 11
-62.486
 20
-7.281
 21
-6.893
  0
LINE
  8
0
 10
-62.486
 11
-62.505
 20
-6.893
 21
-6.5
  0
LINE
  8
0
 10
-62.501
 11
-62.496
 20
-18.5
 21
-18.304
  0
LINE
  8
0
 10
-62.496
 11
-62.482
 20
-18.304
 21
-18.108
  0
LINE
  8
0
 10
-62.482
 11
-62.458
 20
-18.108
 21
-17.913
  0
LINE
  8
0
 10
-62.458
 11
-62.424
 20
-17.913
 21
-17.719
  0
LINE
  8
0
 10
-62.424
 11
-62.381
 20
-17.719
 21
-17.528
  0
LINE
  8
0
 10
-62.381
 11
-62.329
 20
-17.528
 21
-17.339
  0
LINE
  8
0
 10
-62.329
 11
-62.267
 20
-17.339
 21
-17.152
  0
LINE
  8
0
 10
-62.267
 11
-62.197
 20
-17.152
 21
-16.969
  0
LINE
  8
0
 10
-62.197
 11
-62.117
 20
-16.969
 21
-16.789
  0
LINE
  8
0
 10
-62.117
 11
-62.029
 20
-16.789
 21
-16.614
  0
LINE
  8
0
 10
-62.029
 11
-61.932
 20
-16.614
 21
-16.443
  0
LINE
  8
0
 10
-61.932
 11
-61.827
 20
-16.443
 21
-16.277
  0
LINE
  8
0
 10
-61.827
 11
-61.714
 20
-16.277
 21
-16.116
  0
LINE
  8
0
 10
-61.714
 11
-61.593
 20
-16.116
 21
-15.962
  0
LINE
  8
0
 10
-61.593
 11
-61.465
 20
-15.962
 21
-15.813
  0
LINE
  8
0
 10
-61.465
 11
-61.329
 20
-15.813
 21
-15.671
  0
LINE
  8
0
 10
-61.329
 11
-61.187
 20
-15.671
 21
-15.535
  0
LINE
  8
0
 10
-61.187
 11
-61.038
 20
-15.535
 21
-15.407
  0
LINE
  8
0
 10
-61.038
 11
-60.884
 20
-15.407
 21
-15.286
  0
LINE
  8
0
 10
-60.884
 11
-60.723
 20
-15.286
 21
-15.173
  0
LINE
  8
0
 10
-60.723
 11
-60.557
 20
-15.173
 21
-15.068
  0
LINE
  8
0
 10
-60.557
 11
-60.386
 20
-15.068
 21
-14.971
  0
LINE
  8
0
 10
-60.386
 11
-60.211
 20
-14.971
 21
-14.883
  0
LINE
  8
0
 10
-60.211
 11
-60.031
 20
-14.883
 21
-14.803
  0
LINE
  8
0
 10
-60.031
 11
-59.848
 20
-14.803
 21
-14.733
  0
LINE
  8
0
 10
-59.848
 11
-59.661
 20
-14.733
 21
-14.671
  0
LINE
  8
0
 10
-59.661
 11
-59.472
 20
-14.671
 21
-14.619
  0
LINE
  8
0
 10
-59.472
 11
-59.281
 20
-14.619
 21
-14.576
  0
LINE
  8
0
 10
-59.281
 11
-59.087
 20
-14.576
 21
-14.542
  0
LINE
  8
0
 10
-59.087
 11
-58.892
 20
-14.542
 21
-14.518
  0
LINE
  8
0
 10
-58.892
 11
-58.696
 20
-14.518
 21
-14.504
  0
LINE
  8
0
 10
-58.696
 11
-58.5
 20
-14.504
 21
-14.499
  0
LINE
  8
0
 10
-58.5
 11
-58.304
 20
-14.499
 21
-14.504
  0
LINE
  8
0
 10
-58.304
 11
-58.108
 20
-14.504
 21
-14.518
  0
LINE
  8
0
 10
-58.108
 11
-57.913
 20
-14.518
 21
-14.542
  0
LINE
  8
0
 10
-57.913
 11
-57.719
 20
-14.542
 21
-14.576
  0
LINE
  8
0
 10
-57.719
 11
-57.528
 20
-14.576
 21
-14.619
  0
LINE
  8
0
 10
-57.528
 11
-57.339
 20
-14.619
 21
-14.671
  0
LINE
  8
0
 10
-57.339
 11
-57.152
 20
-14.671
 21
-14.733
  0
LINE
  8
0
 10
-57.152
 11
-56.969
 20
-14.733
 21
-14.803
  0
LINE
  8
0
 10
-56.969
 11
-56.789
 20
-14.803
 21
-14.883
  0
LINE
  8
0
 10
-56.789
 11
-56.614
 20
-14.883
 21
-14.971
  0
LINE
  8
0
 10
-56.614
 11
-56.443
 20
-14.971
 21
-15.068
  0
LINE
  8
0
 10
-56.443
 11
-56.277
 20
-15.068
 21
-15.173
  0
LINE
  8
0
 10
-56.277
 11
-56.116
 20
-15.173
 21
-15.286
  0
LINE
  8
0
 10
-56.116
 11
-55.962
 20
-15.286
 21
-15.407
  0
LINE
  8
0
 10
-55.962
 11
-55.813
 20
-15.407
 21
-15.535
  0
LINE
  8
0
 10
-55.813
 11
-55.671
 20
-15.535
 21
-15.671
  0
LINE
  8
0
 10
-55.671
 11
-55.535
 20
-15.671
 21
-15.813
  0
LINE
  8
0
 10
-55.535
 11
-55.407
 20
-15.813
 21
-15.962
  0
LINE
  8
0
 10
-55.407
 11
-55.286
 20
-15.962
 21
-16.116
  0
LINE
  8
0
 10
-55.286
 11
-55.173
 20
-16.116
 21
-16.277
  0
LINE
  8
0
 10
-55.173
 11
-55.068
 20
-16.277
 21
-16.443
  0
LINE
  8
0
 10
-55.068
 11
-54.971
 20
-16.443
 21
-16.614
  0
LINE
  8
0
 10
-54.971
 11
-54.883
 20
-16.614
 21
-16.789
  0
LINE
  8
0
 10
-54.883
 11
-54.803
 20
-16.789
 21
-16.969
  0
LINE
  8
0
 10
-54.803
 11
-54.733
 20
-16.969
 21
-17.152
  0
LINE
  8
0
 10
-54.733
 11
-54.671
 20
-17.152
 21
-17.339
  0
LINE
  8
0
 10
-54.671
 11
-54.619
 20
-17.339
 21
-17.528
  0
LINE
  8
0
 10
-54.619
 11
-54.576
 20
-17.528
 21
-17.719
  0
LINE
  8
0
 10
-54.576
 11
-54.542
 20
-17.719
 21
-17.913
  0
LINE
  8
0
 10
-54.542
 11
-54.518
 20
-17.913
 21
-18.108
  0
LINE
  8
0
 10
-54.518
 11
-54.504
 20
-18.108
 21
-18.304
  0
LINE
  8
0
 10
-54.504
 11
-54.499
 20
-18.304
 21
-18.5
  0
LINE
  8
0
 10
-54.499
 11
-54.504
 20
-18.5
 21
-18.696
  0
LINE
  8
0
 10
-54.504
 11
-54.518
 20
-18.696
 21
-18.892
  0
LINE
  8
0
 10
-54.518
 11
-54.542
 20
-18.892
 21
-19.087
  0
LINE
  8
0
 10
-54.542
 11
-54.576
 20
-19.087
 21
-19.281
  0
LINE
  8
0
 10
-54.576
 11
-54.619
 20
-19.281
 21
-19.472
  0
LINE
  8
0
 10
-54.619
 11
-54.671
 20
-19.472
 21
-19.661
  0
LINE
  8
0
 10
-54.671
 11
-54.733
 20
-19.661
 21
-19.848
  0
LINE
  8
0
 10
-54.733
 11
-54.803
 20
-19.848
 21
-20.031
  0
LINE
  8
0
 10
-54.803
 11
-54.883
 20
-20.031
 21
-20.211
  0
LINE
  8
0
 10
-54.883
 11
-54.971
 20
-20.211
 21
-20.386
  0
LINE
  8
0
 10
-54.971
 11
-55.068
 20
-20.386
 21
-20.557
  0
LINE
  8
0
 10
-55.068
 11
-55.173
 20
-20.557
 21
-20.723
  0
LINE
  8
0
 10
-55.173
 11
-55.286
 20
-20.723
 21
-20.884
  0
LINE
  8
0
 10
-55.286
 11
-55.407
 20
-20.884
 21
-21.038
  0
LINE
  8
0
 10
-55.407
 11
-55.535
 20
-21.038
 21
-21.187
  0
LINE
  8
0
 10
-55.535
 11
-55.671
 20
-21.187
 21
-21.329
  0
LINE
  8
0
 10
-55.671
 11
-55.813
 20
-21.329
 21
-21.465
  0
LINE
  8
0
 10
-55.813
 11
-55.962
 20
-21.465
 21
-21.593
  0
LINE
  8
0
 10
-55.962
 11
-56.116
 20
-21.593
 21
-21.714
  0
LINE
  8
0
 10
-56.116
 11
-56.277
 20
-21.714
 21
-21.827
  0
LINE
  8
0
 10
-56.277
 11
-56.443
 20
-21.827
 21
-21.932
  0
LINE
  8
0
 10
-56.443
 11
-56.614
 20
-21.932
 21
-22.029
  0
LINE
  8
0
 10
-56.614
 11
-56.789
 20
-22.029
 21
-22.117
  0
LINE
  8
0
 10
-56.789
 11
-56.969
 20
-22.117
 21
-22.197
  0
LINE
  8
0
 10
-56.969
 11
-57.152
 20
-22.197
 21
-22.267
  0
LINE
  8
0
 10
-57.152
 11
-57.339
 20
-22.267
 21
-22.329
  0
LINE
  8
0
 10
-57.339
 11
-57.528
 20
-22.329
 21
-22.381
  0
LINE
  8
0
 10
-57.528
 11
-57.719
 20
-22.381
 21
-22.424
  0
LINE
  8
0
 10
-57.719
 11
-57.913
 20
-22.424
 21
-22.458
  0
LINE
  8
0
 10
-57.913
 11
-58.108
 20
-22.458
 21
-22.482
  0
LINE
  8
0
 10
-58.108
 11
-58.304
 20
-22.482
 21
-22.496
  0
LINE
  8
0
 10
-58.304
 11
-58.5
 20
-22.496
 21
-22.501
  0
LINE
  8
0
 10
-58.5
 11
-58.696
 20
-22.501
 21
-22.496
  0
LINE
  8
0
 10
-58.696
 11
-58.892
 20
-22.496
 21
-22.482
  0
LINE
  8
0
 10
-58.892
 11
-59.087
 20
-22.482
 21
-22.458
  0
LINE
  8
0
 10
-59.087
 11
-59.281
 20
-22.458
 21
-22.424
  0
LINE
  8
0
 10
-59.281
 11
-59.472
 20
-22.424
 21
-22.381
  0
LINE
  8
0
 10
-59.472
 11
-59.661
 20
-22.381
 21
-22.329
  0
LINE
  8
0
 10
-59.661
 11
-59.848
 20
-22.329
 21
-22.267
  0
LINE
  8
0
 10
-59.848
 11
-60.031
 20
-22.267
 21
-22.197
  0
LINE
  8
0
 10
-60.031
 11
-60.211
 20
-22.197
 21
-22.117
  0
LINE
  8
0
 10
-60.211
 11
-60.386
 20
-22.117
 21
-22.029
  0
LINE
  8
0
 10
-60.386
 11
-60.557
 20
-22.029
 21
-21.932
  0
LINE
  8
0
 10
-60.557
 11
-60.723
 20
-21.932
 21
-21.827
  0
LINE
  8
0
 10
-60.723
 11
-60.884
 20
-21.827
 21
-21.714
  0
LINE
  8
0
 10
-60.884
 11
-61.038
 20
-21.714
 21
-21.593
  0
LINE
  8
0
 10
-61.038
 11
-61.187
 20
-21.593
 21
-21.465
  0
LINE
  8
0
 10
-61.187
 11
-61.329
 20
-21.465
 21
-21.329
  0
LINE
  8
0
 10
-61.329
 11
-61.465
 20
-21.329
 21
-21.187
  0
LINE
  8
0
 10
-61.465
 11
-61.593
 20
-21.187
 21
-21.038
  0
LINE
  8
0
 10
-61.593
 11
-61.714
 20
-21.038
 21
-20.884
  0
LINE
  8
0
 10
-61.714
 11
-61.827
 20
-20.884
 21
-20.723
  0
LINE
  8
0
 10
-61.827
 11
-61.932
 20
-20.723
 21
-20.557
  0
LINE
  8
0
 10
-61.932
 11
-62.029
 20
-20.557
 21
-20.386
  0
LINE
  8
0
 10
-62.029
 11
-62.117
 20
-20.386
 21
-20.211
  0
LINE
  8
0
 10
-62.117
 11
-62.197
 20
-20.211
 21
-20.031
  0
LINE
  8
0
 10
-62.197
 11
-62.267
 20
-20.031
 21
-19.848
  0
LINE
  8
0
 10
-62.267
 11
-62.329
 20
-19.848
 21
-19.661
  0
LINE
  8
0
 10
-62.329
 11
-62.381
 20
-19.661
 21
-19.472
  0
LINE
  8
0
 10
-62.381
 11
-62.424
 20
-19.472
 21
-19.281
  0
LINE
  8
0
 10
-62.424
 11
-62.458
 20
-19.281
 21
-19.087
  0
LINE
  8
0
 10
-62.458
 11
-62.482
 20
-19.087
 21
-18.892
  0
LINE
  8
0
 10
-62.482
 11
-62.496
 20
-18.892
 21
-18.696
  0
LINE
  8
0
 10
-62.496
 11
-62.501
 20
-18.696
 21
-18.5
  0
LINE
  8
0
 10
-47.25
 11
-47.25
 20
-36.625
 21
-34.875
  0
LINE
  8
0
 10
-47.25
 11
-41.25
 20
-34.875
 21
-34.875
  0
LINE
  8
0
 10
-41.25
 11
-41.25
 20
-34.875
 21
-36.625
  0
LINE
  8
0
 10
-41.25
 11
-47.25
 20
-36.625
 21
-36.625
  0
LINE
  8
0
 10
-47.25
 11
-47.25
 20
-26.625
 21
-24.875
  0
LINE
  8
0
 10
-47.25
 11
-41.25
 20
-24.875
 21
-24.875
  0
LINE
  8
0
 10
-41.25
 11
-41.25
 20
-24.875
 21
-26.625
  0
LINE
  8
0
 10
-41.25
 11
-47.25
 20
-26.625
 21
-26.625
  0
LINE
  8
0
 10
-47.25
 11
-47.25
 20
38.625
 21
40.375
  0
LINE
  8
0
 10
-47.25
 11
-41.25
 20
40.375
 21
40.375
  0
LINE
  8
0
 10
-41.25
 11
-41.25
 20
40.375
 21
38.625
  0
LINE
  8
0
 10
-41.25
 11
-47.25
 20
38.625
 21
38.625
  0
LINE
  8
0
 10
-47.25
 11
-47.25
 20
84.625
 21
86.375
  0
LINE
  8
0
 10
-47.25
 11
-41.25
 20
86.375
 21
86.375
  0
LINE
  8
0
 10
-41.25
 11
-41.25
 20
86.375
 21
84.625
  0
LINE
  8
0
 10
-41.25
 11
-47.25
 20
84.625
 21
84.625
  0
LINE
  8
0
 10
-38.578
 11
-38.268
 20
17.5
 21
19.061
  0
LINE
  8
0
 10
-38.268
 11
-37.384
 20
19.061
 21
20.384
  0
LINE
  8
0
 10
-37.384
 11
-36.061
 20
20.384
 21
21.268
  0
LINE
  8
0
 10
-36.061
 11
-34.5
 20
21.268
 21
21.578
  0
LINE
  8
0
 10
-34.5
 11
-32.939
 20
21.578
 21
21.268
  0
LINE
  8
0
 10
-32.939
 11
-31.616
 20
21.268
 21
20.384
  0
LINE
  8
0
 10
-31.616
 11
-30.732
 20
20.384
 21
19.061
  0
LINE
  8
0
 10
-30.732
 11
-30.422
 20
19.061
 21
17.5
  0
LINE
  8
0
 10
-30.422
 11
-30.732
 20
17.5
 21
15.939
  0
LINE
  8
0
 10
-30.732
 11
-31.616
 20
15.939
 21
14.616
  0
LINE
  8
0
 10
-31.616
 11
-32.939
 20
14.616
 21
13.732
  0
LINE
  8
0
 10
-32.939
 11
-34.5
 20
13.732
 21
13.422
  0
LINE
  8
0
 10
-34.5
 11
-36.061
 20
13.422
 21
13.732
  0
LINE
  8
0
 10
-36.061
 11
-37.384
 20
13.732
 21
14.616
  0
LINE
  8
0
 10
-37.384
 11
-38.268
 20
14.616
 21
15.939
  0
LINE
  8
0
 10
-38.268
 11
-38.578
 20
15.939
 21
17.5
  0
LINE
  8
0
 10
-38.519
 11
-38.442
 20
5.5
 21
6.284
  0
LINE
  8
0
 10
-38.442
 11
-38.213
 20
6.284
 21
7.038
  0
LINE
  8
0
 10
-38.213
 11
-37.842
 20
7.038
 21
7.733
  0
LINE
  8
0
 10
-37.842
 11
-37.342
 20
7.733
 21
8.342
  0
LINE
  8
0
 10
-37.342
 11
-36.733
 20
8.342
 21
8.842
  0
LINE
  8
0
 10
-36.733
 11
-36.038
 20
8.842
 21
9.213
  0
LINE
  8
0
 10
-36.038
 11
-35.284
 20
9.213
 21
9.442
  0
LINE
  8
0
 10
-35.284
 11
-34.5
 20
9.442
 21
9.519
  0
LINE
  8
0
 10
-34.5
 11
-33.716
 20
9.519
 21
9.442
  0
LINE
  8
0
 10
-33.716
 11
-32.962
 20
9.442
 21
9.213
  0
LINE
  8
0
 10
-32.962
 11
-32.267
 20
9.213
 21
8.842
  0
LINE
  8
0
 10
-32.267
 11
-31.658
 20
8.842
 21
8.342
  0
LINE
  8
0
 10
-31.658
 11
-31.158
 20
8.342
 21
7.733
  0
LINE
  8
0
 10
-31.158
 11
-30.787
 20
7.733
 21
7.038
  0
LINE
  8
0
 10
-30.787
 11
-30.558
 20
7.038
 21
6.284
  0
LINE
  8
0
 10
-30.558
 11
-30.481
 20
6.284
 21
5.5
  0
LINE
  8
0
 10
-30.481
 11
-30.558
 20
5.5
 21
4.716
  0
LINE
  8
0
 10
-30.558
 11
-30.787
 20
4.716
 21
3.962
  0
LINE
  8
0
 10
-30.787
 11
-31.158
 20
3.962
 21
3.267
  0
LINE
  8
0
 10
-31.158
 11
-31.658
 20
3.267
 21
2.658
  0
LINE
  8
0
 10
-31.658
 11
-32.267
 20
2.658
 21
2.158
  0
LINE
  8
0
 10
-32.267
 11
-32.962
 20
2.158
 21
1.787
  0
LINE
  8
0
 10
-32.962
 11
-33.716
 20
1.787
 21
1.558
  0
LINE
  8
0
 10
-33.716
 11
-34.5
 20
1.558
 21
1.481
  0
LINE
  8
0
 10
-34.5
 11
-35.284
 20
1.481
 21
1.558
  0
LINE
  8
0
 10
-35.284
 11
-36.038
 20
1.558
 21
1.787
  0
LINE
  8
0
 10
-36.038
 11
-36.733
 20
1.787
 21
2.158
  0
LINE
  8
0
 10
-36.733
 11
-37.342
 20
2.158
 21
2.658
  0
LINE
  8
0
 10
-37.342
 11
-37.842
 20
2.658
 21
3.267
  0
LINE
  8
0
 10
-37.842
 11
-38.213
 20
3.267
 21
3.962
  0
LINE
  8
0
 10
-38.213
 11
-38.442
 20
3.962
 21
4.716
  0
LINE
  8
0
 10
-38.442
 11
-38.519
 20
4.716
 21
5.5
  0
LINE
  8
0
 10
-38.505
 11
-38.486
 20
-6.5
 21
-6.107
  0
LINE
  8
0
 10
-38.486
 11
-38.428
 20
-6.107
 21
-5.719
  0
LINE
  8
0
 10
-38.428
 11
-38.332
 20
-5.719
 21
-5.337
  0
LINE
  8
0
 10
-38.332
 11
-38.2
 20
-5.337
 21
-4.967
  0
LINE
  8
0
 10
-38.2
 11
-38.032
 20
-4.967
 21
-4.612
  0
LINE
  8
0
 10
-38.032
 11
-37.83
 20
-4.612
 21
-4.275
  0
LINE
  8
0
 10
-37.83
 11
-37.596
 20
-4.275
 21
-3.959
  0
LINE
  8
0
 10
-37.596
 11
-37.332
 20
-3.959
 21
-3.668
  0
LINE
  8
0
 10
-37.332
 11
-37.041
 20
-3.668
 21
-3.404
  0
LINE
  8
0
 10
-37.041
 11
-36.725
 20
-3.404
 21
-3.17
  0
LINE
  8
0
 10
-36.725
 11
-36.388
 20
-3.17
 21
-2.968
  0
LINE
  8
0
 10
-36.388
 11
-36.033
 20
-2.968
 21
-2.8
  0
LINE
  8
0
 10
-36.033
 11
-35.663
 20
-2.8
 21
-2.668
  0
LINE
  8
0
 10
-35.663
 11
-35.281
 20
-2.668
 21
-2.572
  0
LINE
  8
0
 10
-35.281
 11
-34.893
 20
-2.572
 21
-2.514
  0
LINE
  8
0
 10
-34.893
 11
-34.5
 20
-2.514
 21
-2.495
  0
LINE
  8
0
 10
-34.5
 11
-34.107
 20
-2.495
 21
-2.514
  0
LINE
  8
0
 10
-34.107
 11
-33.719
 20
-2.514
 21
-2.572
  0
LINE
  8
0
 10
-33.719
 11
-33.337
 20
-2.572
 21
-2.668
  0
LINE
  8
0
 10
-33.337
 11
-32.967
 20
-2.668
 21
-2.8
  0
LINE
  8
0
 10
-32.967
 11
-32.612
 20
-2.8
 21
-2.968
  0
LINE
  8
0
 10
-32.612
 11
-32.275
 20
-2.968
 21
-3.17
  0
LINE
  8
0
 10
-32.275
 11
-31.959
 20
-3.17
 21
-3.404
  0
LINE
  8
0
 10
-31.959
 11
-31.668
 20
-3.404
 21
-3.668
  0
LINE
  8
0
 10
-31.668
 11
-31.404
 20
-3.668
 21
-3.959
  0
LINE
  8
0
 10
-31.404
 11
-31.17
 20
-3.959
 21
-4.275
  0
LINE
  8
0
 10
-31.17
 11
-30.968
 20
-4.275
 21
-4.612
  0
LINE
  8
0
 10
-30.968
 11
-30.8
 20
-4.612
 21
-4.967
  0
LINE
  8
0
 10
-30.8
 11
-30.668
 20
-4.967
 21
-5.337
  0
LINE
  8
0
 10
-30.668
 11
-30.572
 20
-5.337
 21
-5.719
  0
LINE
  8
0
 10
-30.572
 11
-30.514
 20
-5.719
 21
-6.107
  0
LINE
  8
0
 10
-30.514
 11
-30.495
 20
-6.107
 21
-6.5
  0
LINE
  8
0
 10
-30.495
 11
-30.514
 20
-6.5
 21
-6.893
  0
LINE
  8
0
 10
-30.514
 11
-30.572
 20
-6.893
 21
-7.281
  0
LINE
  8
0
 10
-30.572
 11
-30.668
 20
-7.281
 21
-7.663
  0
LINE
  8
0
 10
-30.668
 11
-30.8
 20
-7.663
 21
-8.033
  0
LINE
  8
0
 10
-30.8
 11
-30.968
 20
-8.033
 21
-8.388
  0
LINE
  8
0
 10
-30.968
 11
-31.17
 20
-8.388
 21
-8.725
  0
LINE
  8
0
 10
-31.17
 11
-31.404
 20
-8.725
 21
-9.041
  0
LINE
  8
0
 10
-31.404
 11
-31.668
 20
-9.041
 21
-9.332
  0
LINE
  8
0
 10
-31.668
 11
-31.959
 20
-9.332
 21
-9.596
  0
LINE
  8
0
 10
-31.959
 11
-32.275
 20
-9.596
 21
-9.83
  0
LINE
  8
0
 10
-32.275
 11
-32.612
 20
-9.83
 21
-10.032
  0
LINE
  8
0
 10
-32.612
 11
-32.967
 20
-10.032
 21
-10.2
  0
LINE
  8
0
 10
-32.967
 11
-33.337
 20
-10.2
 21
-10.332
  0
LINE
  8
0
 10
-33.337
 11
-33.719
 20
-10.332
 21
-10.428
  0
LINE
  8
0
 10
-33.719
 11
-34.107
 20
-10.428
 21
-10.486
  0
LINE
  8
0
 10
-34.107
 11
-34.5
 20
-10.486
 21
-10.505
  0
LINE
  8
0
 10
-34.5
 11
-34.893
 20
-10.505
 21
-10.486
  0
LINE
  8
0
 10
-34.893
 11
-35.281
 20
-10.486
 21
-10.428
  0
LINE
  8
0
 10
-35.281
 11
-35.663
 20
-10.428
 21
-10.332
  0
LINE
  8
0
 10
-35.663
 11
-36.033
 20
-10.332
 21
-10.2
  0
LINE
  8
0
 10
-36.033
 11
-36.388
 20
-10.2
 21
-10.032
  0
LINE
  8
0
 10
-36.388
 11
-36.725
 20
-10.032
 21
-9.83
  0
LINE
  8
0
 10
-36.725
 11
-37.041
 20
-9.83
 21
-9.596
  0
LINE
  8
0
 10
-37.041
 11
-37.332
 20
-9.596
 21
-9.332
  0
LINE
  8
0
 10
-37.332
 11
-37.596
 20
-9.332
 21
-9.041
  0
LINE
  8
0
 10
-37.596
 11
-37.83
 20
-9.041
 21
-8.725
  0
LINE
  8
0
 10
-37.83
 11
-38.032
 20
-8.725
 21
-8.388
  0
LINE
  8
0
 10
-38.032
 11
-38.2
 20
-8.388
 21
-8.033
  0
LINE
  8
0
 10
-38.2
 11
-38.332
 20
-8.033
 21
-7.663
  0
LINE
  8
0
 10
-38.332
 11
-38.428
 20
-7.663
 21
-7.281
  0
LINE
  8
0
 10
-38.428
 11
-38.486
 20
-7.281
 21
-6.893
  0
LINE
  8
0
 10
-38.486
 11
-38.505
 20
-6.893
 21
-6.5
  0
LINE
  8
0
 10
-38.501
 11
-38.496
 20
-18.5
 21
-18.304
  0
LINE
  8
0
 10
-38.496
 11
-38.482
 20
-18.304
 21
-18.108
  0
LINE
  8
0
 10
-38.482
 11
-38.458
 20
-18.108
 21
-17.913
  0
LINE
  8
0
 10
-38.458
 11
-38.424
 20
-17.913
 21
-17.719
  0
LINE
  8
0
 10
-38.424
 11
-38.381
 20
-17.719
 21
-17.528
  0
LINE
  8
0
 10
-38.381
 11
-38.329
 20
-17.528
 21
-17.339
  0
LINE
  8
0
 10
-38.329
 11
-38.267
 20
-17.339
 21
-17.152
  0
LINE
  8
0
 10
-38.267
 11
-38.197
 20
-17.152
 21
-16.969
  0
LINE
  8
0
 10
-38.197
 11
-38.117
 20
-16.969
 21
-16.789
  0
LINE
  8
0
 10
-38.117
 11
-38.029
 20
-16.789
 21
-16.614
  0
LINE
  8
0
 10
-38.029
 11
-37.932
 20
-16.614
 21
-16.443
  0
LINE
  8
0
 10
-37.932
 11
-37.827
 20
-16.443
 21
-16.277
  0
LINE
  8
0
 10
-37.827
 11
-37.714
 20
-16.277
 21
-16.116
  0
LINE
  8
0
 10
-37.714
 11
-37.593
 20
-16.116
 21
-15.962
  0
LINE
  8
0
 10
-37.593
 11
-37.465
 20
-15.962
 21
-15.813
  0
LINE
  8
0
 10
-37.465
 11
-37.329
 20
-15.813
 21
-15.671
  0
LINE
  8
0
 10
-37.329
 11
-37.187
 20
-15.671
 21
-15.535
  0
LINE
  8
0
 10
-37.187
 11
-37.038
 20
-15.535
 21
-15.407
  0
LINE
  8
0
 10
-37.038
 11
-36.884
 20
-15.407
 21
-15.286
  0
LINE
  8
0
 10
-36.884
 11
-36.723
 20
-15.286
 21
-15.173
  0
LINE
  8
0
 10
-36.723
 11
-36.557
 20
-15.173
 21
-15.068
  0
LINE
  8
0
 10
-36.557
 11
-36.386
 20
-15.068
 21
-14.971
  0
LINE
  8
0
 10
-36.386
 11
-36.211
 20
-14.971
 21
-14.883
  0
LINE
  8
0
 10
-36.211
 11
-36.031
 20
-14.883
 21
-14.803
  0
LINE
  8
0
 10
-36.031
 11
-35.848
 20
-14.803
 21
-14.733
  0
LINE
  8
0
 10
-35.848
 11
-35.661
 20
-14.733
 21
-14.671
  0
LINE
  8
0
 10
-35.661
 11
-35.472
 20
-14.671
 21
-14.619
  0
LINE
  8
0
 10
-35.472
 11
-35.281
 20
-14.619
 21
-14.576
  0
LINE
  8
0
 10
-35.281
 11
-35.087
 20
-14.576
 21
-14.542
  0
LINE
  8
0
 10
-35.087
 11
-34.892
 20
-14.542
 21
-14.518
  0
LINE
  8
0
 10
-34.892
 11
-34.696
 20
-14.518
 21
-14.504
  0
LINE
  8
0
 10
-34.696
 11
-34.5
 20
-14.504
 21
-14.499
  0
LINE
  8
0
 10
-34.5
 11
-34.304
 20
-14.499
 21
-14.504
  0
LINE
  8
0
 10
-34.304
 11
-34.108
 20
-14.504
 21
-14.518
  0
LINE
  8
0
 10
-34.108
 11
-33.913
 20
-14.518
 21
-14.542
  0
LINE
  8
0
 10
-33.913
 11
-33.719
 20
-14.542
 21
-14.576
  0
LINE
  8
0
 10
-33.719
 11
-33.528
 20
-14.576
 21
-14.619
  0
LINE
  8
0
 10
-33.528
 11
-33.339
 20
-14.619
 21
-14.671
  0
LINE
  8
0
 10
-33.339
 11
-33.152
 20
-14.671
 21
-14.733
  0
LINE
  8
0
 10
-33.152
 11
-32.969
 20
-14.733
 21
-14.803
  0
LINE
  8
0
 10
-32.969
 11
-32.789
 20
-14.803
 21
-14.883
  0
LINE
  8
0
 10
-32.789
 11
-32.614
 20
-14.883
 21
-14.971
  0
LINE
  8
0
 10
-32.614
 11
-32.443
 20
-14.971
 21
-15.068
  0
LINE
  8
0
 10
-32.443
 11
-32.277
 20
-15.068
 21
-15.173
  0
LINE
  8
0
 10
-32.277
 11
-32.116
 20
-15.173
 21
-15.286
  0
LINE
  8
0
 10
-32.116
 11
-31.962
 20
-15.286
 21
-15.407
  0
LINE
  8
0
 10
-31.962
 11
-31.813
 20
-15.407
 21
-15.535
  0
LINE
  8
0
 10
-31.813
 11
-31.671
 20
-15.535
 21
-15.671
  0
LINE
  8
0
 10
-31.671
 11
-31.535
 20
-15.671
 21
-15.813
  0
LINE
  8
0
 10
-31.535
 11
-31.407
 20
-15.813
 21
-15.962
  0
LINE
  8
0
 10
-31.407
 11
-31.286
 20
-15.962
 21
-16.116
  0
LINE
  8
0
 10
-31.286
 11
-31.173
 20
-16.116
 21
-16.277
  0
LINE
  8
0
 10
-31.173
 11
-31.068
 20
-16.277
 21
-16.443
  0
LINE
  8
0
 10
-31.068
 11
-30.971
 20
-16.443
 21
-16.614
  0
LINE
  8
0
 10
-30.971
 11
-30.883
 20
-16.614
 21
-16.789
  0
LINE
  8
0
 10
-30.883
 11
-30.803
 20
-16.789
 21
-16.969
  0
LINE
  8
0
 10
-30.803
 11
-30.733
 20
-16.969
 21
-17.152
  0
LINE
  8
0
 10
-30.733
 11
-30.671
 20
-17.152
 21
-17.339
  0
LINE
  8
0
 10
-30.671
 11
-30.619
 20
-17.339
 21
-17.528
  0
LINE
  8
0
 10
-30.619
 11
-30.576
 20
-17.528
 21
-17.719
  0
LINE
  8
0
 10
-30.576
 11
-30.542
 20
-17.719
 21
-17.913
  0
LINE
  8
0
 10
-30.542
 11
-30.518
 20
-17.913
 21
-18.108
  0
LINE
  8
0
 10
-30.518
 11
-30.504
 20
-18.108
 21
-18.304
  0
LINE
  8
0
 10
-30.504
 11
-30.499
 20
-18.304
 21
-18.5
  0
LINE
  8
0
 10
-30.499
 11
-30.504
 20
-18.5
 21
-18.696
  0
LINE
  8
0
 10
-30.504
 11
-30.518
 20
-18.696
 21
-18.892
  0
LINE
  8
0
 10
-30.518
 11
-30.542
 20
-18.892
 21
-19.087
  0
LINE
  8
0
 10
-30.542
 11
-30.576
 20
-19.087
 21
-19.281
  0
LINE
  8
0
 10
-30.576
 11
-30.619
 20
-19.281
 21
-19.472
  0
LINE
  8
0
 10
-30.619
 11
-30.671
 20
-19.472
 21
-19.661
  0
LINE
  8
0
 10
-30.671
 11
-30.733
 20
-19.661
 21
-19.848
  0
LINE
  8
0
 10
-30.733
 11
-30.803
 20
-19.848
 21
-20.031
  0
LINE
  8
0
 10
-30.803
 11
-30.883
 20
-20.031
 21
-20.211
  0
LINE
  8
0
 10
-30.883
 11
-30.971
 20
-20.211
 21
-20.386
  0
LINE
  8
0
 10
-30.971
 11
-31.068
 20
-20.386
 21
-20.557
  0
LINE
  8
0
 10
-31.068
 11
-31.173
 20
-20.557
 21
-20.723
  0
LINE
  8
0
 10
-31.173
 11
-31.286
 20
-20.723
 21
-20.884
  0
LINE
  8
0
 10
-31.286
 11
-31.407
 20
-20.884
 21
-21.038
  0
LINE
  8
0
 10
-31.407
 11
-31.535
 20
-21.038
 21
-21.187
  0
LINE
  8
0
 10
-31.535
 11
-31.671
 20
-21.187
 21
-21.329
  0
LINE
  8
0
 10
-31.671
 11
-31.813
 20
-21.329
 21
-21.465
  0
LINE
  8
0
 10
-31.813
 11
-31.962
 20
-21.465
 21
-21.593
  0
LINE
  8
0
 10
-31.962
 11
-32.116
 20
-21.593
 21
-21.714
  0
LINE
  8
0
 10
-32.116
 11
-32.277
 20
-21.714
 21
-21.827
  0
LINE
  8
0
 10
-32.277
 11
-32.443
 20
-21.827
 21
-21.932
  0
LINE
  8
0
 10
-32.443
 11
-32.614
 20
-21.932
 21
-22.029
  0
LINE
  8
0
 10
-32.614
 11
-32.789
 20
-22.029
 21
-22.117
  0
LINE
  8
0
 10
-32.789
 11
-32.969
 20
-22.117
 21
-22.197
  0
LINE
  8
0
 10
-32.969
 11
-33.152
 20
-22.197
 21
-22.267
  0
LINE
  8
0
 10
-33.152
 11
-33.339
 20
-22.267
 21
-22.329
  0
LINE
  8
0
 10
-33.339
 11
-33.528
 20
-22.329
 21
-22.381
  0
LINE
  8
0
 10
-33.528
 11
-33.719
 20
-22.381
 21
-22.424
  0
LINE
  8
0
 10
-33.719
 11
-33.913
 20
-22.424
 21
-22.458
  0
LINE
  8
0
 10
-33.913
 11
-34.108
 20
-22.458
 21
-22.482
  0
LINE
  8
0
 10
-34.108
 11
-34.304
 20
-22.482
 21
-22.496
  0
LINE
  8
0
 10
-34.304
 11
-34.5
 20
-22.496
 21
-22.501
  0
LINE
  8
0
 10
-34.5
 11
-34.696
 20
-22.501
 21
-22.496
  0
LINE
  8
0
 10
-34.696
 11
-34.892
 20
-22.496
 21
-22.482
  0
LINE
  8
0
 10
-34.892
 11
-35.087
 20
-22.482
 21
-22.458
  0
LINE
  8
0
 10
-35.087
 11
-35.281
 20
-22.458
 21
-22.424
  0
LINE
  8
0
 10
-35.281
 11
-35.472
 20
-22.424
 21
-22.381
  0
LINE
  8
0
 10
-35.472
 11
-35.661
 20
-22.381
 21
-22.329
  0
LINE
  8
0
 10
-35.661
 11
-35.848
 20
-22.329
 21
-22.267
  0
LINE
  8
0
 10
-35.848
 11
-36.031
 20
-22.267
 21
-22.197
  0
LINE
  8
0
 10
-36.031
 11
-36.211
 20
-22.197
 21
-22.117
  0
LINE
  8
0
 10
-36.211
 11
-36.386
 20
-22.117
 21
-22.029
  0
LINE
  8
0
 10
-36.386
 11
-36.557
 20
-22.029
 21
-21.932
  0
LINE
  8
0
 10
-36.557
 11
-36.723
 20
-21.932
 21
-21.827
  0
LINE
  8
0
 10
-36.723
 11
-36.884
 20
-21.827
 21
-21.714
  0
LINE
  8
0
 10
-36.884
 11
-37.038
 20
-21.714
 21
-21.593
  0
LINE
  8
0
 10
-37.038
 11
-37.187
 20
-21.593
 21
-21.465
  0
LINE
  8
0
 10
-37.187
 11
-37.329
 20
-21.465
 21
-21.329
  0
LINE
  8
0
 10
-37.329
 11
-37.465
 20
-21.329
 21
-21.187
  0
LINE
  8
0
 10
-37.465
 11
-37.593
 20
-21.187
 21
-21.038
  0
LINE
  8
0
 10
-37.593
 11
-37.714
 20
-21.038
 21
-20.884
  0
LINE
  8
0
 10
-37.714
 11
-37.827
 20
-20.884
 21
-20.723
  0
LINE
  8
0
 10
-37.827
 11
-37.932
 20
-20.723
 21
-20.557
  0
LINE
  8
0
 10
-37.932
 11
-38.029
 20
-20.557
 21
-20.386
  0
LINE
  8
0
 10
-38.029
 11
-38.117
 20
-20.386
 21
-20.211
  0
LINE
  8
0
 10
-38.117
 11
-38.197
 20
-20.211
 21
-20.031
  0
LINE
  8
0
 10
-38.197
 11
-38.267
 20
-20.031
 21
-19.848
  0
LINE
  8
0
 10
-38.267
 11
-38.329
 20
-19.848
 21
-19.661
  0
LINE
  8
0
 10
-38.329
 11
-38.381
 20
-19.661
 21
-19.472
  0
LINE
  8
0
 10
-38.381
 11
-38.424
 20
-19.472
 21
-19.281
  0
LINE
  8
0
 10
-38.424
 11
-38.458
 20
-19.281
 21
-19.087
  0
LINE
  8
0
 10
-38.458
 11
-38.482
 20
-19.087
 21
-18.892
  0
LINE
  8
0
 10
-38.482
 11
-38.496
 20
-18.892
 21
-18.696
  0
LINE
  8
0
 10
-38.496
 11
-38.501
 20
-18.696
 21
-18.5
  0
LINE
  8
0
 10
-12.875
 11
-12.875
 20
-3
 21
3
  0
LINE
  8
0
 10
-12.875
 11
-11.125
 20
3
 21
3
  0
LINE
  8
0
 10
-11.125
 11
-11.125
 20
3
 21
-3
  0
LINE
  8
0
 10
-11.125
 11
-12.875
 20
-3
 21
-3
  0
LINE
  8
0
 10
-12.875
 11
-12.875
 20
59.5
 21
65.5
  0
LINE
  8
0
 10
-12.875
 11
-11.125
 20
65.5
 21
65.5
  0
LINE
  8
0
 10
-11.125
 11
-11.125
 20
65.5
 21
59.5
  0
LINE
  8
0
 10
-11.125
 11
-12.875
 20
59.5
 21
59.5
  0
LINE
  8
0
 10
0.5
 11
0.5
 20
-40
 21
27.5
  0
LINE
  8
0
 10
0.5
 11
80.5
 20
27.5
 21
27.5
  0
LINE
  8
0
 10
80.5
 11
80.5
 20
27.5
 21
-40
  0
LINE
  8
0
 10
80.5
 11
0.5
 20
-40
 21
-40
  0
LINE
  8
0
 10
3.875
 11
3.875
 20
-3
 21
3
  0
LINE
  8
0
 10
3.875
 11
5.625
 20
3
 21
3
  0
LINE
  8
0
 10
5.625
 11
5.625
 20
3
 21
-3
  0
LINE
  8
0
 10
5.625
 11
3.875
 20
-3
 21
-3
  0
LINE
  8
0
 10
6.475
 11
6.475
 20
-15.75
 21
-6.75
  0
LINE
  8
0
 10
6.475
 11
13
 20
-6.75
 21
-6.75
  0
LINE
  8
0
 10
13
 11
13
 20
-6.75
 21
0
  0
LINE
  8
0
 10
13
 11
13.025
 20
0
 21
-6.75
  0
LINE
  8
0
 10
13.025
 11
13.025
 20
-6.75
 21
-15.75
  0
LINE
  8
0
 10
13.025
 11
13
 20
-15.75
 21
-15.75
  0
LINE
  8
0
 10
13
 11
13
 20
-15.75
 21
-27.5
  0
LINE
  8
0
 10
13
 11
6.475
 20
-27.5
 21
-15.75
  0
LINE
  8
0
 10
6.475
 11
6.475
 20
6.75
 21
15.75
  0
LINE
  8
0
 10
6.475
 11
13.025
 20
15.75
 21
15.75
  0
LINE
  8
0
 10
13.025
 11
13.025
 20
15.75
 21
6.75
  0
LINE
  8
0
 10
13.025
 11
6.475
 20
6.75
 21
6.75
  0
LINE
  8
0
 10
13.875
 11
13.875
 20
-3
 21
3
  0
LINE
  8
0
 10
13.875
 11
15.625
 20
3
 21
3
  0
LINE
  8
0
 10
15.625
 11
15.625
 20
3
 21
-3
  0
LINE
  8
0
 10
15.625
 11
13.875
 20
-3
 21
-3
  0
LINE
  8
0
 10
24.75
 11
24.75
 20
-34.025
 21
-27.475
  0
LINE
  8
0
 10
24.75
 11
33.75
 20
-27.475
 21
-27.475
  0
LINE
  8
0
 10
33.75
 11
33.75
 20
-27.475
 21
-34.025
  0
LINE
  8
0
 10
33.75
 11
24.75
 20
-34.025
 21
-34.025
  0
LINE
  8
0
 10
37.5
 11
37.5
 20
-36.625
 21
-34.875
  0
LINE
  8
0
 10
37.5
 11
43.5
 20
-34.875
 21
-34.875
  0
LINE
  8
0
 10
43.5
 11
43.5
 20
-34.875
 21
-36.625
  0
LINE
  8
0
 10
43.5
 11
37.5
 20
-36.625
 21
-36.625
  0
LINE
  8
0
 10
37.5
 11
37.5
 20
-26.625
 21
-24.875
  0
LINE
  8
0
 10
37.5
 11
43.5
 20
-24.875
 21
-24.875
  0
LINE
  8
0
 10
43.5
 11
43.5
 20
-24.875
 21
-26.625
  0
LINE
  8
0
 10
43.5
 11
37.5
 20
-26.625
 21
-26.625
  0
LINE
  8
0
 10
47.25
 11
47.25
 20
-34.025
 21
-27.475
  0
LINE
  8
0
 10
47.25
 11
56.25
 20
-27.475
 21
-27.475
  0
LINE
  8
0
 10
56.25
 11
56.25
 20
-27.475
 21
-34.025
  0
LINE
  8
0
 10
56.25
 11
47.25
 20
-34.025
 21
-34.025
  0
LINE
  8
0
 10
65.375
 11
65.375
 20
-3
 21
3
  0
LINE
  8
0
 10
65.375
 11
67.125
 20
3
 21
3
  0
LINE
  8
0
 10
67.125
 11
67.125
 20
3
 21
-3
  0
LINE
  8
0
 10
67.125
 11
65.375
 20
-3
 21
-3
  0
LINE
  8
0
 10
67.975
 11
67.975
 20
-15.75
 21
-6.75
  0
LINE
  8
0
 10
67.975
 11
74.525
 20
-6.75
 21
-6.75
  0
LINE
  8
0
 10
74.525
 11
74.525
 20
-6.75
 21
-15.75
  0
LINE
  8
0
 10
74.525
 11
67.975
 20
-15.75
 21
-15.75
  0
LINE
  8
0
 10
67.975
 11
67.975
 20
6.75
 21
15.75
  0
LINE
  8
0
 10
67.975
 11
74.525
 20
15.75
 21
15.75
  0
LINE
  8
0
 10
74.525
 11
74.525
 20
15.75
 21
6.75
  0
LINE
  8
0
 10
74.525
 11
67.975
 20
6.75
 21
6.75
  0
LINE
  8
0
 10
75.375
 11
75.375
 20
-3
 21
3
  0
LINE
  8
0
 10
75.375
 11
77.125
 20
3
 21
3
  0
LINE
  8
0
 10
77.125
 11
77.125
 20
3
 21
-3
  0
LINE
  8
0
 10
77.125
 11
75.375
 20
-3
 21
-3
  0
ENDSEC
  0
SECTION
  2
OBJECTS
  0
DICTIONARY
  0
ENDSEC
  0
EOF
