  0
SECTION
  2
BLOCKS
  0
ENDSEC
  0
SECTION
  2
ENTITIES
  0
LINE
  8
0
 10
-300
 11
-300
 20
-116
 21
-55
  0
LINE
  8
0
 10
-300
 11
-288
 20
-55
 21
-43
  0
LINE
  8
0
 10
-288
 11
-288
 20
-43
 21
204
  0
LINE
  8
0
 10
-288
 11
-300
 20
204
 21
216
  0
LINE
  8
0
 10
-300
 11
-300
 20
216
 21
225
  0
LINE
  8
0
 10
-300
 11
-280.55
 20
225
 21
225
  0
LINE
  8
0
 10
-280.55
 11
-280.55
 20
225
 21
219
  0
LINE
  8
0
 10
-280.55
 11
-265
 20
219
 21
219
  0
LINE
  8
0
 10
-265
 11
-265
 20
219
 21
215.1
  0
LINE
  8
0
 10
-265
 11
-266.25
 20
215.1
 21
215.1
  0
LINE
  8
0
 10
-266.25
 11
-266.25
 20
215.1
 21
212.6
  0
LINE
  8
0
 10
-266.25
 11
-265
 20
212.6
 21
212.6
  0
LINE
  8
0
 10
-265
 11
-265
 20
212.6
 21
211.15
  0
LINE
  8
0
 10
-265
 11
-262
 20
211.15
 21
211.15
  0
LINE
  8
0
 10
-262
 11
-262
 20
211.15
 21
212.6
  0
LINE
  8
0
 10
-262
 11
-260.75
 20
212.6
 21
212.6
  0
LINE
  8
0
 10
-260.75
 11
-260.75
 20
212.6
 21
215.1
  0
LINE
  8
0
 10
-260.75
 11
-262
 20
215.1
 21
215.1
  0
LINE
  8
0
 10
-262
 11
-262
 20
215.1
 21
219
  0
LINE
  8
0
 10
-262
 11
-246.45
 20
219
 21
219
  0
LINE
  8
0
 10
-246.45
 11
-246.45
 20
219
 21
225
  0
LINE
  8
0
 10
-246.45
 11
42.45
 20
225
 21
225
  0
LINE
  8
0
 10
42.45
 11
42.45
 20
225
 21
219
  0
LINE
  8
0
 10
42.45
 11
58
 20
219
 21
219
  0
LINE
  8
0
 10
58
 11
58
 20
219
 21
215.1
  0
LINE
  8
0
 10
58
 11
56.75
 20
215.1
 21
215.1
  0
LINE
  8
0
 10
56.75
 11
56.75
 20
215.1
 21
212.6
  0
LINE
  8
0
 10
56.75
 11
58
 20
212.6
 21
212.6
  0
LINE
  8
0
 10
58
 11
58
 20
212.6
 21
211.15
  0
LINE
  8
0
 10
58
 11
61
 20
211.15
 21
211.15
  0
LINE
  8
0
 10
61
 11
61
 20
211.15
 21
212.6
  0
LINE
  8
0
 10
61
 11
62.25
 20
212.6
 21
212.6
  0
LINE
  8
0
 10
62.25
 11
62.25
 20
212.6
 21
215.1
  0
LINE
  8
0
 10
62.25
 11
61
 20
215.1
 21
215.1
  0
LINE
  8
0
 10
61
 11
61
 20
215.1
 21
219
  0
LINE
  8
0
 10
61
 11
76.55
 20
219
 21
219
  0
LINE
  8
0
 10
76.55
 11
76.55
 20
219
 21
225
  0
LINE
  8
0
 10
76.55
 11
96
 20
225
 21
225
  0
LINE
  8
0
 10
96
 11
96
 20
225
 21
216
  0
LINE
  8
0
 10
96
 11
84
 20
216
 21
204
  0
LINE
  8
0
 10
84
 11
84
 20
204
 21
-43
  0
LINE
  8
0
 10
84
 11
96
 20
-43
 21
-55
  0
LINE
  8
0
 10
96
 11
96
 20
-55
 21
-116
  0
LINE
  8
0
 10
96
 11
35
 20
-116
 21
-116
  0
LINE
  8
0
 10
35
 11
35
 20
-116
 21
-55
  0
LINE
  8
0
 10
35
 11
29
 20
-55
 21
-55
  0
LINE
  8
0
 10
29
 11
29
 20
-55
 21
-61
  0
LINE
  8
0
 10
29
 11
23.055
 20
-61
 21
-61
  0
LINE
  8
0
 10
23.055
 11
23.313
 20
-61
 21
154.333
  0
LINE
  8
0
 10
23.313
 11
22.072
 20
154.333
 21
160.576
  0
LINE
  8
0
 10
22.072
 11
18.535
 20
160.576
 21
165.869
  0
LINE
  8
0
 10
18.535
 11
13.243
 20
165.869
 21
169.405
  0
LINE
  8
0
 10
13.243
 11
7
 20
169.405
 21
170.647
  0
LINE
  8
0
 10
7
 11
-211
 20
170.647
 21
170.647
  0
LINE
  8
0
 10
-211
 11
-217.243
 20
170.647
 21
169.405
  0
LINE
  8
0
 10
-217.243
 11
-222.535
 20
169.405
 21
165.869
  0
LINE
  8
0
 10
-222.535
 11
-226.072
 20
165.869
 21
160.576
  0
LINE
  8
0
 10
-226.072
 11
-227.313
 20
160.576
 21
154.333
  0
LINE
  8
0
 10
-227.313
 11
-227.055
 20
154.333
 21
-61
  0
LINE
  8
0
 10
-227.055
 11
-233
 20
-61
 21
-61
  0
LINE
  8
0
 10
-233
 11
-233
 20
-61
 21
-55
  0
LINE
  8
0
 10
-233
 11
-239
 20
-55
 21
-55
  0
LINE
  8
0
 10
-239
 11
-239
 20
-55
 21
-116
  0
LINE
  8
0
 10
-239
 11
-300
 20
-116
 21
-116
  0
LINE
  8
0
 10
-294.025
 11
-294.025
 20
-99.75
 21
-90.75
  0
LINE
  8
0
 10
-294.025
 11
-287.975
 20
-90.75
 21
-90.75
  0
LINE
  8
0
 10
-287.975
 11
-287.975
 20
-90.75
 21
-99.75
  0
LINE
  8
0
 10
-287.975
 11
-294.025
 20
-99.75
 21
-99.75
  0
LINE
  8
0
 10
-294.025
 11
-294.025
 20
-77.25
 21
-68.25
  0
LINE
  8
0
 10
-294.025
 11
-287.975
 20
-68.25
 21
-68.25
  0
LINE
  8
0
 10
-287.975
 11
-287.975
 20
-68.25
 21
-77.25
  0
LINE
  8
0
 10
-287.975
 11
-294.025
 20
-77.25
 21
-77.25
  0
LINE
  8
0
 10
-292.5
 11
-292.5
 20
-188.5
 21
-182.5
  0
LINE
  8
0
 10
-292.5
 11
-273.05
 20
-182.5
 21
-182.5
  0
LINE
  8
0
 10
-273.05
 11
-273.05
 20
-182.5
 21
-176.5
  0
LINE
  8
0
 10
-273.05
 11
-292.5
 20
-176.5
 21
-176.5
  0
LINE
  8
0
 10
-292.5
 11
-292.5
 20
-176.5
 21
-146.5
  0
LINE
  8
0
 10
-292.5
 11
-274.5
 20
-146.5
 21
-146.5
  0
LINE
  8
0
 10
-274.5
 11
-219.5
 20
-146.5
 21
-170.5
  0
LINE
  8
0
 10
-219.5
 11
-219.5
 20
-170.5
 21
-176.5
  0
LINE
  8
0
 10
-219.5
 11
-238.95
 20
-176.5
 21
-176.5
  0
LINE
  8
0
 10
-238.95
 11
-238.95
 20
-176.5
 21
-182.5
  0
LINE
  8
0
 10
-238.95
 11
-220.281
 20
-182.5
 21
-182.5
  0
LINE
  8
0
 10
-220.281
 11
-223.471
 20
-182.5
 21
-207
  0
LINE
  8
0
 10
-223.471
 11
-225.551
 20
-207
 21
-214.765
  0
LINE
  8
0
 10
-225.551
 11
-231.235
 20
-214.765
 21
-220.449
  0
LINE
  8
0
 10
-231.235
 11
-239
 20
-220.449
 21
-222.529
  0
LINE
  8
0
 10
-239
 11
-246.765
 20
-222.529
 21
-220.449
  0
LINE
  8
0
 10
-246.765
 11
-248
 20
-220.449
 21
-219.586
  0
LINE
  8
0
 10
-248
 11
-248
 20
-219.586
 21
-207.788
  0
LINE
  8
0
 10
-248
 11
-247.843
 20
-207.788
 21
-207
  0
LINE
  8
0
 10
-247.843
 11
-248.464
 20
-207
 21
-203.879
  0
LINE
  8
0
 10
-248.464
 11
-250.232
 20
-203.879
 21
-201.232
  0
LINE
  8
0
 10
-250.232
 11
-252.879
 20
-201.232
 21
-199.464
  0
LINE
  8
0
 10
-252.879
 11
-256
 20
-199.464
 21
-198.843
  0
LINE
  8
0
 10
-256
 11
-256.788
 20
-198.843
 21
-199
  0
LINE
  8
0
 10
-256.788
 11
-277.469
 20
-199
 21
-199
  0
LINE
  8
0
 10
-277.469
 11
-292.5
 20
-199
 21
-188.5
  0
LINE
  8
0
 10
-292.5
 11
-292.061
 20
-84
 21
-82.939
  0
LINE
  8
0
 10
-292.061
 11
-291
 20
-82.939
 21
-82.5
  0
LINE
  8
0
 10
-291
 11
-289.939
 20
-82.5
 21
-82.939
  0
LINE
  8
0
 10
-289.939
 11
-289.5
 20
-82.939
 21
-84
  0
LINE
  8
0
 10
-289.5
 11
-289.939
 20
-84
 21
-85.061
  0
LINE
  8
0
 10
-289.939
 11
-291
 20
-85.061
 21
-85.5
  0
LINE
  8
0
 10
-291
 11
-292.061
 20
-85.5
 21
-85.061
  0
LINE
  8
0
 10
-292.061
 11
-292.5
 20
-85.061
 21
-84
  0
LINE
  8
0
 10
-285.077
 11
-284.776
 20
-161.5
 21
-160.573
  0
LINE
  8
0
 10
-284.776
 11
-283.987
 20
-160.573
 21
-160
  0
LINE
  8
0
 10
-283.987
 11
-283.013
 20
-160
 21
-160
  0
LINE
  8
0
 10
-283.013
 11
-282.224
 20
-160
 21
-160.573
  0
LINE
  8
0
 10
-282.224
 11
-281.923
 20
-160.573
 21
-161.5
  0
LINE
  8
0
 10
-281.923
 11
-282.224
 20
-161.5
 21
-162.427
  0
LINE
  8
0
 10
-282.224
 11
-283.013
 20
-162.427
 21
-163
  0
LINE
  8
0
 10
-283.013
 11
-283.987
 20
-163
 21
-163
  0
LINE
  8
0
 10
-283.987
 11
-284.776
 20
-163
 21
-162.427
  0
LINE
  8
0
 10
-284.776
 11
-285.077
 20
-162.427
 21
-161.5
  0
LINE
  8
0
 10
-279.282
 11
-278.173
 20
-211
 21
-206.859
  0
LINE
  8
0
 10
-278.173
 11
-275.141
 20
-206.859
 21
-203.827
  0
LINE
  8
0
 10
-275.141
 11
-271
 20
-203.827
 21
-202.718
  0
LINE
  8
0
 10
-271
 11
-253.136
 20
-202.718
 21
-206.5
  0
LINE
  8
0
 10
-253.136
 11
-250.5
 20
-206.5
 21
-209.136
  0
LINE
  8
0
 10
-250.5
 11
-250.5
 20
-209.136
 21
-212.864
  0
LINE
  8
0
 10
-250.5
 11
-253.136
 20
-212.864
 21
-215.5
  0
LINE
  8
0
 10
-253.136
 11
-271
 20
-215.5
 21
-219.282
  0
LINE
  8
0
 10
-271
 11
-275.141
 20
-219.282
 21
-218.173
  0
LINE
  8
0
 10
-275.141
 11
-278.173
 20
-218.173
 21
-215.141
  0
LINE
  8
0
 10
-278.173
 11
-279.282
 20
-215.141
 21
-211
  0
LINE
  8
0
 10
-279.25
 11
-279.25
 20
-61.025
 21
-54.975
  0
LINE
  8
0
 10
-279.25
 11
-270.25
 20
-54.975
 21
-54.975
  0
LINE
  8
0
 10
-270.25
 11
-270.25
 20
-54.975
 21
-61.025
  0
LINE
  8
0
 10
-270.25
 11
-279.25
 20
-61.025
 21
-61.025
  0
LINE
  8
0
 10
-275.5
 11
-275.5
 20
-105.657
 21
-102.343
  0
LINE
  8
0
 10
-275.5
 11
-273.157
 20
-102.343
 21
-100
  0
LINE
  8
0
 10
-273.157
 11
-261.843
 20
-100
 21
-100
  0
LINE
  8
0
 10
-261.843
 11
-259.5
 20
-100
 21
-102.343
  0
LINE
  8
0
 10
-259.5
 11
-259.5
 20
-102.343
 21
-105.657
  0
LINE
  8
0
 10
-259.5
 11
-261.843
 20
-105.657
 21
-108
  0
LINE
  8
0
 10
-261.843
 11
-273.157
 20
-108
 21
-108
  0
LINE
  8
0
 10
-273.157
 11
-275.5
 20
-108
 21
-105.657
  0
LINE
  8
0
 10
-265
 11
-264.561
 20
-58
 21
-56.939
  0
LINE
  8
0
 10
-264.561
 11
-263.5
 20
-56.939
 21
-56.5
  0
LINE
  8
0
 10
-263.5
 11
-262.439
 20
-56.5
 21
-56.939
  0
LINE
  8
0
 10
-262.439
 11
-262
 20
-56.939
 21
-58
  0
LINE
  8
0
 10
-262
 11
-262.439
 20
-58
 21
-59.061
  0
LINE
  8
0
 10
-262.439
 11
-263.5
 20
-59.061
 21
-59.5
  0
LINE
  8
0
 10
-263.5
 11
-264.561
 20
-59.5
 21
-59.061
  0
LINE
  8
0
 10
-264.561
 11
-265
 20
-59.061
 21
-58
  0
LINE
  8
0
 10
-257.577
 11
-257.276
 20
-179.5
 21
-178.573
  0
LINE
  8
0
 10
-257.276
 11
-256.487
 20
-178.573
 21
-178
  0
LINE
  8
0
 10
-256.487
 11
-255.513
 20
-178
 21
-178
  0
LINE
  8
0
 10
-255.513
 11
-254.724
 20
-178
 21
-178.573
  0
LINE
  8
0
 10
-254.724
 11
-254.423
 20
-178.573
 21
-179.5
  0
LINE
  8
0
 10
-254.423
 11
-254.724
 20
-179.5
 21
-180.427
  0
LINE
  8
0
 10
-254.724
 11
-255.513
 20
-180.427
 21
-181
  0
LINE
  8
0
 10
-255.513
 11
-256.487
 20
-181
 21
-181
  0
LINE
  8
0
 10
-256.487
 11
-257.276
 20
-181
 21
-180.427
  0
LINE
  8
0
 10
-257.276
 11
-257.577
 20
-180.427
 21
-179.5
  0
LINE
  8
0
 10
-256.75
 11
-256.75
 20
-61.025
 21
-54.975
  0
LINE
  8
0
 10
-256.75
 11
-247.75
 20
-54.975
 21
-54.975
  0
LINE
  8
0
 10
-247.75
 11
-247.75
 20
-54.975
 21
-61.025
  0
LINE
  8
0
 10
-247.75
 11
-256.75
 20
-61.025
 21
-61.025
  0
LINE
  8
0
 10
-256.624
 11
-256.148
 20
-211
 21
-209.852
  0
LINE
  8
0
 10
-256.148
 11
-255
 20
-209.852
 21
-209.376
  0
LINE
  8
0
 10
-255
 11
-253.852
 20
-209.376
 21
-209.852
  0
LINE
  8
0
 10
-253.852
 11
-253.376
 20
-209.852
 21
-211
  0
LINE
  8
0
 10
-253.376
 11
-253.852
 20
-211
 21
-212.148
  0
LINE
  8
0
 10
-253.852
 11
-255
 20
-212.148
 21
-212.624
  0
LINE
  8
0
 10
-255
 11
-256.148
 20
-212.624
 21
-212.148
  0
LINE
  8
0
 10
-256.148
 11
-256.624
 20
-212.148
 21
-211
  0
LINE
  8
0
 10
-243.078
 11
-242.768
 20
-207
 21
-205.439
  0
LINE
  8
0
 10
-242.768
 11
-241.884
 20
-205.439
 21
-204.116
  0
LINE
  8
0
 10
-241.884
 11
-240.561
 20
-204.116
 21
-203.232
  0
LINE
  8
0
 10
-240.561
 11
-239
 20
-203.232
 21
-202.922
  0
LINE
  8
0
 10
-239
 11
-237.439
 20
-202.922
 21
-203.232
  0
LINE
  8
0
 10
-237.439
 11
-236.116
 20
-203.232
 21
-204.116
  0
LINE
  8
0
 10
-236.116
 11
-235.232
 20
-204.116
 21
-205.439
  0
LINE
  8
0
 10
-235.232
 11
-234.922
 20
-205.439
 21
-207
  0
LINE
  8
0
 10
-234.922
 11
-235.232
 20
-207
 21
-208.561
  0
LINE
  8
0
 10
-235.232
 11
-236.116
 20
-208.561
 21
-209.884
  0
LINE
  8
0
 10
-236.116
 11
-237.439
 20
-209.884
 21
-210.768
  0
LINE
  8
0
 10
-237.439
 11
-239
 20
-210.768
 21
-211.078
  0
LINE
  8
0
 10
-239
 11
-240.561
 20
-211.078
 21
-210.768
  0
LINE
  8
0
 10
-240.561
 11
-241.884
 20
-210.768
 21
-209.884
  0
LINE
  8
0
 10
-241.884
 11
-242.768
 20
-209.884
 21
-208.561
  0
LINE
  8
0
 10
-242.768
 11
-243.078
 20
-208.561
 21
-207
  0
LINE
  8
0
 10
-241.625
 11
-241.625
 20
-20.125
 21
-16.375
  0
LINE
  8
0
 10
-241.625
 11
-239.875
 20
-16.375
 21
-16.375
  0
LINE
  8
0
 10
-239.875
 11
-239.875
 20
-16.375
 21
-20.125
  0
LINE
  8
0
 10
-239.875
 11
-241.625
 20
-20.125
 21
-20.125
  0
LINE
  8
0
 10
-241.625
 11
-241.625
 20
83.125
 21
86.875
  0
LINE
  8
0
 10
-241.625
 11
-239.875
 20
86.875
 21
86.875
  0
LINE
  8
0
 10
-239.875
 11
-239.875
 20
86.875
 21
83.125
  0
LINE
  8
0
 10
-239.875
 11
-241.625
 20
83.125
 21
83.125
  0
LINE
  8
0
 10
-241.625
 11
-241.625
 20
186.375
 21
190.125
  0
LINE
  8
0
 10
-241.625
 11
-239.875
 20
190.125
 21
190.125
  0
LINE
  8
0
 10
-239.875
 11
-239.875
 20
190.125
 21
186.375
  0
LINE
  8
0
 10
-239.875
 11
-241.625
 20
186.375
 21
186.375
  0
LINE
  8
0
 10
-240.624
 11
-240.148
 20
-191
 21
-189.852
  0
LINE
  8
0
 10
-240.148
 11
-239
 20
-189.852
 21
-189.376
  0
LINE
  8
0
 10
-239
 11
-237.852
 20
-189.376
 21
-189.852
  0
LINE
  8
0
 10
-237.852
 11
-237.376
 20
-189.852
 21
-191
  0
LINE
  8
0
 10
-237.376
 11
-237.852
 20
-191
 21
-192.148
  0
LINE
  8
0
 10
-237.852
 11
-239
 20
-192.148
 21
-192.624
  0
LINE
  8
0
 10
-239
 11
-240.148
 20
-192.624
 21
-192.148
  0
LINE
  8
0
 10
-240.148
 11
-240.624
 20
-192.148
 21
-191
  0
LINE
  8
0
 10
-239.025
 11
-239.025
 20
-34
 21
-25
  0
LINE
  8
0
 10
-239.025
 11
-232.975
 20
-25
 21
-25
  0
LINE
  8
0
 10
-232.975
 11
-232.975
 20
-25
 21
-34
  0
LINE
  8
0
 10
-232.975
 11
-239.025
 20
-34
 21
-34
  0
LINE
  8
0
 10
-239.025
 11
-239.025
 20
-11.5
 21
-2.5
  0
LINE
  8
0
 10
-239.025
 11
-232.975
 20
-2.5
 21
-2.5
  0
LINE
  8
0
 10
-232.975
 11
-232.975
 20
-2.5
 21
-11.5
  0
LINE
  8
0
 10
-232.975
 11
-239.025
 20
-11.5
 21
-11.5
  0
LINE
  8
0
 10
-239.025
 11
-239.025
 20
69.25
 21
78.25
  0
LINE
  8
0
 10
-239.025
 11
-232.975
 20
78.25
 21
78.25
  0
LINE
  8
0
 10
-232.975
 11
-232.975
 20
78.25
 21
69.25
  0
LINE
  8
0
 10
-232.975
 11
-239.025
 20
69.25
 21
69.25
  0
LINE
  8
0
 10
-239.025
 11
-239.025
 20
91.75
 21
100.75
  0
LINE
  8
0
 10
-239.025
 11
-232.975
 20
100.75
 21
100.75
  0
LINE
  8
0
 10
-232.975
 11
-232.975
 20
100.75
 21
91.75
  0
LINE
  8
0
 10
-232.975
 11
-239.025
 20
91.75
 21
91.75
  0
LINE
  8
0
 10
-239.025
 11
-239.025
 20
172.5
 21
181.5
  0
LINE
  8
0
 10
-239.025
 11
-232.975
 20
181.5
 21
181.5
  0
LINE
  8
0
 10
-232.975
 11
-232.975
 20
181.5
 21
172.5
  0
LINE
  8
0
 10
-232.975
 11
-239.025
 20
172.5
 21
172.5
  0
LINE
  8
0
 10
-239.025
 11
-239.025
 20
195
 21
204
  0
LINE
  8
0
 10
-239.025
 11
-232.975
 20
204
 21
204
  0
LINE
  8
0
 10
-232.975
 11
-232.975
 20
204
 21
195
  0
LINE
  8
0
 10
-232.975
 11
-239.025
 20
195
 21
195
  0
LINE
  8
0
 10
-232.125
 11
-232.125
 20
-20.125
 21
-16.375
  0
LINE
  8
0
 10
-232.125
 11
-230.375
 20
-16.375
 21
-16.375
  0
LINE
  8
0
 10
-230.375
 11
-230.375
 20
-16.375
 21
-20.125
  0
LINE
  8
0
 10
-230.375
 11
-232.125
 20
-20.125
 21
-20.125
  0
LINE
  8
0
 10
-232.125
 11
-232.125
 20
83.125
 21
86.875
  0
LINE
  8
0
 10
-232.125
 11
-230.375
 20
86.875
 21
86.875
  0
LINE
  8
0
 10
-230.375
 11
-230.375
 20
86.875
 21
83.125
  0
LINE
  8
0
 10
-230.375
 11
-232.125
 20
83.125
 21
83.125
  0
LINE
  8
0
 10
-232.125
 11
-232.125
 20
186.375
 21
190.125
  0
LINE
  8
0
 10
-232.125
 11
-230.375
 20
190.125
 21
190.125
  0
LINE
  8
0
 10
-230.375
 11
-230.375
 20
190.125
 21
186.375
  0
LINE
  8
0
 10
-230.375
 11
-232.125
 20
186.375
 21
186.375
  0
LINE
  8
0
 10
-226
 11
-226
 20
-113.071
 21
-108.929
  0
LINE
  8
0
 10
-226
 11
-223.071
 20
-108.929
 21
-106
  0
LINE
  8
0
 10
-223.071
 11
-218.929
 20
-106
 21
-106
  0
LINE
  8
0
 10
-218.929
 11
-216
 20
-106
 21
-108.929
  0
LINE
  8
0
 10
-216
 11
-216
 20
-108.929
 21
-113.071
  0
LINE
  8
0
 10
-216
 11
-218.929
 20
-113.071
 21
-116
  0
LINE
  8
0
 10
-218.929
 11
-223.071
 20
-116
 21
-116
  0
LINE
  8
0
 10
-223.071
 11
-226
 20
-116
 21
-113.071
  0
LINE
  8
0
 10
-225
 11
-225
 20
-91
 21
-67
  0
LINE
  8
0
 10
-225
 11
-207
 20
-67
 21
-67
  0
LINE
  8
0
 10
-207
 11
-207
 20
-67
 21
-91
  0
LINE
  8
0
 10
-207
 11
-225
 20
-91
 21
-91
  0
LINE
  8
0
 10
-223
 11
-223
 20
-111.828
 21
-110.172
  0
LINE
  8
0
 10
-223
 11
-221.828
 20
-110.172
 21
-109
  0
LINE
  8
0
 10
-221.828
 11
-220.172
 20
-109
 21
-109
  0
LINE
  8
0
 10
-220.172
 11
-219
 20
-109
 21
-110.172
  0
LINE
  8
0
 10
-219
 11
-219
 20
-110.172
 21
-111.828
  0
LINE
  8
0
 10
-219
 11
-220.172
 20
-111.828
 21
-113
  0
LINE
  8
0
 10
-220.172
 11
-221.828
 20
-113
 21
-113
  0
LINE
  8
0
 10
-221.828
 11
-223
 20
-113
 21
-111.828
  0
LINE
  8
0
 10
-223
 11
-223
 20
-79.577
 21
-78.423
  0
LINE
  8
0
 10
-223
 11
-222
 20
-78.423
 21
-77.845
  0
LINE
  8
0
 10
-222
 11
-220
 20
-77.845
 21
-77.845
  0
LINE
  8
0
 10
-220
 11
-219
 20
-77.845
 21
-78.423
  0
LINE
  8
0
 10
-219
 11
-219
 20
-78.423
 21
-79.577
  0
LINE
  8
0
 10
-219
 11
-220
 20
-79.577
 21
-80.155
  0
LINE
  8
0
 10
-220
 11
-222
 20
-80.155
 21
-80.155
  0
LINE
  8
0
 10
-222
 11
-223
 20
-80.155
 21
-79.577
  0
LINE
  8
0
 10
-221
 11
-221
 20
-51.464
 21
161.464
  0
LINE
  8
0
 10
-221
 11
-217.464
 20
161.464
 21
165
  0
LINE
  8
0
 10
-217.464
 11
-4.536
 20
165
 21
165
  0
LINE
  8
0
 10
-4.536
 11
-1
 20
165
 21
161.464
  0
LINE
  8
0
 10
-1
 11
-1
 20
161.464
 21
-51.464
  0
LINE
  8
0
 10
-1
 11
-4.536
 20
-51.464
 21
-55
  0
LINE
  8
0
 10
-4.536
 11
-217.464
 20
-55
 21
-55
  0
LINE
  8
0
 10
-217.464
 11
-221
 20
-55
 21
-51.464
  0
LINE
  8
0
 10
-220
 11
-220
 20
-88
 21
-86
  0
LINE
  8
0
 10
-220
 11
-217
 20
-86
 21
-86
  0
LINE
  8
0
 10
-217
 11
-217
 20
-86
 21
-88
  0
LINE
  8
0
 10
-217
 11
-220
 20
-88
 21
-88
  0
LINE
  8
0
 10
-220
 11
-220
 20
-72
 21
-70
  0
LINE
  8
0
 10
-220
 11
-217
 20
-70
 21
-70
  0
LINE
  8
0
 10
-217
 11
-217
 20
-70
 21
-72
  0
LINE
  8
0
 10
-217
 11
-220
 20
-72
 21
-72
  0
LINE
  8
0
 10
-217
 11
-217
 20
-50.121
 21
-48.879
  0
LINE
  8
0
 10
-217
 11
-216.121
 20
-48.879
 21
-48
  0
LINE
  8
0
 10
-216.121
 11
-214.879
 20
-48
 21
-48
  0
LINE
  8
0
 10
-214.879
 11
-214
 20
-48
 21
-48.879
  0
LINE
  8
0
 10
-214
 11
-214
 20
-48.879
 21
-50.121
  0
LINE
  8
0
 10
-214
 11
-214.879
 20
-50.121
 21
-51
  0
LINE
  8
0
 10
-214.879
 11
-216.121
 20
-51
 21
-51
  0
LINE
  8
0
 10
-216.121
 11
-217
 20
-51
 21
-50.121
  0
LINE
  8
0
 10
-217
 11
-217
 20
54.379
 21
55.621
  0
LINE
  8
0
 10
-217
 11
-216.121
 20
55.621
 21
56.5
  0
LINE
  8
0
 10
-216.121
 11
-214.879
 20
56.5
 21
56.5
  0
LINE
  8
0
 10
-214.879
 11
-214
 20
56.5
 21
55.621
  0
LINE
  8
0
 10
-214
 11
-214
 20
55.621
 21
54.379
  0
LINE
  8
0
 10
-214
 11
-214.879
 20
54.379
 21
53.5
  0
LINE
  8
0
 10
-214.879
 11
-216.121
 20
53.5
 21
53.5
  0
LINE
  8
0
 10
-216.121
 11
-217
 20
53.5
 21
54.379
  0
LINE
  8
0
 10
-217
 11
-217
 20
158.879
 21
160.121
  0
LINE
  8
0
 10
-217
 11
-216.121
 20
160.121
 21
161
  0
LINE
  8
0
 10
-216.121
 11
-214.879
 20
161
 21
161
  0
LINE
  8
0
 10
-214.879
 11
-214
 20
161
 21
160.121
  0
LINE
  8
0
 10
-214
 11
-214
 20
160.121
 21
158.879
  0
LINE
  8
0
 10
-214
 11
-214.879
 20
158.879
 21
158
  0
LINE
  8
0
 10
-214.879
 11
-216.121
 20
158
 21
158
  0
LINE
  8
0
 10
-216.121
 11
-217
 20
158
 21
158.879
  0
LINE
  8
0
 10
-216
 11
-216
 20
-41.5
 21
-38.5
  0
LINE
  8
0
 10
-216
 11
-214
 20
-38.5
 21
-38.5
  0
LINE
  8
0
 10
-214
 11
-214
 20
-38.5
 21
-41.5
  0
LINE
  8
0
 10
-214
 11
-216
 20
-41.5
 21
-41.5
  0
LINE
  8
0
 10
-216
 11
-216
 20
45.5
 21
48.5
  0
LINE
  8
0
 10
-216
 11
-214
 20
48.5
 21
48.5
  0
LINE
  8
0
 10
-214
 11
-214
 20
48.5
 21
45.5
  0
LINE
  8
0
 10
-214
 11
-216
 20
45.5
 21
45.5
  0
LINE
  8
0
 10
-216
 11
-216
 20
61.5
 21
64.5
  0
LINE
  8
0
 10
-216
 11
-214
 20
64.5
 21
64.5
  0
LINE
  8
0
 10
-214
 11
-214
 20
64.5
 21
61.5
  0
LINE
  8
0
 10
-214
 11
-216
 20
61.5
 21
61.5
  0
LINE
  8
0
 10
-216
 11
-216
 20
148.5
 21
151.5
  0
LINE
  8
0
 10
-216
 11
-214
 20
151.5
 21
151.5
  0
LINE
  8
0
 10
-214
 11
-214
 20
151.5
 21
148.5
  0
LINE
  8
0
 10
-214
 11
-216
 20
148.5
 21
148.5
  0
LINE
  8
0
 10
-213.124
 11
-212.648
 20
-79
 21
-77.852
  0
LINE
  8
0
 10
-212.648
 11
-211.5
 20
-77.852
 21
-77.376
  0
LINE
  8
0
 10
-211.5
 11
-210.352
 20
-77.376
 21
-77.852
  0
LINE
  8
0
 10
-210.352
 11
-209.876
 20
-77.852
 21
-79
  0
LINE
  8
0
 10
-209.876
 11
-210.352
 20
-79
 21
-80.148
  0
LINE
  8
0
 10
-210.352
 11
-211.5
 20
-80.148
 21
-80.624
  0
LINE
  8
0
 10
-211.5
 11
-212.648
 20
-80.624
 21
-80.148
  0
LINE
  8
0
 10
-212.648
 11
-213.124
 20
-80.148
 21
-79
  0
LINE
  8
0
 10
-212
 11
-212
 20
-113.071
 21
-108.929
  0
LINE
  8
0
 10
-212
 11
-209.071
 20
-108.929
 21
-106
  0
LINE
  8
0
 10
-209.071
 11
-204.929
 20
-106
 21
-106
  0
LINE
  8
0
 10
-204.929
 11
-202
 20
-106
 21
-108.929
  0
LINE
  8
0
 10
-202
 11
-202
 20
-108.929
 21
-113.071
  0
LINE
  8
0
 10
-202
 11
-204.929
 20
-113.071
 21
-116
  0
LINE
  8
0
 10
-204.929
 11
-209.071
 20
-116
 21
-116
  0
LINE
  8
0
 10
-209.071
 11
-212
 20
-116
 21
-113.071
  0
LINE
  8
0
 10
-210.5
 11
-210.5
 20
-176.5
 21
-170.5
  0
LINE
  8
0
 10
-210.5
 11
-155.5
 20
-170.5
 21
-146.5
  0
LINE
  8
0
 10
-155.5
 11
-137.5
 20
-146.5
 21
-146.5
  0
LINE
  8
0
 10
-137.5
 11
-137.5
 20
-146.5
 21
-176.5
  0
LINE
  8
0
 10
-137.5
 11
-156.95
 20
-176.5
 21
-176.5
  0
LINE
  8
0
 10
-156.95
 11
-156.95
 20
-176.5
 21
-182.5
  0
LINE
  8
0
 10
-156.95
 11
-137.5
 20
-182.5
 21
-182.5
  0
LINE
  8
0
 10
-137.5
 11
-137.5
 20
-182.5
 21
-188.5
  0
LINE
  8
0
 10
-137.5
 11
-152.531
 20
-188.5
 21
-199
  0
LINE
  8
0
 10
-152.531
 11
-173.212
 20
-199
 21
-199
  0
LINE
  8
0
 10
-173.212
 11
-174
 20
-199
 21
-198.843
  0
LINE
  8
0
 10
-174
 11
-177.121
 20
-198.843
 21
-199.464
  0
LINE
  8
0
 10
-177.121
 11
-179.768
 20
-199.464
 21
-201.232
  0
LINE
  8
0
 10
-179.768
 11
-181.536
 20
-201.232
 21
-203.879
  0
LINE
  8
0
 10
-181.536
 11
-182.157
 20
-203.879
 21
-207
  0
LINE
  8
0
 10
-182.157
 11
-182
 20
-207
 21
-207.788
  0
LINE
  8
0
 10
-182
 11
-182
 20
-207.788
 21
-219.586
  0
LINE
  8
0
 10
-182
 11
-183.235
 20
-219.586
 21
-220.449
  0
LINE
  8
0
 10
-183.235
 11
-191
 20
-220.449
 21
-222.529
  0
LINE
  8
0
 10
-191
 11
-198.765
 20
-222.529
 21
-220.449
  0
LINE
  8
0
 10
-198.765
 11
-204.449
 20
-220.449
 21
-214.765
  0
LINE
  8
0
 10
-204.449
 11
-206.529
 20
-214.765
 21
-207
  0
LINE
  8
0
 10
-206.529
 11
-209.719
 20
-207
 21
-182.5
  0
LINE
  8
0
 10
-209.719
 11
-191.05
 20
-182.5
 21
-182.5
  0
LINE
  8
0
 10
-191.05
 11
-191.05
 20
-182.5
 21
-176.5
  0
LINE
  8
0
 10
-191.05
 11
-210.5
 20
-176.5
 21
-176.5
  0
LINE
  8
0
 10
-209
 11
-209
 20
-111.828
 21
-110.172
  0
LINE
  8
0
 10
-209
 11
-207.828
 20
-110.172
 21
-109
  0
LINE
  8
0
 10
-207.828
 11
-206.172
 20
-109
 21
-109
  0
LINE
  8
0
 10
-206.172
 11
-205
 20
-109
 21
-110.172
  0
LINE
  8
0
 10
-205
 11
-205
 20
-110.172
 21
-111.828
  0
LINE
  8
0
 10
-205
 11
-206.172
 20
-111.828
 21
-113
  0
LINE
  8
0
 10
-206.172
 11
-207.828
 20
-113
 21
-113
  0
LINE
  8
0
 10
-207.828
 11
-209
 20
-113
 21
-111.828
  0
LINE
  8
0
 10
-207.5
 11
-207.5
 20
-50
 21
-48
  0
LINE
  8
0
 10
-207.5
 11
-204.5
 20
-48
 21
-48
  0
LINE
  8
0
 10
-204.5
 11
-204.5
 20
-48
 21
-50
  0
LINE
  8
0
 10
-204.5
 11
-207.5
 20
-50
 21
-50
  0
LINE
  8
0
 10
-207.5
 11
-207.5
 20
158
 21
160
  0
LINE
  8
0
 10
-207.5
 11
-204.5
 20
160
 21
160
  0
LINE
  8
0
 10
-204.5
 11
-204.5
 20
160
 21
158
  0
LINE
  8
0
 10
-204.5
 11
-207.5
 20
158
 21
158
  0
LINE
  8
0
 10
-203
 11
-203
 20
-91
 21
-67
  0
LINE
  8
0
 10
-203
 11
-185
 20
-67
 21
-67
  0
LINE
  8
0
 10
-185
 11
-185
 20
-67
 21
-91
  0
LINE
  8
0
 10
-185
 11
-203
 20
-91
 21
-91
  0
LINE
  8
0
 10
-201
 11
-201
 20
-79.577
 21
-78.423
  0
LINE
  8
0
 10
-201
 11
-200
 20
-78.423
 21
-77.845
  0
LINE
  8
0
 10
-200
 11
-198
 20
-77.845
 21
-77.845
  0
LINE
  8
0
 10
-198
 11
-197
 20
-77.845
 21
-78.423
  0
LINE
  8
0
 10
-197
 11
-197
 20
-78.423
 21
-79.577
  0
LINE
  8
0
 10
-197
 11
-198
 20
-79.577
 21
-80.155
  0
LINE
  8
0
 10
-198
 11
-200
 20
-80.155
 21
-80.155
  0
LINE
  8
0
 10
-200
 11
-201
 20
-80.155
 21
-79.577
  0
LINE
  8
0
 10
-201
 11
-201
 20
13.5
 21
16.5
  0
LINE
  8
0
 10
-201
 11
-199
 20
16.5
 21
16.5
  0
LINE
  8
0
 10
-199
 11
-199
 20
16.5
 21
13.5
  0
LINE
  8
0
 10
-199
 11
-201
 20
13.5
 21
13.5
  0
LINE
  8
0
 10
-201
 11
-201
 20
93.5
 21
96.5
  0
LINE
  8
0
 10
-201
 11
-199
 20
96.5
 21
96.5
  0
LINE
  8
0
 10
-199
 11
-199
 20
96.5
 21
93.5
  0
LINE
  8
0
 10
-199
 11
-201
 20
93.5
 21
93.5
  0
LINE
  8
0
 10
-198
 11
-198
 20
-113.071
 21
-108.929
  0
LINE
  8
0
 10
-198
 11
-195.071
 20
-108.929
 21
-106
  0
LINE
  8
0
 10
-195.071
 11
-190.929
 20
-106
 21
-106
  0
LINE
  8
0
 10
-190.929
 11
-188
 20
-106
 21
-108.929
  0
LINE
  8
0
 10
-188
 11
-188
 20
-108.929
 21
-113.071
  0
LINE
  8
0
 10
-188
 11
-190.929
 20
-113.071
 21
-116
  0
LINE
  8
0
 10
-190.929
 11
-195.071
 20
-116
 21
-116
  0
LINE
  8
0
 10
-195.071
 11
-198
 20
-116
 21
-113.071
  0
LINE
  8
0
 10
-198
 11
-198
 20
-88
 21
-86
  0
LINE
  8
0
 10
-198
 11
-195
 20
-86
 21
-86
  0
LINE
  8
0
 10
-195
 11
-195
 20
-86
 21
-88
  0
LINE
  8
0
 10
-195
 11
-198
 20
-88
 21
-88
  0
LINE
  8
0
 10
-198
 11
-198
 20
-72
 21
-70
  0
LINE
  8
0
 10
-198
 11
-195
 20
-70
 21
-70
  0
LINE
  8
0
 10
-195
 11
-195
 20
-70
 21
-72
  0
LINE
  8
0
 10
-195
 11
-198
 20
-72
 21
-72
  0
LINE
  8
0
 10
-195.5
 11
-195.5
 20
3
 21
27
  0
LINE
  8
0
 10
-195.5
 11
-186.5
 20
27
 21
27
  0
LINE
  8
0
 10
-186.5
 11
-186.5
 20
27
 21
3
  0
LINE
  8
0
 10
-186.5
 11
-195.5
 20
3
 21
3
  0
LINE
  8
0
 10
-195.5
 11
-195.5
 20
83
 21
107
  0
LINE
  8
0
 10
-195.5
 11
-186.5
 20
107
 21
107
  0
LINE
  8
0
 10
-186.5
 11
-186.5
 20
107
 21
83
  0
LINE
  8
0
 10
-186.5
 11
-195.5
 20
83
 21
83
  0
LINE
  8
0
 10
-195.078
 11
-194.768
 20
-207
 21
-205.439
  0
LINE
  8
0
 10
-194.768
 11
-193.884
 20
-205.439
 21
-204.116
  0
LINE
  8
0
 10
-193.884
 11
-192.561
 20
-204.116
 21
-203.232
  0
LINE
  8
0
 10
-192.561
 11
-191
 20
-203.232
 21
-202.922
  0
LINE
  8
0
 10
-191
 11
-189.439
 20
-202.922
 21
-203.232
  0
LINE
  8
0
 10
-189.439
 11
-188.116
 20
-203.232
 21
-204.116
  0
LINE
  8
0
 10
-188.116
 11
-187.232
 20
-204.116
 21
-205.439
  0
LINE
  8
0
 10
-187.232
 11
-186.922
 20
-205.439
 21
-207
  0
LINE
  8
0
 10
-186.922
 11
-187.232
 20
-207
 21
-208.561
  0
LINE
  8
0
 10
-187.232
 11
-188.116
 20
-208.561
 21
-209.884
  0
LINE
  8
0
 10
-188.116
 11
-189.439
 20
-209.884
 21
-210.768
  0
LINE
  8
0
 10
-189.439
 11
-191
 20
-210.768
 21
-211.078
  0
LINE
  8
0
 10
-191
 11
-192.561
 20
-211.078
 21
-210.768
  0
LINE
  8
0
 10
-192.561
 11
-193.884
 20
-210.768
 21
-209.884
  0
LINE
  8
0
 10
-193.884
 11
-194.768
 20
-209.884
 21
-208.561
  0
LINE
  8
0
 10
-194.768
 11
-195.078
 20
-208.561
 21
-207
  0
LINE
  8
0
 10
-195
 11
-195
 20
-111.828
 21
-110.172
  0
LINE
  8
0
 10
-195
 11
-193.828
 20
-110.172
 21
-109
  0
LINE
  8
0
 10
-193.828
 11
-192.172
 20
-109
 21
-109
  0
LINE
  8
0
 10
-192.172
 11
-191
 20
-109
 21
-110.172
  0
LINE
  8
0
 10
-191
 11
-191
 20
-110.172
 21
-111.828
  0
LINE
  8
0
 10
-191
 11
-192.172
 20
-111.828
 21
-113
  0
LINE
  8
0
 10
-192.172
 11
-193.828
 20
-113
 21
-113
  0
LINE
  8
0
 10
-193.828
 11
-195
 20
-113
 21
-111.828
  0
LINE
  8
0
 10
-192.624
 11
-192.148
 20
-191
 21
-189.852
  0
LINE
  8
0
 10
-192.148
 11
-191
 20
-189.852
 21
-189.376
  0
LINE
  8
0
 10
-191
 11
-189.852
 20
-189.376
 21
-189.852
  0
LINE
  8
0
 10
-189.852
 11
-189.376
 20
-189.852
 21
-191
  0
LINE
  8
0
 10
-189.376
 11
-189.852
 20
-191
 21
-192.148
  0
LINE
  8
0
 10
-189.852
 11
-191
 20
-192.148
 21
-192.624
  0
LINE
  8
0
 10
-191
 11
-192.148
 20
-192.624
 21
-192.148
  0
LINE
  8
0
 10
-192.148
 11
-192.624
 20
-192.148
 21
-191
  0
LINE
  8
0
 10
-191.124
 11
-190.648
 20
-79
 21
-77.852
  0
LINE
  8
0
 10
-190.648
 11
-189.5
 20
-77.852
 21
-77.376
  0
LINE
  8
0
 10
-189.5
 11
-188.352
 20
-77.376
 21
-77.852
  0
LINE
  8
0
 10
-188.352
 11
-187.876
 20
-77.852
 21
-79
  0
LINE
  8
0
 10
-187.876
 11
-188.352
 20
-79
 21
-80.148
  0
LINE
  8
0
 10
-188.352
 11
-189.5
 20
-80.148
 21
-80.624
  0
LINE
  8
0
 10
-189.5
 11
-190.648
 20
-80.624
 21
-80.148
  0
LINE
  8
0
 10
-190.648
 11
-191.124
 20
-80.148
 21
-79
  0
LINE
  8
0
 10
-184
 11
-184
 20
-113.071
 21
-108.929
  0
LINE
  8
0
 10
-184
 11
-181.071
 20
-108.929
 21
-106
  0
LINE
  8
0
 10
-181.071
 11
-176.929
 20
-106
 21
-106
  0
LINE
  8
0
 10
-176.929
 11
-174
 20
-106
 21
-108.929
  0
LINE
  8
0
 10
-174
 11
-174
 20
-108.929
 21
-113.071
  0
LINE
  8
0
 10
-174
 11
-176.929
 20
-113.071
 21
-116
  0
LINE
  8
0
 10
-176.929
 11
-181.071
 20
-116
 21
-116
  0
LINE
  8
0
 10
-181.071
 11
-184
 20
-116
 21
-113.071
  0
LINE
  8
0
 10
-183
 11
-183
 20
13.5
 21
16.5
  0
LINE
  8
0
 10
-183
 11
-181
 20
16.5
 21
16.5
  0
LINE
  8
0
 10
-181
 11
-181
 20
16.5
 21
13.5
  0
LINE
  8
0
 10
-181
 11
-183
 20
13.5
 21
13.5
  0
LINE
  8
0
 10
-183
 11
-183
 20
93.5
 21
96.5
  0
LINE
  8
0
 10
-183
 11
-181
 20
96.5
 21
96.5
  0
LINE
  8
0
 10
-181
 11
-181
 20
96.5
 21
93.5
  0
LINE
  8
0
 10
-181
 11
-183
 20
93.5
 21
93.5
  0
LINE
  8
0
 10
-181
 11
-181
 20
-111.828
 21
-110.172
  0
LINE
  8
0
 10
-181
 11
-179.828
 20
-110.172
 21
-109
  0
LINE
  8
0
 10
-179.828
 11
-178.172
 20
-109
 21
-109
  0
LINE
  8
0
 10
-178.172
 11
-177
 20
-109
 21
-110.172
  0
LINE
  8
0
 10
-177
 11
-177
 20
-110.172
 21
-111.828
  0
LINE
  8
0
 10
-177
 11
-178.172
 20
-111.828
 21
-113
  0
LINE
  8
0
 10
-178.172
 11
-179.828
 20
-113
 21
-113
  0
LINE
  8
0
 10
-179.828
 11
-181
 20
-113
 21
-111.828
  0
LINE
  8
0
 10
-181
 11
-181
 20
-91
 21
-67
  0
LINE
  8
0
 10
-181
 11
-163
 20
-67
 21
-67
  0
LINE
  8
0
 10
-163
 11
-163
 20
-67
 21
-91
  0
LINE
  8
0
 10
-163
 11
-181
 20
-91
 21
-91
  0
LINE
  8
0
 10
-179.5
 11
-179.5
 20
-212.864
 21
-209.136
  0
LINE
  8
0
 10
-179.5
 11
-176.864
 20
-209.136
 21
-206.5
  0
LINE
  8
0
 10
-176.864
 11
-159
 20
-206.5
 21
-202.718
  0
LINE
  8
0
 10
-159
 11
-154.859
 20
-202.718
 21
-203.827
  0
LINE
  8
0
 10
-154.859
 11
-151.827
 20
-203.827
 21
-206.859
  0
LINE
  8
0
 10
-151.827
 11
-150.718
 20
-206.859
 21
-211
  0
LINE
  8
0
 10
-150.718
 11
-151.827
 20
-211
 21
-215.141
  0
LINE
  8
0
 10
-151.827
 11
-154.859
 20
-215.141
 21
-218.173
  0
LINE
  8
0
 10
-154.859
 11
-159
 20
-218.173
 21
-219.282
  0
LINE
  8
0
 10
-159
 11
-176.864
 20
-219.282
 21
-215.5
  0
LINE
  8
0
 10
-176.864
 11
-179.5
 20
-215.5
 21
-212.864
  0
LINE
  8
0
 10
-179
 11
-179
 20
-79.577
 21
-78.423
  0
LINE
  8
0
 10
-179
 11
-178
 20
-78.423
 21
-77.845
  0
LINE
  8
0
 10
-178
 11
-176
 20
-77.845
 21
-77.845
  0
LINE
  8
0
 10
-176
 11
-175
 20
-77.845
 21
-78.423
  0
LINE
  8
0
 10
-175
 11
-175
 20
-78.423
 21
-79.577
  0
LINE
  8
0
 10
-175
 11
-176
 20
-79.577
 21
-80.155
  0
LINE
  8
0
 10
-176
 11
-178
 20
-80.155
 21
-80.155
  0
LINE
  8
0
 10
-178
 11
-179
 20
-80.155
 21
-79.577
  0
LINE
  8
0
 10
-176.624
 11
-176.148
 20
-211
 21
-209.852
  0
LINE
  8
0
 10
-176.148
 11
-175
 20
-209.852
 21
-209.376
  0
LINE
  8
0
 10
-175
 11
-173.852
 20
-209.376
 21
-209.852
  0
LINE
  8
0
 10
-173.852
 11
-173.376
 20
-209.852
 21
-211
  0
LINE
  8
0
 10
-173.376
 11
-173.852
 20
-211
 21
-212.148
  0
LINE
  8
0
 10
-173.852
 11
-175
 20
-212.148
 21
-212.624
  0
LINE
  8
0
 10
-175
 11
-176.148
 20
-212.624
 21
-212.148
  0
LINE
  8
0
 10
-176.148
 11
-176.624
 20
-212.148
 21
-211
  0
LINE
  8
0
 10
-176
 11
-176
 20
-88
 21
-86
  0
LINE
  8
0
 10
-176
 11
-173
 20
-86
 21
-86
  0
LINE
  8
0
 10
-173
 11
-173
 20
-86
 21
-88
  0
LINE
  8
0
 10
-173
 11
-176
 20
-88
 21
-88
  0
LINE
  8
0
 10
-176
 11
-176
 20
-72
 21
-70
  0
LINE
  8
0
 10
-176
 11
-173
 20
-70
 21
-70
  0
LINE
  8
0
 10
-173
 11
-173
 20
-70
 21
-72
  0
LINE
  8
0
 10
-173
 11
-176
 20
-72
 21
-72
  0
LINE
  8
0
 10
-175.577
 11
-175.276
 20
-179.5
 21
-178.573
  0
LINE
  8
0
 10
-175.276
 11
-174.487
 20
-178.573
 21
-178
  0
LINE
  8
0
 10
-174.487
 11
-173.513
 20
-178
 21
-178
  0
LINE
  8
0
 10
-173.513
 11
-172.724
 20
-178
 21
-178.573
  0
LINE
  8
0
 10
-172.724
 11
-172.423
 20
-178.573
 21
-179.5
  0
LINE
  8
0
 10
-172.423
 11
-172.724
 20
-179.5
 21
-180.427
  0
LINE
  8
0
 10
-172.724
 11
-173.513
 20
-180.427
 21
-181
  0
LINE
  8
0
 10
-173.513
 11
-174.487
 20
-181
 21
-181
  0
LINE
  8
0
 10
-174.487
 11
-175.276
 20
-181
 21
-180.427
  0
LINE
  8
0
 10
-175.276
 11
-175.577
 20
-180.427
 21
-179.5
  0
LINE
  8
0
 10
-170
 11
-170
 20
-113.071
 21
-108.929
  0
LINE
  8
0
 10
-170
 11
-167.071
 20
-108.929
 21
-106
  0
LINE
  8
0
 10
-167.071
 11
-162.929
 20
-106
 21
-106
  0
LINE
  8
0
 10
-162.929
 11
-160
 20
-106
 21
-108.929
  0
LINE
  8
0
 10
-160
 11
-160
 20
-108.929
 21
-113.071
  0
LINE
  8
0
 10
-160
 11
-162.929
 20
-113.071
 21
-116
  0
LINE
  8
0
 10
-162.929
 11
-167.071
 20
-116
 21
-116
  0
LINE
  8
0
 10
-167.071
 11
-170
 20
-116
 21
-113.071
  0
LINE
  8
0
 10
-169.124
 11
-168.648
 20
-79
 21
-77.852
  0
LINE
  8
0
 10
-168.648
 11
-167.5
 20
-77.852
 21
-77.376
  0
LINE
  8
0
 10
-167.5
 11
-166.352
 20
-77.376
 21
-77.852
  0
LINE
  8
0
 10
-166.352
 11
-165.876
 20
-77.852
 21
-79
  0
LINE
  8
0
 10
-165.876
 11
-166.352
 20
-79
 21
-80.148
  0
LINE
  8
0
 10
-166.352
 11
-167.5
 20
-80.148
 21
-80.624
  0
LINE
  8
0
 10
-167.5
 11
-168.648
 20
-80.624
 21
-80.148
  0
LINE
  8
0
 10
-168.648
 11
-169.124
 20
-80.148
 21
-79
  0
LINE
  8
0
 10
-167
 11
-167
 20
-111.828
 21
-110.172
  0
LINE
  8
0
 10
-167
 11
-165.828
 20
-110.172
 21
-109
  0
LINE
  8
0
 10
-165.828
 11
-164.172
 20
-109
 21
-109
  0
LINE
  8
0
 10
-164.172
 11
-163
 20
-109
 21
-110.172
  0
LINE
  8
0
 10
-163
 11
-163
 20
-110.172
 21
-111.828
  0
LINE
  8
0
 10
-163
 11
-164.172
 20
-111.828
 21
-113
  0
LINE
  8
0
 10
-164.172
 11
-165.828
 20
-113
 21
-113
  0
LINE
  8
0
 10
-165.828
 11
-167
 20
-113
 21
-111.828
  0
LINE
  8
0
 10
-159
 11
-159
 20
-91
 21
-67
  0
LINE
  8
0
 10
-159
 11
-141
 20
-67
 21
-67
  0
LINE
  8
0
 10
-141
 11
-141
 20
-67
 21
-91
  0
LINE
  8
0
 10
-141
 11
-159
 20
-91
 21
-91
  0
LINE
  8
0
 10
-157
 11
-157
 20
-79.577
 21
-78.423
  0
LINE
  8
0
 10
-157
 11
-156
 20
-78.423
 21
-77.845
  0
LINE
  8
0
 10
-156
 11
-154
 20
-77.845
 21
-77.845
  0
LINE
  8
0
 10
-154
 11
-153
 20
-77.845
 21
-78.423
  0
LINE
  8
0
 10
-153
 11
-153
 20
-78.423
 21
-79.577
  0
LINE
  8
0
 10
-153
 11
-154
 20
-79.577
 21
-80.155
  0
LINE
  8
0
 10
-154
 11
-156
 20
-80.155
 21
-80.155
  0
LINE
  8
0
 10
-156
 11
-157
 20
-80.155
 21
-79.577
  0
LINE
  8
0
 10
-156
 11
-156
 20
-113.071
 21
-108.929
  0
LINE
  8
0
 10
-156
 11
-153.071
 20
-108.929
 21
-106
  0
LINE
  8
0
 10
-153.071
 11
-148.929
 20
-106
 21
-106
  0
LINE
  8
0
 10
-148.929
 11
-146
 20
-106
 21
-108.929
  0
LINE
  8
0
 10
-146
 11
-146
 20
-108.929
 21
-113.071
  0
LINE
  8
0
 10
-146
 11
-148.929
 20
-113.071
 21
-116
  0
LINE
  8
0
 10
-148.929
 11
-153.071
 20
-116
 21
-116
  0
LINE
  8
0
 10
-153.071
 11
-156
 20
-116
 21
-113.071
  0
LINE
  8
0
 10
-154
 11
-154
 20
-88
 21
-86
  0
LINE
  8
0
 10
-154
 11
-151
 20
-86
 21
-86
  0
LINE
  8
0
 10
-151
 11
-151
 20
-86
 21
-88
  0
LINE
  8
0
 10
-151
 11
-154
 20
-88
 21
-88
  0
LINE
  8
0
 10
-154
 11
-154
 20
-72
 21
-70
  0
LINE
  8
0
 10
-154
 11
-151
 20
-70
 21
-70
  0
LINE
  8
0
 10
-151
 11
-151
 20
-70
 21
-72
  0
LINE
  8
0
 10
-151
 11
-154
 20
-72
 21
-72
  0
LINE
  8
0
 10
-153
 11
-153
 20
-111.828
 21
-110.172
  0
LINE
  8
0
 10
-153
 11
-151.828
 20
-110.172
 21
-109
  0
LINE
  8
0
 10
-151.828
 11
-150.172
 20
-109
 21
-109
  0
LINE
  8
0
 10
-150.172
 11
-149
 20
-109
 21
-110.172
  0
LINE
  8
0
 10
-149
 11
-149
 20
-110.172
 21
-111.828
  0
LINE
  8
0
 10
-149
 11
-150.172
 20
-111.828
 21
-113
  0
LINE
  8
0
 10
-150.172
 11
-151.828
 20
-113
 21
-113
  0
LINE
  8
0
 10
-151.828
 11
-153
 20
-113
 21
-111.828
  0
LINE
  8
0
 10
-148.077
 11
-147.776
 20
-161.5
 21
-160.573
  0
LINE
  8
0
 10
-147.776
 11
-146.987
 20
-160.573
 21
-160
  0
LINE
  8
0
 10
-146.987
 11
-146.013
 20
-160
 21
-160
  0
LINE
  8
0
 10
-146.013
 11
-145.224
 20
-160
 21
-160.573
  0
LINE
  8
0
 10
-145.224
 11
-144.923
 20
-160.573
 21
-161.5
  0
LINE
  8
0
 10
-144.923
 11
-145.224
 20
-161.5
 21
-162.427
  0
LINE
  8
0
 10
-145.224
 11
-146.013
 20
-162.427
 21
-163
  0
LINE
  8
0
 10
-146.013
 11
-146.987
 20
-163
 21
-163
  0
LINE
  8
0
 10
-146.987
 11
-147.776
 20
-163
 21
-162.427
  0
LINE
  8
0
 10
-147.776
 11
-148.077
 20
-162.427
 21
-161.5
  0
LINE
  8
0
 10
-147.124
 11
-146.648
 20
-79
 21
-77.852
  0
LINE
  8
0
 10
-146.648
 11
-145.5
 20
-77.852
 21
-77.376
  0
LINE
  8
0
 10
-145.5
 11
-144.352
 20
-77.376
 21
-77.852
  0
LINE
  8
0
 10
-144.352
 11
-143.876
 20
-77.852
 21
-79
  0
LINE
  8
0
 10
-143.876
 11
-144.352
 20
-79
 21
-80.148
  0
LINE
  8
0
 10
-144.352
 11
-145.5
 20
-80.148
 21
-80.624
  0
LINE
  8
0
 10
-145.5
 11
-146.648
 20
-80.624
 21
-80.148
  0
LINE
  8
0
 10
-146.648
 11
-147.124
 20
-80.148
 21
-79
  0
LINE
  8
0
 10
-137
 11
-137
 20
-91
 21
-67
  0
LINE
  8
0
 10
-137
 11
-119
 20
-67
 21
-67
  0
LINE
  8
0
 10
-119
 11
-119
 20
-67
 21
-91
  0
LINE
  8
0
 10
-119
 11
-137
 20
-91
 21
-91
  0
LINE
  8
0
 10
-135
 11
-135
 20
-79.577
 21
-78.423
  0
LINE
  8
0
 10
-135
 11
-134
 20
-78.423
 21
-77.845
  0
LINE
  8
0
 10
-134
 11
-132
 20
-77.845
 21
-77.845
  0
LINE
  8
0
 10
-132
 11
-131
 20
-77.845
 21
-78.423
  0
LINE
  8
0
 10
-131
 11
-131
 20
-78.423
 21
-79.577
  0
LINE
  8
0
 10
-131
 11
-132
 20
-79.577
 21
-80.155
  0
LINE
  8
0
 10
-132
 11
-134
 20
-80.155
 21
-80.155
  0
LINE
  8
0
 10
-134
 11
-135
 20
-80.155
 21
-79.577
  0
LINE
  8
0
 10
-132
 11
-132
 20
-88
 21
-86
  0
LINE
  8
0
 10
-132
 11
-129
 20
-86
 21
-86
  0
LINE
  8
0
 10
-129
 11
-129
 20
-86
 21
-88
  0
LINE
  8
0
 10
-129
 11
-132
 20
-88
 21
-88
  0
LINE
  8
0
 10
-132
 11
-132
 20
-72
 21
-70
  0
LINE
  8
0
 10
-132
 11
-129
 20
-70
 21
-70
  0
LINE
  8
0
 10
-129
 11
-129
 20
-70
 21
-72
  0
LINE
  8
0
 10
-129
 11
-132
 20
-72
 21
-72
  0
LINE
  8
0
 10
-125.124
 11
-124.648
 20
-79
 21
-77.852
  0
LINE
  8
0
 10
-124.648
 11
-123.5
 20
-77.852
 21
-77.376
  0
LINE
  8
0
 10
-123.5
 11
-122.352
 20
-77.376
 21
-77.852
  0
LINE
  8
0
 10
-122.352
 11
-121.876
 20
-77.852
 21
-79
  0
LINE
  8
0
 10
-121.876
 11
-122.352
 20
-79
 21
-80.148
  0
LINE
  8
0
 10
-122.352
 11
-123.5
 20
-80.148
 21
-80.624
  0
LINE
  8
0
 10
-123.5
 11
-124.648
 20
-80.624
 21
-80.148
  0
LINE
  8
0
 10
-124.648
 11
-125.124
 20
-80.148
 21
-79
  0
LINE
  8
0
 10
-120.5
 11
-120.5
 20
-50
 21
-48
  0
LINE
  8
0
 10
-120.5
 11
-117.5
 20
-48
 21
-48
  0
LINE
  8
0
 10
-117.5
 11
-117.5
 20
-48
 21
-50
  0
LINE
  8
0
 10
-117.5
 11
-120.5
 20
-50
 21
-50
  0
LINE
  8
0
 10
-120.5
 11
-120.5
 20
158
 21
160
  0
LINE
  8
0
 10
-120.5
 11
-117.5
 20
160
 21
160
  0
LINE
  8
0
 10
-117.5
 11
-117.5
 20
160
 21
158
  0
LINE
  8
0
 10
-117.5
 11
-120.5
 20
158
 21
158
  0
LINE
  8
0
 10
-115
 11
-115
 20
-91
 21
-67
  0
LINE
  8
0
 10
-115
 11
-97
 20
-67
 21
-67
  0
LINE
  8
0
 10
-97
 11
-97
 20
-67
 21
-91
  0
LINE
  8
0
 10
-97
 11
-115
 20
-91
 21
-91
  0
LINE
  8
0
 10
-113
 11
-113
 20
-79.577
 21
-78.423
  0
LINE
  8
0
 10
-113
 11
-112
 20
-78.423
 21
-77.845
  0
LINE
  8
0
 10
-112
 11
-110
 20
-77.845
 21
-77.845
  0
LINE
  8
0
 10
-110
 11
-109
 20
-77.845
 21
-78.423
  0
LINE
  8
0
 10
-109
 11
-109
 20
-78.423
 21
-79.577
  0
LINE
  8
0
 10
-109
 11
-110
 20
-79.577
 21
-80.155
  0
LINE
  8
0
 10
-110
 11
-112
 20
-80.155
 21
-80.155
  0
LINE
  8
0
 10
-112
 11
-113
 20
-80.155
 21
-79.577
  0
LINE
  8
0
 10
-112.624
 11
-112.148
 20
34.5
 21
35.648
  0
LINE
  8
0
 10
-112.148
 11
-111
 20
35.648
 21
36.124
  0
LINE
  8
0
 10
-111
 11
-109.852
 20
36.124
 21
35.648
  0
LINE
  8
0
 10
-109.852
 11
-109.376
 20
35.648
 21
34.5
  0
LINE
  8
0
 10
-109.376
 11
-109.852
 20
34.5
 21
33.352
  0
LINE
  8
0
 10
-109.852
 11
-111
 20
33.352
 21
32.876
  0
LINE
  8
0
 10
-111
 11
-112.148
 20
32.876
 21
33.352
  0
LINE
  8
0
 10
-112.148
 11
-112.624
 20
33.352
 21
34.5
  0
LINE
  8
0
 10
-112.624
 11
-112.148
 20
75.5
 21
76.648
  0
LINE
  8
0
 10
-112.148
 11
-111
 20
76.648
 21
77.124
  0
LINE
  8
0
 10
-111
 11
-109.852
 20
77.124
 21
76.648
  0
LINE
  8
0
 10
-109.852
 11
-109.376
 20
76.648
 21
75.5
  0
LINE
  8
0
 10
-109.376
 11
-109.852
 20
75.5
 21
74.352
  0
LINE
  8
0
 10
-109.852
 11
-111
 20
74.352
 21
73.876
  0
LINE
  8
0
 10
-111
 11
-112.148
 20
73.876
 21
74.352
  0
LINE
  8
0
 10
-112.148
 11
-112.624
 20
74.352
 21
75.5
  0
LINE
  8
0
 10
-112.5
 11
-112.5
 20
-50.121
 21
-48.879
  0
LINE
  8
0
 10
-112.5
 11
-111.621
 20
-48.879
 21
-48
  0
LINE
  8
0
 10
-111.621
 11
-110.379
 20
-48
 21
-48
  0
LINE
  8
0
 10
-110.379
 11
-109.5
 20
-48
 21
-48.879
  0
LINE
  8
0
 10
-109.5
 11
-109.5
 20
-48.879
 21
-50.121
  0
LINE
  8
0
 10
-109.5
 11
-110.379
 20
-50.121
 21
-51
  0
LINE
  8
0
 10
-110.379
 11
-111.621
 20
-51
 21
-51
  0
LINE
  8
0
 10
-111.621
 11
-112.5
 20
-51
 21
-50.121
  0
LINE
  8
0
 10
-112.5
 11
-112.5
 20
158.879
 21
160.121
  0
LINE
  8
0
 10
-112.5
 11
-111.621
 20
160.121
 21
161
  0
LINE
  8
0
 10
-111.621
 11
-110.379
 20
161
 21
161
  0
LINE
  8
0
 10
-110.379
 11
-109.5
 20
161
 21
160.121
  0
LINE
  8
0
 10
-109.5
 11
-109.5
 20
160.121
 21
158.879
  0
LINE
  8
0
 10
-109.5
 11
-110.379
 20
158.879
 21
158
  0
LINE
  8
0
 10
-110.379
 11
-111.621
 20
158
 21
158
  0
LINE
  8
0
 10
-111.621
 11
-112.5
 20
158
 21
158.879
  0
LINE
  8
0
 10
-110
 11
-110
 20
-88
 21
-86
  0
LINE
  8
0
 10
-110
 11
-107
 20
-86
 21
-86
  0
LINE
  8
0
 10
-107
 11
-107
 20
-86
 21
-88
  0
LINE
  8
0
 10
-107
 11
-110
 20
-88
 21
-88
  0
LINE
  8
0
 10
-110
 11
-110
 20
-72
 21
-70
  0
LINE
  8
0
 10
-110
 11
-107
 20
-70
 21
-70
  0
LINE
  8
0
 10
-107
 11
-107
 20
-70
 21
-72
  0
LINE
  8
0
 10
-107
 11
-110
 20
-72
 21
-72
  0
LINE
  8
0
 10
-104.5
 11
-104.5
 20
-50
 21
-48
  0
LINE
  8
0
 10
-104.5
 11
-101.5
 20
-48
 21
-48
  0
LINE
  8
0
 10
-101.5
 11
-101.5
 20
-48
 21
-50
  0
LINE
  8
0
 10
-101.5
 11
-104.5
 20
-50
 21
-50
  0
LINE
  8
0
 10
-104.5
 11
-104.5
 20
158
 21
160
  0
LINE
  8
0
 10
-104.5
 11
-101.5
 20
160
 21
160
  0
LINE
  8
0
 10
-101.5
 11
-101.5
 20
160
 21
158
  0
LINE
  8
0
 10
-101.5
 11
-104.5
 20
158
 21
158
  0
LINE
  8
0
 10
-103.124
 11
-102.648
 20
-79
 21
-77.852
  0
LINE
  8
0
 10
-102.648
 11
-101.5
 20
-77.852
 21
-77.376
  0
LINE
  8
0
 10
-101.5
 11
-100.352
 20
-77.376
 21
-77.852
  0
LINE
  8
0
 10
-100.352
 11
-99.876
 20
-77.852
 21
-79
  0
LINE
  8
0
 10
-99.876
 11
-100.352
 20
-79
 21
-80.148
  0
LINE
  8
0
 10
-100.352
 11
-101.5
 20
-80.148
 21
-80.624
  0
LINE
  8
0
 10
-101.5
 11
-102.648
 20
-80.624
 21
-80.148
  0
LINE
  8
0
 10
-102.648
 11
-103.124
 20
-80.148
 21
-79
  0
LINE
  8
0
 10
-52.025
 11
-52.025
 20
-204.25
 21
-195.25
  0
LINE
  8
0
 10
-52.025
 11
-46
 20
-195.25
 21
-195.25
  0
LINE
  8
0
 10
-46
 11
-46
 20
-195.25
 21
-181.75
  0
LINE
  8
0
 10
-46
 11
-52.025
 20
-181.75
 21
-181.75
  0
LINE
  8
0
 10
-52.025
 11
-52.025
 20
-181.75
 21
-172.75
  0
LINE
  8
0
 10
-52.025
 11
-46
 20
-172.75
 21
-172.75
  0
LINE
  8
0
 10
-46
 11
-46
 20
-172.75
 21
-164
  0
LINE
  8
0
 10
-46
 11
124
 20
-164
 21
-164
  0
LINE
  8
0
 10
124
 11
124
 20
-164
 21
-170
  0
LINE
  8
0
 10
124
 11
131.25
 20
-170
 21
-170
  0
LINE
  8
0
 10
131.25
 11
131.25
 20
-170
 21
-163.975
  0
LINE
  8
0
 10
131.25
 11
140.25
 20
-163.975
 21
-163.975
  0
LINE
  8
0
 10
140.25
 11
140.25
 20
-163.975
 21
-170
  0
LINE
  8
0
 10
140.25
 11
145.5
 20
-170
 21
-170
  0
LINE
  8
0
 10
145.5
 11
145.5
 20
-170
 21
-173.9
  0
LINE
  8
0
 10
145.5
 11
144.25
 20
-173.9
 21
-173.9
  0
LINE
  8
0
 10
144.25
 11
144.25
 20
-173.9
 21
-176.4
  0
LINE
  8
0
 10
144.25
 11
145.5
 20
-176.4
 21
-176.4
  0
LINE
  8
0
 10
145.5
 11
145.5
 20
-176.4
 21
-177.85
  0
LINE
  8
0
 10
145.5
 11
148.5
 20
-177.85
 21
-177.85
  0
LINE
  8
0
 10
148.5
 11
148.5
 20
-177.85
 21
-176.4
  0
LINE
  8
0
 10
148.5
 11
149.75
 20
-176.4
 21
-176.4
  0
LINE
  8
0
 10
149.75
 11
149.75
 20
-176.4
 21
-173.9
  0
LINE
  8
0
 10
149.75
 11
148.5
 20
-173.9
 21
-173.9
  0
LINE
  8
0
 10
148.5
 11
148.5
 20
-173.9
 21
-170
  0
LINE
  8
0
 10
148.5
 11
153.75
 20
-170
 21
-170
  0
LINE
  8
0
 10
153.75
 11
153.75
 20
-170
 21
-163.975
  0
LINE
  8
0
 10
153.75
 11
162.75
 20
-163.975
 21
-163.975
  0
LINE
  8
0
 10
162.75
 11
162.75
 20
-163.975
 21
-170
  0
LINE
  8
0
 10
162.75
 11
176
 20
-170
 21
-170
  0
LINE
  8
0
 10
176
 11
176
 20
-170
 21
-143
  0
LINE
  8
0
 10
176
 11
169.975
 20
-143
 21
-143
  0
LINE
  8
0
 10
169.975
 11
169.975
 20
-143
 21
-134
  0
LINE
  8
0
 10
169.975
 11
176
 20
-134
 21
-134
  0
LINE
  8
0
 10
176
 11
176
 20
-134
 21
-120.5
  0
LINE
  8
0
 10
176
 11
169.975
 20
-120.5
 21
-120.5
  0
LINE
  8
0
 10
169.975
 11
169.975
 20
-120.5
 21
-111.5
  0
LINE
  8
0
 10
169.975
 11
176
 20
-111.5
 21
-111.5
  0
LINE
  8
0
 10
176
 11
176
 20
-111.5
 21
-39.75
  0
LINE
  8
0
 10
176
 11
169.975
 20
-39.75
 21
-39.75
  0
LINE
  8
0
 10
169.975
 11
169.975
 20
-39.75
 21
-30.75
  0
LINE
  8
0
 10
169.975
 11
176
 20
-30.75
 21
-30.75
  0
LINE
  8
0
 10
176
 11
176
 20
-30.75
 21
-17.25
  0
LINE
  8
0
 10
176
 11
169.975
 20
-17.25
 21
-17.25
  0
LINE
  8
0
 10
169.975
 11
169.975
 20
-17.25
 21
-8.25
  0
LINE
  8
0
 10
169.975
 11
176
 20
-8.25
 21
-8.25
  0
LINE
  8
0
 10
176
 11
176
 20
-8.25
 21
63.5
  0
LINE
  8
0
 10
176
 11
169.975
 20
63.5
 21
63.5
  0
LINE
  8
0
 10
169.975
 11
169.975
 20
63.5
 21
72.5
  0
LINE
  8
0
 10
169.975
 11
176
 20
72.5
 21
72.5
  0
LINE
  8
0
 10
176
 11
176
 20
72.5
 21
86
  0
LINE
  8
0
 10
176
 11
169.975
 20
86
 21
86
  0
LINE
  8
0
 10
169.975
 11
169.975
 20
86
 21
95
  0
LINE
  8
0
 10
169.975
 11
176
 20
95
 21
95
  0
LINE
  8
0
 10
176
 11
176
 20
95
 21
110
  0
LINE
  8
0
 10
176
 11
189.5
 20
110
 21
110
  0
LINE
  8
0
 10
189.5
 11
189.5
 20
110
 21
106.1
  0
LINE
  8
0
 10
189.5
 11
188.25
 20
106.1
 21
106.1
  0
LINE
  8
0
 10
188.25
 11
188.25
 20
106.1
 21
103.6
  0
LINE
  8
0
 10
188.25
 11
189.5
 20
103.6
 21
103.6
  0
LINE
  8
0
 10
189.5
 11
189.5
 20
103.6
 21
102.15
  0
LINE
  8
0
 10
189.5
 11
192.5
 20
102.15
 21
102.15
  0
LINE
  8
0
 10
192.5
 11
192.5
 20
102.15
 21
103.6
  0
LINE
  8
0
 10
192.5
 11
193.75
 20
103.6
 21
103.6
  0
LINE
  8
0
 10
193.75
 11
193.75
 20
103.6
 21
106.1
  0
LINE
  8
0
 10
193.75
 11
192.5
 20
106.1
 21
106.1
  0
LINE
  8
0
 10
192.5
 11
192.5
 20
106.1
 21
110
  0
LINE
  8
0
 10
192.5
 11
206.025
 20
110
 21
110
  0
LINE
  8
0
 10
206.025
 11
206.025
 20
110
 21
116
  0
LINE
  8
0
 10
206.025
 11
294
 20
116
 21
116
  0
LINE
  8
0
 10
294
 11
294
 20
116
 21
107.25
  0
LINE
  8
0
 10
294
 11
300.025
 20
107.25
 21
107.25
  0
LINE
  8
0
 10
300.025
 11
300.025
 20
107.25
 21
98.25
  0
LINE
  8
0
 10
300.025
 11
294
 20
98.25
 21
98.25
  0
LINE
  8
0
 10
294
 11
294
 20
98.25
 21
84.75
  0
LINE
  8
0
 10
294
 11
300.025
 20
84.75
 21
84.75
  0
LINE
  8
0
 10
300.025
 11
300.025
 20
84.75
 21
75.75
  0
LINE
  8
0
 10
300.025
 11
294
 20
75.75
 21
75.75
  0
LINE
  8
0
 10
294
 11
294
 20
75.75
 21
67
  0
LINE
  8
0
 10
294
 11
299.975
 20
67
 21
67
  0
LINE
  8
0
 10
299.975
 11
299.975
 20
67
 21
-164
  0
LINE
  8
0
 10
299.975
 11
294
 20
-164
 21
-164
  0
LINE
  8
0
 10
294
 11
294
 20
-164
 21
-172.75
  0
LINE
  8
0
 10
294
 11
300.025
 20
-172.75
 21
-172.75
  0
LINE
  8
0
 10
300.025
 11
300.025
 20
-172.75
 21
-181.75
  0
LINE
  8
0
 10
300.025
 11
294
 20
-181.75
 21
-181.75
  0
LINE
  8
0
 10
294
 11
294
 20
-181.75
 21
-195.25
  0
LINE
  8
0
 10
294
 11
300.025
 20
-195.25
 21
-195.25
  0
LINE
  8
0
 10
300.025
 11
300.025
 20
-195.25
 21
-204.25
  0
LINE
  8
0
 10
300.025
 11
294
 20
-204.25
 21
-204.25
  0
LINE
  8
0
 10
294
 11
294
 20
-204.25
 21
-225
  0
LINE
  8
0
 10
294
 11
-46
 20
-225
 21
-225
  0
LINE
  8
0
 10
-46
 11
-46
 20
-225
 21
-204.25
  0
LINE
  8
0
 10
-46
 11
-52.025
 20
-204.25
 21
-204.25
  0
LINE
  8
0
 10
-42.375
 11
-42.375
 20
-190.375
 21
-186.625
  0
LINE
  8
0
 10
-42.375
 11
-40.625
 20
-186.625
 21
-186.625
  0
LINE
  8
0
 10
-40.625
 11
-40.625
 20
-186.625
 21
-190.375
  0
LINE
  8
0
 10
-40.625
 11
-42.375
 20
-190.375
 21
-190.375
  0
LINE
  8
0
 10
-41
 11
-41
 20
13.5
 21
16.5
  0
LINE
  8
0
 10
-41
 11
-39
 20
16.5
 21
16.5
  0
LINE
  8
0
 10
-39
 11
-39
 20
16.5
 21
13.5
  0
LINE
  8
0
 10
-39
 11
-41
 20
13.5
 21
13.5
  0
LINE
  8
0
 10
-41
 11
-41
 20
93.5
 21
96.5
  0
LINE
  8
0
 10
-41
 11
-39
 20
96.5
 21
96.5
  0
LINE
  8
0
 10
-39
 11
-39
 20
96.5
 21
93.5
  0
LINE
  8
0
 10
-39
 11
-41
 20
93.5
 21
93.5
  0
LINE
  8
0
 10
-35.5
 11
-35.5
 20
3
 21
27
  0
LINE
  8
0
 10
-35.5
 11
-26.5
 20
27
 21
27
  0
LINE
  8
0
 10
-26.5
 11
-26.5
 20
27
 21
3
  0
LINE
  8
0
 10
-26.5
 11
-35.5
 20
3
 21
3
  0
LINE
  8
0
 10
-35.5
 11
-35.5
 20
83
 21
107
  0
LINE
  8
0
 10
-35.5
 11
-26.5
 20
107
 21
107
  0
LINE
  8
0
 10
-26.5
 11
-26.5
 20
107
 21
83
  0
LINE
  8
0
 10
-26.5
 11
-35.5
 20
83
 21
83
  0
LINE
  8
0
 10
-25
 11
-25
 20
-219.025
 21
-212.975
  0
LINE
  8
0
 10
-25
 11
-16
 20
-212.975
 21
-212.975
  0
LINE
  8
0
 10
-16
 11
-16
 20
-212.975
 21
-219.025
  0
LINE
  8
0
 10
-16
 11
-25
 20
-219.025
 21
-219.025
  0
LINE
  8
0
 10
-23
 11
-23
 20
13.5
 21
16.5
  0
LINE
  8
0
 10
-23
 11
-21
 20
16.5
 21
16.5
  0
LINE
  8
0
 10
-21
 11
-21
 20
16.5
 21
13.5
  0
LINE
  8
0
 10
-21
 11
-23
 20
13.5
 21
13.5
  0
LINE
  8
0
 10
-23
 11
-23
 20
93.5
 21
96.5
  0
LINE
  8
0
 10
-23
 11
-21
 20
96.5
 21
96.5
  0
LINE
  8
0
 10
-21
 11
-21
 20
96.5
 21
93.5
  0
LINE
  8
0
 10
-21
 11
-23
 20
93.5
 21
93.5
  0
LINE
  8
0
 10
-17.5
 11
-17.5
 20
-50
 21
-48
  0
LINE
  8
0
 10
-17.5
 11
-14.5
 20
-48
 21
-48
  0
LINE
  8
0
 10
-14.5
 11
-14.5
 20
-48
 21
-50
  0
LINE
  8
0
 10
-14.5
 11
-17.5
 20
-50
 21
-50
  0
LINE
  8
0
 10
-17.5
 11
-17.5
 20
158
 21
160
  0
LINE
  8
0
 10
-17.5
 11
-14.5
 20
160
 21
160
  0
LINE
  8
0
 10
-14.5
 11
-14.5
 20
160
 21
158
  0
LINE
  8
0
 10
-14.5
 11
-17.5
 20
158
 21
158
  0
LINE
  8
0
 10
-11.125
 11
-11.125
 20
-221.625
 21
-219.875
  0
LINE
  8
0
 10
-11.125
 11
-7.375
 20
-219.875
 21
-219.875
  0
LINE
  8
0
 10
-7.375
 11
-7.375
 20
-219.875
 21
-221.625
  0
LINE
  8
0
 10
-7.375
 11
-11.125
 20
-221.625
 21
-221.625
  0
LINE
  8
0
 10
-11.125
 11
-11.125
 20
-212.125
 21
-210.375
  0
LINE
  8
0
 10
-11.125
 11
-7.375
 20
-210.375
 21
-210.375
  0
LINE
  8
0
 10
-7.375
 11
-7.375
 20
-210.375
 21
-212.125
  0
LINE
  8
0
 10
-7.375
 11
-11.125
 20
-212.125
 21
-212.125
  0
LINE
  8
0
 10
-8
 11
-8
 20
-50.121
 21
-48.879
  0
LINE
  8
0
 10
-8
 11
-7.121
 20
-48.879
 21
-48
  0
LINE
  8
0
 10
-7.121
 11
-5.879
 20
-48
 21
-48
  0
LINE
  8
0
 10
-5.879
 11
-5
 20
-48
 21
-48.879
  0
LINE
  8
0
 10
-5
 11
-5
 20
-48.879
 21
-50.121
  0
LINE
  8
0
 10
-5
 11
-5.879
 20
-50.121
 21
-51
  0
LINE
  8
0
 10
-5.879
 11
-7.121
 20
-51
 21
-51
  0
LINE
  8
0
 10
-7.121
 11
-8
 20
-51
 21
-50.121
  0
LINE
  8
0
 10
-8
 11
-8
 20
-41.5
 21
-38.5
  0
LINE
  8
0
 10
-8
 11
-6
 20
-38.5
 21
-38.5
  0
LINE
  8
0
 10
-6
 11
-6
 20
-38.5
 21
-41.5
  0
LINE
  8
0
 10
-6
 11
-8
 20
-41.5
 21
-41.5
  0
LINE
  8
0
 10
-8
 11
-8
 20
45.5
 21
48.5
  0
LINE
  8
0
 10
-8
 11
-6
 20
48.5
 21
48.5
  0
LINE
  8
0
 10
-6
 11
-6
 20
48.5
 21
45.5
  0
LINE
  8
0
 10
-6
 11
-8
 20
45.5
 21
45.5
  0
LINE
  8
0
 10
-8
 11
-8
 20
54.379
 21
55.621
  0
LINE
  8
0
 10
-8
 11
-7.121
 20
55.621
 21
56.5
  0
LINE
  8
0
 10
-7.121
 11
-5.879
 20
56.5
 21
56.5
  0
LINE
  8
0
 10
-5.879
 11
-5
 20
56.5
 21
55.621
  0
LINE
  8
0
 10
-5
 11
-5
 20
55.621
 21
54.379
  0
LINE
  8
0
 10
-5
 11
-5.879
 20
54.379
 21
53.5
  0
LINE
  8
0
 10
-5.879
 11
-7.121
 20
53.5
 21
53.5
  0
LINE
  8
0
 10
-7.121
 11
-8
 20
53.5
 21
54.379
  0
LINE
  8
0
 10
-8
 11
-8
 20
61.5
 21
64.5
  0
LINE
  8
0
 10
-8
 11
-6
 20
64.5
 21
64.5
  0
LINE
  8
0
 10
-6
 11
-6
 20
64.5
 21
61.5
  0
LINE
  8
0
 10
-6
 11
-8
 20
61.5
 21
61.5
  0
LINE
  8
0
 10
-8
 11
-8
 20
148.5
 21
151.5
  0
LINE
  8
0
 10
-8
 11
-6
 20
151.5
 21
151.5
  0
LINE
  8
0
 10
-6
 11
-6
 20
151.5
 21
148.5
  0
LINE
  8
0
 10
-6
 11
-8
 20
148.5
 21
148.5
  0
LINE
  8
0
 10
-8
 11
-8
 20
158.879
 21
160.121
  0
LINE
  8
0
 10
-8
 11
-7.121
 20
160.121
 21
161
  0
LINE
  8
0
 10
-7.121
 11
-5.879
 20
161
 21
161
  0
LINE
  8
0
 10
-5.879
 11
-5
 20
161
 21
160.121
  0
LINE
  8
0
 10
-5
 11
-5
 20
160.121
 21
158.879
  0
LINE
  8
0
 10
-5
 11
-5.879
 20
158.879
 21
158
  0
LINE
  8
0
 10
-5.879
 11
-7.121
 20
158
 21
158
  0
LINE
  8
0
 10
-7.121
 11
-8
 20
158
 21
158.879
  0
LINE
  8
0
 10
-2.5
 11
-2.5
 20
-219.025
 21
-212.975
  0
LINE
  8
0
 10
-2.5
 11
6.5
 20
-212.975
 21
-212.975
  0
LINE
  8
0
 10
6.5
 11
6.5
 20
-212.975
 21
-219.025
  0
LINE
  8
0
 10
6.5
 11
-2.5
 20
-219.025
 21
-219.025
  0
LINE
  8
0
 10
26.375
 11
26.375
 20
-20.125
 21
-16.375
  0
LINE
  8
0
 10
26.375
 11
28.125
 20
-16.375
 21
-16.375
  0
LINE
  8
0
 10
28.125
 11
28.125
 20
-16.375
 21
-20.125
  0
LINE
  8
0
 10
28.125
 11
26.375
 20
-20.125
 21
-20.125
  0
LINE
  8
0
 10
26.375
 11
26.375
 20
83.125
 21
86.875
  0
LINE
  8
0
 10
26.375
 11
28.125
 20
86.875
 21
86.875
  0
LINE
  8
0
 10
28.125
 11
28.125
 20
86.875
 21
83.125
  0
LINE
  8
0
 10
28.125
 11
26.375
 20
83.125
 21
83.125
  0
LINE
  8
0
 10
26.375
 11
26.375
 20
186.375
 21
190.125
  0
LINE
  8
0
 10
26.375
 11
28.125
 20
190.125
 21
190.125
  0
LINE
  8
0
 10
28.125
 11
28.125
 20
190.125
 21
186.375
  0
LINE
  8
0
 10
28.125
 11
26.375
 20
186.375
 21
186.375
  0
LINE
  8
0
 10
28.975
 11
28.975
 20
-34
 21
-25
  0
LINE
  8
0
 10
28.975
 11
35.025
 20
-25
 21
-25
  0
LINE
  8
0
 10
35.025
 11
35.025
 20
-25
 21
-34
  0
LINE
  8
0
 10
35.025
 11
28.975
 20
-34
 21
-34
  0
LINE
  8
0
 10
28.975
 11
28.975
 20
-11.5
 21
-2.5
  0
LINE
  8
0
 10
28.975
 11
35.025
 20
-2.5
 21
-2.5
  0
LINE
  8
0
 10
35.025
 11
35.025
 20
-2.5
 21
-11.5
  0
LINE
  8
0
 10
35.025
 11
28.975
 20
-11.5
 21
-11.5
  0
LINE
  8
0
 10
28.975
 11
28.975
 20
69.25
 21
78.25
  0
LINE
  8
0
 10
28.975
 11
35.025
 20
78.25
 21
78.25
  0
LINE
  8
0
 10
35.025
 11
35.025
 20
78.25
 21
69.25
  0
LINE
  8
0
 10
35.025
 11
28.975
 20
69.25
 21
69.25
  0
LINE
  8
0
 10
28.975
 11
28.975
 20
91.75
 21
100.75
  0
LINE
  8
0
 10
28.975
 11
35.025
 20
100.75
 21
100.75
  0
LINE
  8
0
 10
35.025
 11
35.025
 20
100.75
 21
91.75
  0
LINE
  8
0
 10
35.025
 11
28.975
 20
91.75
 21
91.75
  0
LINE
  8
0
 10
28.975
 11
28.975
 20
172.5
 21
181.5
  0
LINE
  8
0
 10
28.975
 11
35.025
 20
181.5
 21
181.5
  0
LINE
  8
0
 10
35.025
 11
35.025
 20
181.5
 21
172.5
  0
LINE
  8
0
 10
35.025
 11
28.975
 20
172.5
 21
172.5
  0
LINE
  8
0
 10
28.975
 11
28.975
 20
195
 21
204
  0
LINE
  8
0
 10
28.975
 11
35.025
 20
204
 21
204
  0
LINE
  8
0
 10
35.025
 11
35.025
 20
204
 21
195
  0
LINE
  8
0
 10
35.025
 11
28.975
 20
195
 21
195
  0
LINE
  8
0
 10
35.875
 11
35.875
 20
-20.125
 21
-16.375
  0
LINE
  8
0
 10
35.875
 11
37.625
 20
-16.375
 21
-16.375
  0
LINE
  8
0
 10
37.625
 11
37.625
 20
-16.375
 21
-20.125
  0
LINE
  8
0
 10
37.625
 11
35.875
 20
-20.125
 21
-20.125
  0
LINE
  8
0
 10
35.875
 11
35.875
 20
83.125
 21
86.875
  0
LINE
  8
0
 10
35.875
 11
37.625
 20
86.875
 21
86.875
  0
LINE
  8
0
 10
37.625
 11
37.625
 20
86.875
 21
83.125
  0
LINE
  8
0
 10
37.625
 11
35.875
 20
83.125
 21
83.125
  0
LINE
  8
0
 10
35.875
 11
35.875
 20
186.375
 21
190.125
  0
LINE
  8
0
 10
35.875
 11
37.625
 20
190.125
 21
190.125
  0
LINE
  8
0
 10
37.625
 11
37.625
 20
190.125
 21
186.375
  0
LINE
  8
0
 10
37.625
 11
35.875
 20
186.375
 21
186.375
  0
LINE
  8
0
 10
43.75
 11
43.75
 20
-61.025
 21
-54.975
  0
LINE
  8
0
 10
43.75
 11
52.75
 20
-54.975
 21
-54.975
  0
LINE
  8
0
 10
52.75
 11
52.75
 20
-54.975
 21
-61.025
  0
LINE
  8
0
 10
52.75
 11
43.75
 20
-61.025
 21
-61.025
  0
LINE
  8
0
 10
55.5
 11
55.5
 20
-105.657
 21
-102.343
  0
LINE
  8
0
 10
55.5
 11
57.843
 20
-102.343
 21
-100
  0
LINE
  8
0
 10
57.843
 11
69.157
 20
-100
 21
-100
  0
LINE
  8
0
 10
69.157
 11
71.5
 20
-100
 21
-102.343
  0
LINE
  8
0
 10
71.5
 11
71.5
 20
-102.343
 21
-105.657
  0
LINE
  8
0
 10
71.5
 11
69.157
 20
-105.657
 21
-108
  0
LINE
  8
0
 10
69.157
 11
57.843
 20
-108
 21
-108
  0
LINE
  8
0
 10
57.843
 11
55.5
 20
-108
 21
-105.657
  0
LINE
  8
0
 10
58
 11
58.439
 20
-58
 21
-56.939
  0
LINE
  8
0
 10
58.439
 11
59.5
 20
-56.939
 21
-56.5
  0
LINE
  8
0
 10
59.5
 11
60.561
 20
-56.5
 21
-56.939
  0
LINE
  8
0
 10
60.561
 11
61
 20
-56.939
 21
-58
  0
LINE
  8
0
 10
61
 11
60.561
 20
-58
 21
-59.061
  0
LINE
  8
0
 10
60.561
 11
59.5
 20
-59.061
 21
-59.5
  0
LINE
  8
0
 10
59.5
 11
58.439
 20
-59.5
 21
-59.061
  0
LINE
  8
0
 10
58.439
 11
58
 20
-59.061
 21
-58
  0
LINE
  8
0
 10
66.25
 11
66.25
 20
-61.025
 21
-54.975
  0
LINE
  8
0
 10
66.25
 11
75.25
 20
-54.975
 21
-54.975
  0
LINE
  8
0
 10
75.25
 11
75.25
 20
-54.975
 21
-61.025
  0
LINE
  8
0
 10
75.25
 11
66.25
 20
-61.025
 21
-61.025
  0
LINE
  8
0
 10
83.975
 11
83.975
 20
-99.75
 21
-90.75
  0
LINE
  8
0
 10
83.975
 11
90.025
 20
-90.75
 21
-90.75
  0
LINE
  8
0
 10
90.025
 11
90.025
 20
-90.75
 21
-99.75
  0
LINE
  8
0
 10
90.025
 11
83.975
 20
-99.75
 21
-99.75
  0
LINE
  8
0
 10
83.975
 11
83.975
 20
-77.25
 21
-68.25
  0
LINE
  8
0
 10
83.975
 11
90.025
 20
-68.25
 21
-68.25
  0
LINE
  8
0
 10
90.025
 11
90.025
 20
-68.25
 21
-77.25
  0
LINE
  8
0
 10
90.025
 11
83.975
 20
-77.25
 21
-77.25
  0
LINE
  8
0
 10
85.5
 11
85.939
 20
-84
 21
-82.939
  0
LINE
  8
0
 10
85.939
 11
87
 20
-82.939
 21
-82.5
  0
LINE
  8
0
 10
87
 11
88.061
 20
-82.5
 21
-82.939
  0
LINE
  8
0
 10
88.061
 11
88.5
 20
-82.939
 21
-84
  0
LINE
  8
0
 10
88.5
 11
88.061
 20
-84
 21
-85.061
  0
LINE
  8
0
 10
88.061
 11
87
 20
-85.061
 21
-85.5
  0
LINE
  8
0
 10
87
 11
85.939
 20
-85.5
 21
-85.061
  0
LINE
  8
0
 10
85.939
 11
85.5
 20
-85.061
 21
-84
  0
LINE
  8
0
 10
108.25
 11
108.25
 20
-219.025
 21
-212.975
  0
LINE
  8
0
 10
108.25
 11
117.25
 20
-212.975
 21
-212.975
  0
LINE
  8
0
 10
117.25
 11
117.25
 20
-212.975
 21
-219.025
  0
LINE
  8
0
 10
117.25
 11
108.25
 20
-219.025
 21
-219.025
  0
LINE
  8
0
 10
122.125
 11
122.125
 20
-221.625
 21
-219.875
  0
LINE
  8
0
 10
122.125
 11
125.875
 20
-219.875
 21
-219.875
  0
LINE
  8
0
 10
125.875
 11
125.875
 20
-219.875
 21
-221.625
  0
LINE
  8
0
 10
125.875
 11
122.125
 20
-221.625
 21
-221.625
  0
LINE
  8
0
 10
122.125
 11
122.125
 20
-212.125
 21
-210.375
  0
LINE
  8
0
 10
122.125
 11
125.875
 20
-210.375
 21
-210.375
  0
LINE
  8
0
 10
125.875
 11
125.875
 20
-210.375
 21
-212.125
  0
LINE
  8
0
 10
125.875
 11
122.125
 20
-212.125
 21
-212.125
  0
LINE
  8
0
 10
130.75
 11
130.75
 20
-219.025
 21
-212.975
  0
LINE
  8
0
 10
130.75
 11
139.75
 20
-212.975
 21
-212.975
  0
LINE
  8
0
 10
139.75
 11
139.75
 20
-212.975
 21
-219.025
  0
LINE
  8
0
 10
139.75
 11
130.75
 20
-219.025
 21
-219.025
  0
LINE
  8
0
 10
178
 11
178
 20
-202.657
 21
-199.343
  0
LINE
  8
0
 10
178
 11
180.343
 20
-199.343
 21
-197
  0
LINE
  8
0
 10
180.343
 11
191.657
 20
-197
 21
-197
  0
LINE
  8
0
 10
191.657
 11
194
 20
-197
 21
-199.343
  0
LINE
  8
0
 10
194
 11
194
 20
-199.343
 21
-202.657
  0
LINE
  8
0
 10
194
 11
191.657
 20
-202.657
 21
-205
  0
LINE
  8
0
 10
191.657
 11
180.343
 20
-205
 21
-205
  0
LINE
  8
0
 10
180.343
 11
178
 20
-205
 21
-202.657
  0
LINE
  8
0
 10
179.625
 11
179.625
 20
-129.125
 21
-125.375
  0
LINE
  8
0
 10
179.625
 11
181.375
 20
-125.375
 21
-125.375
  0
LINE
  8
0
 10
181.375
 11
181.375
 20
-125.375
 21
-129.125
  0
LINE
  8
0
 10
181.375
 11
179.625
 20
-129.125
 21
-129.125
  0
LINE
  8
0
 10
179.625
 11
179.625
 20
-25.875
 21
-22.125
  0
LINE
  8
0
 10
179.625
 11
181.375
 20
-22.125
 21
-22.125
  0
LINE
  8
0
 10
181.375
 11
181.375
 20
-22.125
 21
-25.875
  0
LINE
  8
0
 10
181.375
 11
179.625
 20
-25.875
 21
-25.875
  0
LINE
  8
0
 10
179.625
 11
179.625
 20
77.375
 21
81.125
  0
LINE
  8
0
 10
179.625
 11
181.375
 20
81.125
 21
81.125
  0
LINE
  8
0
 10
181.375
 11
181.375
 20
81.125
 21
77.375
  0
LINE
  8
0
 10
181.375
 11
179.625
 20
77.375
 21
77.375
  0
LINE
  8
0
 10
180.5
 11
180.5
 20
-154.621
 21
-153.379
  0
LINE
  8
0
 10
180.5
 11
181.379
 20
-153.379
 21
-152.5
  0
LINE
  8
0
 10
181.379
 11
182.621
 20
-152.5
 21
-152.5
  0
LINE
  8
0
 10
182.621
 11
183.5
 20
-152.5
 21
-153.379
  0
LINE
  8
0
 10
183.5
 11
183.5
 20
-153.379
 21
-154.621
  0
LINE
  8
0
 10
183.5
 11
182.621
 20
-154.621
 21
-155.5
  0
LINE
  8
0
 10
182.621
 11
181.379
 20
-155.5
 21
-155.5
  0
LINE
  8
0
 10
181.379
 11
180.5
 20
-155.5
 21
-154.621
  0
LINE
  8
0
 10
180.5
 11
180.5
 20
-59.621
 21
-57.379
  0
LINE
  8
0
 10
180.5
 11
181.379
 20
-57.379
 21
-56.5
  0
LINE
  8
0
 10
181.379
 11
182.621
 20
-56.5
 21
-56.5
  0
LINE
  8
0
 10
182.621
 11
183.5
 20
-56.5
 21
-57.379
  0
LINE
  8
0
 10
183.5
 11
183.5
 20
-57.379
 21
-59.621
  0
LINE
  8
0
 10
183.5
 11
182.621
 20
-59.621
 21
-60.5
  0
LINE
  8
0
 10
182.621
 11
181.379
 20
-60.5
 21
-60.5
  0
LINE
  8
0
 10
181.379
 11
180.5
 20
-60.5
 21
-59.621
  0
LINE
  8
0
 10
192.04
 11
192.04
 20
-150.651
 21
-149.409
  0
LINE
  8
0
 10
192.04
 11
192.919
 20
-149.409
 21
-148.53
  0
LINE
  8
0
 10
192.919
 11
194.161
 20
-148.53
 21
-148.53
  0
LINE
  8
0
 10
194.161
 11
195.04
 20
-148.53
 21
-149.409
  0
LINE
  8
0
 10
195.04
 11
195.04
 20
-149.409
 21
-150.651
  0
LINE
  8
0
 10
195.04
 11
194.161
 20
-150.651
 21
-151.53
  0
LINE
  8
0
 10
194.161
 11
192.919
 20
-151.53
 21
-151.53
  0
LINE
  8
0
 10
192.919
 11
192.04
 20
-151.53
 21
-150.651
  0
LINE
  8
0
 10
192.04
 11
192.04
 20
-68.101
 21
-66.859
  0
LINE
  8
0
 10
192.04
 11
192.919
 20
-66.859
 21
-65.98
  0
LINE
  8
0
 10
192.919
 11
194.161
 20
-65.98
 21
-65.98
  0
LINE
  8
0
 10
194.161
 11
195.04
 20
-65.98
 21
-66.859
  0
LINE
  8
0
 10
195.04
 11
195.04
 20
-66.859
 21
-68.101
  0
LINE
  8
0
 10
195.04
 11
194.161
 20
-68.101
 21
-68.98
  0
LINE
  8
0
 10
194.161
 11
192.919
 20
-68.98
 21
-68.98
  0
LINE
  8
0
 10
192.919
 11
192.04
 20
-68.98
 21
-68.101
  0
LINE
  8
0
 10
196.5
 11
196.5
 20
-157.621
 21
-156.379
  0
LINE
  8
0
 10
196.5
 11
197.379
 20
-156.379
 21
-155.5
  0
LINE
  8
0
 10
197.379
 11
198.621
 20
-155.5
 21
-155.5
  0
LINE
  8
0
 10
198.621
 11
199.5
 20
-155.5
 21
-156.379
  0
LINE
  8
0
 10
199.5
 11
199.5
 20
-156.379
 21
-157.621
  0
LINE
  8
0
 10
199.5
 11
198.621
 20
-157.621
 21
-158.5
  0
LINE
  8
0
 10
198.621
 11
197.379
 20
-158.5
 21
-158.5
  0
LINE
  8
0
 10
197.379
 11
196.5
 20
-158.5
 21
-157.621
  0
LINE
  8
0
 10
196.5
 11
196.5
 20
-64.621
 21
-63.379
  0
LINE
  8
0
 10
196.5
 11
197.379
 20
-63.379
 21
-62.5
  0
LINE
  8
0
 10
197.379
 11
198.621
 20
-62.5
 21
-62.5
  0
LINE
  8
0
 10
198.621
 11
199.5
 20
-62.5
 21
-63.379
  0
LINE
  8
0
 10
199.5
 11
199.5
 20
-63.379
 21
-64.621
  0
LINE
  8
0
 10
199.5
 11
198.621
 20
-64.621
 21
-65.5
  0
LINE
  8
0
 10
198.621
 11
197.379
 20
-65.5
 21
-65.5
  0
LINE
  8
0
 10
197.379
 11
196.5
 20
-65.5
 21
-64.621
  0
LINE
  8
0
 10
210.5
 11
210.5
 20
-112.328
 21
-110.672
  0
LINE
  8
0
 10
210.5
 11
211.672
 20
-110.672
 21
-109.5
  0
LINE
  8
0
 10
211.672
 11
218.328
 20
-109.5
 21
-109.5
  0
LINE
  8
0
 10
218.328
 11
219.5
 20
-109.5
 21
-110.672
  0
LINE
  8
0
 10
219.5
 11
219.5
 20
-110.672
 21
-112.328
  0
LINE
  8
0
 10
219.5
 11
218.328
 20
-112.328
 21
-113.5
  0
LINE
  8
0
 10
218.328
 11
211.672
 20
-113.5
 21
-113.5
  0
LINE
  8
0
 10
211.672
 11
210.5
 20
-113.5
 21
-112.328
  0
LINE
  8
0
 10
210.5
 11
210.5
 20
37.672
 21
39.328
  0
LINE
  8
0
 10
210.5
 11
211.672
 20
39.328
 21
40.5
  0
LINE
  8
0
 10
211.672
 11
218.328
 20
40.5
 21
40.5
  0
LINE
  8
0
 10
218.328
 11
219.5
 20
40.5
 21
39.328
  0
LINE
  8
0
 10
219.5
 11
219.5
 20
39.328
 21
37.672
  0
LINE
  8
0
 10
219.5
 11
218.328
 20
37.672
 21
36.5
  0
LINE
  8
0
 10
218.328
 11
211.672
 20
36.5
 21
36.5
  0
LINE
  8
0
 10
211.672
 11
210.5
 20
36.5
 21
37.672
  0
LINE
  8
0
 10
218
 11
218
 20
-202.657
 21
-199.343
  0
LINE
  8
0
 10
218
 11
220.343
 20
-199.343
 21
-197
  0
LINE
  8
0
 10
220.343
 11
231.657
 20
-197
 21
-197
  0
LINE
  8
0
 10
231.657
 11
234
 20
-197
 21
-199.343
  0
LINE
  8
0
 10
234
 11
234
 20
-199.343
 21
-202.657
  0
LINE
  8
0
 10
234
 11
231.657
 20
-202.657
 21
-205
  0
LINE
  8
0
 10
231.657
 11
220.343
 20
-205
 21
-205
  0
LINE
  8
0
 10
220.343
 11
218
 20
-205
 21
-202.657
  0
LINE
  8
0
 10
235.04
 11
235.04
 20
-117.651
 21
-116.409
  0
LINE
  8
0
 10
235.04
 11
235.919
 20
-116.409
 21
-115.53
  0
LINE
  8
0
 10
235.919
 11
237.161
 20
-115.53
 21
-115.53
  0
LINE
  8
0
 10
237.161
 11
238.04
 20
-115.53
 21
-116.409
  0
LINE
  8
0
 10
238.04
 11
238.04
 20
-116.409
 21
-117.651
  0
LINE
  8
0
 10
238.04
 11
237.161
 20
-117.651
 21
-118.53
  0
LINE
  8
0
 10
237.161
 11
235.919
 20
-118.53
 21
-118.53
  0
LINE
  8
0
 10
235.919
 11
235.04
 20
-118.53
 21
-117.651
  0
LINE
  8
0
 10
235.04
 11
235.04
 20
-35.101
 21
-33.859
  0
LINE
  8
0
 10
235.04
 11
235.919
 20
-33.859
 21
-32.98
  0
LINE
  8
0
 10
235.919
 11
237.161
 20
-32.98
 21
-32.98
  0
LINE
  8
0
 10
237.161
 11
238.04
 20
-32.98
 21
-33.859
  0
LINE
  8
0
 10
238.04
 11
238.04
 20
-33.859
 21
-35.101
  0
LINE
  8
0
 10
238.04
 11
237.161
 20
-35.101
 21
-35.98
  0
LINE
  8
0
 10
237.161
 11
235.919
 20
-35.98
 21
-35.98
  0
LINE
  8
0
 10
235.919
 11
235.04
 20
-35.98
 21
-35.101
  0
LINE
  8
0
 10
239.5
 11
239.5
 20
-157.621
 21
-156.379
  0
LINE
  8
0
 10
239.5
 11
240.379
 20
-156.379
 21
-155.5
  0
LINE
  8
0
 10
240.379
 11
241.621
 20
-155.5
 21
-155.5
  0
LINE
  8
0
 10
241.621
 11
242.5
 20
-155.5
 21
-156.379
  0
LINE
  8
0
 10
242.5
 11
242.5
 20
-156.379
 21
-157.621
  0
LINE
  8
0
 10
242.5
 11
241.621
 20
-157.621
 21
-158.5
  0
LINE
  8
0
 10
241.621
 11
240.379
 20
-158.5
 21
-158.5
  0
LINE
  8
0
 10
240.379
 11
239.5
 20
-158.5
 21
-157.621
  0
LINE
  8
0
 10
239.5
 11
239.5
 20
-124.621
 21
-123.379
  0
LINE
  8
0
 10
239.5
 11
240.379
 20
-123.379
 21
-122.5
  0
LINE
  8
0
 10
240.379
 11
241.621
 20
-122.5
 21
-122.5
  0
LINE
  8
0
 10
241.621
 11
242.5
 20
-122.5
 21
-123.379
  0
LINE
  8
0
 10
242.5
 11
242.5
 20
-123.379
 21
-124.621
  0
LINE
  8
0
 10
242.5
 11
241.621
 20
-124.621
 21
-125.5
  0
LINE
  8
0
 10
241.621
 11
240.379
 20
-125.5
 21
-125.5
  0
LINE
  8
0
 10
240.379
 11
239.5
 20
-125.5
 21
-124.621
  0
LINE
  8
0
 10
239.5
 11
239.5
 20
-64.621
 21
-63.379
  0
LINE
  8
0
 10
239.5
 11
240.379
 20
-63.379
 21
-62.5
  0
LINE
  8
0
 10
240.379
 11
241.621
 20
-62.5
 21
-62.5
  0
LINE
  8
0
 10
241.621
 11
242.5
 20
-62.5
 21
-63.379
  0
LINE
  8
0
 10
242.5
 11
242.5
 20
-63.379
 21
-64.621
  0
LINE
  8
0
 10
242.5
 11
241.621
 20
-64.621
 21
-65.5
  0
LINE
  8
0
 10
241.621
 11
240.379
 20
-65.5
 21
-65.5
  0
LINE
  8
0
 10
240.379
 11
239.5
 20
-65.5
 21
-64.621
  0
LINE
  8
0
 10
239.5
 11
239.5
 20
-31.621
 21
-30.379
  0
LINE
  8
0
 10
239.5
 11
240.379
 20
-30.379
 21
-29.5
  0
LINE
  8
0
 10
240.379
 11
241.621
 20
-29.5
 21
-29.5
  0
LINE
  8
0
 10
241.621
 11
242.5
 20
-29.5
 21
-30.379
  0
LINE
  8
0
 10
242.5
 11
242.5
 20
-30.379
 21
-31.621
  0
LINE
  8
0
 10
242.5
 11
241.621
 20
-31.621
 21
-32.5
  0
LINE
  8
0
 10
241.621
 11
240.379
 20
-32.5
 21
-32.5
  0
LINE
  8
0
 10
240.379
 11
239.5
 20
-32.5
 21
-31.621
  0
LINE
  8
0
 10
240.3
 11
240.3
 20
-149.381
 21
-148.139
  0
LINE
  8
0
 10
240.3
 11
241.179
 20
-148.139
 21
-147.26
  0
LINE
  8
0
 10
241.179
 11
242.421
 20
-147.26
 21
-147.26
  0
LINE
  8
0
 10
242.421
 11
243.3
 20
-147.26
 21
-148.139
  0
LINE
  8
0
 10
243.3
 11
243.3
 20
-148.139
 21
-149.381
  0
LINE
  8
0
 10
243.3
 11
242.421
 20
-149.381
 21
-150.26
  0
LINE
  8
0
 10
242.421
 11
241.179
 20
-150.26
 21
-150.26
  0
LINE
  8
0
 10
241.179
 11
240.3
 20
-150.26
 21
-149.381
  0
LINE
  8
0
 10
240.3
 11
240.3
 20
-74.451
 21
-73.209
  0
LINE
  8
0
 10
240.3
 11
241.179
 20
-73.209
 21
-72.33
  0
LINE
  8
0
 10
241.179
 11
242.421
 20
-72.33
 21
-72.33
  0
LINE
  8
0
 10
242.421
 11
243.3
 20
-72.33
 21
-73.209
  0
LINE
  8
0
 10
243.3
 11
243.3
 20
-73.209
 21
-74.451
  0
LINE
  8
0
 10
243.3
 11
242.421
 20
-74.451
 21
-75.33
  0
LINE
  8
0
 10
242.421
 11
241.179
 20
-75.33
 21
-75.33
  0
LINE
  8
0
 10
241.179
 11
240.3
 20
-75.33
 21
-74.451
  0
LINE
  8
0
 10
241.5
 11
241.5
 20
-219.025
 21
-212.975
  0
LINE
  8
0
 10
241.5
 11
250.5
 20
-212.975
 21
-212.975
  0
LINE
  8
0
 10
250.5
 11
250.5
 20
-212.975
 21
-219.025
  0
LINE
  8
0
 10
250.5
 11
241.5
 20
-219.025
 21
-219.025
  0
LINE
  8
0
 10
255.375
 11
255.375
 20
-221.625
 21
-219.875
  0
LINE
  8
0
 10
255.375
 11
259.125
 20
-219.875
 21
-219.875
  0
LINE
  8
0
 10
259.125
 11
259.125
 20
-219.875
 21
-221.625
  0
LINE
  8
0
 10
259.125
 11
255.375
 20
-221.625
 21
-221.625
  0
LINE
  8
0
 10
255.375
 11
255.375
 20
-212.125
 21
-210.375
  0
LINE
  8
0
 10
255.375
 11
259.125
 20
-210.375
 21
-210.375
  0
LINE
  8
0
 10
259.125
 11
259.125
 20
-210.375
 21
-212.125
  0
LINE
  8
0
 10
259.125
 11
255.375
 20
-212.125
 21
-212.125
  0
LINE
  8
0
 10
260.5
 11
260.5
 20
-112.328
 21
-110.672
  0
LINE
  8
0
 10
260.5
 11
261.672
 20
-110.672
 21
-109.5
  0
LINE
  8
0
 10
261.672
 11
268.328
 20
-109.5
 21
-109.5
  0
LINE
  8
0
 10
268.328
 11
269.5
 20
-109.5
 21
-110.672
  0
LINE
  8
0
 10
269.5
 11
269.5
 20
-110.672
 21
-112.328
  0
LINE
  8
0
 10
269.5
 11
268.328
 20
-112.328
 21
-113.5
  0
LINE
  8
0
 10
268.328
 11
261.672
 20
-113.5
 21
-113.5
  0
LINE
  8
0
 10
261.672
 11
260.5
 20
-113.5
 21
-112.328
  0
LINE
  8
0
 10
260.5
 11
260.5
 20
37.672
 21
39.328
  0
LINE
  8
0
 10
260.5
 11
261.672
 20
39.328
 21
40.5
  0
LINE
  8
0
 10
261.672
 11
268.328
 20
40.5
 21
40.5
  0
LINE
  8
0
 10
268.328
 11
269.5
 20
40.5
 21
39.328
  0
LINE
  8
0
 10
269.5
 11
269.5
 20
39.328
 21
37.672
  0
LINE
  8
0
 10
269.5
 11
268.328
 20
37.672
 21
36.5
  0
LINE
  8
0
 10
268.328
 11
261.672
 20
36.5
 21
36.5
  0
LINE
  8
0
 10
261.672
 11
260.5
 20
36.5
 21
37.672
  0
LINE
  8
0
 10
264
 11
264
 20
-219.025
 21
-212.975
  0
LINE
  8
0
 10
264
 11
273
 20
-212.975
 21
-212.975
  0
LINE
  8
0
 10
273
 11
273
 20
-212.975
 21
-219.025
  0
LINE
  8
0
 10
273
 11
264
 20
-219.025
 21
-219.025
  0
LINE
  8
0
 10
275.5
 11
275.5
 20
-154.621
 21
-153.379
  0
LINE
  8
0
 10
275.5
 11
276.379
 20
-153.379
 21
-152.5
  0
LINE
  8
0
 10
276.379
 11
278.621
 20
-152.5
 21
-152.5
  0
LINE
  8
0
 10
278.621
 11
279.5
 20
-152.5
 21
-153.379
  0
LINE
  8
0
 10
279.5
 11
279.5
 20
-153.379
 21
-154.621
  0
LINE
  8
0
 10
279.5
 11
278.621
 20
-154.621
 21
-155.5
  0
LINE
  8
0
 10
278.621
 11
276.379
 20
-155.5
 21
-155.5
  0
LINE
  8
0
 10
276.379
 11
275.5
 20
-155.5
 21
-154.621
  0
LINE
  8
0
 10
275.5
 11
275.5
 20
-58.621
 21
-57.379
  0
LINE
  8
0
 10
275.5
 11
276.379
 20
-57.379
 21
-56.5
  0
LINE
  8
0
 10
276.379
 11
277.621
 20
-56.5
 21
-56.5
  0
LINE
  8
0
 10
277.621
 11
278.621
 20
-56.5
 21
-57.5
  0
LINE
  8
0
 10
278.621
 11
279.5
 20
-57.5
 21
-58.379
  0
LINE
  8
0
 10
279.5
 11
279.5
 20
-58.379
 21
-59.621
  0
LINE
  8
0
 10
279.5
 11
278.621
 20
-59.621
 21
-60.5
  0
LINE
  8
0
 10
278.621
 11
277.379
 20
-60.5
 21
-60.5
  0
LINE
  8
0
 10
277.379
 11
276.379
 20
-60.5
 21
-59.5
  0
LINE
  8
0
 10
276.379
 11
275.5
 20
-59.5
 21
-58.621
  0
LINE
  8
0
 10
282.5
 11
282.5
 20
-124.621
 21
-123.379
  0
LINE
  8
0
 10
282.5
 11
283.379
 20
-123.379
 21
-122.5
  0
LINE
  8
0
 10
283.379
 11
284.621
 20
-122.5
 21
-122.5
  0
LINE
  8
0
 10
284.621
 11
285.5
 20
-122.5
 21
-123.379
  0
LINE
  8
0
 10
285.5
 11
285.5
 20
-123.379
 21
-124.621
  0
LINE
  8
0
 10
285.5
 11
284.621
 20
-124.621
 21
-125.5
  0
LINE
  8
0
 10
284.621
 11
283.379
 20
-125.5
 21
-125.5
  0
LINE
  8
0
 10
283.379
 11
282.5
 20
-125.5
 21
-124.621
  0
LINE
  8
0
 10
282.5
 11
282.5
 20
-31.621
 21
-30.379
  0
LINE
  8
0
 10
282.5
 11
283.379
 20
-30.379
 21
-29.5
  0
LINE
  8
0
 10
283.379
 11
284.621
 20
-29.5
 21
-29.5
  0
LINE
  8
0
 10
284.621
 11
285.5
 20
-29.5
 21
-30.379
  0
LINE
  8
0
 10
285.5
 11
285.5
 20
-30.379
 21
-31.621
  0
LINE
  8
0
 10
285.5
 11
284.621
 20
-31.621
 21
-32.5
  0
LINE
  8
0
 10
284.621
 11
283.379
 20
-32.5
 21
-32.5
  0
LINE
  8
0
 10
283.379
 11
282.5
 20
-32.5
 21
-31.621
  0
LINE
  8
0
 10
283.3
 11
283.3
 20
-116.381
 21
-115.139
  0
LINE
  8
0
 10
283.3
 11
284.179
 20
-115.139
 21
-114.26
  0
LINE
  8
0
 10
284.179
 11
285.421
 20
-114.26
 21
-114.26
  0
LINE
  8
0
 10
285.421
 11
286.3
 20
-114.26
 21
-115.139
  0
LINE
  8
0
 10
286.3
 11
286.3
 20
-115.139
 21
-116.381
  0
LINE
  8
0
 10
286.3
 11
285.421
 20
-116.381
 21
-117.26
  0
LINE
  8
0
 10
285.421
 11
284.179
 20
-117.26
 21
-117.26
  0
LINE
  8
0
 10
284.179
 11
283.3
 20
-117.26
 21
-116.381
  0
LINE
  8
0
 10
283.3
 11
283.3
 20
-41.451
 21
-40.209
  0
LINE
  8
0
 10
283.3
 11
284.179
 20
-40.209
 21
-39.33
  0
LINE
  8
0
 10
284.179
 11
285.421
 20
-39.33
 21
-39.33
  0
LINE
  8
0
 10
285.421
 11
286.3
 20
-39.33
 21
-40.209
  0
LINE
  8
0
 10
286.3
 11
286.3
 20
-40.209
 21
-41.451
  0
LINE
  8
0
 10
286.3
 11
285.421
 20
-41.451
 21
-42.33
  0
LINE
  8
0
 10
285.421
 11
284.179
 20
-42.33
 21
-42.33
  0
LINE
  8
0
 10
284.179
 11
283.3
 20
-42.33
 21
-41.451
  0
LINE
  8
0
 10
288.625
 11
288.625
 20
-190.375
 21
-186.625
  0
LINE
  8
0
 10
288.625
 11
290.375
 20
-186.625
 21
-186.625
  0
LINE
  8
0
 10
290.375
 11
290.375
 20
-186.625
 21
-190.375
  0
LINE
  8
0
 10
290.375
 11
288.625
 20
-190.375
 21
-190.375
  0
LINE
  8
0
 10
288.625
 11
288.625
 20
89.625
 21
93.375
  0
LINE
  8
0
 10
288.625
 11
290.375
 20
93.375
 21
93.375
  0
LINE
  8
0
 10
290.375
 11
290.375
 20
93.375
 21
89.625
  0
LINE
  8
0
 10
290.375
 11
288.625
 20
89.625
 21
89.625
  0
ENDSEC
  0
SECTION
  2
OBJECTS
  0
DICTIONARY
  0
ENDSEC
  0
EOF
