  0
SECTION
  2
BLOCKS
  0
ENDSEC
  0
SECTION
  2
ENTITIES
  0
LINE
  8
0
 10
-300.025
 11
-300.025
 20
-204.25
 21
-195.25
  0
LINE
  8
0
 10
-300.025
 11
-294
 20
-195.25
 21
-195.25
  0
LINE
  8
0
 10
-294
 11
-294
 20
-195.25
 21
-181.75
  0
LINE
  8
0
 10
-294
 11
-300.025
 20
-181.75
 21
-181.75
  0
LINE
  8
0
 10
-300.025
 11
-300.025
 20
-181.75
 21
-172.75
  0
LINE
  8
0
 10
-300.025
 11
-294
 20
-172.75
 21
-172.75
  0
LINE
  8
0
 10
-294
 11
-294
 20
-172.75
 21
-164
  0
LINE
  8
0
 10
-294
 11
-299.975
 20
-164
 21
-164
  0
LINE
  8
0
 10
-299.975
 11
-299.975
 20
-164
 21
67
  0
LINE
  8
0
 10
-299.975
 11
-294
 20
67
 21
67
  0
LINE
  8
0
 10
-294
 11
-294
 20
67
 21
75.75
  0
LINE
  8
0
 10
-294
 11
-300.025
 20
75.75
 21
75.75
  0
LINE
  8
0
 10
-300.025
 11
-300.025
 20
75.75
 21
84.75
  0
LINE
  8
0
 10
-300.025
 11
-294
 20
84.75
 21
84.75
  0
LINE
  8
0
 10
-294
 11
-294
 20
84.75
 21
98.25
  0
LINE
  8
0
 10
-294
 11
-300.025
 20
98.25
 21
98.25
  0
LINE
  8
0
 10
-300.025
 11
-300.025
 20
98.25
 21
107.25
  0
LINE
  8
0
 10
-300.025
 11
-294
 20
107.25
 21
107.25
  0
LINE
  8
0
 10
-294
 11
-294
 20
107.25
 21
116
  0
LINE
  8
0
 10
-294
 11
-206.025
 20
116
 21
116
  0
LINE
  8
0
 10
-206.025
 11
-206.025
 20
116
 21
110
  0
LINE
  8
0
 10
-206.025
 11
-192.5
 20
110
 21
110
  0
LINE
  8
0
 10
-192.5
 11
-192.5
 20
110
 21
106.1
  0
LINE
  8
0
 10
-192.5
 11
-193.75
 20
106.1
 21
106.1
  0
LINE
  8
0
 10
-193.75
 11
-193.75
 20
106.1
 21
103.6
  0
LINE
  8
0
 10
-193.75
 11
-192.5
 20
103.6
 21
103.6
  0
LINE
  8
0
 10
-192.5
 11
-192.5
 20
103.6
 21
102.15
  0
LINE
  8
0
 10
-192.5
 11
-189.5
 20
102.15
 21
102.15
  0
LINE
  8
0
 10
-189.5
 11
-189.5
 20
102.15
 21
103.6
  0
LINE
  8
0
 10
-189.5
 11
-188.25
 20
103.6
 21
103.6
  0
LINE
  8
0
 10
-188.25
 11
-188.25
 20
103.6
 21
106.1
  0
LINE
  8
0
 10
-188.25
 11
-189.5
 20
106.1
 21
106.1
  0
LINE
  8
0
 10
-189.5
 11
-189.5
 20
106.1
 21
110
  0
LINE
  8
0
 10
-189.5
 11
-176
 20
110
 21
110
  0
LINE
  8
0
 10
-176
 11
-176
 20
110
 21
95
  0
LINE
  8
0
 10
-176
 11
-169.975
 20
95
 21
95
  0
LINE
  8
0
 10
-169.975
 11
-169.975
 20
95
 21
86
  0
LINE
  8
0
 10
-169.975
 11
-176
 20
86
 21
86
  0
LINE
  8
0
 10
-176
 11
-176
 20
86
 21
72.5
  0
LINE
  8
0
 10
-176
 11
-169.975
 20
72.5
 21
72.5
  0
LINE
  8
0
 10
-169.975
 11
-169.975
 20
72.5
 21
63.5
  0
LINE
  8
0
 10
-169.975
 11
-176
 20
63.5
 21
63.5
  0
LINE
  8
0
 10
-176
 11
-176
 20
63.5
 21
-8.25
  0
LINE
  8
0
 10
-176
 11
-169.975
 20
-8.25
 21
-8.25
  0
LINE
  8
0
 10
-169.975
 11
-169.975
 20
-8.25
 21
-17.25
  0
LINE
  8
0
 10
-169.975
 11
-176
 20
-17.25
 21
-17.25
  0
LINE
  8
0
 10
-176
 11
-176
 20
-17.25
 21
-30.75
  0
LINE
  8
0
 10
-176
 11
-169.975
 20
-30.75
 21
-30.75
  0
LINE
  8
0
 10
-169.975
 11
-169.975
 20
-30.75
 21
-39.75
  0
LINE
  8
0
 10
-169.975
 11
-176
 20
-39.75
 21
-39.75
  0
LINE
  8
0
 10
-176
 11
-176
 20
-39.75
 21
-111.5
  0
LINE
  8
0
 10
-176
 11
-169.975
 20
-111.5
 21
-111.5
  0
LINE
  8
0
 10
-169.975
 11
-169.975
 20
-111.5
 21
-120.5
  0
LINE
  8
0
 10
-169.975
 11
-176
 20
-120.5
 21
-120.5
  0
LINE
  8
0
 10
-176
 11
-176
 20
-120.5
 21
-134
  0
LINE
  8
0
 10
-176
 11
-169.975
 20
-134
 21
-134
  0
LINE
  8
0
 10
-169.975
 11
-169.975
 20
-134
 21
-143
  0
LINE
  8
0
 10
-169.975
 11
-176
 20
-143
 21
-143
  0
LINE
  8
0
 10
-176
 11
-176
 20
-143
 21
-170
  0
LINE
  8
0
 10
-176
 11
-162.75
 20
-170
 21
-170
  0
LINE
  8
0
 10
-162.75
 11
-162.75
 20
-170
 21
-163.975
  0
LINE
  8
0
 10
-162.75
 11
-153.75
 20
-163.975
 21
-163.975
  0
LINE
  8
0
 10
-153.75
 11
-153.75
 20
-163.975
 21
-170
  0
LINE
  8
0
 10
-153.75
 11
-148.5
 20
-170
 21
-170
  0
LINE
  8
0
 10
-148.5
 11
-148.5
 20
-170
 21
-173.9
  0
LINE
  8
0
 10
-148.5
 11
-149.75
 20
-173.9
 21
-173.9
  0
LINE
  8
0
 10
-149.75
 11
-149.75
 20
-173.9
 21
-176.4
  0
LINE
  8
0
 10
-149.75
 11
-148.5
 20
-176.4
 21
-176.4
  0
LINE
  8
0
 10
-148.5
 11
-148.5
 20
-176.4
 21
-177.85
  0
LINE
  8
0
 10
-148.5
 11
-145.5
 20
-177.85
 21
-177.85
  0
LINE
  8
0
 10
-145.5
 11
-145.5
 20
-177.85
 21
-176.4
  0
LINE
  8
0
 10
-145.5
 11
-144.25
 20
-176.4
 21
-176.4
  0
LINE
  8
0
 10
-144.25
 11
-144.25
 20
-176.4
 21
-173.9
  0
LINE
  8
0
 10
-144.25
 11
-145.5
 20
-173.9
 21
-173.9
  0
LINE
  8
0
 10
-145.5
 11
-145.5
 20
-173.9
 21
-170
  0
LINE
  8
0
 10
-145.5
 11
-140.25
 20
-170
 21
-170
  0
LINE
  8
0
 10
-140.25
 11
-140.25
 20
-170
 21
-163.975
  0
LINE
  8
0
 10
-140.25
 11
-131.25
 20
-163.975
 21
-163.975
  0
LINE
  8
0
 10
-131.25
 11
-131.25
 20
-163.975
 21
-170
  0
LINE
  8
0
 10
-131.25
 11
-124
 20
-170
 21
-170
  0
LINE
  8
0
 10
-124
 11
-124
 20
-170
 21
-164
  0
LINE
  8
0
 10
-124
 11
46
 20
-164
 21
-164
  0
LINE
  8
0
 10
46
 11
46
 20
-164
 21
-172.75
  0
LINE
  8
0
 10
46
 11
52.025
 20
-172.75
 21
-172.75
  0
LINE
  8
0
 10
52.025
 11
52.025
 20
-172.75
 21
-181.75
  0
LINE
  8
0
 10
52.025
 11
46
 20
-181.75
 21
-181.75
  0
LINE
  8
0
 10
46
 11
46
 20
-181.75
 21
-195.25
  0
LINE
  8
0
 10
46
 11
52.025
 20
-195.25
 21
-195.25
  0
LINE
  8
0
 10
52.025
 11
52.025
 20
-195.25
 21
-204.25
  0
LINE
  8
0
 10
52.025
 11
46
 20
-204.25
 21
-204.25
  0
LINE
  8
0
 10
46
 11
46
 20
-204.25
 21
-225
  0
LINE
  8
0
 10
46
 11
-294
 20
-225
 21
-225
  0
LINE
  8
0
 10
-294
 11
-294
 20
-225
 21
-204.25
  0
LINE
  8
0
 10
-294
 11
-300.025
 20
-204.25
 21
-204.25
  0
LINE
  8
0
 10
-292.225
 11
-292.225
 20
180.25
 21
189.25
  0
LINE
  8
0
 10
-292.225
 11
-286.2
 20
189.25
 21
189.25
  0
LINE
  8
0
 10
-286.2
 11
-286.2
 20
189.25
 21
194.5
  0
LINE
  8
0
 10
-286.2
 11
-282.3
 20
194.5
 21
194.5
  0
LINE
  8
0
 10
-282.3
 11
-282.3
 20
194.5
 21
193.25
  0
LINE
  8
0
 10
-282.3
 11
-279.8
 20
193.25
 21
193.25
  0
LINE
  8
0
 10
-279.8
 11
-279.8
 20
193.25
 21
194.5
  0
LINE
  8
0
 10
-279.8
 11
-278.35
 20
194.5
 21
194.5
  0
LINE
  8
0
 10
-278.35
 11
-278.35
 20
194.5
 21
197.5
  0
LINE
  8
0
 10
-278.35
 11
-279.8
 20
197.5
 21
197.5
  0
LINE
  8
0
 10
-279.8
 11
-279.8
 20
197.5
 21
198.75
  0
LINE
  8
0
 10
-279.8
 11
-282.3
 20
198.75
 21
198.75
  0
LINE
  8
0
 10
-282.3
 11
-282.3
 20
198.75
 21
197.5
  0
LINE
  8
0
 10
-282.3
 11
-286.2
 20
197.5
 21
197.5
  0
LINE
  8
0
 10
-286.2
 11
-286.2
 20
197.5
 21
202.75
  0
LINE
  8
0
 10
-286.2
 11
-292.225
 20
202.75
 21
202.75
  0
LINE
  8
0
 10
-292.225
 11
-292.225
 20
202.75
 21
211.75
  0
LINE
  8
0
 10
-292.225
 11
-286.2
 20
211.75
 21
211.75
  0
LINE
  8
0
 10
-286.2
 11
-286.2
 20
211.75
 21
219
  0
LINE
  8
0
 10
-286.2
 11
-278.95
 20
219
 21
219
  0
LINE
  8
0
 10
-278.95
 11
-278.95
 20
219
 21
225.025
  0
LINE
  8
0
 10
-278.95
 11
-269.95
 20
225.025
 21
225.025
  0
LINE
  8
0
 10
-269.95
 11
-269.95
 20
225.025
 21
219
  0
LINE
  8
0
 10
-269.95
 11
-264.7
 20
219
 21
219
  0
LINE
  8
0
 10
-264.7
 11
-264.7
 20
219
 21
215.1
  0
LINE
  8
0
 10
-264.7
 11
-265.95
 20
215.1
 21
215.1
  0
LINE
  8
0
 10
-265.95
 11
-265.95
 20
215.1
 21
212.6
  0
LINE
  8
0
 10
-265.95
 11
-264.7
 20
212.6
 21
212.6
  0
LINE
  8
0
 10
-264.7
 11
-264.7
 20
212.6
 21
211.15
  0
LINE
  8
0
 10
-264.7
 11
-261.7
 20
211.15
 21
211.15
  0
LINE
  8
0
 10
-261.7
 11
-261.7
 20
211.15
 21
212.6
  0
LINE
  8
0
 10
-261.7
 11
-260.45
 20
212.6
 21
212.6
  0
LINE
  8
0
 10
-260.45
 11
-260.45
 20
212.6
 21
215.1
  0
LINE
  8
0
 10
-260.45
 11
-261.7
 20
215.1
 21
215.1
  0
LINE
  8
0
 10
-261.7
 11
-261.7
 20
215.1
 21
219
  0
LINE
  8
0
 10
-261.7
 11
-256.45
 20
219
 21
219
  0
LINE
  8
0
 10
-256.45
 11
-256.45
 20
219
 21
225.025
  0
LINE
  8
0
 10
-256.45
 11
-247.45
 20
225.025
 21
225.025
  0
LINE
  8
0
 10
-247.45
 11
-247.45
 20
225.025
 21
219
  0
LINE
  8
0
 10
-247.45
 11
-240.2
 20
219
 21
219
  0
LINE
  8
0
 10
-240.2
 11
-240.2
 20
219
 21
213
  0
LINE
  8
0
 10
-240.2
 11
-280.2
 20
213
 21
173
  0
LINE
  8
0
 10
-280.2
 11
-286.2
 20
173
 21
173
  0
LINE
  8
0
 10
-286.2
 11
-286.2
 20
173
 21
180.25
  0
LINE
  8
0
 10
-286.2
 11
-292.225
 20
180.25
 21
180.25
  0
LINE
  8
0
 10
-290.375
 11
-290.375
 20
-190.375
 21
-186.625
  0
LINE
  8
0
 10
-290.375
 11
-288.625
 20
-186.625
 21
-186.625
  0
LINE
  8
0
 10
-288.625
 11
-288.625
 20
-186.625
 21
-190.375
  0
LINE
  8
0
 10
-288.625
 11
-290.375
 20
-190.375
 21
-190.375
  0
LINE
  8
0
 10
-290.375
 11
-290.375
 20
89.625
 21
93.375
  0
LINE
  8
0
 10
-290.375
 11
-288.625
 20
93.375
 21
93.375
  0
LINE
  8
0
 10
-288.625
 11
-288.625
 20
93.375
 21
89.625
  0
LINE
  8
0
 10
-288.625
 11
-290.375
 20
89.625
 21
89.625
  0
LINE
  8
0
 10
-286.3
 11
-286.3
 20
-116.381
 21
-115.139
  0
LINE
  8
0
 10
-286.3
 11
-285.421
 20
-115.139
 21
-114.26
  0
LINE
  8
0
 10
-285.421
 11
-284.179
 20
-114.26
 21
-114.26
  0
LINE
  8
0
 10
-284.179
 11
-283.3
 20
-114.26
 21
-115.139
  0
LINE
  8
0
 10
-283.3
 11
-283.3
 20
-115.139
 21
-116.381
  0
LINE
  8
0
 10
-283.3
 11
-284.179
 20
-116.381
 21
-117.26
  0
LINE
  8
0
 10
-284.179
 11
-285.421
 20
-117.26
 21
-117.26
  0
LINE
  8
0
 10
-285.421
 11
-286.3
 20
-117.26
 21
-116.381
  0
LINE
  8
0
 10
-286.3
 11
-286.3
 20
-41.451
 21
-40.209
  0
LINE
  8
0
 10
-286.3
 11
-285.421
 20
-40.209
 21
-39.33
  0
LINE
  8
0
 10
-285.421
 11
-284.179
 20
-39.33
 21
-39.33
  0
LINE
  8
0
 10
-284.179
 11
-283.3
 20
-39.33
 21
-40.209
  0
LINE
  8
0
 10
-283.3
 11
-283.3
 20
-40.209
 21
-41.451
  0
LINE
  8
0
 10
-283.3
 11
-284.179
 20
-41.451
 21
-42.33
  0
LINE
  8
0
 10
-284.179
 11
-285.421
 20
-42.33
 21
-42.33
  0
LINE
  8
0
 10
-285.421
 11
-286.3
 20
-42.33
 21
-41.451
  0
LINE
  8
0
 10
-285.5
 11
-285.5
 20
-124.621
 21
-123.379
  0
LINE
  8
0
 10
-285.5
 11
-284.621
 20
-123.379
 21
-122.5
  0
LINE
  8
0
 10
-284.621
 11
-283.379
 20
-122.5
 21
-122.5
  0
LINE
  8
0
 10
-283.379
 11
-282.5
 20
-122.5
 21
-123.379
  0
LINE
  8
0
 10
-282.5
 11
-282.5
 20
-123.379
 21
-124.621
  0
LINE
  8
0
 10
-282.5
 11
-283.379
 20
-124.621
 21
-125.5
  0
LINE
  8
0
 10
-283.379
 11
-284.621
 20
-125.5
 21
-125.5
  0
LINE
  8
0
 10
-284.621
 11
-285.5
 20
-125.5
 21
-124.621
  0
LINE
  8
0
 10
-285.5
 11
-285.5
 20
-31.621
 21
-30.379
  0
LINE
  8
0
 10
-285.5
 11
-284.621
 20
-30.379
 21
-29.5
  0
LINE
  8
0
 10
-284.621
 11
-283.379
 20
-29.5
 21
-29.5
  0
LINE
  8
0
 10
-283.379
 11
-282.5
 20
-29.5
 21
-30.379
  0
LINE
  8
0
 10
-282.5
 11
-282.5
 20
-30.379
 21
-31.621
  0
LINE
  8
0
 10
-282.5
 11
-283.379
 20
-31.621
 21
-32.5
  0
LINE
  8
0
 10
-283.379
 11
-284.621
 20
-32.5
 21
-32.5
  0
LINE
  8
0
 10
-284.621
 11
-285.5
 20
-32.5
 21
-31.621
  0
LINE
  8
0
 10
-279.5
 11
-279.5
 20
-154.621
 21
-153.379
  0
LINE
  8
0
 10
-279.5
 11
-278.621
 20
-153.379
 21
-152.5
  0
LINE
  8
0
 10
-278.621
 11
-276.379
 20
-152.5
 21
-152.5
  0
LINE
  8
0
 10
-276.379
 11
-275.5
 20
-152.5
 21
-153.379
  0
LINE
  8
0
 10
-275.5
 11
-275.5
 20
-153.379
 21
-154.621
  0
LINE
  8
0
 10
-275.5
 11
-276.379
 20
-154.621
 21
-155.5
  0
LINE
  8
0
 10
-276.379
 11
-278.621
 20
-155.5
 21
-155.5
  0
LINE
  8
0
 10
-278.621
 11
-279.5
 20
-155.5
 21
-154.621
  0
LINE
  8
0
 10
-279.5
 11
-279.5
 20
-59.621
 21
-58.379
  0
LINE
  8
0
 10
-279.5
 11
-278.621
 20
-58.379
 21
-57.5
  0
LINE
  8
0
 10
-278.621
 11
-277.621
 20
-57.5
 21
-56.5
  0
LINE
  8
0
 10
-277.621
 11
-276.379
 20
-56.5
 21
-56.5
  0
LINE
  8
0
 10
-276.379
 11
-275.5
 20
-56.5
 21
-57.379
  0
LINE
  8
0
 10
-275.5
 11
-275.5
 20
-57.379
 21
-58.621
  0
LINE
  8
0
 10
-275.5
 11
-276.379
 20
-58.621
 21
-59.5
  0
LINE
  8
0
 10
-276.379
 11
-277.379
 20
-59.5
 21
-60.5
  0
LINE
  8
0
 10
-277.379
 11
-278.621
 20
-60.5
 21
-60.5
  0
LINE
  8
0
 10
-278.621
 11
-279.5
 20
-60.5
 21
-59.621
  0
LINE
  8
0
 10
-273
 11
-273
 20
-219.025
 21
-212.975
  0
LINE
  8
0
 10
-273
 11
-264
 20
-212.975
 21
-212.975
  0
LINE
  8
0
 10
-264
 11
-264
 20
-212.975
 21
-219.025
  0
LINE
  8
0
 10
-264
 11
-273
 20
-219.025
 21
-219.025
  0
LINE
  8
0
 10
-269.5
 11
-269.5
 20
-112.328
 21
-110.672
  0
LINE
  8
0
 10
-269.5
 11
-268.328
 20
-110.672
 21
-109.5
  0
LINE
  8
0
 10
-268.328
 11
-261.672
 20
-109.5
 21
-109.5
  0
LINE
  8
0
 10
-261.672
 11
-260.5
 20
-109.5
 21
-110.672
  0
LINE
  8
0
 10
-260.5
 11
-260.5
 20
-110.672
 21
-112.328
  0
LINE
  8
0
 10
-260.5
 11
-261.672
 20
-112.328
 21
-113.5
  0
LINE
  8
0
 10
-261.672
 11
-268.328
 20
-113.5
 21
-113.5
  0
LINE
  8
0
 10
-268.328
 11
-269.5
 20
-113.5
 21
-112.328
  0
LINE
  8
0
 10
-269.5
 11
-269.5
 20
37.672
 21
39.328
  0
LINE
  8
0
 10
-269.5
 11
-268.328
 20
39.328
 21
40.5
  0
LINE
  8
0
 10
-268.328
 11
-261.672
 20
40.5
 21
40.5
  0
LINE
  8
0
 10
-261.672
 11
-260.5
 20
40.5
 21
39.328
  0
LINE
  8
0
 10
-260.5
 11
-260.5
 20
39.328
 21
37.672
  0
LINE
  8
0
 10
-260.5
 11
-261.672
 20
37.672
 21
36.5
  0
LINE
  8
0
 10
-261.672
 11
-268.328
 20
36.5
 21
36.5
  0
LINE
  8
0
 10
-268.328
 11
-269.5
 20
36.5
 21
37.672
  0
LINE
  8
0
 10
-267.8
 11
-267.8
 20
173
 21
179
  0
LINE
  8
0
 10
-267.8
 11
-227.8
 20
179
 21
219
  0
LINE
  8
0
 10
-227.8
 11
-221.8
 20
219
 21
219
  0
LINE
  8
0
 10
-221.8
 11
-221.8
 20
219
 21
211.75
  0
LINE
  8
0
 10
-221.8
 11
-215.775
 20
211.75
 21
211.75
  0
LINE
  8
0
 10
-215.775
 11
-215.775
 20
211.75
 21
202.75
  0
LINE
  8
0
 10
-215.775
 11
-221.8
 20
202.75
 21
202.75
  0
LINE
  8
0
 10
-221.8
 11
-221.8
 20
202.75
 21
197.5
  0
LINE
  8
0
 10
-221.8
 11
-225.7
 20
197.5
 21
197.5
  0
LINE
  8
0
 10
-225.7
 11
-225.7
 20
197.5
 21
198.75
  0
LINE
  8
0
 10
-225.7
 11
-228.2
 20
198.75
 21
198.75
  0
LINE
  8
0
 10
-228.2
 11
-228.2
 20
198.75
 21
197.5
  0
LINE
  8
0
 10
-228.2
 11
-229.65
 20
197.5
 21
197.5
  0
LINE
  8
0
 10
-229.65
 11
-229.65
 20
197.5
 21
194.5
  0
LINE
  8
0
 10
-229.65
 11
-228.2
 20
194.5
 21
194.5
  0
LINE
  8
0
 10
-228.2
 11
-228.2
 20
194.5
 21
193.25
  0
LINE
  8
0
 10
-228.2
 11
-225.7
 20
193.25
 21
193.25
  0
LINE
  8
0
 10
-225.7
 11
-225.7
 20
193.25
 21
194.5
  0
LINE
  8
0
 10
-225.7
 11
-221.8
 20
194.5
 21
194.5
  0
LINE
  8
0
 10
-221.8
 11
-221.8
 20
194.5
 21
189.25
  0
LINE
  8
0
 10
-221.8
 11
-215.775
 20
189.25
 21
189.25
  0
LINE
  8
0
 10
-215.775
 11
-215.775
 20
189.25
 21
180.25
  0
LINE
  8
0
 10
-215.775
 11
-221.8
 20
180.25
 21
180.25
  0
LINE
  8
0
 10
-221.8
 11
-221.8
 20
180.25
 21
173
  0
LINE
  8
0
 10
-221.8
 11
-229.05
 20
173
 21
173
  0
LINE
  8
0
 10
-229.05
 11
-229.05
 20
173
 21
166.975
  0
LINE
  8
0
 10
-229.05
 11
-238.05
 20
166.975
 21
166.975
  0
LINE
  8
0
 10
-238.05
 11
-238.05
 20
166.975
 21
173
  0
LINE
  8
0
 10
-238.05
 11
-243.3
 20
173
 21
173
  0
LINE
  8
0
 10
-243.3
 11
-243.3
 20
173
 21
176.9
  0
LINE
  8
0
 10
-243.3
 11
-242.05
 20
176.9
 21
176.9
  0
LINE
  8
0
 10
-242.05
 11
-242.05
 20
176.9
 21
179.4
  0
LINE
  8
0
 10
-242.05
 11
-243.3
 20
179.4
 21
179.4
  0
LINE
  8
0
 10
-243.3
 11
-243.3
 20
179.4
 21
180.85
  0
LINE
  8
0
 10
-243.3
 11
-246.3
 20
180.85
 21
180.85
  0
LINE
  8
0
 10
-246.3
 11
-246.3
 20
180.85
 21
179.4
  0
LINE
  8
0
 10
-246.3
 11
-247.55
 20
179.4
 21
179.4
  0
LINE
  8
0
 10
-247.55
 11
-247.55
 20
179.4
 21
176.9
  0
LINE
  8
0
 10
-247.55
 11
-246.3
 20
176.9
 21
176.9
  0
LINE
  8
0
 10
-246.3
 11
-246.3
 20
176.9
 21
173
  0
LINE
  8
0
 10
-246.3
 11
-251.55
 20
173
 21
173
  0
LINE
  8
0
 10
-251.55
 11
-251.55
 20
173
 21
166.975
  0
LINE
  8
0
 10
-251.55
 11
-260.55
 20
166.975
 21
166.975
  0
LINE
  8
0
 10
-260.55
 11
-260.55
 20
166.975
 21
173
  0
LINE
  8
0
 10
-260.55
 11
-267.8
 20
173
 21
173
  0
LINE
  8
0
 10
-259.125
 11
-259.125
 20
-221.625
 21
-219.875
  0
LINE
  8
0
 10
-259.125
 11
-255.375
 20
-219.875
 21
-219.875
  0
LINE
  8
0
 10
-255.375
 11
-255.375
 20
-219.875
 21
-221.625
  0
LINE
  8
0
 10
-255.375
 11
-259.125
 20
-221.625
 21
-221.625
  0
LINE
  8
0
 10
-259.125
 11
-259.125
 20
-212.125
 21
-210.375
  0
LINE
  8
0
 10
-259.125
 11
-255.375
 20
-210.375
 21
-210.375
  0
LINE
  8
0
 10
-255.375
 11
-255.375
 20
-210.375
 21
-212.125
  0
LINE
  8
0
 10
-255.375
 11
-259.125
 20
-212.125
 21
-212.125
  0
LINE
  8
0
 10
-250.5
 11
-250.5
 20
-219.025
 21
-212.975
  0
LINE
  8
0
 10
-250.5
 11
-241.5
 20
-212.975
 21
-212.975
  0
LINE
  8
0
 10
-241.5
 11
-241.5
 20
-212.975
 21
-219.025
  0
LINE
  8
0
 10
-241.5
 11
-250.5
 20
-219.025
 21
-219.025
  0
LINE
  8
0
 10
-243.3
 11
-243.3
 20
-149.381
 21
-148.139
  0
LINE
  8
0
 10
-243.3
 11
-242.421
 20
-148.139
 21
-147.26
  0
LINE
  8
0
 10
-242.421
 11
-241.179
 20
-147.26
 21
-147.26
  0
LINE
  8
0
 10
-241.179
 11
-240.3
 20
-147.26
 21
-148.139
  0
LINE
  8
0
 10
-240.3
 11
-240.3
 20
-148.139
 21
-149.381
  0
LINE
  8
0
 10
-240.3
 11
-241.179
 20
-149.381
 21
-150.26
  0
LINE
  8
0
 10
-241.179
 11
-242.421
 20
-150.26
 21
-150.26
  0
LINE
  8
0
 10
-242.421
 11
-243.3
 20
-150.26
 21
-149.381
  0
LINE
  8
0
 10
-243.3
 11
-243.3
 20
-74.451
 21
-73.209
  0
LINE
  8
0
 10
-243.3
 11
-242.421
 20
-73.209
 21
-72.33
  0
LINE
  8
0
 10
-242.421
 11
-241.179
 20
-72.33
 21
-72.33
  0
LINE
  8
0
 10
-241.179
 11
-240.3
 20
-72.33
 21
-73.209
  0
LINE
  8
0
 10
-240.3
 11
-240.3
 20
-73.209
 21
-74.451
  0
LINE
  8
0
 10
-240.3
 11
-241.179
 20
-74.451
 21
-75.33
  0
LINE
  8
0
 10
-241.179
 11
-242.421
 20
-75.33
 21
-75.33
  0
LINE
  8
0
 10
-242.421
 11
-243.3
 20
-75.33
 21
-74.451
  0
LINE
  8
0
 10
-242.5
 11
-242.5
 20
-157.621
 21
-156.379
  0
LINE
  8
0
 10
-242.5
 11
-241.621
 20
-156.379
 21
-155.5
  0
LINE
  8
0
 10
-241.621
 11
-240.379
 20
-155.5
 21
-155.5
  0
LINE
  8
0
 10
-240.379
 11
-239.5
 20
-155.5
 21
-156.379
  0
LINE
  8
0
 10
-239.5
 11
-239.5
 20
-156.379
 21
-157.621
  0
LINE
  8
0
 10
-239.5
 11
-240.379
 20
-157.621
 21
-158.5
  0
LINE
  8
0
 10
-240.379
 11
-241.621
 20
-158.5
 21
-158.5
  0
LINE
  8
0
 10
-241.621
 11
-242.5
 20
-158.5
 21
-157.621
  0
LINE
  8
0
 10
-242.5
 11
-242.5
 20
-124.621
 21
-123.379
  0
LINE
  8
0
 10
-242.5
 11
-241.621
 20
-123.379
 21
-122.5
  0
LINE
  8
0
 10
-241.621
 11
-240.379
 20
-122.5
 21
-122.5
  0
LINE
  8
0
 10
-240.379
 11
-239.5
 20
-122.5
 21
-123.379
  0
LINE
  8
0
 10
-239.5
 11
-239.5
 20
-123.379
 21
-124.621
  0
LINE
  8
0
 10
-239.5
 11
-240.379
 20
-124.621
 21
-125.5
  0
LINE
  8
0
 10
-240.379
 11
-241.621
 20
-125.5
 21
-125.5
  0
LINE
  8
0
 10
-241.621
 11
-242.5
 20
-125.5
 21
-124.621
  0
LINE
  8
0
 10
-242.5
 11
-242.5
 20
-64.621
 21
-63.379
  0
LINE
  8
0
 10
-242.5
 11
-241.621
 20
-63.379
 21
-62.5
  0
LINE
  8
0
 10
-241.621
 11
-240.379
 20
-62.5
 21
-62.5
  0
LINE
  8
0
 10
-240.379
 11
-239.5
 20
-62.5
 21
-63.379
  0
LINE
  8
0
 10
-239.5
 11
-239.5
 20
-63.379
 21
-64.621
  0
LINE
  8
0
 10
-239.5
 11
-240.379
 20
-64.621
 21
-65.5
  0
LINE
  8
0
 10
-240.379
 11
-241.621
 20
-65.5
 21
-65.5
  0
LINE
  8
0
 10
-241.621
 11
-242.5
 20
-65.5
 21
-64.621
  0
LINE
  8
0
 10
-242.5
 11
-242.5
 20
-31.621
 21
-30.379
  0
LINE
  8
0
 10
-242.5
 11
-241.621
 20
-30.379
 21
-29.5
  0
LINE
  8
0
 10
-241.621
 11
-240.379
 20
-29.5
 21
-29.5
  0
LINE
  8
0
 10
-240.379
 11
-239.5
 20
-29.5
 21
-30.379
  0
LINE
  8
0
 10
-239.5
 11
-239.5
 20
-30.379
 21
-31.621
  0
LINE
  8
0
 10
-239.5
 11
-240.379
 20
-31.621
 21
-32.5
  0
LINE
  8
0
 10
-240.379
 11
-241.621
 20
-32.5
 21
-32.5
  0
LINE
  8
0
 10
-241.621
 11
-242.5
 20
-32.5
 21
-31.621
  0
LINE
  8
0
 10
-238.04
 11
-238.04
 20
-117.651
 21
-116.409
  0
LINE
  8
0
 10
-238.04
 11
-237.161
 20
-116.409
 21
-115.53
  0
LINE
  8
0
 10
-237.161
 11
-235.919
 20
-115.53
 21
-115.53
  0
LINE
  8
0
 10
-235.919
 11
-235.04
 20
-115.53
 21
-116.409
  0
LINE
  8
0
 10
-235.04
 11
-235.04
 20
-116.409
 21
-117.651
  0
LINE
  8
0
 10
-235.04
 11
-235.919
 20
-117.651
 21
-118.53
  0
LINE
  8
0
 10
-235.919
 11
-237.161
 20
-118.53
 21
-118.53
  0
LINE
  8
0
 10
-237.161
 11
-238.04
 20
-118.53
 21
-117.651
  0
LINE
  8
0
 10
-238.04
 11
-238.04
 20
-35.101
 21
-33.859
  0
LINE
  8
0
 10
-238.04
 11
-237.161
 20
-33.859
 21
-32.98
  0
LINE
  8
0
 10
-237.161
 11
-235.919
 20
-32.98
 21
-32.98
  0
LINE
  8
0
 10
-235.919
 11
-235.04
 20
-32.98
 21
-33.859
  0
LINE
  8
0
 10
-235.04
 11
-235.04
 20
-33.859
 21
-35.101
  0
LINE
  8
0
 10
-235.04
 11
-235.919
 20
-35.101
 21
-35.98
  0
LINE
  8
0
 10
-235.919
 11
-237.161
 20
-35.98
 21
-35.98
  0
LINE
  8
0
 10
-237.161
 11
-238.04
 20
-35.98
 21
-35.101
  0
LINE
  8
0
 10
-234
 11
-234
 20
-202.657
 21
-199.343
  0
LINE
  8
0
 10
-234
 11
-231.657
 20
-199.343
 21
-197
  0
LINE
  8
0
 10
-231.657
 11
-220.343
 20
-197
 21
-197
  0
LINE
  8
0
 10
-220.343
 11
-218
 20
-197
 21
-199.343
  0
LINE
  8
0
 10
-218
 11
-218
 20
-199.343
 21
-202.657
  0
LINE
  8
0
 10
-218
 11
-220.343
 20
-202.657
 21
-205
  0
LINE
  8
0
 10
-220.343
 11
-231.657
 20
-205
 21
-205
  0
LINE
  8
0
 10
-231.657
 11
-234
 20
-205
 21
-202.657
  0
LINE
  8
0
 10
-219.5
 11
-219.5
 20
-112.328
 21
-110.672
  0
LINE
  8
0
 10
-219.5
 11
-218.328
 20
-110.672
 21
-109.5
  0
LINE
  8
0
 10
-218.328
 11
-211.672
 20
-109.5
 21
-109.5
  0
LINE
  8
0
 10
-211.672
 11
-210.5
 20
-109.5
 21
-110.672
  0
LINE
  8
0
 10
-210.5
 11
-210.5
 20
-110.672
 21
-112.328
  0
LINE
  8
0
 10
-210.5
 11
-211.672
 20
-112.328
 21
-113.5
  0
LINE
  8
0
 10
-211.672
 11
-218.328
 20
-113.5
 21
-113.5
  0
LINE
  8
0
 10
-218.328
 11
-219.5
 20
-113.5
 21
-112.328
  0
LINE
  8
0
 10
-219.5
 11
-219.5
 20
37.672
 21
39.328
  0
LINE
  8
0
 10
-219.5
 11
-218.328
 20
39.328
 21
40.5
  0
LINE
  8
0
 10
-218.328
 11
-211.672
 20
40.5
 21
40.5
  0
LINE
  8
0
 10
-211.672
 11
-210.5
 20
40.5
 21
39.328
  0
LINE
  8
0
 10
-210.5
 11
-210.5
 20
39.328
 21
37.672
  0
LINE
  8
0
 10
-210.5
 11
-211.672
 20
37.672
 21
36.5
  0
LINE
  8
0
 10
-211.672
 11
-218.328
 20
36.5
 21
36.5
  0
LINE
  8
0
 10
-218.328
 11
-219.5
 20
36.5
 21
37.672
  0
LINE
  8
0
 10
-212.525
 11
-212.525
 20
187.75
 21
196.75
  0
LINE
  8
0
 10
-212.525
 11
-206.5
 20
196.75
 21
196.75
  0
LINE
  8
0
 10
-206.5
 11
-206.5
 20
196.75
 21
202
  0
LINE
  8
0
 10
-206.5
 11
-202.6
 20
202
 21
202
  0
LINE
  8
0
 10
-202.6
 11
-202.6
 20
202
 21
200.75
  0
LINE
  8
0
 10
-202.6
 11
-200.1
 20
200.75
 21
200.75
  0
LINE
  8
0
 10
-200.1
 11
-200.1
 20
200.75
 21
202
  0
LINE
  8
0
 10
-200.1
 11
-198.65
 20
202
 21
202
  0
LINE
  8
0
 10
-198.65
 11
-198.65
 20
202
 21
205
  0
LINE
  8
0
 10
-198.65
 11
-200.1
 20
205
 21
205
  0
LINE
  8
0
 10
-200.1
 11
-200.1
 20
205
 21
206.25
  0
LINE
  8
0
 10
-200.1
 11
-202.6
 20
206.25
 21
206.25
  0
LINE
  8
0
 10
-202.6
 11
-202.6
 20
206.25
 21
205
  0
LINE
  8
0
 10
-202.6
 11
-206.5
 20
205
 21
205
  0
LINE
  8
0
 10
-206.5
 11
-206.5
 20
205
 21
210.25
  0
LINE
  8
0
 10
-206.5
 11
-212.525
 20
210.25
 21
210.25
  0
LINE
  8
0
 10
-212.525
 11
-212.525
 20
210.25
 21
219.25
  0
LINE
  8
0
 10
-212.525
 11
-206.5
 20
219.25
 21
219.25
  0
LINE
  8
0
 10
-206.5
 11
-206.5
 20
219.25
 21
225
  0
LINE
  8
0
 10
-206.5
 11
-163.5
 20
225
 21
225
  0
LINE
  8
0
 10
-163.5
 11
-163.5
 20
225
 21
182
  0
LINE
  8
0
 10
-163.5
 11
-169.25
 20
182
 21
182
  0
LINE
  8
0
 10
-169.25
 11
-169.25
 20
182
 21
175.975
  0
LINE
  8
0
 10
-169.25
 11
-178.25
 20
175.975
 21
175.975
  0
LINE
  8
0
 10
-178.25
 11
-178.25
 20
175.975
 21
182
  0
LINE
  8
0
 10
-178.25
 11
-183.5
 20
182
 21
182
  0
LINE
  8
0
 10
-183.5
 11
-183.5
 20
182
 21
185.9
  0
LINE
  8
0
 10
-183.5
 11
-182.25
 20
185.9
 21
185.9
  0
LINE
  8
0
 10
-182.25
 11
-182.25
 20
185.9
 21
188.4
  0
LINE
  8
0
 10
-182.25
 11
-183.5
 20
188.4
 21
188.4
  0
LINE
  8
0
 10
-183.5
 11
-183.5
 20
188.4
 21
189.85
  0
LINE
  8
0
 10
-183.5
 11
-186.5
 20
189.85
 21
189.85
  0
LINE
  8
0
 10
-186.5
 11
-186.5
 20
189.85
 21
188.4
  0
LINE
  8
0
 10
-186.5
 11
-187.75
 20
188.4
 21
188.4
  0
LINE
  8
0
 10
-187.75
 11
-187.75
 20
188.4
 21
185.9
  0
LINE
  8
0
 10
-187.75
 11
-186.5
 20
185.9
 21
185.9
  0
LINE
  8
0
 10
-186.5
 11
-186.5
 20
185.9
 21
182
  0
LINE
  8
0
 10
-186.5
 11
-191.75
 20
182
 21
182
  0
LINE
  8
0
 10
-191.75
 11
-191.75
 20
182
 21
175.975
  0
LINE
  8
0
 10
-191.75
 11
-200.75
 20
175.975
 21
175.975
  0
LINE
  8
0
 10
-200.75
 11
-200.75
 20
175.975
 21
182
  0
LINE
  8
0
 10
-200.75
 11
-206.5
 20
182
 21
182
  0
LINE
  8
0
 10
-206.5
 11
-206.5
 20
182
 21
187.75
  0
LINE
  8
0
 10
-206.5
 11
-212.525
 20
187.75
 21
187.75
  0
LINE
  8
0
 10
-202.077
 11
-201.776
 20
188
 21
188.927
  0
LINE
  8
0
 10
-201.776
 11
-200.987
 20
188.927
 21
189.5
  0
LINE
  8
0
 10
-200.987
 11
-200.013
 20
189.5
 21
189.5
  0
LINE
  8
0
 10
-200.013
 11
-199.224
 20
189.5
 21
188.927
  0
LINE
  8
0
 10
-199.224
 11
-198.923
 20
188.927
 21
188
  0
LINE
  8
0
 10
-198.923
 11
-199.224
 20
188
 21
187.073
  0
LINE
  8
0
 10
-199.224
 11
-200.013
 20
187.073
 21
186.5
  0
LINE
  8
0
 10
-200.013
 11
-200.987
 20
186.5
 21
186.5
  0
LINE
  8
0
 10
-200.987
 11
-201.776
 20
186.5
 21
187.073
  0
LINE
  8
0
 10
-201.776
 11
-202.077
 20
187.073
 21
188
  0
LINE
  8
0
 10
-202.077
 11
-201.776
 20
219
 21
219.927
  0
LINE
  8
0
 10
-201.776
 11
-200.987
 20
219.927
 21
220.5
  0
LINE
  8
0
 10
-200.987
 11
-200.013
 20
220.5
 21
220.5
  0
LINE
  8
0
 10
-200.013
 11
-199.224
 20
220.5
 21
219.927
  0
LINE
  8
0
 10
-199.224
 11
-198.923
 20
219.927
 21
219
  0
LINE
  8
0
 10
-198.923
 11
-199.224
 20
219
 21
218.073
  0
LINE
  8
0
 10
-199.224
 11
-200.013
 20
218.073
 21
217.5
  0
LINE
  8
0
 10
-200.013
 11
-200.987
 20
217.5
 21
217.5
  0
LINE
  8
0
 10
-200.987
 11
-201.776
 20
217.5
 21
218.073
  0
LINE
  8
0
 10
-201.776
 11
-202.077
 20
218.073
 21
219
  0
LINE
  8
0
 10
-199.5
 11
-199.5
 20
-157.621
 21
-156.379
  0
LINE
  8
0
 10
-199.5
 11
-198.621
 20
-156.379
 21
-155.5
  0
LINE
  8
0
 10
-198.621
 11
-197.379
 20
-155.5
 21
-155.5
  0
LINE
  8
0
 10
-197.379
 11
-196.5
 20
-155.5
 21
-156.379
  0
LINE
  8
0
 10
-196.5
 11
-196.5
 20
-156.379
 21
-157.621
  0
LINE
  8
0
 10
-196.5
 11
-197.379
 20
-157.621
 21
-158.5
  0
LINE
  8
0
 10
-197.379
 11
-198.621
 20
-158.5
 21
-158.5
  0
LINE
  8
0
 10
-198.621
 11
-199.5
 20
-158.5
 21
-157.621
  0
LINE
  8
0
 10
-199.5
 11
-199.5
 20
-64.621
 21
-63.379
  0
LINE
  8
0
 10
-199.5
 11
-198.621
 20
-63.379
 21
-62.5
  0
LINE
  8
0
 10
-198.621
 11
-197.379
 20
-62.5
 21
-62.5
  0
LINE
  8
0
 10
-197.379
 11
-196.5
 20
-62.5
 21
-63.379
  0
LINE
  8
0
 10
-196.5
 11
-196.5
 20
-63.379
 21
-64.621
  0
LINE
  8
0
 10
-196.5
 11
-197.379
 20
-64.621
 21
-65.5
  0
LINE
  8
0
 10
-197.379
 11
-198.621
 20
-65.5
 21
-65.5
  0
LINE
  8
0
 10
-198.621
 11
-199.5
 20
-65.5
 21
-64.621
  0
LINE
  8
0
 10
-196.266
 11
-195.409
 20
203.5
 21
207.811
  0
LINE
  8
0
 10
-195.409
 11
-192.967
 20
207.811
 21
211.467
  0
LINE
  8
0
 10
-192.967
 11
-189.311
 20
211.467
 21
213.909
  0
LINE
  8
0
 10
-189.311
 11
-185
 20
213.909
 21
214.766
  0
LINE
  8
0
 10
-185
 11
-180.689
 20
214.766
 21
213.909
  0
LINE
  8
0
 10
-180.689
 11
-177.033
 20
213.909
 21
211.467
  0
LINE
  8
0
 10
-177.033
 11
-174.591
 20
211.467
 21
207.811
  0
LINE
  8
0
 10
-174.591
 11
-173.734
 20
207.811
 21
203.5
  0
LINE
  8
0
 10
-173.734
 11
-174.591
 20
203.5
 21
199.189
  0
LINE
  8
0
 10
-174.591
 11
-177.033
 20
199.189
 21
195.533
  0
LINE
  8
0
 10
-177.033
 11
-180.689
 20
195.533
 21
193.091
  0
LINE
  8
0
 10
-180.689
 11
-185
 20
193.091
 21
192.234
  0
LINE
  8
0
 10
-185
 11
-189.311
 20
192.234
 21
193.091
  0
LINE
  8
0
 10
-189.311
 11
-192.967
 20
193.091
 21
195.533
  0
LINE
  8
0
 10
-192.967
 11
-195.409
 20
195.533
 21
199.189
  0
LINE
  8
0
 10
-195.409
 11
-196.266
 20
199.189
 21
203.5
  0
LINE
  8
0
 10
-195.04
 11
-195.04
 20
-150.651
 21
-149.409
  0
LINE
  8
0
 10
-195.04
 11
-194.161
 20
-149.409
 21
-148.53
  0
LINE
  8
0
 10
-194.161
 11
-192.919
 20
-148.53
 21
-148.53
  0
LINE
  8
0
 10
-192.919
 11
-192.04
 20
-148.53
 21
-149.409
  0
LINE
  8
0
 10
-192.04
 11
-192.04
 20
-149.409
 21
-150.651
  0
LINE
  8
0
 10
-192.04
 11
-192.919
 20
-150.651
 21
-151.53
  0
LINE
  8
0
 10
-192.919
 11
-194.161
 20
-151.53
 21
-151.53
  0
LINE
  8
0
 10
-194.161
 11
-195.04
 20
-151.53
 21
-150.651
  0
LINE
  8
0
 10
-195.04
 11
-195.04
 20
-68.101
 21
-66.859
  0
LINE
  8
0
 10
-195.04
 11
-194.161
 20
-66.859
 21
-65.98
  0
LINE
  8
0
 10
-194.161
 11
-192.919
 20
-65.98
 21
-65.98
  0
LINE
  8
0
 10
-192.919
 11
-192.04
 20
-65.98
 21
-66.859
  0
LINE
  8
0
 10
-192.04
 11
-192.04
 20
-66.859
 21
-68.101
  0
LINE
  8
0
 10
-192.04
 11
-192.919
 20
-68.101
 21
-68.98
  0
LINE
  8
0
 10
-192.919
 11
-194.161
 20
-68.98
 21
-68.98
  0
LINE
  8
0
 10
-194.161
 11
-195.04
 20
-68.98
 21
-68.101
  0
LINE
  8
0
 10
-194
 11
-194
 20
-202.657
 21
-199.343
  0
LINE
  8
0
 10
-194
 11
-191.657
 20
-199.343
 21
-197
  0
LINE
  8
0
 10
-191.657
 11
-180.343
 20
-197
 21
-197
  0
LINE
  8
0
 10
-180.343
 11
-178
 20
-197
 21
-199.343
  0
LINE
  8
0
 10
-178
 11
-178
 20
-199.343
 21
-202.657
  0
LINE
  8
0
 10
-178
 11
-180.343
 20
-202.657
 21
-205
  0
LINE
  8
0
 10
-180.343
 11
-191.657
 20
-205
 21
-205
  0
LINE
  8
0
 10
-191.657
 11
-194
 20
-205
 21
-202.657
  0
LINE
  8
0
 10
-183.5
 11
-183.5
 20
-154.621
 21
-153.379
  0
LINE
  8
0
 10
-183.5
 11
-182.621
 20
-153.379
 21
-152.5
  0
LINE
  8
0
 10
-182.621
 11
-181.379
 20
-152.5
 21
-152.5
  0
LINE
  8
0
 10
-181.379
 11
-180.5
 20
-152.5
 21
-153.379
  0
LINE
  8
0
 10
-180.5
 11
-180.5
 20
-153.379
 21
-154.621
  0
LINE
  8
0
 10
-180.5
 11
-181.379
 20
-154.621
 21
-155.5
  0
LINE
  8
0
 10
-181.379
 11
-182.621
 20
-155.5
 21
-155.5
  0
LINE
  8
0
 10
-182.621
 11
-183.5
 20
-155.5
 21
-154.621
  0
LINE
  8
0
 10
-183.5
 11
-183.5
 20
-59.621
 21
-57.379
  0
LINE
  8
0
 10
-183.5
 11
-182.621
 20
-57.379
 21
-56.5
  0
LINE
  8
0
 10
-182.621
 11
-181.379
 20
-56.5
 21
-56.5
  0
LINE
  8
0
 10
-181.379
 11
-180.5
 20
-56.5
 21
-57.379
  0
LINE
  8
0
 10
-180.5
 11
-180.5
 20
-57.379
 21
-59.621
  0
LINE
  8
0
 10
-180.5
 11
-181.379
 20
-59.621
 21
-60.5
  0
LINE
  8
0
 10
-181.379
 11
-182.621
 20
-60.5
 21
-60.5
  0
LINE
  8
0
 10
-182.621
 11
-183.5
 20
-60.5
 21
-59.621
  0
LINE
  8
0
 10
-181.375
 11
-181.375
 20
-129.125
 21
-125.375
  0
LINE
  8
0
 10
-181.375
 11
-179.625
 20
-125.375
 21
-125.375
  0
LINE
  8
0
 10
-179.625
 11
-179.625
 20
-125.375
 21
-129.125
  0
LINE
  8
0
 10
-179.625
 11
-181.375
 20
-129.125
 21
-129.125
  0
LINE
  8
0
 10
-181.375
 11
-181.375
 20
-25.875
 21
-22.125
  0
LINE
  8
0
 10
-181.375
 11
-179.625
 20
-22.125
 21
-22.125
  0
LINE
  8
0
 10
-179.625
 11
-179.625
 20
-22.125
 21
-25.875
  0
LINE
  8
0
 10
-179.625
 11
-181.375
 20
-25.875
 21
-25.875
  0
LINE
  8
0
 10
-181.375
 11
-181.375
 20
77.375
 21
81.125
  0
LINE
  8
0
 10
-181.375
 11
-179.625
 20
81.125
 21
81.125
  0
LINE
  8
0
 10
-179.625
 11
-179.625
 20
81.125
 21
77.375
  0
LINE
  8
0
 10
-179.625
 11
-181.375
 20
77.375
 21
77.375
  0
LINE
  8
0
 10
-171.077
 11
-170.776
 20
188
 21
188.927
  0
LINE
  8
0
 10
-170.776
 11
-169.987
 20
188.927
 21
189.5
  0
LINE
  8
0
 10
-169.987
 11
-169.013
 20
189.5
 21
189.5
  0
LINE
  8
0
 10
-169.013
 11
-168.224
 20
189.5
 21
188.927
  0
LINE
  8
0
 10
-168.224
 11
-167.923
 20
188.927
 21
188
  0
LINE
  8
0
 10
-167.923
 11
-168.224
 20
188
 21
187.073
  0
LINE
  8
0
 10
-168.224
 11
-169.013
 20
187.073
 21
186.5
  0
LINE
  8
0
 10
-169.013
 11
-169.987
 20
186.5
 21
186.5
  0
LINE
  8
0
 10
-169.987
 11
-170.776
 20
186.5
 21
187.073
  0
LINE
  8
0
 10
-170.776
 11
-171.077
 20
187.073
 21
188
  0
LINE
  8
0
 10
-171.077
 11
-170.776
 20
219
 21
219.927
  0
LINE
  8
0
 10
-170.776
 11
-169.987
 20
219.927
 21
220.5
  0
LINE
  8
0
 10
-169.987
 11
-169.013
 20
220.5
 21
220.5
  0
LINE
  8
0
 10
-169.013
 11
-168.224
 20
220.5
 21
219.927
  0
LINE
  8
0
 10
-168.224
 11
-167.923
 20
219.927
 21
219
  0
LINE
  8
0
 10
-167.923
 11
-168.224
 20
219
 21
218.073
  0
LINE
  8
0
 10
-168.224
 11
-169.013
 20
218.073
 21
217.5
  0
LINE
  8
0
 10
-169.013
 11
-169.987
 20
217.5
 21
217.5
  0
LINE
  8
0
 10
-169.987
 11
-170.776
 20
217.5
 21
218.073
  0
LINE
  8
0
 10
-170.776
 11
-171.077
 20
218.073
 21
219
  0
LINE
  8
0
 10
-164
 11
-164
 20
-158
 21
-123
  0
LINE
  8
0
 10
-164
 11
-160.686
 20
-123
 21
-123
  0
LINE
  8
0
 10
-160.686
 11
-156
 20
-123
 21
-118.314
  0
LINE
  8
0
 10
-156
 11
-156
 20
-118.314
 21
-111.686
  0
LINE
  8
0
 10
-156
 11
-160.686
 20
-111.686
 21
-107
  0
LINE
  8
0
 10
-160.686
 11
-164
 20
-107
 21
-107
  0
LINE
  8
0
 10
-164
 11
-164
 20
-107
 21
-99
  0
LINE
  8
0
 10
-164
 11
-160.197
 20
-99
 21
-99
  0
LINE
  8
0
 10
-160.197
 11
-160
 20
-99
 21
-99.019
  0
LINE
  8
0
 10
-160
 11
-159.216
 20
-99.019
 21
-98.942
  0
LINE
  8
0
 10
-159.216
 11
-158.462
 20
-98.942
 21
-98.713
  0
LINE
  8
0
 10
-158.462
 11
-157.767
 20
-98.713
 21
-98.342
  0
LINE
  8
0
 10
-157.767
 11
-157.158
 20
-98.342
 21
-97.842
  0
LINE
  8
0
 10
-157.158
 11
-156.658
 20
-97.842
 21
-97.233
  0
LINE
  8
0
 10
-156.658
 11
-156.287
 20
-97.233
 21
-96.538
  0
LINE
  8
0
 10
-156.287
 11
-156.058
 20
-96.538
 21
-95.784
  0
LINE
  8
0
 10
-156.058
 11
-155.981
 20
-95.784
 21
-95
  0
LINE
  8
0
 10
-155.981
 11
-156.058
 20
-95
 21
-94.216
  0
LINE
  8
0
 10
-156.058
 11
-156.287
 20
-94.216
 21
-93.462
  0
LINE
  8
0
 10
-156.287
 11
-156.658
 20
-93.462
 21
-92.767
  0
LINE
  8
0
 10
-156.658
 11
-157.158
 20
-92.767
 21
-92.158
  0
LINE
  8
0
 10
-157.158
 11
-157.767
 20
-92.158
 21
-91.658
  0
LINE
  8
0
 10
-157.767
 11
-158.462
 20
-91.658
 21
-91.287
  0
LINE
  8
0
 10
-158.462
 11
-159.216
 20
-91.287
 21
-91.058
  0
LINE
  8
0
 10
-159.216
 11
-160
 20
-91.058
 21
-90.981
  0
LINE
  8
0
 10
-160
 11
-160.197
 20
-90.981
 21
-91
  0
LINE
  8
0
 10
-160.197
 11
-164
 20
-91
 21
-91
  0
LINE
  8
0
 10
-164
 11
-164
 20
-91
 21
-29
  0
LINE
  8
0
 10
-164
 11
-161.515
 20
-29
 21
-29
  0
LINE
  8
0
 10
-161.515
 11
-158
 20
-29
 21
-25.485
  0
LINE
  8
0
 10
-158
 11
-158
 20
-25.485
 21
-4.515
  0
LINE
  8
0
 10
-158
 11
-161.515
 20
-4.515
 21
-1
  0
LINE
  8
0
 10
-161.515
 11
-164
 20
-1
 21
-1
  0
LINE
  8
0
 10
-164
 11
-164
 20
-1
 21
61
  0
LINE
  8
0
 10
-164
 11
-160.197
 20
61
 21
61
  0
LINE
  8
0
 10
-160.197
 11
-160
 20
61
 21
60.981
  0
LINE
  8
0
 10
-160
 11
-159.216
 20
60.981
 21
61.058
  0
LINE
  8
0
 10
-159.216
 11
-158.462
 20
61.058
 21
61.287
  0
LINE
  8
0
 10
-158.462
 11
-157.767
 20
61.287
 21
61.658
  0
LINE
  8
0
 10
-157.767
 11
-157.158
 20
61.658
 21
62.158
  0
LINE
  8
0
 10
-157.158
 11
-156.658
 20
62.158
 21
62.767
  0
LINE
  8
0
 10
-156.658
 11
-156.287
 20
62.767
 21
63.462
  0
LINE
  8
0
 10
-156.287
 11
-156.058
 20
63.462
 21
64.216
  0
LINE
  8
0
 10
-156.058
 11
-155.981
 20
64.216
 21
65
  0
LINE
  8
0
 10
-155.981
 11
-156.058
 20
65
 21
65.784
  0
LINE
  8
0
 10
-156.058
 11
-156.287
 20
65.784
 21
66.538
  0
LINE
  8
0
 10
-156.287
 11
-156.658
 20
66.538
 21
67.233
  0
LINE
  8
0
 10
-156.658
 11
-157.158
 20
67.233
 21
67.842
  0
LINE
  8
0
 10
-157.158
 11
-157.767
 20
67.842
 21
68.342
  0
LINE
  8
0
 10
-157.767
 11
-158.462
 20
68.342
 21
68.713
  0
LINE
  8
0
 10
-158.462
 11
-159.216
 20
68.713
 21
68.942
  0
LINE
  8
0
 10
-159.216
 11
-160
 20
68.942
 21
69.019
  0
LINE
  8
0
 10
-160
 11
-160.197
 20
69.019
 21
69
  0
LINE
  8
0
 10
-160.197
 11
-164
 20
69
 21
69
  0
LINE
  8
0
 10
-164
 11
-164
 20
69
 21
77
  0
LINE
  8
0
 10
-164
 11
-160.686
 20
77
 21
77
  0
LINE
  8
0
 10
-160.686
 11
-156
 20
77
 21
81.686
  0
LINE
  8
0
 10
-156
 11
-156
 20
81.686
 21
88.314
  0
LINE
  8
0
 10
-156
 11
-160.686
 20
88.314
 21
93
  0
LINE
  8
0
 10
-160.686
 11
-164
 20
93
 21
93
  0
LINE
  8
0
 10
-164
 11
-164
 20
93
 21
128
  0
LINE
  8
0
 10
-164
 11
-103
 20
128
 21
128
  0
LINE
  8
0
 10
-103
 11
-103
 20
128
 21
-158
  0
LINE
  8
0
 10
-103
 11
-164
 20
-158
 21
-158
  0
LINE
  8
0
 10
-159.525
 11
-159.525
 20
187.75
 21
196.75
  0
LINE
  8
0
 10
-159.525
 11
-153.5
 20
196.75
 21
196.75
  0
LINE
  8
0
 10
-153.5
 11
-153.5
 20
196.75
 21
202
  0
LINE
  8
0
 10
-153.5
 11
-149.6
 20
202
 21
202
  0
LINE
  8
0
 10
-149.6
 11
-149.6
 20
202
 21
200.75
  0
LINE
  8
0
 10
-149.6
 11
-147.1
 20
200.75
 21
200.75
  0
LINE
  8
0
 10
-147.1
 11
-147.1
 20
200.75
 21
202
  0
LINE
  8
0
 10
-147.1
 11
-145.65
 20
202
 21
202
  0
LINE
  8
0
 10
-145.65
 11
-145.65
 20
202
 21
205
  0
LINE
  8
0
 10
-145.65
 11
-147.1
 20
205
 21
205
  0
LINE
  8
0
 10
-147.1
 11
-147.1
 20
205
 21
206.25
  0
LINE
  8
0
 10
-147.1
 11
-149.6
 20
206.25
 21
206.25
  0
LINE
  8
0
 10
-149.6
 11
-149.6
 20
206.25
 21
205
  0
LINE
  8
0
 10
-149.6
 11
-153.5
 20
205
 21
205
  0
LINE
  8
0
 10
-153.5
 11
-153.5
 20
205
 21
210.25
  0
LINE
  8
0
 10
-153.5
 11
-159.525
 20
210.25
 21
210.25
  0
LINE
  8
0
 10
-159.525
 11
-159.525
 20
210.25
 21
219.25
  0
LINE
  8
0
 10
-159.525
 11
-153.5
 20
219.25
 21
219.25
  0
LINE
  8
0
 10
-153.5
 11
-153.5
 20
219.25
 21
224.699
  0
LINE
  8
0
 10
-153.5
 11
-110.5
 20
224.699
 21
204.648
  0
LINE
  8
0
 10
-110.5
 11
-110.5
 20
204.648
 21
182
  0
LINE
  8
0
 10
-110.5
 11
-116.25
 20
182
 21
182
  0
LINE
  8
0
 10
-116.25
 11
-116.25
 20
182
 21
175.975
  0
LINE
  8
0
 10
-116.25
 11
-125.25
 20
175.975
 21
175.975
  0
LINE
  8
0
 10
-125.25
 11
-125.25
 20
175.975
 21
182
  0
LINE
  8
0
 10
-125.25
 11
-130.5
 20
182
 21
182
  0
LINE
  8
0
 10
-130.5
 11
-130.5
 20
182
 21
185.9
  0
LINE
  8
0
 10
-130.5
 11
-129.25
 20
185.9
 21
185.9
  0
LINE
  8
0
 10
-129.25
 11
-129.25
 20
185.9
 21
188.4
  0
LINE
  8
0
 10
-129.25
 11
-130.5
 20
188.4
 21
188.4
  0
LINE
  8
0
 10
-130.5
 11
-130.5
 20
188.4
 21
189.85
  0
LINE
  8
0
 10
-130.5
 11
-133.5
 20
189.85
 21
189.85
  0
LINE
  8
0
 10
-133.5
 11
-133.5
 20
189.85
 21
188.4
  0
LINE
  8
0
 10
-133.5
 11
-134.75
 20
188.4
 21
188.4
  0
LINE
  8
0
 10
-134.75
 11
-134.75
 20
188.4
 21
185.9
  0
LINE
  8
0
 10
-134.75
 11
-133.5
 20
185.9
 21
185.9
  0
LINE
  8
0
 10
-133.5
 11
-133.5
 20
185.9
 21
182
  0
LINE
  8
0
 10
-133.5
 11
-138.75
 20
182
 21
182
  0
LINE
  8
0
 10
-138.75
 11
-138.75
 20
182
 21
175.975
  0
LINE
  8
0
 10
-138.75
 11
-147.75
 20
175.975
 21
175.975
  0
LINE
  8
0
 10
-147.75
 11
-147.75
 20
175.975
 21
182
  0
LINE
  8
0
 10
-147.75
 11
-153.5
 20
182
 21
182
  0
LINE
  8
0
 10
-153.5
 11
-153.5
 20
182
 21
187.75
  0
LINE
  8
0
 10
-153.5
 11
-159.525
 20
187.75
 21
187.75
  0
LINE
  8
0
 10
-159
 11
-159
 20
-104
 21
-102
  0
LINE
  8
0
 10
-159
 11
-156
 20
-102
 21
-102
  0
LINE
  8
0
 10
-156
 11
-156
 20
-102
 21
-104
  0
LINE
  8
0
 10
-156
 11
-159
 20
-104
 21
-104
  0
LINE
  8
0
 10
-159
 11
-159
 20
-88
 21
-86
  0
LINE
  8
0
 10
-159
 11
-156
 20
-86
 21
-86
  0
LINE
  8
0
 10
-156
 11
-156
 20
-86
 21
-88
  0
LINE
  8
0
 10
-156
 11
-159
 20
-88
 21
-88
  0
LINE
  8
0
 10
-159
 11
-159
 20
56
 21
58
  0
LINE
  8
0
 10
-159
 11
-156
 20
58
 21
58
  0
LINE
  8
0
 10
-156
 11
-156
 20
58
 21
56
  0
LINE
  8
0
 10
-156
 11
-159
 20
56
 21
56
  0
LINE
  8
0
 10
-159
 11
-159
 20
72
 21
74
  0
LINE
  8
0
 10
-159
 11
-156
 20
74
 21
74
  0
LINE
  8
0
 10
-156
 11
-156
 20
74
 21
72
  0
LINE
  8
0
 10
-156
 11
-159
 20
72
 21
72
  0
LINE
  8
0
 10
-155.25
 11
-155.25
 20
-152.025
 21
-145.975
  0
LINE
  8
0
 10
-155.25
 11
-146.25
 20
-145.975
 21
-145.975
  0
LINE
  8
0
 10
-146.25
 11
-146.25
 20
-145.975
 21
-152.025
  0
LINE
  8
0
 10
-146.25
 11
-155.25
 20
-152.025
 21
-152.025
  0
LINE
  8
0
 10
-155.25
 11
-155.25
 20
115.975
 21
122.025
  0
LINE
  8
0
 10
-155.25
 11
-146.25
 20
122.025
 21
122.025
  0
LINE
  8
0
 10
-146.25
 11
-146.25
 20
122.025
 21
115.975
  0
LINE
  8
0
 10
-146.25
 11
-155.25
 20
115.975
 21
115.975
  0
LINE
  8
0
 10
-152.25
 11
-152.25
 20
-25.025
 21
-18.975
  0
LINE
  8
0
 10
-152.25
 11
-143.25
 20
-18.975
 21
-18.975
  0
LINE
  8
0
 10
-143.25
 11
-143.25
 20
-18.975
 21
-25.025
  0
LINE
  8
0
 10
-143.25
 11
-152.25
 20
-25.025
 21
-25.025
  0
LINE
  8
0
 10
-152.25
 11
-152.25
 20
-11.025
 21
-4.975
  0
LINE
  8
0
 10
-152.25
 11
-143.25
 20
-4.975
 21
-4.975
  0
LINE
  8
0
 10
-143.25
 11
-143.25
 20
-4.975
 21
-11.025
  0
LINE
  8
0
 10
-143.25
 11
-152.25
 20
-11.025
 21
-11.025
  0
LINE
  8
0
 10
-152.124
 11
-151.648
 20
-95
 21
-93.852
  0
LINE
  8
0
 10
-151.648
 11
-150.5
 20
-93.852
 21
-93.376
  0
LINE
  8
0
 10
-150.5
 11
-149.352
 20
-93.376
 21
-93.852
  0
LINE
  8
0
 10
-149.352
 11
-148.876
 20
-93.852
 21
-95
  0
LINE
  8
0
 10
-148.876
 11
-149.352
 20
-95
 21
-96.148
  0
LINE
  8
0
 10
-149.352
 11
-150.5
 20
-96.148
 21
-96.624
  0
LINE
  8
0
 10
-150.5
 11
-151.648
 20
-96.624
 21
-96.148
  0
LINE
  8
0
 10
-151.648
 11
-152.124
 20
-96.148
 21
-95
  0
LINE
  8
0
 10
-152.124
 11
-151.648
 20
65
 21
66.148
  0
LINE
  8
0
 10
-151.648
 11
-150.5
 20
66.148
 21
66.624
  0
LINE
  8
0
 10
-150.5
 11
-149.352
 20
66.624
 21
66.148
  0
LINE
  8
0
 10
-149.352
 11
-148.876
 20
66.148
 21
65
  0
LINE
  8
0
 10
-148.876
 11
-149.352
 20
65
 21
63.852
  0
LINE
  8
0
 10
-149.352
 11
-150.5
 20
63.852
 21
63.376
  0
LINE
  8
0
 10
-150.5
 11
-151.648
 20
63.376
 21
63.852
  0
LINE
  8
0
 10
-151.648
 11
-152.124
 20
63.852
 21
65
  0
LINE
  8
0
 10
-141.375
 11
-141.375
 20
-154.625
 21
-152.875
  0
LINE
  8
0
 10
-141.375
 11
-137.625
 20
-152.875
 21
-152.875
  0
LINE
  8
0
 10
-137.625
 11
-137.625
 20
-152.875
 21
-154.625
  0
LINE
  8
0
 10
-137.625
 11
-141.375
 20
-154.625
 21
-154.625
  0
LINE
  8
0
 10
-141.375
 11
-141.375
 20
-145.125
 21
-143.375
  0
LINE
  8
0
 10
-141.375
 11
-137.625
 20
-143.375
 21
-143.375
  0
LINE
  8
0
 10
-137.625
 11
-137.625
 20
-143.375
 21
-145.125
  0
LINE
  8
0
 10
-137.625
 11
-141.375
 20
-145.125
 21
-145.125
  0
LINE
  8
0
 10
-141.375
 11
-141.375
 20
113.375
 21
115.125
  0
LINE
  8
0
 10
-141.375
 11
-137.625
 20
115.125
 21
115.125
  0
LINE
  8
0
 10
-137.625
 11
-137.625
 20
115.125
 21
113.375
  0
LINE
  8
0
 10
-137.625
 11
-141.375
 20
113.375
 21
113.375
  0
LINE
  8
0
 10
-141.375
 11
-141.375
 20
122.875
 21
124.625
  0
LINE
  8
0
 10
-141.375
 11
-137.625
 20
124.625
 21
124.625
  0
LINE
  8
0
 10
-137.625
 11
-137.625
 20
124.625
 21
122.875
  0
LINE
  8
0
 10
-137.625
 11
-141.375
 20
122.875
 21
122.875
  0
LINE
  8
0
 10
-139.75
 11
-139.75
 20
-219.025
 21
-212.975
  0
LINE
  8
0
 10
-139.75
 11
-130.75
 20
-212.975
 21
-212.975
  0
LINE
  8
0
 10
-130.75
 11
-130.75
 20
-212.975
 21
-219.025
  0
LINE
  8
0
 10
-130.75
 11
-139.75
 20
-219.025
 21
-219.025
  0
LINE
  8
0
 10
-138
 11
-137.561
 20
-22
 21
-20.939
  0
LINE
  8
0
 10
-137.561
 11
-136.5
 20
-20.939
 21
-20.5
  0
LINE
  8
0
 10
-136.5
 11
-135.439
 20
-20.5
 21
-20.939
  0
LINE
  8
0
 10
-135.439
 11
-135
 20
-20.939
 21
-22
  0
LINE
  8
0
 10
-135
 11
-135.439
 20
-22
 21
-23.061
  0
LINE
  8
0
 10
-135.439
 11
-136.5
 20
-23.061
 21
-23.5
  0
LINE
  8
0
 10
-136.5
 11
-137.561
 20
-23.5
 21
-23.061
  0
LINE
  8
0
 10
-137.561
 11
-138
 20
-23.061
 21
-22
  0
LINE
  8
0
 10
-138
 11
-137.561
 20
-8
 21
-6.939
  0
LINE
  8
0
 10
-137.561
 11
-136.5
 20
-6.939
 21
-6.5
  0
LINE
  8
0
 10
-136.5
 11
-135.439
 20
-6.5
 21
-6.939
  0
LINE
  8
0
 10
-135.439
 11
-135
 20
-6.939
 21
-8
  0
LINE
  8
0
 10
-135
 11
-135.439
 20
-8
 21
-9.061
  0
LINE
  8
0
 10
-135.439
 11
-136.5
 20
-9.061
 21
-9.5
  0
LINE
  8
0
 10
-136.5
 11
-137.561
 20
-9.5
 21
-9.061
  0
LINE
  8
0
 10
-137.561
 11
-138
 20
-9.061
 21
-8
  0
LINE
  8
0
 10
-133.577
 11
-133.276
 20
203.5
 21
204.427
  0
LINE
  8
0
 10
-133.276
 11
-132.487
 20
204.427
 21
205
  0
LINE
  8
0
 10
-132.487
 11
-131.513
 20
205
 21
205
  0
LINE
  8
0
 10
-131.513
 11
-130.724
 20
205
 21
204.427
  0
LINE
  8
0
 10
-130.724
 11
-130.423
 20
204.427
 21
203.5
  0
LINE
  8
0
 10
-130.423
 11
-130.724
 20
203.5
 21
202.573
  0
LINE
  8
0
 10
-130.724
 11
-131.513
 20
202.573
 21
202
  0
LINE
  8
0
 10
-131.513
 11
-132.487
 20
202
 21
202
  0
LINE
  8
0
 10
-132.487
 11
-133.276
 20
202
 21
202.573
  0
LINE
  8
0
 10
-133.276
 11
-133.577
 20
202.573
 21
203.5
  0
LINE
  8
0
 10
-132.75
 11
-132.75
 20
-152.025
 21
-145.975
  0
LINE
  8
0
 10
-132.75
 11
-123.75
 20
-145.975
 21
-145.975
  0
LINE
  8
0
 10
-123.75
 11
-123.75
 20
-145.975
 21
-152.025
  0
LINE
  8
0
 10
-123.75
 11
-132.75
 20
-152.025
 21
-152.025
  0
LINE
  8
0
 10
-132.75
 11
-132.75
 20
115.975
 21
122.025
  0
LINE
  8
0
 10
-132.75
 11
-123.75
 20
122.025
 21
122.025
  0
LINE
  8
0
 10
-123.75
 11
-123.75
 20
122.025
 21
115.975
  0
LINE
  8
0
 10
-123.75
 11
-132.75
 20
115.975
 21
115.975
  0
LINE
  8
0
 10
-129.75
 11
-129.75
 20
-25.025
 21
-18.975
  0
LINE
  8
0
 10
-129.75
 11
-120.75
 20
-18.975
 21
-18.975
  0
LINE
  8
0
 10
-120.75
 11
-120.75
 20
-18.975
 21
-25.025
  0
LINE
  8
0
 10
-120.75
 11
-129.75
 20
-25.025
 21
-25.025
  0
LINE
  8
0
 10
-129.75
 11
-129.75
 20
-11.025
 21
-4.975
  0
LINE
  8
0
 10
-129.75
 11
-120.75
 20
-4.975
 21
-4.975
  0
LINE
  8
0
 10
-120.75
 11
-120.75
 20
-4.975
 21
-11.025
  0
LINE
  8
0
 10
-120.75
 11
-129.75
 20
-11.025
 21
-11.025
  0
LINE
  8
0
 10
-125.875
 11
-125.875
 20
-221.625
 21
-219.875
  0
LINE
  8
0
 10
-125.875
 11
-122.125
 20
-219.875
 21
-219.875
  0
LINE
  8
0
 10
-122.125
 11
-122.125
 20
-219.875
 21
-221.625
  0
LINE
  8
0
 10
-122.125
 11
-125.875
 20
-221.625
 21
-221.625
  0
LINE
  8
0
 10
-125.875
 11
-125.875
 20
-212.125
 21
-210.375
  0
LINE
  8
0
 10
-125.875
 11
-122.125
 20
-210.375
 21
-210.375
  0
LINE
  8
0
 10
-122.125
 11
-122.125
 20
-210.375
 21
-212.125
  0
LINE
  8
0
 10
-122.125
 11
-125.875
 20
-212.125
 21
-212.125
  0
LINE
  8
0
 10
-117.625
 11
-117.625
 20
-111.125
 21
-107.375
  0
LINE
  8
0
 10
-117.625
 11
-115.875
 20
-107.375
 21
-107.375
  0
LINE
  8
0
 10
-115.875
 11
-115.875
 20
-107.375
 21
-111.125
  0
LINE
  8
0
 10
-115.875
 11
-117.625
 20
-111.125
 21
-111.125
  0
LINE
  8
0
 10
-117.625
 11
-117.625
 20
77.375
 21
81.125
  0
LINE
  8
0
 10
-117.625
 11
-115.875
 20
81.125
 21
81.125
  0
LINE
  8
0
 10
-115.875
 11
-115.875
 20
81.125
 21
77.375
  0
LINE
  8
0
 10
-115.875
 11
-117.625
 20
77.375
 21
77.375
  0
LINE
  8
0
 10
-117.25
 11
-117.25
 20
-219.025
 21
-212.975
  0
LINE
  8
0
 10
-117.25
 11
-108.25
 20
-212.975
 21
-212.975
  0
LINE
  8
0
 10
-108.25
 11
-108.25
 20
-212.975
 21
-219.025
  0
LINE
  8
0
 10
-108.25
 11
-117.25
 20
-219.025
 21
-219.025
  0
LINE
  8
0
 10
-115.025
 11
-115.025
 20
-125
 21
-116
  0
LINE
  8
0
 10
-115.025
 11
-108.975
 20
-116
 21
-116
  0
LINE
  8
0
 10
-108.975
 11
-108.975
 20
-116
 21
-125
  0
LINE
  8
0
 10
-108.975
 11
-115.025
 20
-125
 21
-125
  0
LINE
  8
0
 10
-115.025
 11
-115.025
 20
-102.5
 21
-93.5
  0
LINE
  8
0
 10
-115.025
 11
-108.975
 20
-93.5
 21
-93.5
  0
LINE
  8
0
 10
-108.975
 11
-108.975
 20
-93.5
 21
-102.5
  0
LINE
  8
0
 10
-108.975
 11
-115.025
 20
-102.5
 21
-102.5
  0
LINE
  8
0
 10
-115.025
 11
-115.025
 20
63.5
 21
72.5
  0
LINE
  8
0
 10
-115.025
 11
-108.975
 20
72.5
 21
72.5
  0
LINE
  8
0
 10
-108.975
 11
-108.975
 20
72.5
 21
63.5
  0
LINE
  8
0
 10
-108.975
 11
-115.025
 20
63.5
 21
63.5
  0
LINE
  8
0
 10
-115.025
 11
-115.025
 20
86
 21
95
  0
LINE
  8
0
 10
-115.025
 11
-108.975
 20
95
 21
95
  0
LINE
  8
0
 10
-108.975
 11
-108.975
 20
95
 21
86
  0
LINE
  8
0
 10
-108.975
 11
-115.025
 20
86
 21
86
  0
LINE
  8
0
 10
-108.125
 11
-108.125
 20
-111.125
 21
-107.375
  0
LINE
  8
0
 10
-108.125
 11
-106.375
 20
-107.375
 21
-107.375
  0
LINE
  8
0
 10
-106.375
 11
-106.375
 20
-107.375
 21
-111.125
  0
LINE
  8
0
 10
-106.375
 11
-108.125
 20
-111.125
 21
-111.125
  0
LINE
  8
0
 10
-108.125
 11
-108.125
 20
77.375
 21
81.125
  0
LINE
  8
0
 10
-108.125
 11
-106.375
 20
81.125
 21
81.125
  0
LINE
  8
0
 10
-106.375
 11
-106.375
 20
81.125
 21
77.375
  0
LINE
  8
0
 10
-106.375
 11
-108.125
 20
77.375
 21
77.375
  0
LINE
  8
0
 10
-106.5
 11
-106.5
 20
182
 21
204.648
  0
LINE
  8
0
 10
-106.5
 11
-63.5
 20
204.648
 21
224.699
  0
LINE
  8
0
 10
-63.5
 11
-63.5
 20
224.699
 21
219.25
  0
LINE
  8
0
 10
-63.5
 11
-57.475
 20
219.25
 21
219.25
  0
LINE
  8
0
 10
-57.475
 11
-57.475
 20
219.25
 21
210.25
  0
LINE
  8
0
 10
-57.475
 11
-63.5
 20
210.25
 21
210.25
  0
LINE
  8
0
 10
-63.5
 11
-63.5
 20
210.25
 21
205
  0
LINE
  8
0
 10
-63.5
 11
-67.4
 20
205
 21
205
  0
LINE
  8
0
 10
-67.4
 11
-67.4
 20
205
 21
206.25
  0
LINE
  8
0
 10
-67.4
 11
-69.9
 20
206.25
 21
206.25
  0
LINE
  8
0
 10
-69.9
 11
-69.9
 20
206.25
 21
205
  0
LINE
  8
0
 10
-69.9
 11
-71.35
 20
205
 21
205
  0
LINE
  8
0
 10
-71.35
 11
-71.35
 20
205
 21
202
  0
LINE
  8
0
 10
-71.35
 11
-69.9
 20
202
 21
202
  0
LINE
  8
0
 10
-69.9
 11
-69.9
 20
202
 21
200.75
  0
LINE
  8
0
 10
-69.9
 11
-67.4
 20
200.75
 21
200.75
  0
LINE
  8
0
 10
-67.4
 11
-67.4
 20
200.75
 21
202
  0
LINE
  8
0
 10
-67.4
 11
-63.5
 20
202
 21
202
  0
LINE
  8
0
 10
-63.5
 11
-63.5
 20
202
 21
196.75
  0
LINE
  8
0
 10
-63.5
 11
-57.475
 20
196.75
 21
196.75
  0
LINE
  8
0
 10
-57.475
 11
-57.475
 20
196.75
 21
187.75
  0
LINE
  8
0
 10
-57.475
 11
-63.5
 20
187.75
 21
187.75
  0
LINE
  8
0
 10
-63.5
 11
-63.5
 20
187.75
 21
182
  0
LINE
  8
0
 10
-63.5
 11
-69.25
 20
182
 21
182
  0
LINE
  8
0
 10
-69.25
 11
-69.25
 20
182
 21
175.975
  0
LINE
  8
0
 10
-69.25
 11
-78.25
 20
175.975
 21
175.975
  0
LINE
  8
0
 10
-78.25
 11
-78.25
 20
175.975
 21
182
  0
LINE
  8
0
 10
-78.25
 11
-83.5
 20
182
 21
182
  0
LINE
  8
0
 10
-83.5
 11
-83.5
 20
182
 21
185.9
  0
LINE
  8
0
 10
-83.5
 11
-82.25
 20
185.9
 21
185.9
  0
LINE
  8
0
 10
-82.25
 11
-82.25
 20
185.9
 21
188.4
  0
LINE
  8
0
 10
-82.25
 11
-83.5
 20
188.4
 21
188.4
  0
LINE
  8
0
 10
-83.5
 11
-83.5
 20
188.4
 21
189.85
  0
LINE
  8
0
 10
-83.5
 11
-86.5
 20
189.85
 21
189.85
  0
LINE
  8
0
 10
-86.5
 11
-86.5
 20
189.85
 21
188.4
  0
LINE
  8
0
 10
-86.5
 11
-87.75
 20
188.4
 21
188.4
  0
LINE
  8
0
 10
-87.75
 11
-87.75
 20
188.4
 21
185.9
  0
LINE
  8
0
 10
-87.75
 11
-86.5
 20
185.9
 21
185.9
  0
LINE
  8
0
 10
-86.5
 11
-86.5
 20
185.9
 21
182
  0
LINE
  8
0
 10
-86.5
 11
-91.75
 20
182
 21
182
  0
LINE
  8
0
 10
-91.75
 11
-91.75
 20
182
 21
175.975
  0
LINE
  8
0
 10
-91.75
 11
-100.75
 20
175.975
 21
175.975
  0
LINE
  8
0
 10
-100.75
 11
-100.75
 20
175.975
 21
182
  0
LINE
  8
0
 10
-100.75
 11
-106.5
 20
182
 21
182
  0
LINE
  8
0
 10
-97
 11
-97
 20
-158
 21
-123
  0
LINE
  8
0
 10
-97
 11
-93.686
 20
-123
 21
-123
  0
LINE
  8
0
 10
-93.686
 11
-89
 20
-123
 21
-118.314
  0
LINE
  8
0
 10
-89
 11
-89
 20
-118.314
 21
-111.686
  0
LINE
  8
0
 10
-89
 11
-93.686
 20
-111.686
 21
-107
  0
LINE
  8
0
 10
-93.686
 11
-97
 20
-107
 21
-107
  0
LINE
  8
0
 10
-97
 11
-97
 20
-107
 21
-99
  0
LINE
  8
0
 10
-97
 11
-93.197
 20
-99
 21
-99
  0
LINE
  8
0
 10
-93.197
 11
-93
 20
-99
 21
-99.019
  0
LINE
  8
0
 10
-93
 11
-92.216
 20
-99.019
 21
-98.942
  0
LINE
  8
0
 10
-92.216
 11
-91.462
 20
-98.942
 21
-98.713
  0
LINE
  8
0
 10
-91.462
 11
-90.767
 20
-98.713
 21
-98.342
  0
LINE
  8
0
 10
-90.767
 11
-90.158
 20
-98.342
 21
-97.842
  0
LINE
  8
0
 10
-90.158
 11
-89.658
 20
-97.842
 21
-97.233
  0
LINE
  8
0
 10
-89.658
 11
-89.287
 20
-97.233
 21
-96.538
  0
LINE
  8
0
 10
-89.287
 11
-89.058
 20
-96.538
 21
-95.784
  0
LINE
  8
0
 10
-89.058
 11
-88.981
 20
-95.784
 21
-95
  0
LINE
  8
0
 10
-88.981
 11
-89.058
 20
-95
 21
-94.216
  0
LINE
  8
0
 10
-89.058
 11
-89.287
 20
-94.216
 21
-93.462
  0
LINE
  8
0
 10
-89.287
 11
-89.658
 20
-93.462
 21
-92.767
  0
LINE
  8
0
 10
-89.658
 11
-90.158
 20
-92.767
 21
-92.158
  0
LINE
  8
0
 10
-90.158
 11
-90.767
 20
-92.158
 21
-91.658
  0
LINE
  8
0
 10
-90.767
 11
-91.462
 20
-91.658
 21
-91.287
  0
LINE
  8
0
 10
-91.462
 11
-92.216
 20
-91.287
 21
-91.058
  0
LINE
  8
0
 10
-92.216
 11
-93
 20
-91.058
 21
-90.981
  0
LINE
  8
0
 10
-93
 11
-93.197
 20
-90.981
 21
-91
  0
LINE
  8
0
 10
-93.197
 11
-97
 20
-91
 21
-91
  0
LINE
  8
0
 10
-97
 11
-97
 20
-91
 21
-29
  0
LINE
  8
0
 10
-97
 11
-94.515
 20
-29
 21
-29
  0
LINE
  8
0
 10
-94.515
 11
-91
 20
-29
 21
-25.485
  0
LINE
  8
0
 10
-91
 11
-91
 20
-25.485
 21
-4.515
  0
LINE
  8
0
 10
-91
 11
-94.515
 20
-4.515
 21
-1
  0
LINE
  8
0
 10
-94.515
 11
-97
 20
-1
 21
-1
  0
LINE
  8
0
 10
-97
 11
-97
 20
-1
 21
61
  0
LINE
  8
0
 10
-97
 11
-93.197
 20
61
 21
61
  0
LINE
  8
0
 10
-93.197
 11
-93
 20
61
 21
60.981
  0
LINE
  8
0
 10
-93
 11
-92.216
 20
60.981
 21
61.058
  0
LINE
  8
0
 10
-92.216
 11
-91.462
 20
61.058
 21
61.287
  0
LINE
  8
0
 10
-91.462
 11
-90.767
 20
61.287
 21
61.658
  0
LINE
  8
0
 10
-90.767
 11
-90.158
 20
61.658
 21
62.158
  0
LINE
  8
0
 10
-90.158
 11
-89.658
 20
62.158
 21
62.767
  0
LINE
  8
0
 10
-89.658
 11
-89.287
 20
62.767
 21
63.462
  0
LINE
  8
0
 10
-89.287
 11
-89.058
 20
63.462
 21
64.216
  0
LINE
  8
0
 10
-89.058
 11
-88.981
 20
64.216
 21
65
  0
LINE
  8
0
 10
-88.981
 11
-89.058
 20
65
 21
65.784
  0
LINE
  8
0
 10
-89.058
 11
-89.287
 20
65.784
 21
66.538
  0
LINE
  8
0
 10
-89.287
 11
-89.658
 20
66.538
 21
67.233
  0
LINE
  8
0
 10
-89.658
 11
-90.158
 20
67.233
 21
67.842
  0
LINE
  8
0
 10
-90.158
 11
-90.767
 20
67.842
 21
68.342
  0
LINE
  8
0
 10
-90.767
 11
-91.462
 20
68.342
 21
68.713
  0
LINE
  8
0
 10
-91.462
 11
-92.216
 20
68.713
 21
68.942
  0
LINE
  8
0
 10
-92.216
 11
-93
 20
68.942
 21
69.019
  0
LINE
  8
0
 10
-93
 11
-93.197
 20
69.019
 21
69
  0
LINE
  8
0
 10
-93.197
 11
-97
 20
69
 21
69
  0
LINE
  8
0
 10
-97
 11
-97
 20
69
 21
77
  0
LINE
  8
0
 10
-97
 11
-93.686
 20
77
 21
77
  0
LINE
  8
0
 10
-93.686
 11
-89
 20
77
 21
81.686
  0
LINE
  8
0
 10
-89
 11
-89
 20
81.686
 21
88.314
  0
LINE
  8
0
 10
-89
 11
-93.686
 20
88.314
 21
93
  0
LINE
  8
0
 10
-93.686
 11
-97
 20
93
 21
93
  0
LINE
  8
0
 10
-97
 11
-97
 20
93
 21
128
  0
LINE
  8
0
 10
-97
 11
-36
 20
128
 21
128
  0
LINE
  8
0
 10
-36
 11
-36
 20
128
 21
-158
  0
LINE
  8
0
 10
-36
 11
-97
 20
-158
 21
-158
  0
LINE
  8
0
 10
-92
 11
-92
 20
-104
 21
-102
  0
LINE
  8
0
 10
-92
 11
-89
 20
-102
 21
-102
  0
LINE
  8
0
 10
-89
 11
-89
 20
-102
 21
-104
  0
LINE
  8
0
 10
-89
 11
-92
 20
-104
 21
-104
  0
LINE
  8
0
 10
-92
 11
-92
 20
-88
 21
-86
  0
LINE
  8
0
 10
-92
 11
-89
 20
-86
 21
-86
  0
LINE
  8
0
 10
-89
 11
-89
 20
-86
 21
-88
  0
LINE
  8
0
 10
-89
 11
-92
 20
-88
 21
-88
  0
LINE
  8
0
 10
-92
 11
-92
 20
56
 21
58
  0
LINE
  8
0
 10
-92
 11
-89
 20
58
 21
58
  0
LINE
  8
0
 10
-89
 11
-89
 20
58
 21
56
  0
LINE
  8
0
 10
-89
 11
-92
 20
56
 21
56
  0
LINE
  8
0
 10
-92
 11
-92
 20
72
 21
74
  0
LINE
  8
0
 10
-92
 11
-89
 20
74
 21
74
  0
LINE
  8
0
 10
-89
 11
-89
 20
74
 21
72
  0
LINE
  8
0
 10
-89
 11
-92
 20
72
 21
72
  0
LINE
  8
0
 10
-88.25
 11
-88.25
 20
-152.025
 21
-145.975
  0
LINE
  8
0
 10
-88.25
 11
-79.25
 20
-145.975
 21
-145.975
  0
LINE
  8
0
 10
-79.25
 11
-79.25
 20
-145.975
 21
-152.025
  0
LINE
  8
0
 10
-79.25
 11
-88.25
 20
-152.025
 21
-152.025
  0
LINE
  8
0
 10
-88.25
 11
-88.25
 20
115.975
 21
122.025
  0
LINE
  8
0
 10
-88.25
 11
-79.25
 20
122.025
 21
122.025
  0
LINE
  8
0
 10
-79.25
 11
-79.25
 20
122.025
 21
115.975
  0
LINE
  8
0
 10
-79.25
 11
-88.25
 20
115.975
 21
115.975
  0
LINE
  8
0
 10
-86.577
 11
-86.276
 20
203.5
 21
204.427
  0
LINE
  8
0
 10
-86.276
 11
-85.487
 20
204.427
 21
205
  0
LINE
  8
0
 10
-85.487
 11
-84.513
 20
205
 21
205
  0
LINE
  8
0
 10
-84.513
 11
-83.724
 20
205
 21
204.427
  0
LINE
  8
0
 10
-83.724
 11
-83.423
 20
204.427
 21
203.5
  0
LINE
  8
0
 10
-83.423
 11
-83.724
 20
203.5
 21
202.573
  0
LINE
  8
0
 10
-83.724
 11
-84.513
 20
202.573
 21
202
  0
LINE
  8
0
 10
-84.513
 11
-85.487
 20
202
 21
202
  0
LINE
  8
0
 10
-85.487
 11
-86.276
 20
202
 21
202.573
  0
LINE
  8
0
 10
-86.276
 11
-86.577
 20
202.573
 21
203.5
  0
LINE
  8
0
 10
-85.25
 11
-85.25
 20
-25.025
 21
-18.975
  0
LINE
  8
0
 10
-85.25
 11
-76.25
 20
-18.975
 21
-18.975
  0
LINE
  8
0
 10
-76.25
 11
-76.25
 20
-18.975
 21
-25.025
  0
LINE
  8
0
 10
-76.25
 11
-85.25
 20
-25.025
 21
-25.025
  0
LINE
  8
0
 10
-85.25
 11
-85.25
 20
-11.025
 21
-4.975
  0
LINE
  8
0
 10
-85.25
 11
-76.25
 20
-4.975
 21
-4.975
  0
LINE
  8
0
 10
-76.25
 11
-76.25
 20
-4.975
 21
-11.025
  0
LINE
  8
0
 10
-76.25
 11
-85.25
 20
-11.025
 21
-11.025
  0
LINE
  8
0
 10
-85.124
 11
-84.648
 20
-95
 21
-93.852
  0
LINE
  8
0
 10
-84.648
 11
-83.5
 20
-93.852
 21
-93.376
  0
LINE
  8
0
 10
-83.5
 11
-82.352
 20
-93.376
 21
-93.852
  0
LINE
  8
0
 10
-82.352
 11
-81.876
 20
-93.852
 21
-95
  0
LINE
  8
0
 10
-81.876
 11
-82.352
 20
-95
 21
-96.148
  0
LINE
  8
0
 10
-82.352
 11
-83.5
 20
-96.148
 21
-96.624
  0
LINE
  8
0
 10
-83.5
 11
-84.648
 20
-96.624
 21
-96.148
  0
LINE
  8
0
 10
-84.648
 11
-85.124
 20
-96.148
 21
-95
  0
LINE
  8
0
 10
-85.124
 11
-84.648
 20
65
 21
66.148
  0
LINE
  8
0
 10
-84.648
 11
-83.5
 20
66.148
 21
66.624
  0
LINE
  8
0
 10
-83.5
 11
-82.352
 20
66.624
 21
66.148
  0
LINE
  8
0
 10
-82.352
 11
-81.876
 20
66.148
 21
65
  0
LINE
  8
0
 10
-81.876
 11
-82.352
 20
65
 21
63.852
  0
LINE
  8
0
 10
-82.352
 11
-83.5
 20
63.852
 21
63.376
  0
LINE
  8
0
 10
-83.5
 11
-84.648
 20
63.376
 21
63.852
  0
LINE
  8
0
 10
-84.648
 11
-85.124
 20
63.852
 21
65
  0
LINE
  8
0
 10
-74.375
 11
-74.375
 20
-154.625
 21
-152.875
  0
LINE
  8
0
 10
-74.375
 11
-70.625
 20
-152.875
 21
-152.875
  0
LINE
  8
0
 10
-70.625
 11
-70.625
 20
-152.875
 21
-154.625
  0
LINE
  8
0
 10
-70.625
 11
-74.375
 20
-154.625
 21
-154.625
  0
LINE
  8
0
 10
-74.375
 11
-74.375
 20
-145.125
 21
-143.375
  0
LINE
  8
0
 10
-74.375
 11
-70.625
 20
-143.375
 21
-143.375
  0
LINE
  8
0
 10
-70.625
 11
-70.625
 20
-143.375
 21
-145.125
  0
LINE
  8
0
 10
-70.625
 11
-74.375
 20
-145.125
 21
-145.125
  0
LINE
  8
0
 10
-74.375
 11
-74.375
 20
113.375
 21
115.125
  0
LINE
  8
0
 10
-74.375
 11
-70.625
 20
115.125
 21
115.125
  0
LINE
  8
0
 10
-70.625
 11
-70.625
 20
115.125
 21
113.375
  0
LINE
  8
0
 10
-70.625
 11
-74.375
 20
113.375
 21
113.375
  0
LINE
  8
0
 10
-74.375
 11
-74.375
 20
122.875
 21
124.625
  0
LINE
  8
0
 10
-74.375
 11
-70.625
 20
124.625
 21
124.625
  0
LINE
  8
0
 10
-70.625
 11
-70.625
 20
124.625
 21
122.875
  0
LINE
  8
0
 10
-70.625
 11
-74.375
 20
122.875
 21
122.875
  0
LINE
  8
0
 10
-71
 11
-70.561
 20
-22
 21
-20.939
  0
LINE
  8
0
 10
-70.561
 11
-69.5
 20
-20.939
 21
-20.5
  0
LINE
  8
0
 10
-69.5
 11
-68.439
 20
-20.5
 21
-20.939
  0
LINE
  8
0
 10
-68.439
 11
-68
 20
-20.939
 21
-22
  0
LINE
  8
0
 10
-68
 11
-68.439
 20
-22
 21
-23.061
  0
LINE
  8
0
 10
-68.439
 11
-69.5
 20
-23.061
 21
-23.5
  0
LINE
  8
0
 10
-69.5
 11
-70.561
 20
-23.5
 21
-23.061
  0
LINE
  8
0
 10
-70.561
 11
-71
 20
-23.061
 21
-22
  0
LINE
  8
0
 10
-71
 11
-70.561
 20
-8
 21
-6.939
  0
LINE
  8
0
 10
-70.561
 11
-69.5
 20
-6.939
 21
-6.5
  0
LINE
  8
0
 10
-69.5
 11
-68.439
 20
-6.5
 21
-6.939
  0
LINE
  8
0
 10
-68.439
 11
-68
 20
-6.939
 21
-8
  0
LINE
  8
0
 10
-68
 11
-68.439
 20
-8
 21
-9.061
  0
LINE
  8
0
 10
-68.439
 11
-69.5
 20
-9.061
 21
-9.5
  0
LINE
  8
0
 10
-69.5
 11
-70.561
 20
-9.5
 21
-9.061
  0
LINE
  8
0
 10
-70.561
 11
-71
 20
-9.061
 21
-8
  0
LINE
  8
0
 10
-65.75
 11
-65.75
 20
-152.025
 21
-145.975
  0
LINE
  8
0
 10
-65.75
 11
-56.75
 20
-145.975
 21
-145.975
  0
LINE
  8
0
 10
-56.75
 11
-56.75
 20
-145.975
 21
-152.025
  0
LINE
  8
0
 10
-56.75
 11
-65.75
 20
-152.025
 21
-152.025
  0
LINE
  8
0
 10
-65.75
 11
-65.75
 20
115.975
 21
122.025
  0
LINE
  8
0
 10
-65.75
 11
-56.75
 20
122.025
 21
122.025
  0
LINE
  8
0
 10
-56.75
 11
-56.75
 20
122.025
 21
115.975
  0
LINE
  8
0
 10
-56.75
 11
-65.75
 20
115.975
 21
115.975
  0
LINE
  8
0
 10
-62.75
 11
-62.75
 20
-25.025
 21
-18.975
  0
LINE
  8
0
 10
-62.75
 11
-53.75
 20
-18.975
 21
-18.975
  0
LINE
  8
0
 10
-53.75
 11
-53.75
 20
-18.975
 21
-25.025
  0
LINE
  8
0
 10
-53.75
 11
-62.75
 20
-25.025
 21
-25.025
  0
LINE
  8
0
 10
-62.75
 11
-62.75
 20
-11.025
 21
-4.975
  0
LINE
  8
0
 10
-62.75
 11
-53.75
 20
-4.975
 21
-4.975
  0
LINE
  8
0
 10
-53.75
 11
-53.75
 20
-4.975
 21
-11.025
  0
LINE
  8
0
 10
-53.75
 11
-62.75
 20
-11.025
 21
-11.025
  0
LINE
  8
0
 10
-50.625
 11
-50.625
 20
-111.125
 21
-107.375
  0
LINE
  8
0
 10
-50.625
 11
-48.875
 20
-107.375
 21
-107.375
  0
LINE
  8
0
 10
-48.875
 11
-48.875
 20
-107.375
 21
-111.125
  0
LINE
  8
0
 10
-48.875
 11
-50.625
 20
-111.125
 21
-111.125
  0
LINE
  8
0
 10
-50.625
 11
-50.625
 20
77.375
 21
81.125
  0
LINE
  8
0
 10
-50.625
 11
-48.875
 20
81.125
 21
81.125
  0
LINE
  8
0
 10
-48.875
 11
-48.875
 20
81.125
 21
77.375
  0
LINE
  8
0
 10
-48.875
 11
-50.625
 20
77.375
 21
77.375
  0
LINE
  8
0
 10
-48.025
 11
-48.025
 20
-125
 21
-116
  0
LINE
  8
0
 10
-48.025
 11
-41.975
 20
-116
 21
-116
  0
LINE
  8
0
 10
-41.975
 11
-41.975
 20
-116
 21
-125
  0
LINE
  8
0
 10
-41.975
 11
-48.025
 20
-125
 21
-125
  0
LINE
  8
0
 10
-48.025
 11
-48.025
 20
-102.5
 21
-93.5
  0
LINE
  8
0
 10
-48.025
 11
-41.975
 20
-93.5
 21
-93.5
  0
LINE
  8
0
 10
-41.975
 11
-41.975
 20
-93.5
 21
-102.5
  0
LINE
  8
0
 10
-41.975
 11
-48.025
 20
-102.5
 21
-102.5
  0
LINE
  8
0
 10
-48.025
 11
-48.025
 20
63.5
 21
72.5
  0
LINE
  8
0
 10
-48.025
 11
-41.975
 20
72.5
 21
72.5
  0
LINE
  8
0
 10
-41.975
 11
-41.975
 20
72.5
 21
63.5
  0
LINE
  8
0
 10
-41.975
 11
-48.025
 20
63.5
 21
63.5
  0
LINE
  8
0
 10
-48.025
 11
-48.025
 20
86
 21
95
  0
LINE
  8
0
 10
-48.025
 11
-41.975
 20
95
 21
95
  0
LINE
  8
0
 10
-41.975
 11
-41.975
 20
95
 21
86
  0
LINE
  8
0
 10
-41.975
 11
-48.025
 20
86
 21
86
  0
LINE
  8
0
 10
-41.125
 11
-41.125
 20
-111.125
 21
-107.375
  0
LINE
  8
0
 10
-41.125
 11
-39.375
 20
-107.375
 21
-107.375
  0
LINE
  8
0
 10
-39.375
 11
-39.375
 20
-107.375
 21
-111.125
  0
LINE
  8
0
 10
-39.375
 11
-41.125
 20
-111.125
 21
-111.125
  0
LINE
  8
0
 10
-41.125
 11
-41.125
 20
77.375
 21
81.125
  0
LINE
  8
0
 10
-41.125
 11
-39.375
 20
81.125
 21
81.125
  0
LINE
  8
0
 10
-39.375
 11
-39.375
 20
81.125
 21
77.375
  0
LINE
  8
0
 10
-39.375
 11
-41.125
 20
77.375
 21
77.375
  0
LINE
  8
0
 10
-30
 11
-30
 20
-158
 21
128
  0
LINE
  8
0
 10
-30
 11
19
 20
128
 21
128
  0
LINE
  8
0
 10
19
 11
19
 20
128
 21
-158
  0
LINE
  8
0
 10
19
 11
-30
 20
-158
 21
-158
  0
LINE
  8
0
 10
-21.25
 11
-21.25
 20
-152.025
 21
-145.975
  0
LINE
  8
0
 10
-21.25
 11
-12.25
 20
-145.975
 21
-145.975
  0
LINE
  8
0
 10
-12.25
 11
-12.25
 20
-145.975
 21
-152.025
  0
LINE
  8
0
 10
-12.25
 11
-21.25
 20
-152.025
 21
-152.025
  0
LINE
  8
0
 10
-21.25
 11
-21.25
 20
115.975
 21
122.025
  0
LINE
  8
0
 10
-21.25
 11
-12.25
 20
122.025
 21
122.025
  0
LINE
  8
0
 10
-12.25
 11
-12.25
 20
122.025
 21
115.975
  0
LINE
  8
0
 10
-12.25
 11
-21.25
 20
115.975
 21
115.975
  0
LINE
  8
0
 10
-7.375
 11
-7.375
 20
-154.625
 21
-152.875
  0
LINE
  8
0
 10
-7.375
 11
-3.625
 20
-152.875
 21
-152.875
  0
LINE
  8
0
 10
-3.625
 11
-3.625
 20
-152.875
 21
-154.625
  0
LINE
  8
0
 10
-3.625
 11
-7.375
 20
-154.625
 21
-154.625
  0
LINE
  8
0
 10
-7.375
 11
-7.375
 20
-145.125
 21
-143.375
  0
LINE
  8
0
 10
-7.375
 11
-3.625
 20
-143.375
 21
-143.375
  0
LINE
  8
0
 10
-3.625
 11
-3.625
 20
-143.375
 21
-145.125
  0
LINE
  8
0
 10
-3.625
 11
-7.375
 20
-145.125
 21
-145.125
  0
LINE
  8
0
 10
-7.375
 11
-7.375
 20
113.375
 21
115.125
  0
LINE
  8
0
 10
-7.375
 11
-3.625
 20
115.125
 21
115.125
  0
LINE
  8
0
 10
-3.625
 11
-3.625
 20
115.125
 21
113.375
  0
LINE
  8
0
 10
-3.625
 11
-7.375
 20
113.375
 21
113.375
  0
LINE
  8
0
 10
-7.375
 11
-7.375
 20
122.875
 21
124.625
  0
LINE
  8
0
 10
-7.375
 11
-3.625
 20
124.625
 21
124.625
  0
LINE
  8
0
 10
-3.625
 11
-3.625
 20
124.625
 21
122.875
  0
LINE
  8
0
 10
-3.625
 11
-7.375
 20
122.875
 21
122.875
  0
LINE
  8
0
 10
-6.5
 11
-6.5
 20
-219.025
 21
-212.975
  0
LINE
  8
0
 10
-6.5
 11
2.5
 20
-212.975
 21
-212.975
  0
LINE
  8
0
 10
2.5
 11
2.5
 20
-212.975
 21
-219.025
  0
LINE
  8
0
 10
2.5
 11
-6.5
 20
-219.025
 21
-219.025
  0
LINE
  8
0
 10
1.25
 11
1.25
 20
-152.025
 21
-145.975
  0
LINE
  8
0
 10
1.25
 11
10.25
 20
-145.975
 21
-145.975
  0
LINE
  8
0
 10
10.25
 11
10.25
 20
-145.975
 21
-152.025
  0
LINE
  8
0
 10
10.25
 11
1.25
 20
-152.025
 21
-152.025
  0
LINE
  8
0
 10
1.25
 11
1.25
 20
115.975
 21
122.025
  0
LINE
  8
0
 10
1.25
 11
10.25
 20
122.025
 21
122.025
  0
LINE
  8
0
 10
10.25
 11
10.25
 20
122.025
 21
115.975
  0
LINE
  8
0
 10
10.25
 11
1.25
 20
115.975
 21
115.975
  0
LINE
  8
0
 10
7.375
 11
7.375
 20
-221.625
 21
-219.875
  0
LINE
  8
0
 10
7.375
 11
11.125
 20
-219.875
 21
-219.875
  0
LINE
  8
0
 10
11.125
 11
11.125
 20
-219.875
 21
-221.625
  0
LINE
  8
0
 10
11.125
 11
7.375
 20
-221.625
 21
-221.625
  0
LINE
  8
0
 10
7.375
 11
7.375
 20
-212.125
 21
-210.375
  0
LINE
  8
0
 10
7.375
 11
11.125
 20
-210.375
 21
-210.375
  0
LINE
  8
0
 10
11.125
 11
11.125
 20
-210.375
 21
-212.125
  0
LINE
  8
0
 10
11.125
 11
7.375
 20
-212.125
 21
-212.125
  0
LINE
  8
0
 10
16
 11
16
 20
-219.025
 21
-212.975
  0
LINE
  8
0
 10
16
 11
25
 20
-212.975
 21
-212.975
  0
LINE
  8
0
 10
25
 11
25
 20
-212.975
 21
-219.025
  0
LINE
  8
0
 10
25
 11
16
 20
-219.025
 21
-219.025
  0
LINE
  8
0
 10
25.975
 11
25.975
 20
-100
 21
-91
  0
LINE
  8
0
 10
25.975
 11
32
 20
-91
 21
-91
  0
LINE
  8
0
 10
32
 11
32
 20
-91
 21
-77.5
  0
LINE
  8
0
 10
32
 11
25.975
 20
-77.5
 21
-77.5
  0
LINE
  8
0
 10
25.975
 11
25.975
 20
-77.5
 21
-68.5
  0
LINE
  8
0
 10
25.975
 11
32
 20
-68.5
 21
-68.5
  0
LINE
  8
0
 10
32
 11
32
 20
-68.5
 21
33.25
  0
LINE
  8
0
 10
32
 11
25.975
 20
33.25
 21
33.25
  0
LINE
  8
0
 10
25.975
 11
25.975
 20
33.25
 21
42.25
  0
LINE
  8
0
 10
25.975
 11
32
 20
42.25
 21
42.25
  0
LINE
  8
0
 10
32
 11
32
 20
42.25
 21
55.75
  0
LINE
  8
0
 10
32
 11
25.975
 20
55.75
 21
55.75
  0
LINE
  8
0
 10
25.975
 11
25.975
 20
55.75
 21
64.75
  0
LINE
  8
0
 10
25.975
 11
32
 20
64.75
 21
64.75
  0
LINE
  8
0
 10
32
 11
32
 20
64.75
 21
166.5
  0
LINE
  8
0
 10
32
 11
25.975
 20
166.5
 21
166.5
  0
LINE
  8
0
 10
25.975
 11
25.975
 20
166.5
 21
175.5
  0
LINE
  8
0
 10
25.975
 11
32
 20
175.5
 21
175.5
  0
LINE
  8
0
 10
32
 11
32
 20
175.5
 21
189
  0
LINE
  8
0
 10
32
 11
25.975
 20
189
 21
189
  0
LINE
  8
0
 10
25.975
 11
25.975
 20
189
 21
198
  0
LINE
  8
0
 10
25.975
 11
32
 20
198
 21
198
  0
LINE
  8
0
 10
32
 11
32
 20
198
 21
219
  0
LINE
  8
0
 10
32
 11
53
 20
219
 21
219
  0
LINE
  8
0
 10
53
 11
53
 20
219
 21
225.025
  0
LINE
  8
0
 10
53
 11
62
 20
225.025
 21
225.025
  0
LINE
  8
0
 10
62
 11
62
 20
225.025
 21
219
  0
LINE
  8
0
 10
62
 11
75.5
 20
219
 21
219
  0
LINE
  8
0
 10
75.5
 11
75.5
 20
219
 21
225.025
  0
LINE
  8
0
 10
75.5
 11
84.5
 20
225.025
 21
225.025
  0
LINE
  8
0
 10
84.5
 11
84.5
 20
225.025
 21
219
  0
LINE
  8
0
 10
84.5
 11
241.5
 20
219
 21
219
  0
LINE
  8
0
 10
241.5
 11
241.5
 20
219
 21
225.025
  0
LINE
  8
0
 10
241.5
 11
250.5
 20
225.025
 21
225.025
  0
LINE
  8
0
 10
250.5
 11
250.5
 20
225.025
 21
219
  0
LINE
  8
0
 10
250.5
 11
264
 20
219
 21
219
  0
LINE
  8
0
 10
264
 11
264
 20
219
 21
225.025
  0
LINE
  8
0
 10
264
 11
273
 20
225.025
 21
225.025
  0
LINE
  8
0
 10
273
 11
273
 20
225.025
 21
219
  0
LINE
  8
0
 10
273
 11
294
 20
219
 21
219
  0
LINE
  8
0
 10
294
 11
294
 20
219
 21
198
  0
LINE
  8
0
 10
294
 11
300.025
 20
198
 21
198
  0
LINE
  8
0
 10
300.025
 11
300.025
 20
198
 21
189
  0
LINE
  8
0
 10
300.025
 11
294
 20
189
 21
189
  0
LINE
  8
0
 10
294
 11
294
 20
189
 21
175.5
  0
LINE
  8
0
 10
294
 11
300.025
 20
175.5
 21
175.5
  0
LINE
  8
0
 10
300.025
 11
300.025
 20
175.5
 21
166.5
  0
LINE
  8
0
 10
300.025
 11
294
 20
166.5
 21
166.5
  0
LINE
  8
0
 10
294
 11
294
 20
166.5
 21
64.75
  0
LINE
  8
0
 10
294
 11
300.025
 20
64.75
 21
64.75
  0
LINE
  8
0
 10
300.025
 11
300.025
 20
64.75
 21
55.75
  0
LINE
  8
0
 10
300.025
 11
294
 20
55.75
 21
55.75
  0
LINE
  8
0
 10
294
 11
294
 20
55.75
 21
42.25
  0
LINE
  8
0
 10
294
 11
300.025
 20
42.25
 21
42.25
  0
LINE
  8
0
 10
300.025
 11
300.025
 20
42.25
 21
33.25
  0
LINE
  8
0
 10
300.025
 11
294
 20
33.25
 21
33.25
  0
LINE
  8
0
 10
294
 11
294
 20
33.25
 21
-68.5
  0
LINE
  8
0
 10
294
 11
300.025
 20
-68.5
 21
-68.5
  0
LINE
  8
0
 10
300.025
 11
300.025
 20
-68.5
 21
-77.5
  0
LINE
  8
0
 10
300.025
 11
294
 20
-77.5
 21
-77.5
  0
LINE
  8
0
 10
294
 11
294
 20
-77.5
 21
-91
  0
LINE
  8
0
 10
294
 11
300.025
 20
-91
 21
-91
  0
LINE
  8
0
 10
300.025
 11
300.025
 20
-91
 21
-100
  0
LINE
  8
0
 10
300.025
 11
294
 20
-100
 21
-100
  0
LINE
  8
0
 10
294
 11
294
 20
-100
 21
-121
  0
LINE
  8
0
 10
294
 11
273
 20
-121
 21
-121
  0
LINE
  8
0
 10
273
 11
273
 20
-121
 21
-127.025
  0
LINE
  8
0
 10
273
 11
264
 20
-127.025
 21
-127.025
  0
LINE
  8
0
 10
264
 11
264
 20
-127.025
 21
-121
  0
LINE
  8
0
 10
264
 11
250.5
 20
-121
 21
-121
  0
LINE
  8
0
 10
250.5
 11
250.5
 20
-121
 21
-127.025
  0
LINE
  8
0
 10
250.5
 11
241.5
 20
-127.025
 21
-127.025
  0
LINE
  8
0
 10
241.5
 11
241.5
 20
-127.025
 21
-121
  0
LINE
  8
0
 10
241.5
 11
84.5
 20
-121
 21
-121
  0
LINE
  8
0
 10
84.5
 11
84.5
 20
-121
 21
-127.025
  0
LINE
  8
0
 10
84.5
 11
75.5
 20
-127.025
 21
-127.025
  0
LINE
  8
0
 10
75.5
 11
75.5
 20
-127.025
 21
-121
  0
LINE
  8
0
 10
75.5
 11
62
 20
-121
 21
-121
  0
LINE
  8
0
 10
62
 11
62
 20
-121
 21
-127.025
  0
LINE
  8
0
 10
62
 11
53
 20
-127.025
 21
-127.025
  0
LINE
  8
0
 10
53
 11
53
 20
-127.025
 21
-121
  0
LINE
  8
0
 10
53
 11
32
 20
-121
 21
-121
  0
LINE
  8
0
 10
32
 11
32
 20
-121
 21
-100
  0
LINE
  8
0
 10
32
 11
25.975
 20
-100
 21
-100
  0
LINE
  8
0
 10
35.625
 11
35.625
 20
-86.125
 21
-82.375
  0
LINE
  8
0
 10
35.625
 11
37.375
 20
-82.375
 21
-82.375
  0
LINE
  8
0
 10
37.375
 11
37.375
 20
-82.375
 21
-86.125
  0
LINE
  8
0
 10
37.375
 11
35.625
 20
-86.125
 21
-86.125
  0
LINE
  8
0
 10
35.625
 11
35.625
 20
47.125
 21
50.875
  0
LINE
  8
0
 10
35.625
 11
37.375
 20
50.875
 21
50.875
  0
LINE
  8
0
 10
37.375
 11
37.375
 20
50.875
 21
47.125
  0
LINE
  8
0
 10
37.375
 11
35.625
 20
47.125
 21
47.125
  0
LINE
  8
0
 10
35.625
 11
35.625
 20
180.375
 21
184.125
  0
LINE
  8
0
 10
35.625
 11
37.375
 20
184.125
 21
184.125
  0
LINE
  8
0
 10
37.375
 11
37.375
 20
184.125
 21
180.375
  0
LINE
  8
0
 10
37.375
 11
35.625
 20
180.375
 21
180.375
  0
LINE
  8
0
 10
40.625
 11
40.625
 20
-190.375
 21
-186.625
  0
LINE
  8
0
 10
40.625
 11
42.375
 20
-186.625
 21
-186.625
  0
LINE
  8
0
 10
42.375
 11
42.375
 20
-186.625
 21
-190.375
  0
LINE
  8
0
 10
42.375
 11
40.625
 20
-190.375
 21
-190.375
  0
LINE
  8
0
 10
66.37
 11
67.639
 20
-82.3
 21
-79.239
  0
LINE
  8
0
 10
67.639
 11
70.7
 20
-79.239
 21
-77.97
  0
LINE
  8
0
 10
70.7
 11
73.761
 20
-77.97
 21
-79.239
  0
LINE
  8
0
 10
73.761
 11
75.03
 20
-79.239
 21
-82.3
  0
LINE
  8
0
 10
75.03
 11
73.761
 20
-82.3
 21
-85.361
  0
LINE
  8
0
 10
73.761
 11
70.7
 20
-85.361
 21
-86.63
  0
LINE
  8
0
 10
70.7
 11
67.639
 20
-86.63
 21
-85.361
  0
LINE
  8
0
 10
67.639
 11
66.37
 20
-85.361
 21
-82.3
  0
LINE
  8
0
 10
66.37
 11
67.639
 20
180.3
 21
183.361
  0
LINE
  8
0
 10
67.639
 11
70.7
 20
183.361
 21
184.63
  0
LINE
  8
0
 10
70.7
 11
73.761
 20
184.63
 21
183.361
  0
LINE
  8
0
 10
73.761
 11
75.03
 20
183.361
 21
180.3
  0
LINE
  8
0
 10
75.03
 11
73.761
 20
180.3
 21
177.239
  0
LINE
  8
0
 10
73.761
 11
70.7
 20
177.239
 21
175.97
  0
LINE
  8
0
 10
70.7
 11
67.639
 20
175.97
 21
177.239
  0
LINE
  8
0
 10
67.639
 11
66.37
 20
177.239
 21
180.3
  0
LINE
  8
0
 10
66.875
 11
66.875
 20
-117.375
 21
-115.625
  0
LINE
  8
0
 10
66.875
 11
70.625
 20
-115.625
 21
-115.625
  0
LINE
  8
0
 10
70.625
 11
70.625
 20
-115.625
 21
-117.375
  0
LINE
  8
0
 10
70.625
 11
66.875
 20
-117.375
 21
-117.375
  0
LINE
  8
0
 10
66.875
 11
66.875
 20
213.625
 21
215.375
  0
LINE
  8
0
 10
66.875
 11
70.625
 20
215.375
 21
215.375
  0
LINE
  8
0
 10
70.625
 11
70.625
 20
215.375
 21
213.625
  0
LINE
  8
0
 10
70.625
 11
66.875
 20
213.625
 21
213.625
  0
LINE
  8
0
 10
91.5
 11
91.5
 20
106
 21
108
  0
LINE
  8
0
 10
91.5
 11
94.5
 20
108
 21
108
  0
LINE
  8
0
 10
94.5
 11
94.5
 20
108
 21
106
  0
LINE
  8
0
 10
94.5
 11
91.5
 20
106
 21
106
  0
LINE
  8
0
 10
91.5
 11
91.5
 20
114
 21
116
  0
LINE
  8
0
 10
91.5
 11
94.5
 20
116
 21
116
  0
LINE
  8
0
 10
94.5
 11
94.5
 20
116
 21
114
  0
LINE
  8
0
 10
94.5
 11
91.5
 20
114
 21
114
  0
LINE
  8
0
 10
91.5
 11
91.5
 20
146
 21
148
  0
LINE
  8
0
 10
91.5
 11
94.5
 20
148
 21
148
  0
LINE
  8
0
 10
94.5
 11
94.5
 20
148
 21
146
  0
LINE
  8
0
 10
94.5
 11
91.5
 20
146
 21
146
  0
LINE
  8
0
 10
91.5
 11
91.5
 20
154
 21
156
  0
LINE
  8
0
 10
91.5
 11
94.5
 20
156
 21
156
  0
LINE
  8
0
 10
94.5
 11
94.5
 20
156
 21
154
  0
LINE
  8
0
 10
94.5
 11
91.5
 20
154
 21
154
  0
LINE
  8
0
 10
99
 11
99
 20
-29.571
 21
127.571
  0
LINE
  8
0
 10
99
 11
101.929
 20
127.571
 21
130.5
  0
LINE
  8
0
 10
101.929
 11
224.071
 20
130.5
 21
130.5
  0
LINE
  8
0
 10
224.071
 11
227
 20
130.5
 21
127.571
  0
LINE
  8
0
 10
227
 11
227
 20
127.571
 21
-29.571
  0
LINE
  8
0
 10
227
 11
224.071
 20
-29.571
 21
-32.5
  0
LINE
  8
0
 10
224.071
 11
101.929
 20
-32.5
 21
-32.5
  0
LINE
  8
0
 10
101.929
 11
99
 20
-32.5
 21
-29.571
  0
LINE
  8
0
 10
150.375
 11
150.375
 20
-101.375
 21
-97.625
  0
LINE
  8
0
 10
150.375
 11
152.125
 20
-97.625
 21
-97.625
  0
LINE
  8
0
 10
152.125
 11
152.125
 20
-97.625
 21
-101.375
  0
LINE
  8
0
 10
152.125
 11
150.375
 20
-101.375
 21
-101.375
  0
LINE
  8
0
 10
150.375
 11
150.375
 20
195.625
 21
199.375
  0
LINE
  8
0
 10
150.375
 11
152.125
 20
199.375
 21
199.375
  0
LINE
  8
0
 10
152.125
 11
152.125
 20
199.375
 21
195.625
  0
LINE
  8
0
 10
152.125
 11
150.375
 20
195.625
 21
195.625
  0
LINE
  8
0
 10
151.6
 11
151.6
 20
-225
 21
-179
  0
LINE
  8
0
 10
151.6
 11
172.35
 20
-179
 21
-179
  0
LINE
  8
0
 10
172.35
 11
172.35
 20
-179
 21
-172.975
  0
LINE
  8
0
 10
172.35
 11
181.35
 20
-172.975
 21
-172.975
  0
LINE
  8
0
 10
181.35
 11
181.35
 20
-172.975
 21
-179
  0
LINE
  8
0
 10
181.35
 11
186.6
 20
-179
 21
-179
  0
LINE
  8
0
 10
186.6
 11
186.6
 20
-179
 21
-182.9
  0
LINE
  8
0
 10
186.6
 11
185.35
 20
-182.9
 21
-182.9
  0
LINE
  8
0
 10
185.35
 11
185.35
 20
-182.9
 21
-185.4
  0
LINE
  8
0
 10
185.35
 11
186.6
 20
-185.4
 21
-185.4
  0
LINE
  8
0
 10
186.6
 11
186.6
 20
-185.4
 21
-186.85
  0
LINE
  8
0
 10
186.6
 11
189.6
 20
-186.85
 21
-186.85
  0
LINE
  8
0
 10
189.6
 11
189.6
 20
-186.85
 21
-185.4
  0
LINE
  8
0
 10
189.6
 11
190.85
 20
-185.4
 21
-185.4
  0
LINE
  8
0
 10
190.85
 11
190.85
 20
-185.4
 21
-182.9
  0
LINE
  8
0
 10
190.85
 11
189.6
 20
-182.9
 21
-182.9
  0
LINE
  8
0
 10
189.6
 11
189.6
 20
-182.9
 21
-179
  0
LINE
  8
0
 10
189.6
 11
194.85
 20
-179
 21
-179
  0
LINE
  8
0
 10
194.85
 11
194.85
 20
-179
 21
-172.975
  0
LINE
  8
0
 10
194.85
 11
203.85
 20
-172.975
 21
-172.975
  0
LINE
  8
0
 10
203.85
 11
203.85
 20
-172.975
 21
-179
  0
LINE
  8
0
 10
203.85
 11
224.6
 20
-179
 21
-179
  0
LINE
  8
0
 10
224.6
 11
224.6
 20
-179
 21
-225
  0
LINE
  8
0
 10
224.6
 11
151.6
 20
-225
 21
-225
  0
LINE
  8
0
 10
152.975
 11
152.975
 20
-115.25
 21
-106.25
  0
LINE
  8
0
 10
152.975
 11
159.025
 20
-106.25
 21
-106.25
  0
LINE
  8
0
 10
159.025
 11
159.025
 20
-106.25
 21
-115.25
  0
LINE
  8
0
 10
159.025
 11
152.975
 20
-115.25
 21
-115.25
  0
LINE
  8
0
 10
152.975
 11
152.975
 20
-92.75
 21
-83.75
  0
LINE
  8
0
 10
152.975
 11
159.025
 20
-83.75
 21
-83.75
  0
LINE
  8
0
 10
159.025
 11
159.025
 20
-83.75
 21
-92.75
  0
LINE
  8
0
 10
159.025
 11
152.975
 20
-92.75
 21
-92.75
  0
LINE
  8
0
 10
152.975
 11
152.975
 20
181.75
 21
190.75
  0
LINE
  8
0
 10
152.975
 11
159.025
 20
190.75
 21
190.75
  0
LINE
  8
0
 10
159.025
 11
159.025
 20
190.75
 21
181.75
  0
LINE
  8
0
 10
159.025
 11
152.975
 20
181.75
 21
181.75
  0
LINE
  8
0
 10
152.975
 11
152.975
 20
204.25
 21
213.25
  0
LINE
  8
0
 10
152.975
 11
159.025
 20
213.25
 21
213.25
  0
LINE
  8
0
 10
159.025
 11
159.025
 20
213.25
 21
204.25
  0
LINE
  8
0
 10
159.025
 11
152.975
 20
204.25
 21
204.25
  0
LINE
  8
0
 10
157.575
 11
157.575
 20
-217.75
 21
-208.75
  0
LINE
  8
0
 10
157.575
 11
163.625
 20
-208.75
 21
-208.75
  0
LINE
  8
0
 10
163.625
 11
163.625
 20
-208.75
 21
-217.75
  0
LINE
  8
0
 10
163.625
 11
157.575
 20
-217.75
 21
-217.75
  0
LINE
  8
0
 10
157.575
 11
157.575
 20
-195.25
 21
-186.25
  0
LINE
  8
0
 10
157.575
 11
163.625
 20
-186.25
 21
-186.25
  0
LINE
  8
0
 10
163.625
 11
163.625
 20
-186.25
 21
-195.25
  0
LINE
  8
0
 10
163.625
 11
157.575
 20
-195.25
 21
-195.25
  0
LINE
  8
0
 10
159.1
 11
159.539
 20
-202
 21
-200.939
  0
LINE
  8
0
 10
159.539
 11
160.6
 20
-200.939
 21
-200.5
  0
LINE
  8
0
 10
160.6
 11
161.661
 20
-200.5
 21
-200.939
  0
LINE
  8
0
 10
161.661
 11
162.1
 20
-200.939
 21
-202
  0
LINE
  8
0
 10
162.1
 11
161.661
 20
-202
 21
-203.061
  0
LINE
  8
0
 10
161.661
 11
160.6
 20
-203.061
 21
-203.5
  0
LINE
  8
0
 10
160.6
 11
159.539
 20
-203.5
 21
-203.061
  0
LINE
  8
0
 10
159.539
 11
159.1
 20
-203.061
 21
-202
  0
LINE
  8
0
 10
159.875
 11
159.875
 20
-101.375
 21
-97.625
  0
LINE
  8
0
 10
159.875
 11
161.625
 20
-97.625
 21
-97.625
  0
LINE
  8
0
 10
161.625
 11
161.625
 20
-97.625
 21
-101.375
  0
LINE
  8
0
 10
161.625
 11
159.875
 20
-101.375
 21
-101.375
  0
LINE
  8
0
 10
159.875
 11
159.875
 20
195.625
 21
199.375
  0
LINE
  8
0
 10
159.875
 11
161.625
 20
199.375
 21
199.375
  0
LINE
  8
0
 10
161.625
 11
161.625
 20
199.375
 21
195.625
  0
LINE
  8
0
 10
161.625
 11
159.875
 20
195.625
 21
195.625
  0
LINE
  8
0
 10
161.5
 11
161.5
 20
146
 21
148
  0
LINE
  8
0
 10
161.5
 11
164.5
 20
148
 21
148
  0
LINE
  8
0
 10
164.5
 11
164.5
 20
148
 21
146
  0
LINE
  8
0
 10
164.5
 11
161.5
 20
146
 21
146
  0
LINE
  8
0
 10
161.5
 11
161.5
 20
154
 21
156
  0
LINE
  8
0
 10
161.5
 11
164.5
 20
156
 21
156
  0
LINE
  8
0
 10
164.5
 11
164.5
 20
156
 21
154
  0
LINE
  8
0
 10
164.5
 11
161.5
 20
154
 21
154
  0
LINE
  8
0
 10
164.375
 11
164.375
 20
-101.375
 21
-97.625
  0
LINE
  8
0
 10
164.375
 11
166.125
 20
-97.625
 21
-97.625
  0
LINE
  8
0
 10
166.125
 11
166.125
 20
-97.625
 21
-101.375
  0
LINE
  8
0
 10
166.125
 11
164.375
 20
-101.375
 21
-101.375
  0
LINE
  8
0
 10
164.375
 11
164.375
 20
195.625
 21
199.375
  0
LINE
  8
0
 10
164.375
 11
166.125
 20
199.375
 21
199.375
  0
LINE
  8
0
 10
166.125
 11
166.125
 20
199.375
 21
195.625
  0
LINE
  8
0
 10
166.125
 11
164.375
 20
195.625
 21
195.625
  0
LINE
  8
0
 10
166.975
 11
166.975
 20
-115.25
 21
-106.25
  0
LINE
  8
0
 10
166.975
 11
173.025
 20
-106.25
 21
-106.25
  0
LINE
  8
0
 10
173.025
 11
173.025
 20
-106.25
 21
-115.25
  0
LINE
  8
0
 10
173.025
 11
166.975
 20
-115.25
 21
-115.25
  0
LINE
  8
0
 10
166.975
 11
166.975
 20
-92.75
 21
-83.75
  0
LINE
  8
0
 10
166.975
 11
173.025
 20
-83.75
 21
-83.75
  0
LINE
  8
0
 10
173.025
 11
173.025
 20
-83.75
 21
-92.75
  0
LINE
  8
0
 10
173.025
 11
166.975
 20
-92.75
 21
-92.75
  0
LINE
  8
0
 10
166.975
 11
166.975
 20
181.75
 21
190.75
  0
LINE
  8
0
 10
166.975
 11
173.025
 20
190.75
 21
190.75
  0
LINE
  8
0
 10
173.025
 11
173.025
 20
190.75
 21
181.75
  0
LINE
  8
0
 10
173.025
 11
166.975
 20
181.75
 21
181.75
  0
LINE
  8
0
 10
166.975
 11
166.975
 20
204.25
 21
213.25
  0
LINE
  8
0
 10
166.975
 11
173.025
 20
213.25
 21
213.25
  0
LINE
  8
0
 10
173.025
 11
173.025
 20
213.25
 21
204.25
  0
LINE
  8
0
 10
173.025
 11
166.975
 20
204.25
 21
204.25
  0
LINE
  8
0
 10
171.023
 11
171.324
 20
-219
 21
-218.073
  0
LINE
  8
0
 10
171.324
 11
172.113
 20
-218.073
 21
-217.5
  0
LINE
  8
0
 10
172.113
 11
173.087
 20
-217.5
 21
-217.5
  0
LINE
  8
0
 10
173.087
 11
173.876
 20
-217.5
 21
-218.073
  0
LINE
  8
0
 10
173.876
 11
174.177
 20
-218.073
 21
-219
  0
LINE
  8
0
 10
174.177
 11
173.876
 20
-219
 21
-219.927
  0
LINE
  8
0
 10
173.876
 11
173.087
 20
-219.927
 21
-220.5
  0
LINE
  8
0
 10
173.087
 11
172.113
 20
-220.5
 21
-220.5
  0
LINE
  8
0
 10
172.113
 11
171.324
 20
-220.5
 21
-219.927
  0
LINE
  8
0
 10
171.324
 11
171.023
 20
-219.927
 21
-219
  0
LINE
  8
0
 10
171.023
 11
171.324
 20
-188
 21
-187.073
  0
LINE
  8
0
 10
171.324
 11
172.113
 20
-187.073
 21
-186.5
  0
LINE
  8
0
 10
172.113
 11
173.087
 20
-186.5
 21
-186.5
  0
LINE
  8
0
 10
173.087
 11
173.876
 20
-186.5
 21
-187.073
  0
LINE
  8
0
 10
173.876
 11
174.177
 20
-187.073
 21
-188
  0
LINE
  8
0
 10
174.177
 11
173.876
 20
-188
 21
-188.927
  0
LINE
  8
0
 10
173.876
 11
173.087
 20
-188.927
 21
-189.5
  0
LINE
  8
0
 10
173.087
 11
172.113
 20
-189.5
 21
-189.5
  0
LINE
  8
0
 10
172.113
 11
171.324
 20
-189.5
 21
-188.927
  0
LINE
  8
0
 10
171.324
 11
171.023
 20
-188.927
 21
-188
  0
LINE
  8
0
 10
173.875
 11
173.875
 20
-101.375
 21
-97.625
  0
LINE
  8
0
 10
173.875
 11
175.625
 20
-97.625
 21
-97.625
  0
LINE
  8
0
 10
175.625
 11
175.625
 20
-97.625
 21
-101.375
  0
LINE
  8
0
 10
175.625
 11
173.875
 20
-101.375
 21
-101.375
  0
LINE
  8
0
 10
173.875
 11
173.875
 20
195.625
 21
199.375
  0
LINE
  8
0
 10
173.875
 11
175.625
 20
199.375
 21
199.375
  0
LINE
  8
0
 10
175.625
 11
175.625
 20
199.375
 21
195.625
  0
LINE
  8
0
 10
175.625
 11
173.875
 20
195.625
 21
195.625
  0
LINE
  8
0
 10
176.834
 11
177.691
 20
-203.5
 21
-199.189
  0
LINE
  8
0
 10
177.691
 11
180.133
 20
-199.189
 21
-195.533
  0
LINE
  8
0
 10
180.133
 11
183.789
 20
-195.533
 21
-193.091
  0
LINE
  8
0
 10
183.789
 11
188.1
 20
-193.091
 21
-192.234
  0
LINE
  8
0
 10
188.1
 11
192.411
 20
-192.234
 21
-193.091
  0
LINE
  8
0
 10
192.411
 11
196.067
 20
-193.091
 21
-195.533
  0
LINE
  8
0
 10
196.067
 11
198.509
 20
-195.533
 21
-199.189
  0
LINE
  8
0
 10
198.509
 11
199.366
 20
-199.189
 21
-203.5
  0
LINE
  8
0
 10
199.366
 11
198.509
 20
-203.5
 21
-207.811
  0
LINE
  8
0
 10
198.509
 11
196.067
 20
-207.811
 21
-211.467
  0
LINE
  8
0
 10
196.067
 11
192.411
 20
-211.467
 21
-213.909
  0
LINE
  8
0
 10
192.411
 11
188.1
 20
-213.909
 21
-214.766
  0
LINE
  8
0
 10
188.1
 11
183.789
 20
-214.766
 21
-213.909
  0
LINE
  8
0
 10
183.789
 11
180.133
 20
-213.909
 21
-211.467
  0
LINE
  8
0
 10
180.133
 11
177.691
 20
-211.467
 21
-207.811
  0
LINE
  8
0
 10
177.691
 11
176.834
 20
-207.811
 21
-203.5
  0
LINE
  8
0
 10
201.022
 11
201.332
 20
-203.5
 21
-201.939
  0
LINE
  8
0
 10
201.332
 11
202.216
 20
-201.939
 21
-200.616
  0
LINE
  8
0
 10
202.216
 11
203.539
 20
-200.616
 21
-199.732
  0
LINE
  8
0
 10
203.539
 11
205.1
 20
-199.732
 21
-199.422
  0
LINE
  8
0
 10
205.1
 11
206.661
 20
-199.422
 21
-199.732
  0
LINE
  8
0
 10
206.661
 11
207.984
 20
-199.732
 21
-200.616
  0
LINE
  8
0
 10
207.984
 11
208.868
 20
-200.616
 21
-201.939
  0
LINE
  8
0
 10
208.868
 11
209.178
 20
-201.939
 21
-203.5
  0
LINE
  8
0
 10
209.178
 11
208.868
 20
-203.5
 21
-205.061
  0
LINE
  8
0
 10
208.868
 11
207.984
 20
-205.061
 21
-206.384
  0
LINE
  8
0
 10
207.984
 11
206.661
 20
-206.384
 21
-207.268
  0
LINE
  8
0
 10
206.661
 11
205.1
 20
-207.268
 21
-207.578
  0
LINE
  8
0
 10
205.1
 11
203.539
 20
-207.578
 21
-207.268
  0
LINE
  8
0
 10
203.539
 11
202.216
 20
-207.268
 21
-206.384
  0
LINE
  8
0
 10
202.216
 11
201.332
 20
-206.384
 21
-205.061
  0
LINE
  8
0
 10
201.332
 11
201.022
 20
-205.061
 21
-203.5
  0
LINE
  8
0
 10
202.023
 11
202.324
 20
-219
 21
-218.073
  0
LINE
  8
0
 10
202.324
 11
203.113
 20
-218.073
 21
-217.5
  0
LINE
  8
0
 10
203.113
 11
204.087
 20
-217.5
 21
-217.5
  0
LINE
  8
0
 10
204.087
 11
204.876
 20
-217.5
 21
-218.073
  0
LINE
  8
0
 10
204.876
 11
205.177
 20
-218.073
 21
-219
  0
LINE
  8
0
 10
205.177
 11
204.876
 20
-219
 21
-219.927
  0
LINE
  8
0
 10
204.876
 11
204.087
 20
-219.927
 21
-220.5
  0
LINE
  8
0
 10
204.087
 11
203.113
 20
-220.5
 21
-220.5
  0
LINE
  8
0
 10
203.113
 11
202.324
 20
-220.5
 21
-219.927
  0
LINE
  8
0
 10
202.324
 11
202.023
 20
-219.927
 21
-219
  0
LINE
  8
0
 10
202.023
 11
202.324
 20
-188
 21
-187.073
  0
LINE
  8
0
 10
202.324
 11
203.113
 20
-187.073
 21
-186.5
  0
LINE
  8
0
 10
203.113
 11
204.087
 20
-186.5
 21
-186.5
  0
LINE
  8
0
 10
204.087
 11
204.876
 20
-186.5
 21
-187.073
  0
LINE
  8
0
 10
204.876
 11
205.177
 20
-187.073
 21
-188
  0
LINE
  8
0
 10
205.177
 11
204.876
 20
-188
 21
-188.927
  0
LINE
  8
0
 10
204.876
 11
204.087
 20
-188.927
 21
-189.5
  0
LINE
  8
0
 10
204.087
 11
203.113
 20
-189.5
 21
-189.5
  0
LINE
  8
0
 10
203.113
 11
202.324
 20
-189.5
 21
-188.927
  0
LINE
  8
0
 10
202.324
 11
202.023
 20
-188.927
 21
-188
  0
LINE
  8
0
 10
212.575
 11
212.575
 20
-217.75
 21
-208.75
  0
LINE
  8
0
 10
212.575
 11
218.625
 20
-208.75
 21
-208.75
  0
LINE
  8
0
 10
218.625
 11
218.625
 20
-208.75
 21
-217.75
  0
LINE
  8
0
 10
218.625
 11
212.575
 20
-217.75
 21
-217.75
  0
LINE
  8
0
 10
212.575
 11
212.575
 20
-195.25
 21
-186.25
  0
LINE
  8
0
 10
212.575
 11
218.625
 20
-186.25
 21
-186.25
  0
LINE
  8
0
 10
218.625
 11
218.625
 20
-186.25
 21
-195.25
  0
LINE
  8
0
 10
218.625
 11
212.575
 20
-195.25
 21
-195.25
  0
LINE
  8
0
 10
214.1
 11
214.539
 20
-202
 21
-200.939
  0
LINE
  8
0
 10
214.539
 11
215.6
 20
-200.939
 21
-200.5
  0
LINE
  8
0
 10
215.6
 11
216.661
 20
-200.5
 21
-200.939
  0
LINE
  8
0
 10
216.661
 11
217.1
 20
-200.939
 21
-202
  0
LINE
  8
0
 10
217.1
 11
216.661
 20
-202
 21
-203.061
  0
LINE
  8
0
 10
216.661
 11
215.6
 20
-203.061
 21
-203.5
  0
LINE
  8
0
 10
215.6
 11
214.539
 20
-203.5
 21
-203.061
  0
LINE
  8
0
 10
214.539
 11
214.1
 20
-203.061
 21
-202
  0
LINE
  8
0
 10
231.5
 11
231.5
 20
106
 21
108
  0
LINE
  8
0
 10
231.5
 11
234.5
 20
108
 21
108
  0
LINE
  8
0
 10
234.5
 11
234.5
 20
108
 21
106
  0
LINE
  8
0
 10
234.5
 11
231.5
 20
106
 21
106
  0
LINE
  8
0
 10
231.5
 11
231.5
 20
114
 21
116
  0
LINE
  8
0
 10
231.5
 11
234.5
 20
116
 21
116
  0
LINE
  8
0
 10
234.5
 11
234.5
 20
116
 21
114
  0
LINE
  8
0
 10
234.5
 11
231.5
 20
114
 21
114
  0
LINE
  8
0
 10
231.5
 11
231.5
 20
146
 21
148
  0
LINE
  8
0
 10
231.5
 11
234.5
 20
148
 21
148
  0
LINE
  8
0
 10
234.5
 11
234.5
 20
148
 21
146
  0
LINE
  8
0
 10
234.5
 11
231.5
 20
146
 21
146
  0
LINE
  8
0
 10
231.5
 11
231.5
 20
154
 21
156
  0
LINE
  8
0
 10
231.5
 11
234.5
 20
156
 21
156
  0
LINE
  8
0
 10
234.5
 11
234.5
 20
156
 21
154
  0
LINE
  8
0
 10
234.5
 11
231.5
 20
154
 21
154
  0
LINE
  8
0
 10
232.975
 11
232.975
 20
-217.75
 21
-208.75
  0
LINE
  8
0
 10
232.975
 11
239.025
 20
-208.75
 21
-208.75
  0
LINE
  8
0
 10
239.025
 11
239.025
 20
-208.75
 21
-217.75
  0
LINE
  8
0
 10
239.025
 11
232.975
 20
-217.75
 21
-217.75
  0
LINE
  8
0
 10
232.975
 11
232.975
 20
-195.25
 21
-186.25
  0
LINE
  8
0
 10
232.975
 11
239.025
 20
-186.25
 21
-186.25
  0
LINE
  8
0
 10
239.025
 11
239.025
 20
-186.25
 21
-195.25
  0
LINE
  8
0
 10
239.025
 11
232.975
 20
-195.25
 21
-195.25
  0
LINE
  8
0
 10
234.5
 11
234.939
 20
-202
 21
-200.939
  0
LINE
  8
0
 10
234.939
 11
236
 20
-200.939
 21
-200.5
  0
LINE
  8
0
 10
236
 11
237.061
 20
-200.5
 21
-200.939
  0
LINE
  8
0
 10
237.061
 11
237.5
 20
-200.939
 21
-202
  0
LINE
  8
0
 10
237.5
 11
237.061
 20
-202
 21
-203.061
  0
LINE
  8
0
 10
237.061
 11
236
 20
-203.061
 21
-203.5
  0
LINE
  8
0
 10
236
 11
234.939
 20
-203.5
 21
-203.061
  0
LINE
  8
0
 10
234.939
 11
234.5
 20
-203.061
 21
-202
  0
LINE
  8
0
 10
227
 11
227
 20
-225
 21
-179
  0
LINE
  8
0
 10
227
 11
247.75
 20
-179
 21
-179
  0
LINE
  8
0
 10
247.75
 11
247.75
 20
-179
 21
-172.975
  0
LINE
  8
0
 10
247.75
 11
256.75
 20
-172.975
 21
-172.975
  0
LINE
  8
0
 10
256.75
 11
256.75
 20
-172.975
 21
-179
  0
LINE
  8
0
 10
256.75
 11
262
 20
-179
 21
-179
  0
LINE
  8
0
 10
262
 11
262
 20
-179
 21
-182.9
  0
LINE
  8
0
 10
262
 11
260.75
 20
-182.9
 21
-182.9
  0
LINE
  8
0
 10
260.75
 11
260.75
 20
-182.9
 21
-185.4
  0
LINE
  8
0
 10
260.75
 11
262
 20
-185.4
 21
-185.4
  0
LINE
  8
0
 10
262
 11
262
 20
-185.4
 21
-186.85
  0
LINE
  8
0
 10
262
 11
265
 20
-186.85
 21
-186.85
  0
LINE
  8
0
 10
265
 11
265
 20
-186.85
 21
-185.4
  0
LINE
  8
0
 10
265
 11
266.25
 20
-185.4
 21
-185.4
  0
LINE
  8
0
 10
266.25
 11
266.25
 20
-185.4
 21
-182.9
  0
LINE
  8
0
 10
266.25
 11
265
 20
-182.9
 21
-182.9
  0
LINE
  8
0
 10
265
 11
265
 20
-182.9
 21
-179
  0
LINE
  8
0
 10
265
 11
270.25
 20
-179
 21
-179
  0
LINE
  8
0
 10
270.25
 11
270.25
 20
-179
 21
-172.975
  0
LINE
  8
0
 10
270.25
 11
279.25
 20
-172.975
 21
-172.975
  0
LINE
  8
0
 10
279.25
 11
279.25
 20
-172.975
 21
-179
  0
LINE
  8
0
 10
279.25
 11
300
 20
-179
 21
-179
  0
LINE
  8
0
 10
300
 11
300
 20
-179
 21
-225
  0
LINE
  8
0
 10
300
 11
227
 20
-225
 21
-225
  0
LINE
  8
0
 10
242.422
 11
242.732
 20
-203.5
 21
-201.939
  0
LINE
  8
0
 10
242.732
 11
243.616
 20
-201.939
 21
-200.616
  0
LINE
  8
0
 10
243.616
 11
244.939
 20
-200.616
 21
-199.732
  0
LINE
  8
0
 10
244.939
 11
246.5
 20
-199.732
 21
-199.422
  0
LINE
  8
0
 10
246.5
 11
248.061
 20
-199.422
 21
-199.732
  0
LINE
  8
0
 10
248.061
 11
249.384
 20
-199.732
 21
-200.616
  0
LINE
  8
0
 10
249.384
 11
250.268
 20
-200.616
 21
-201.939
  0
LINE
  8
0
 10
250.268
 11
250.578
 20
-201.939
 21
-203.5
  0
LINE
  8
0
 10
250.578
 11
250.268
 20
-203.5
 21
-205.061
  0
LINE
  8
0
 10
250.268
 11
249.384
 20
-205.061
 21
-206.384
  0
LINE
  8
0
 10
249.384
 11
248.061
 20
-206.384
 21
-207.268
  0
LINE
  8
0
 10
248.061
 11
246.5
 20
-207.268
 21
-207.578
  0
LINE
  8
0
 10
246.5
 11
244.939
 20
-207.578
 21
-207.268
  0
LINE
  8
0
 10
244.939
 11
243.616
 20
-207.268
 21
-206.384
  0
LINE
  8
0
 10
243.616
 11
242.732
 20
-206.384
 21
-205.061
  0
LINE
  8
0
 10
242.732
 11
242.422
 20
-205.061
 21
-203.5
  0
LINE
  8
0
 10
246.423
 11
246.724
 20
-219
 21
-218.073
  0
LINE
  8
0
 10
246.724
 11
247.513
 20
-218.073
 21
-217.5
  0
LINE
  8
0
 10
247.513
 11
248.487
 20
-217.5
 21
-217.5
  0
LINE
  8
0
 10
248.487
 11
249.276
 20
-217.5
 21
-218.073
  0
LINE
  8
0
 10
249.276
 11
249.577
 20
-218.073
 21
-219
  0
LINE
  8
0
 10
249.577
 11
249.276
 20
-219
 21
-219.927
  0
LINE
  8
0
 10
249.276
 11
248.487
 20
-219.927
 21
-220.5
  0
LINE
  8
0
 10
248.487
 11
247.513
 20
-220.5
 21
-220.5
  0
LINE
  8
0
 10
247.513
 11
246.724
 20
-220.5
 21
-219.927
  0
LINE
  8
0
 10
246.724
 11
246.423
 20
-219.927
 21
-219
  0
LINE
  8
0
 10
246.423
 11
246.724
 20
-188
 21
-187.073
  0
LINE
  8
0
 10
246.724
 11
247.513
 20
-187.073
 21
-186.5
  0
LINE
  8
0
 10
247.513
 11
248.487
 20
-186.5
 21
-186.5
  0
LINE
  8
0
 10
248.487
 11
249.276
 20
-186.5
 21
-187.073
  0
LINE
  8
0
 10
249.276
 11
249.577
 20
-187.073
 21
-188
  0
LINE
  8
0
 10
249.577
 11
249.276
 20
-188
 21
-188.927
  0
LINE
  8
0
 10
249.276
 11
248.487
 20
-188.927
 21
-189.5
  0
LINE
  8
0
 10
248.487
 11
247.513
 20
-189.5
 21
-189.5
  0
LINE
  8
0
 10
247.513
 11
246.724
 20
-189.5
 21
-188.927
  0
LINE
  8
0
 10
246.724
 11
246.423
 20
-188.927
 21
-188
  0
LINE
  8
0
 10
250.97
 11
252.239
 20
-82.3
 21
-79.239
  0
LINE
  8
0
 10
252.239
 11
255.3
 20
-79.239
 21
-77.97
  0
LINE
  8
0
 10
255.3
 11
258.361
 20
-77.97
 21
-79.239
  0
LINE
  8
0
 10
258.361
 11
259.63
 20
-79.239
 21
-82.3
  0
LINE
  8
0
 10
259.63
 11
258.361
 20
-82.3
 21
-85.361
  0
LINE
  8
0
 10
258.361
 11
255.3
 20
-85.361
 21
-86.63
  0
LINE
  8
0
 10
255.3
 11
252.239
 20
-86.63
 21
-85.361
  0
LINE
  8
0
 10
252.239
 11
250.97
 20
-85.361
 21
-82.3
  0
LINE
  8
0
 10
250.97
 11
252.239
 20
180.3
 21
183.361
  0
LINE
  8
0
 10
252.239
 11
255.3
 20
183.361
 21
184.63
  0
LINE
  8
0
 10
255.3
 11
258.361
 20
184.63
 21
183.361
  0
LINE
  8
0
 10
258.361
 11
259.63
 20
183.361
 21
180.3
  0
LINE
  8
0
 10
259.63
 11
258.361
 20
180.3
 21
177.239
  0
LINE
  8
0
 10
258.361
 11
255.3
 20
177.239
 21
175.97
  0
LINE
  8
0
 10
255.3
 11
252.239
 20
175.97
 21
177.239
  0
LINE
  8
0
 10
252.239
 11
250.97
 20
177.239
 21
180.3
  0
LINE
  8
0
 10
252.234
 11
253.091
 20
-203.5
 21
-199.189
  0
LINE
  8
0
 10
253.091
 11
255.533
 20
-199.189
 21
-195.533
  0
LINE
  8
0
 10
255.533
 11
259.189
 20
-195.533
 21
-193.091
  0
LINE
  8
0
 10
259.189
 11
263.5
 20
-193.091
 21
-192.234
  0
LINE
  8
0
 10
263.5
 11
267.811
 20
-192.234
 21
-193.091
  0
LINE
  8
0
 10
267.811
 11
271.467
 20
-193.091
 21
-195.533
  0
LINE
  8
0
 10
271.467
 11
273.909
 20
-195.533
 21
-199.189
  0
LINE
  8
0
 10
273.909
 11
274.766
 20
-199.189
 21
-203.5
  0
LINE
  8
0
 10
274.766
 11
273.909
 20
-203.5
 21
-207.811
  0
LINE
  8
0
 10
273.909
 11
271.467
 20
-207.811
 21
-211.467
  0
LINE
  8
0
 10
271.467
 11
267.811
 20
-211.467
 21
-213.909
  0
LINE
  8
0
 10
267.811
 11
263.5
 20
-213.909
 21
-214.766
  0
LINE
  8
0
 10
263.5
 11
259.189
 20
-214.766
 21
-213.909
  0
LINE
  8
0
 10
259.189
 11
255.533
 20
-213.909
 21
-211.467
  0
LINE
  8
0
 10
255.533
 11
253.091
 20
-211.467
 21
-207.811
  0
LINE
  8
0
 10
253.091
 11
252.234
 20
-207.811
 21
-203.5
  0
LINE
  8
0
 10
255.375
 11
255.375
 20
-117.375
 21
-115.625
  0
LINE
  8
0
 10
255.375
 11
259.125
 20
-115.625
 21
-115.625
  0
LINE
  8
0
 10
259.125
 11
259.125
 20
-115.625
 21
-117.375
  0
LINE
  8
0
 10
259.125
 11
255.375
 20
-117.375
 21
-117.375
  0
LINE
  8
0
 10
255.375
 11
255.375
 20
213.625
 21
215.375
  0
LINE
  8
0
 10
255.375
 11
259.125
 20
215.375
 21
215.375
  0
LINE
  8
0
 10
259.125
 11
259.125
 20
215.375
 21
213.625
  0
LINE
  8
0
 10
259.125
 11
255.375
 20
213.625
 21
213.625
  0
LINE
  8
0
 10
277.423
 11
277.724
 20
-219
 21
-218.073
  0
LINE
  8
0
 10
277.724
 11
278.513
 20
-218.073
 21
-217.5
  0
LINE
  8
0
 10
278.513
 11
279.487
 20
-217.5
 21
-217.5
  0
LINE
  8
0
 10
279.487
 11
280.276
 20
-217.5
 21
-218.073
  0
LINE
  8
0
 10
280.276
 11
280.577
 20
-218.073
 21
-219
  0
LINE
  8
0
 10
280.577
 11
280.276
 20
-219
 21
-219.927
  0
LINE
  8
0
 10
280.276
 11
279.487
 20
-219.927
 21
-220.5
  0
LINE
  8
0
 10
279.487
 11
278.513
 20
-220.5
 21
-220.5
  0
LINE
  8
0
 10
278.513
 11
277.724
 20
-220.5
 21
-219.927
  0
LINE
  8
0
 10
277.724
 11
277.423
 20
-219.927
 21
-219
  0
LINE
  8
0
 10
277.423
 11
277.724
 20
-188
 21
-187.073
  0
LINE
  8
0
 10
277.724
 11
278.513
 20
-187.073
 21
-186.5
  0
LINE
  8
0
 10
278.513
 11
279.487
 20
-186.5
 21
-186.5
  0
LINE
  8
0
 10
279.487
 11
280.276
 20
-186.5
 21
-187.073
  0
LINE
  8
0
 10
280.276
 11
280.577
 20
-187.073
 21
-188
  0
LINE
  8
0
 10
280.577
 11
280.276
 20
-188
 21
-188.927
  0
LINE
  8
0
 10
280.276
 11
279.487
 20
-188.927
 21
-189.5
  0
LINE
  8
0
 10
279.487
 11
278.513
 20
-189.5
 21
-189.5
  0
LINE
  8
0
 10
278.513
 11
277.724
 20
-189.5
 21
-188.927
  0
LINE
  8
0
 10
277.724
 11
277.423
 20
-188.927
 21
-188
  0
LINE
  8
0
 10
287.975
 11
287.975
 20
-217.75
 21
-208.75
  0
LINE
  8
0
 10
287.975
 11
294.025
 20
-208.75
 21
-208.75
  0
LINE
  8
0
 10
294.025
 11
294.025
 20
-208.75
 21
-217.75
  0
LINE
  8
0
 10
294.025
 11
287.975
 20
-217.75
 21
-217.75
  0
LINE
  8
0
 10
287.975
 11
287.975
 20
-195.25
 21
-186.25
  0
LINE
  8
0
 10
287.975
 11
294.025
 20
-186.25
 21
-186.25
  0
LINE
  8
0
 10
294.025
 11
294.025
 20
-186.25
 21
-195.25
  0
LINE
  8
0
 10
294.025
 11
287.975
 20
-195.25
 21
-195.25
  0
LINE
  8
0
 10
288.625
 11
288.625
 20
-86.125
 21
-82.375
  0
LINE
  8
0
 10
288.625
 11
290.375
 20
-82.375
 21
-82.375
  0
LINE
  8
0
 10
290.375
 11
290.375
 20
-82.375
 21
-86.125
  0
LINE
  8
0
 10
290.375
 11
288.625
 20
-86.125
 21
-86.125
  0
LINE
  8
0
 10
288.625
 11
288.625
 20
47.125
 21
50.875
  0
LINE
  8
0
 10
288.625
 11
290.375
 20
50.875
 21
50.875
  0
LINE
  8
0
 10
290.375
 11
290.375
 20
50.875
 21
47.125
  0
LINE
  8
0
 10
290.375
 11
288.625
 20
47.125
 21
47.125
  0
LINE
  8
0
 10
288.625
 11
288.625
 20
180.375
 21
184.125
  0
LINE
  8
0
 10
288.625
 11
290.375
 20
184.125
 21
184.125
  0
LINE
  8
0
 10
290.375
 11
290.375
 20
184.125
 21
180.375
  0
LINE
  8
0
 10
290.375
 11
288.625
 20
180.375
 21
180.375
  0
LINE
  8
0
 10
289.5
 11
289.939
 20
-202
 21
-200.939
  0
LINE
  8
0
 10
289.939
 11
291
 20
-200.939
 21
-200.5
  0
LINE
  8
0
 10
291
 11
292.061
 20
-200.5
 21
-200.939
  0
LINE
  8
0
 10
292.061
 11
292.5
 20
-200.939
 21
-202
  0
LINE
  8
0
 10
292.5
 11
292.061
 20
-202
 21
-203.061
  0
LINE
  8
0
 10
292.061
 11
291
 20
-203.061
 21
-203.5
  0
LINE
  8
0
 10
291
 11
289.939
 20
-203.5
 21
-203.061
  0
LINE
  8
0
 10
289.939
 11
289.5
 20
-203.061
 21
-202
  0
ENDSEC
  0
SECTION
  2
OBJECTS
  0
DICTIONARY
  0
ENDSEC
  0
EOF
